%TF.GenerationSoftware,KiCad,Pcbnew,(5.99.0-3293-g62433736b)*%
%TF.CreationDate,2020-09-21T11:29:42+07:00*%
%TF.ProjectId,IMU_board,494d555f-626f-4617-9264-2e6b69636164,rev?*%
%TF.SameCoordinates,Original*%
%TF.FileFunction,Copper,L3,Inr*%
%TF.FilePolarity,Positive*%
%FSLAX46Y46*%
G04 Gerber Fmt 4.6, Leading zero omitted, Abs format (unit mm)*
G04 Created by KiCad (PCBNEW (5.99.0-3293-g62433736b)) date 2020-09-21 11:29:42*
%MOMM*%
%LPD*%
G01*
G04 APERTURE LIST*
%TA.AperFunction,ComponentPad*%
%ADD10R,1.700000X1.700000*%
%TD*%
%TA.AperFunction,ComponentPad*%
%ADD11O,1.700000X1.700000*%
%TD*%
%TA.AperFunction,ViaPad*%
%ADD12C,0.800000*%
%TD*%
%TA.AperFunction,ViaPad*%
%ADD13C,3.300000*%
%TD*%
%TA.AperFunction,Conductor*%
%ADD14C,0.152400*%
%TD*%
%TA.AperFunction,Conductor*%
%ADD15C,0.500000*%
%TD*%
%TA.AperFunction,Conductor*%
%ADD16C,0.250000*%
%TD*%
%TA.AperFunction,Conductor*%
%ADD17C,1.000000*%
%TD*%
G04 APERTURE END LIST*
D10*
%TO.N,LSM6D3_CS*%
%TO.C,J1*%
X125050000Y-86960000D03*
D11*
%TO.N,ICM20948_CS_3.3v*%
X125050000Y-89500000D03*
%TO.N,ICM20948_DRDY_3.3v*%
X125050000Y-92040000D03*
%TO.N,IMU_MISO_3.3v*%
X125050000Y-94580000D03*
%TO.N,MPU9250_CS*%
X125050000Y-97120000D03*
%TO.N,Net-(J1-Pad6)*%
X125050000Y-99660000D03*
%TO.N,IMU_MOSI_3.3v*%
X125050000Y-102200000D03*
%TO.N,IMU_CLK_3.3v*%
X125050000Y-104740000D03*
%TO.N,GND*%
X125050000Y-107280000D03*
%TO.N,+5V*%
X125050000Y-109820000D03*
%TD*%
D12*
%TO.N,GND*%
X150425000Y-105225000D03*
D13*
%TO.N,*%
X149250000Y-87750000D03*
X149250000Y-109000000D03*
D12*
%TO.N,MPU9250_CS*%
X140750000Y-96212500D03*
%TO.N,IMU_MOSI_3.3v*%
X139150000Y-102637500D03*
X146762500Y-97037500D03*
%TO.N,IMU_MOSI*%
X135325000Y-100050000D03*
X137025000Y-100050000D03*
%TO.N,IMU_MISO_3.3v*%
X145275000Y-96825000D03*
X138875000Y-97087500D03*
%TO.N,IMU_MISO*%
X135142500Y-96307500D03*
X137450000Y-96125000D03*
%TO.N,IMU_CLK_3.3v*%
X139162170Y-95487830D03*
X137611299Y-105138701D03*
X147875000Y-96725000D03*
%TO.N,ICM20948_DRDY*%
X140350000Y-94525000D03*
X135295000Y-92150000D03*
%TO.N,GND*%
X138100000Y-89512500D03*
X144500000Y-108775000D03*
X138325000Y-108775000D03*
X143162500Y-92962500D03*
X134950000Y-110650000D03*
X138600000Y-98725000D03*
X128800000Y-110475000D03*
X148900000Y-94550000D03*
X150100000Y-98125000D03*
X141925000Y-95962500D03*
X146400000Y-93225000D03*
X142475000Y-102612500D03*
X146662500Y-102862500D03*
%TO.N,+3V3*%
X129528799Y-104273799D03*
X129025000Y-89955000D03*
X150400000Y-103625000D03*
X149950000Y-96875000D03*
X146825000Y-104600000D03*
X129120000Y-93900000D03*
X140200000Y-104462500D03*
X129387889Y-100012111D03*
X144900000Y-100975000D03*
X138250000Y-110500000D03*
X129250000Y-96300000D03*
X146556250Y-101631250D03*
%TO.N,+1V8*%
X135225000Y-90030000D03*
X135378799Y-105998799D03*
X144550000Y-90687500D03*
X138050000Y-91237500D03*
X135345000Y-94000000D03*
X135312889Y-101837111D03*
X135227500Y-98032500D03*
%TO.N,LSM6D3_CS*%
X148187500Y-95362500D03*
%TD*%
D14*
%TO.N,IMU_CLK_3.3v*%
X137701201Y-98598021D02*
X137700000Y-98596820D01*
X137700000Y-98596820D02*
X137700000Y-96950000D01*
X137701201Y-99725423D02*
X137701201Y-105048799D01*
X139162170Y-95487830D02*
X137700000Y-96950000D01*
X137701201Y-105048799D02*
X137611299Y-105138701D01*
X137701201Y-99725423D02*
X137701201Y-98598021D01*
%TO.N,ICM20948_DRDY*%
X137670000Y-94525000D02*
X135295000Y-92150000D01*
X140350000Y-94525000D02*
X137670000Y-94525000D01*
D15*
%TO.N,+1V8*%
X135227500Y-98032500D02*
X134307500Y-98032500D01*
X134377111Y-101837111D02*
X134195000Y-101655000D01*
X135225000Y-90030000D02*
X134195000Y-91060000D01*
X134200000Y-94000000D02*
X134195000Y-93995000D01*
X134195000Y-101655000D02*
X134195000Y-105070000D01*
D16*
X135250000Y-90005000D02*
X135225000Y-90030000D01*
D15*
X134307500Y-98032500D02*
X134195000Y-97920000D01*
X135312889Y-101837111D02*
X134377111Y-101837111D01*
D17*
X138450010Y-91637510D02*
X143599990Y-91637510D01*
D15*
X134195000Y-91060000D02*
X134195000Y-91180000D01*
X134195000Y-91180000D02*
X134195000Y-93995000D01*
D17*
X143599990Y-91637510D02*
X144550000Y-90687500D01*
D15*
X134195000Y-105070000D02*
X135123799Y-105998799D01*
X134195000Y-93995000D02*
X134195000Y-97920000D01*
X135345000Y-94000000D02*
X134200000Y-94000000D01*
X134195000Y-97920000D02*
X134195000Y-101655000D01*
D17*
X138050000Y-91237500D02*
X137700000Y-91237500D01*
D15*
X138050000Y-91237500D02*
X136432500Y-91237500D01*
D17*
X138050000Y-91237500D02*
X138450010Y-91637510D01*
D15*
X135123799Y-105998799D02*
X135378799Y-105998799D01*
D16*
X135537889Y-101712111D02*
X135562889Y-101737111D01*
D15*
X136432500Y-91237500D02*
X135225000Y-90030000D01*
%TD*%
%TA.AperFunction,Conductor*%
%TO.N,+3V3*%
G36*
X124105623Y-85720502D02*
G01*
X124152116Y-85774158D01*
X124162220Y-85844432D01*
X124107505Y-85931265D01*
X124055807Y-85965809D01*
X124011603Y-86031964D01*
X123996082Y-86109998D01*
X123996082Y-87810002D01*
X124011603Y-87888036D01*
X124055808Y-87954192D01*
X124121964Y-87998397D01*
X124199998Y-88013918D01*
X125900002Y-88013918D01*
X125978036Y-87998397D01*
X126044192Y-87954192D01*
X126088397Y-87888036D01*
X126103918Y-87810002D01*
X126103918Y-86109998D01*
X126088397Y-86031964D01*
X126044193Y-85965809D01*
X125992495Y-85931265D01*
X125946968Y-85876787D01*
X125938121Y-85806344D01*
X125968762Y-85742300D01*
X126062498Y-85700500D01*
X148792322Y-85700500D01*
X148860443Y-85720502D01*
X148906936Y-85774158D01*
X148917040Y-85844432D01*
X148887546Y-85909012D01*
X148818519Y-85949747D01*
X148703679Y-85974157D01*
X148397839Y-86098968D01*
X148380455Y-86110000D01*
X148118933Y-86275966D01*
X147875782Y-86499555D01*
X147749601Y-86665793D01*
X147676065Y-86762673D01*
X147526100Y-87056997D01*
X147430625Y-87373225D01*
X147392658Y-87701364D01*
X147413399Y-88031039D01*
X147452333Y-88189550D01*
X147492192Y-88351831D01*
X147626550Y-88653602D01*
X147649281Y-88687049D01*
X147801946Y-88911688D01*
X147812222Y-88926809D01*
X148043340Y-89162819D01*
X148312598Y-89354171D01*
X148611485Y-89494816D01*
X148611487Y-89494817D01*
X148611488Y-89494817D01*
X148930559Y-89580312D01*
X149095143Y-89594133D01*
X149259726Y-89607954D01*
X149259728Y-89607954D01*
X149369349Y-89597592D01*
X149588594Y-89576867D01*
X149843117Y-89505801D01*
X149906749Y-89488035D01*
X150094978Y-89397042D01*
X150204148Y-89344268D01*
X150471389Y-89150105D01*
X150700024Y-88911687D01*
X150882823Y-88636553D01*
X150945331Y-88492105D01*
X151014013Y-88333391D01*
X151089443Y-88011792D01*
X151100623Y-87584836D01*
X151042127Y-87259729D01*
X150926985Y-86950119D01*
X150758834Y-86665793D01*
X150542991Y-86415736D01*
X150286279Y-86207855D01*
X150108282Y-86110000D01*
X149996815Y-86048720D01*
X149996814Y-86048720D01*
X149996811Y-86048718D01*
X149691350Y-85945919D01*
X149633167Y-85905234D01*
X149606217Y-85839551D01*
X149619055Y-85769725D01*
X149667606Y-85717925D01*
X149731539Y-85700500D01*
X151549501Y-85700500D01*
X151549500Y-111549500D01*
X123450500Y-111549500D01*
X123450500Y-109908289D01*
X123998620Y-109908289D01*
X124035791Y-110110817D01*
X124111596Y-110302279D01*
X124223139Y-110475359D01*
X124366182Y-110623484D01*
X124535269Y-110741003D01*
X124723962Y-110823441D01*
X124925077Y-110867659D01*
X125130943Y-110871970D01*
X125130945Y-110871970D01*
X125210436Y-110857954D01*
X125333731Y-110836215D01*
X125525715Y-110761748D01*
X125699570Y-110651415D01*
X125699572Y-110651414D01*
X125848690Y-110509411D01*
X125940057Y-110379890D01*
X128199500Y-110379890D01*
X128199500Y-110570110D01*
X128258281Y-110751019D01*
X128370090Y-110904910D01*
X128523981Y-111016719D01*
X128704890Y-111075500D01*
X128895110Y-111075500D01*
X129076019Y-111016719D01*
X129229910Y-110904910D01*
X129341719Y-110751019D01*
X129400500Y-110570110D01*
X129400500Y-110554890D01*
X134349500Y-110554890D01*
X134349500Y-110745110D01*
X134408281Y-110926019D01*
X134520090Y-111079910D01*
X134673981Y-111191719D01*
X134854890Y-111250500D01*
X135045110Y-111250500D01*
X135226019Y-111191719D01*
X135379910Y-111079910D01*
X135491719Y-110926019D01*
X135550500Y-110745110D01*
X135550500Y-110554890D01*
X135491719Y-110373981D01*
X135379910Y-110220090D01*
X135226019Y-110108281D01*
X135045110Y-110049500D01*
X134854890Y-110049500D01*
X134673981Y-110108281D01*
X134520090Y-110220090D01*
X134408281Y-110373981D01*
X134349500Y-110554890D01*
X129400500Y-110554890D01*
X129400500Y-110379890D01*
X129341719Y-110198981D01*
X129229910Y-110045090D01*
X129076019Y-109933281D01*
X128895110Y-109874500D01*
X128704890Y-109874500D01*
X128523981Y-109933281D01*
X128370090Y-110045090D01*
X128258281Y-110198981D01*
X128199500Y-110379890D01*
X125940057Y-110379890D01*
X125967387Y-110341148D01*
X126051140Y-110153035D01*
X126096760Y-109952237D01*
X126100045Y-109717042D01*
X126077233Y-109601831D01*
X126060050Y-109515050D01*
X125981579Y-109324668D01*
X125867629Y-109153160D01*
X125722535Y-109007049D01*
X125722533Y-109007047D01*
X125551822Y-108891900D01*
X125361996Y-108812105D01*
X125361995Y-108812105D01*
X125361993Y-108812104D01*
X125160289Y-108770700D01*
X125005853Y-108769621D01*
X124954375Y-108769262D01*
X124954374Y-108769262D01*
X124752106Y-108807847D01*
X124685307Y-108834836D01*
X124561186Y-108884984D01*
X124388883Y-108997736D01*
X124241762Y-109141808D01*
X124125426Y-109311711D01*
X124044308Y-109500976D01*
X124001495Y-109702391D01*
X123998924Y-109886553D01*
X123998620Y-109908289D01*
X123450500Y-109908289D01*
X123450500Y-108679890D01*
X137724500Y-108679890D01*
X137724500Y-108870110D01*
X137783281Y-109051019D01*
X137895090Y-109204910D01*
X138048981Y-109316719D01*
X138229890Y-109375500D01*
X138420110Y-109375500D01*
X138601019Y-109316719D01*
X138754910Y-109204910D01*
X138866719Y-109051019D01*
X138925500Y-108870110D01*
X138925500Y-108679890D01*
X143899500Y-108679890D01*
X143899500Y-108870110D01*
X143958281Y-109051019D01*
X144070090Y-109204910D01*
X144223981Y-109316719D01*
X144404890Y-109375500D01*
X144595110Y-109375500D01*
X144776019Y-109316719D01*
X144929910Y-109204910D01*
X145041719Y-109051019D01*
X145074098Y-108951364D01*
X147392658Y-108951364D01*
X147413399Y-109281039D01*
X147424116Y-109324670D01*
X147492192Y-109601831D01*
X147626550Y-109903602D01*
X147722706Y-110045090D01*
X147801946Y-110161688D01*
X147812222Y-110176809D01*
X148043340Y-110412819D01*
X148312598Y-110604171D01*
X148611485Y-110744816D01*
X148611487Y-110744817D01*
X148611488Y-110744817D01*
X148930559Y-110830312D01*
X149095144Y-110844133D01*
X149259726Y-110857954D01*
X149259728Y-110857954D01*
X149369349Y-110847592D01*
X149588594Y-110826867D01*
X149843117Y-110755801D01*
X149906749Y-110738035D01*
X150085934Y-110651414D01*
X150204148Y-110594268D01*
X150471389Y-110400105D01*
X150700024Y-110161687D01*
X150882823Y-109886553D01*
X150962517Y-109702391D01*
X151014013Y-109583391D01*
X151089443Y-109261792D01*
X151100623Y-108834836D01*
X151042127Y-108509729D01*
X150926985Y-108200119D01*
X150758834Y-107915793D01*
X150542991Y-107665736D01*
X150286279Y-107457855D01*
X149996811Y-107298718D01*
X149683737Y-107193357D01*
X149683734Y-107193356D01*
X149356956Y-107145102D01*
X149356953Y-107145102D01*
X149026788Y-107155478D01*
X148703679Y-107224157D01*
X148397839Y-107348968D01*
X148397836Y-107348970D01*
X148118933Y-107525966D01*
X147875782Y-107749555D01*
X147749601Y-107915793D01*
X147676065Y-108012673D01*
X147526100Y-108306997D01*
X147430625Y-108623225D01*
X147392658Y-108951364D01*
X145074098Y-108951364D01*
X145100500Y-108870110D01*
X145100500Y-108679890D01*
X145041719Y-108498981D01*
X144929910Y-108345090D01*
X144776019Y-108233281D01*
X144595110Y-108174500D01*
X144404890Y-108174500D01*
X144223981Y-108233281D01*
X144070090Y-108345090D01*
X143958281Y-108498981D01*
X143899500Y-108679890D01*
X138925500Y-108679890D01*
X138866719Y-108498981D01*
X138754910Y-108345090D01*
X138601019Y-108233281D01*
X138420110Y-108174500D01*
X138229890Y-108174500D01*
X138048981Y-108233281D01*
X137895090Y-108345090D01*
X137783281Y-108498981D01*
X137724500Y-108679890D01*
X123450500Y-108679890D01*
X123450500Y-107368289D01*
X123998620Y-107368289D01*
X124035791Y-107570817D01*
X124111596Y-107762279D01*
X124223139Y-107935359D01*
X124366182Y-108083484D01*
X124535269Y-108201003D01*
X124723962Y-108283441D01*
X124925077Y-108327659D01*
X125130943Y-108331970D01*
X125130945Y-108331970D01*
X125191736Y-108321251D01*
X125333731Y-108296215D01*
X125525715Y-108221748D01*
X125699570Y-108111415D01*
X125699572Y-108111414D01*
X125848690Y-107969411D01*
X125967387Y-107801148D01*
X126051140Y-107613035D01*
X126096760Y-107412237D01*
X126100045Y-107177042D01*
X126097144Y-107162391D01*
X126060050Y-106975050D01*
X125981579Y-106784668D01*
X125867629Y-106613160D01*
X125722535Y-106467049D01*
X125722533Y-106467047D01*
X125551822Y-106351900D01*
X125361996Y-106272105D01*
X125361995Y-106272105D01*
X125361993Y-106272104D01*
X125160289Y-106230700D01*
X125005853Y-106229622D01*
X124954375Y-106229262D01*
X124954374Y-106229262D01*
X124752106Y-106267847D01*
X124663994Y-106303447D01*
X124561186Y-106344984D01*
X124388883Y-106457736D01*
X124241762Y-106601808D01*
X124125426Y-106771711D01*
X124044308Y-106960976D01*
X124005170Y-107145102D01*
X124001495Y-107162391D01*
X123998620Y-107368289D01*
X123450500Y-107368289D01*
X123450500Y-104828289D01*
X123998620Y-104828289D01*
X124035791Y-105030817D01*
X124111596Y-105222279D01*
X124223139Y-105395359D01*
X124366182Y-105543484D01*
X124535269Y-105661003D01*
X124723962Y-105743441D01*
X124925077Y-105787659D01*
X125130943Y-105791970D01*
X125130945Y-105791970D01*
X125191736Y-105781251D01*
X125333731Y-105756215D01*
X125525715Y-105681748D01*
X125699570Y-105571415D01*
X125699572Y-105571414D01*
X125848690Y-105429411D01*
X125859054Y-105414720D01*
X125967386Y-105261149D01*
X125967387Y-105261148D01*
X126051140Y-105073035D01*
X126096760Y-104872237D01*
X126100045Y-104637042D01*
X126086373Y-104567992D01*
X126060050Y-104435050D01*
X125981579Y-104244668D01*
X125867629Y-104073160D01*
X125722535Y-103927049D01*
X125722533Y-103927047D01*
X125551822Y-103811900D01*
X125361996Y-103732105D01*
X125361995Y-103732105D01*
X125361993Y-103732104D01*
X125160289Y-103690700D01*
X125005853Y-103689621D01*
X124954375Y-103689262D01*
X124954374Y-103689262D01*
X124752106Y-103727847D01*
X124656646Y-103766416D01*
X124561186Y-103804984D01*
X124388883Y-103917736D01*
X124241762Y-104061808D01*
X124125426Y-104231711D01*
X124044308Y-104420976D01*
X124013058Y-104567992D01*
X124001495Y-104622391D01*
X123998620Y-104828289D01*
X123450500Y-104828289D01*
X123450500Y-102288289D01*
X123998620Y-102288289D01*
X124035791Y-102490817D01*
X124111596Y-102682279D01*
X124223139Y-102855359D01*
X124366182Y-103003484D01*
X124535269Y-103121003D01*
X124723962Y-103203441D01*
X124925077Y-103247659D01*
X125130943Y-103251970D01*
X125130945Y-103251970D01*
X125210175Y-103238000D01*
X125333731Y-103216215D01*
X125525715Y-103141748D01*
X125699570Y-103031415D01*
X125699572Y-103031414D01*
X125848690Y-102889411D01*
X125849320Y-102888519D01*
X125967386Y-102721149D01*
X125967387Y-102721148D01*
X126051140Y-102533035D01*
X126096760Y-102332237D01*
X126100045Y-102097042D01*
X126100045Y-102097040D01*
X126060050Y-101895050D01*
X125981579Y-101704668D01*
X125867629Y-101533160D01*
X125722535Y-101387049D01*
X125722533Y-101387047D01*
X125551822Y-101271900D01*
X125361996Y-101192105D01*
X125361995Y-101192105D01*
X125361993Y-101192104D01*
X125160289Y-101150700D01*
X125005853Y-101149622D01*
X124954375Y-101149262D01*
X124954374Y-101149262D01*
X124752106Y-101187847D01*
X124656647Y-101226415D01*
X124561186Y-101264984D01*
X124388883Y-101377736D01*
X124241762Y-101521808D01*
X124125426Y-101691711D01*
X124044308Y-101880976D01*
X124011143Y-102037000D01*
X124001495Y-102082391D01*
X123998620Y-102288289D01*
X123450500Y-102288289D01*
X123450500Y-99748289D01*
X123998620Y-99748289D01*
X124035791Y-99950817D01*
X124111596Y-100142279D01*
X124223139Y-100315359D01*
X124366182Y-100463484D01*
X124535269Y-100581003D01*
X124723962Y-100663441D01*
X124925077Y-100707659D01*
X125130943Y-100711970D01*
X125130945Y-100711970D01*
X125191736Y-100701251D01*
X125333731Y-100676215D01*
X125525715Y-100601748D01*
X125699570Y-100491415D01*
X125699572Y-100491414D01*
X125848690Y-100349411D01*
X125865192Y-100326019D01*
X125967386Y-100181149D01*
X125967387Y-100181148D01*
X126051140Y-99993035D01*
X126096760Y-99792237D01*
X126100045Y-99557042D01*
X126100045Y-99557040D01*
X126060050Y-99355050D01*
X125981579Y-99164668D01*
X125867629Y-98993160D01*
X125722535Y-98847049D01*
X125722533Y-98847047D01*
X125551822Y-98731900D01*
X125361996Y-98652105D01*
X125361995Y-98652105D01*
X125361993Y-98652104D01*
X125160289Y-98610700D01*
X125005853Y-98609621D01*
X124954375Y-98609262D01*
X124954374Y-98609262D01*
X124752106Y-98647847D01*
X124705397Y-98666719D01*
X124561186Y-98724984D01*
X124388883Y-98837736D01*
X124241762Y-98981808D01*
X124125426Y-99151711D01*
X124044308Y-99340976D01*
X124001495Y-99542391D01*
X123998620Y-99748289D01*
X123450500Y-99748289D01*
X123450500Y-97208289D01*
X123998620Y-97208289D01*
X124035791Y-97410817D01*
X124111596Y-97602279D01*
X124223139Y-97775359D01*
X124366182Y-97923484D01*
X124535269Y-98041003D01*
X124723962Y-98123441D01*
X124925077Y-98167659D01*
X125130943Y-98171970D01*
X125130945Y-98171970D01*
X125191736Y-98161251D01*
X125333731Y-98136215D01*
X125525715Y-98061748D01*
X125659668Y-97976738D01*
X125699572Y-97951414D01*
X125848690Y-97809411D01*
X125967387Y-97641148D01*
X126051140Y-97453035D01*
X126096760Y-97252237D01*
X126100045Y-97017042D01*
X126097144Y-97002391D01*
X126060050Y-96815050D01*
X126020814Y-96719859D01*
X125981580Y-96624670D01*
X125970232Y-96607590D01*
X125867629Y-96453160D01*
X125722535Y-96307049D01*
X125722533Y-96307047D01*
X125551822Y-96191900D01*
X125361996Y-96112105D01*
X125361995Y-96112105D01*
X125361993Y-96112104D01*
X125160289Y-96070700D01*
X125005853Y-96069622D01*
X124954375Y-96069262D01*
X124954374Y-96069262D01*
X124752106Y-96107847D01*
X124678391Y-96137630D01*
X124561186Y-96184984D01*
X124388883Y-96297736D01*
X124241762Y-96441808D01*
X124125426Y-96611711D01*
X124101850Y-96666719D01*
X124049248Y-96789451D01*
X124044308Y-96800976D01*
X124005849Y-96981907D01*
X124001495Y-97002391D01*
X123998620Y-97208289D01*
X123450500Y-97208289D01*
X123450500Y-94668289D01*
X123998620Y-94668289D01*
X124035791Y-94870817D01*
X124111596Y-95062279D01*
X124223139Y-95235359D01*
X124366182Y-95383484D01*
X124535269Y-95501003D01*
X124723962Y-95583441D01*
X124925077Y-95627659D01*
X125130943Y-95631970D01*
X125130945Y-95631970D01*
X125191736Y-95621251D01*
X125333731Y-95596215D01*
X125525715Y-95521748D01*
X125699570Y-95411415D01*
X125699572Y-95411414D01*
X125848690Y-95269411D01*
X125967387Y-95101148D01*
X126051140Y-94913035D01*
X126096760Y-94712237D01*
X126100045Y-94477042D01*
X126090709Y-94429890D01*
X126060050Y-94275050D01*
X125981579Y-94084668D01*
X125867629Y-93913160D01*
X125722535Y-93767049D01*
X125722533Y-93767047D01*
X125551822Y-93651900D01*
X125361996Y-93572105D01*
X125361995Y-93572105D01*
X125361993Y-93572104D01*
X125160289Y-93530700D01*
X125005853Y-93529622D01*
X124954375Y-93529262D01*
X124954374Y-93529262D01*
X124752106Y-93567847D01*
X124656646Y-93606416D01*
X124561186Y-93644984D01*
X124388883Y-93757736D01*
X124241762Y-93901808D01*
X124125426Y-94071711D01*
X124044308Y-94260976D01*
X124008399Y-94429910D01*
X124001495Y-94462391D01*
X123998620Y-94668289D01*
X123450500Y-94668289D01*
X123450500Y-92128289D01*
X123998620Y-92128289D01*
X124035791Y-92330817D01*
X124111596Y-92522279D01*
X124223139Y-92695359D01*
X124366182Y-92843484D01*
X124535269Y-92961003D01*
X124723962Y-93043441D01*
X124925077Y-93087659D01*
X125130943Y-93091970D01*
X125130945Y-93091970D01*
X125191736Y-93081251D01*
X125333731Y-93056215D01*
X125525715Y-92981748D01*
X125699570Y-92871415D01*
X125699572Y-92871414D01*
X125848690Y-92729411D01*
X125853549Y-92722524D01*
X125967386Y-92561149D01*
X125967387Y-92561148D01*
X126051140Y-92373035D01*
X126096760Y-92172237D01*
X126100045Y-91937042D01*
X126078653Y-91829003D01*
X126060050Y-91735050D01*
X125981579Y-91544668D01*
X125867629Y-91373160D01*
X125722535Y-91227049D01*
X125722533Y-91227047D01*
X125551822Y-91111900D01*
X125361996Y-91032105D01*
X125361995Y-91032105D01*
X125361993Y-91032104D01*
X125303671Y-91020132D01*
X133739292Y-91020132D01*
X133744500Y-91079656D01*
X133744500Y-91140592D01*
X133744501Y-93955586D01*
X133744500Y-93955592D01*
X133744500Y-93975343D01*
X133739292Y-94034868D01*
X133744500Y-94054304D01*
X133744501Y-97880586D01*
X133744500Y-97880592D01*
X133744500Y-97900343D01*
X133739292Y-97959868D01*
X133744500Y-97979304D01*
X133744501Y-101615586D01*
X133744500Y-101615592D01*
X133744500Y-101635343D01*
X133739292Y-101694868D01*
X133744500Y-101714304D01*
X133744501Y-105050332D01*
X133742515Y-105073034D01*
X133739292Y-105109869D01*
X133754761Y-105167599D01*
X133765140Y-105226457D01*
X133775201Y-105243883D01*
X133780411Y-105263325D01*
X133814694Y-105312286D01*
X133844575Y-105364043D01*
X133890355Y-105402457D01*
X134791343Y-106303447D01*
X134826197Y-106344984D01*
X134829756Y-106349225D01*
X134881520Y-106379111D01*
X134920728Y-106406565D01*
X134945298Y-106423769D01*
X134948885Y-106428706D01*
X134948889Y-106428709D01*
X135001659Y-106467049D01*
X135102780Y-106540518D01*
X135283689Y-106599299D01*
X135473909Y-106599299D01*
X135654818Y-106540518D01*
X135808709Y-106428709D01*
X135920518Y-106274818D01*
X135979299Y-106093909D01*
X135979299Y-105903689D01*
X135920518Y-105722780D01*
X135808709Y-105568889D01*
X135654818Y-105457080D01*
X135473909Y-105398299D01*
X135283689Y-105398299D01*
X135190636Y-105428534D01*
X134645500Y-104883398D01*
X134645500Y-102287611D01*
X134911319Y-102287611D01*
X135036870Y-102378830D01*
X135217779Y-102437611D01*
X135407999Y-102437611D01*
X135588908Y-102378830D01*
X135742799Y-102267021D01*
X135854608Y-102113130D01*
X135913389Y-101932221D01*
X135913389Y-101742001D01*
X135854608Y-101561092D01*
X135742799Y-101407201D01*
X135588908Y-101295392D01*
X135407999Y-101236611D01*
X135217779Y-101236611D01*
X135036870Y-101295392D01*
X134911319Y-101386611D01*
X134645500Y-101386611D01*
X134645500Y-100524167D01*
X134665502Y-100456046D01*
X134719158Y-100409553D01*
X134789432Y-100399449D01*
X134873436Y-100450106D01*
X134895090Y-100479910D01*
X135048981Y-100591719D01*
X135229890Y-100650500D01*
X135420110Y-100650500D01*
X135601019Y-100591719D01*
X135754910Y-100479910D01*
X135866719Y-100326019D01*
X135925500Y-100145110D01*
X135925500Y-99954890D01*
X135866719Y-99773981D01*
X135754910Y-99620090D01*
X135601019Y-99508281D01*
X135420110Y-99449500D01*
X135229890Y-99449500D01*
X135048981Y-99508281D01*
X134895090Y-99620090D01*
X134873436Y-99649894D01*
X134817214Y-99693248D01*
X134746477Y-99699323D01*
X134683686Y-99666191D01*
X134645500Y-99575833D01*
X134645500Y-98483000D01*
X134825930Y-98483000D01*
X134951481Y-98574219D01*
X135132390Y-98633000D01*
X135322610Y-98633000D01*
X135503519Y-98574219D01*
X135657410Y-98462410D01*
X135769219Y-98308519D01*
X135828000Y-98127610D01*
X135828000Y-97937390D01*
X135769219Y-97756481D01*
X135657410Y-97602590D01*
X135503519Y-97490781D01*
X135322610Y-97432000D01*
X135132390Y-97432000D01*
X134951481Y-97490781D01*
X134825930Y-97582000D01*
X134645500Y-97582000D01*
X134645500Y-96935956D01*
X134665502Y-96867835D01*
X134719158Y-96821342D01*
X134789432Y-96811238D01*
X134845560Y-96834019D01*
X134866481Y-96849219D01*
X135047390Y-96908000D01*
X135237610Y-96908000D01*
X135418519Y-96849219D01*
X135572410Y-96737410D01*
X135684219Y-96583519D01*
X135743000Y-96402610D01*
X135743000Y-96212390D01*
X135684219Y-96031481D01*
X135572410Y-95877590D01*
X135418519Y-95765781D01*
X135237610Y-95707000D01*
X135047390Y-95707000D01*
X134866481Y-95765781D01*
X134845560Y-95780981D01*
X134778693Y-95804839D01*
X134709541Y-95788758D01*
X134660061Y-95737843D01*
X134645500Y-95679044D01*
X134645500Y-94450500D01*
X134943430Y-94450500D01*
X135068981Y-94541719D01*
X135249890Y-94600500D01*
X135440110Y-94600500D01*
X135621019Y-94541719D01*
X135774910Y-94429910D01*
X135886719Y-94276019D01*
X135945500Y-94095110D01*
X135945500Y-93904890D01*
X135886719Y-93723981D01*
X135774910Y-93570090D01*
X135621019Y-93458281D01*
X135440110Y-93399500D01*
X135249890Y-93399500D01*
X135068981Y-93458281D01*
X134943430Y-93549500D01*
X134645500Y-93549500D01*
X134645500Y-92665458D01*
X134665502Y-92597337D01*
X134719158Y-92550844D01*
X134789432Y-92540740D01*
X134844677Y-92574055D01*
X134848945Y-92568180D01*
X134982836Y-92665458D01*
X135018981Y-92691719D01*
X135199890Y-92750500D01*
X135390110Y-92750500D01*
X135455019Y-92729410D01*
X135476212Y-92722524D01*
X137440972Y-94687285D01*
X137447884Y-94701679D01*
X137485246Y-94731559D01*
X137496397Y-94742711D01*
X137509452Y-94750916D01*
X137546475Y-94780524D01*
X137562345Y-94784159D01*
X137576195Y-94792864D01*
X137623902Y-94798257D01*
X137638934Y-94801700D01*
X137654356Y-94801700D01*
X137701636Y-94807045D01*
X137716942Y-94801700D01*
X138697128Y-94801700D01*
X138765249Y-94821702D01*
X138811742Y-94875358D01*
X138821846Y-94945632D01*
X138771189Y-95029636D01*
X138732260Y-95057920D01*
X138620451Y-95211811D01*
X138561670Y-95392720D01*
X138561670Y-95582941D01*
X138565983Y-95596214D01*
X138589646Y-95669041D01*
X138094225Y-96164462D01*
X138020150Y-95936481D01*
X137991719Y-95848981D01*
X137879910Y-95695090D01*
X137726019Y-95583281D01*
X137545110Y-95524500D01*
X137354890Y-95524500D01*
X137173981Y-95583281D01*
X137020090Y-95695090D01*
X136908281Y-95848981D01*
X136849500Y-96029890D01*
X136849500Y-96220110D01*
X136908281Y-96401019D01*
X137020090Y-96554910D01*
X137173981Y-96666719D01*
X137354890Y-96725500D01*
X137354891Y-96725500D01*
X137443649Y-96754339D01*
X137432136Y-96856196D01*
X137426742Y-96903910D01*
X137423301Y-96918934D01*
X137423301Y-96934347D01*
X137417955Y-96981636D01*
X137417955Y-96981637D01*
X137423301Y-96996947D01*
X137423300Y-98549628D01*
X137418010Y-98564692D01*
X137423300Y-98612229D01*
X137423300Y-98628010D01*
X137424502Y-98633279D01*
X137424501Y-99548403D01*
X137120110Y-99449500D01*
X136929890Y-99449500D01*
X136748981Y-99508281D01*
X136595090Y-99620090D01*
X136483281Y-99773981D01*
X136424500Y-99954890D01*
X136424500Y-100145110D01*
X136483281Y-100326019D01*
X136595090Y-100479910D01*
X136748981Y-100591719D01*
X136929890Y-100650500D01*
X137120110Y-100650500D01*
X137301019Y-100591719D01*
X137424501Y-100551597D01*
X137424502Y-102586481D01*
X137424502Y-104567992D01*
X137335280Y-104596982D01*
X137181389Y-104708791D01*
X137069580Y-104862682D01*
X137010799Y-105043591D01*
X137010799Y-105233811D01*
X137069580Y-105414720D01*
X137181389Y-105568611D01*
X137335280Y-105680420D01*
X137516189Y-105739201D01*
X137706409Y-105739201D01*
X137887318Y-105680420D01*
X138041209Y-105568611D01*
X138153018Y-105414720D01*
X138211799Y-105233811D01*
X138211799Y-105129890D01*
X149824500Y-105129890D01*
X149824500Y-105320110D01*
X149883281Y-105501019D01*
X149995090Y-105654910D01*
X150148981Y-105766719D01*
X150329890Y-105825500D01*
X150520110Y-105825500D01*
X150701019Y-105766719D01*
X150854910Y-105654910D01*
X150966719Y-105501019D01*
X151025500Y-105320110D01*
X151025500Y-105129890D01*
X150966719Y-104948981D01*
X150854910Y-104795090D01*
X150701019Y-104683281D01*
X150520110Y-104624500D01*
X150329890Y-104624500D01*
X150148981Y-104683281D01*
X149995090Y-104795090D01*
X149883281Y-104948981D01*
X149824500Y-105129890D01*
X138211799Y-105129890D01*
X138211799Y-105043591D01*
X138153018Y-104862682D01*
X138041209Y-104708791D01*
X137977901Y-104662795D01*
X137977901Y-102542390D01*
X138549500Y-102542390D01*
X138549500Y-102732610D01*
X138608281Y-102913519D01*
X138720090Y-103067410D01*
X138873981Y-103179219D01*
X139054890Y-103238000D01*
X139245110Y-103238000D01*
X139426019Y-103179219D01*
X139579910Y-103067410D01*
X139691719Y-102913519D01*
X139750500Y-102732610D01*
X139750500Y-102542390D01*
X139742377Y-102517390D01*
X141874500Y-102517390D01*
X141874500Y-102707610D01*
X141933281Y-102888519D01*
X142045090Y-103042410D01*
X142198981Y-103154219D01*
X142379890Y-103213000D01*
X142570110Y-103213000D01*
X142751019Y-103154219D01*
X142904910Y-103042410D01*
X143016719Y-102888519D01*
X143056076Y-102767390D01*
X146062000Y-102767390D01*
X146062000Y-102957610D01*
X146120781Y-103138519D01*
X146232590Y-103292410D01*
X146386481Y-103404219D01*
X146567390Y-103463000D01*
X146757610Y-103463000D01*
X146938519Y-103404219D01*
X147092410Y-103292410D01*
X147204219Y-103138519D01*
X147263000Y-102957610D01*
X147263000Y-102767390D01*
X147204219Y-102586481D01*
X147092410Y-102432590D01*
X146938519Y-102320781D01*
X146757610Y-102262000D01*
X146567390Y-102262000D01*
X146386481Y-102320781D01*
X146232590Y-102432590D01*
X146120781Y-102586481D01*
X146062000Y-102767390D01*
X143056076Y-102767390D01*
X143075500Y-102707610D01*
X143075500Y-102517390D01*
X143016719Y-102336481D01*
X142904910Y-102182590D01*
X142751019Y-102070781D01*
X142570110Y-102012000D01*
X142379890Y-102012000D01*
X142198981Y-102070781D01*
X142045090Y-102182590D01*
X141933281Y-102336481D01*
X141874500Y-102517390D01*
X139742377Y-102517390D01*
X139691719Y-102361481D01*
X139579910Y-102207590D01*
X139426019Y-102095781D01*
X139245110Y-102037000D01*
X139054890Y-102037000D01*
X138873981Y-102095781D01*
X138720090Y-102207590D01*
X138608281Y-102361481D01*
X138549500Y-102542390D01*
X137977901Y-102542390D01*
X137977901Y-99262565D01*
X137997903Y-99194444D01*
X138051559Y-99147951D01*
X138121833Y-99137847D01*
X138177961Y-99160629D01*
X138224504Y-99194444D01*
X138323981Y-99266719D01*
X138504890Y-99325500D01*
X138695110Y-99325500D01*
X138876019Y-99266719D01*
X139029910Y-99154910D01*
X139141719Y-99001019D01*
X139200500Y-98820110D01*
X139200500Y-98629890D01*
X139141719Y-98448981D01*
X139029910Y-98295090D01*
X138881826Y-98187500D01*
X140250000Y-98187500D01*
X140250000Y-100312500D01*
X142300000Y-100362500D01*
X142325000Y-98187500D01*
X140250000Y-98187500D01*
X138881826Y-98187500D01*
X138876019Y-98183281D01*
X138695110Y-98124500D01*
X138504890Y-98124500D01*
X138323981Y-98183281D01*
X138176761Y-98290243D01*
X138109893Y-98314101D01*
X138040742Y-98298021D01*
X137991262Y-98247107D01*
X137976700Y-98188307D01*
X137976700Y-98029890D01*
X149499500Y-98029890D01*
X149499500Y-98220110D01*
X149558281Y-98401019D01*
X149670090Y-98554910D01*
X149823981Y-98666719D01*
X150004890Y-98725500D01*
X150195110Y-98725500D01*
X150376019Y-98666719D01*
X150529910Y-98554910D01*
X150641719Y-98401019D01*
X150700500Y-98220110D01*
X150700500Y-98029890D01*
X150641719Y-97848981D01*
X150529910Y-97695090D01*
X150376019Y-97583281D01*
X150195110Y-97524500D01*
X150004890Y-97524500D01*
X149823981Y-97583281D01*
X149670090Y-97695090D01*
X149558281Y-97848981D01*
X149499500Y-98029890D01*
X137976700Y-98029890D01*
X137976700Y-97064612D01*
X138059405Y-96981907D01*
X138121717Y-96947881D01*
X138192532Y-96952946D01*
X138249368Y-96995493D01*
X138274500Y-97071002D01*
X138274500Y-97182610D01*
X138333281Y-97363519D01*
X138445090Y-97517410D01*
X138598981Y-97629219D01*
X138779890Y-97688000D01*
X138970110Y-97688000D01*
X139151019Y-97629219D01*
X139304910Y-97517410D01*
X139416719Y-97363519D01*
X139475500Y-97182610D01*
X139475500Y-96992390D01*
X139416719Y-96811481D01*
X139304910Y-96657590D01*
X139151019Y-96545781D01*
X138970110Y-96487000D01*
X138858503Y-96487000D01*
X138790382Y-96466998D01*
X138743889Y-96413342D01*
X138733785Y-96343068D01*
X138769408Y-96271905D01*
X138923923Y-96117390D01*
X140149500Y-96117390D01*
X140149500Y-96307610D01*
X140208281Y-96488519D01*
X140320090Y-96642410D01*
X140473981Y-96754219D01*
X140654890Y-96813000D01*
X140845110Y-96813000D01*
X141026019Y-96754219D01*
X141059504Y-96729890D01*
X144674500Y-96729890D01*
X144674500Y-96920110D01*
X144733281Y-97101019D01*
X144845090Y-97254910D01*
X144998981Y-97366719D01*
X145179890Y-97425500D01*
X145370110Y-97425500D01*
X145551019Y-97366719D01*
X145704910Y-97254910D01*
X145816719Y-97101019D01*
X145868260Y-96942390D01*
X146162000Y-96942390D01*
X146162000Y-97132610D01*
X146220781Y-97313519D01*
X146332590Y-97467410D01*
X146486481Y-97579219D01*
X146667390Y-97638000D01*
X146857610Y-97638000D01*
X147038519Y-97579219D01*
X147192410Y-97467410D01*
X147304219Y-97313519D01*
X147372817Y-97102399D01*
X147445089Y-97154908D01*
X147445090Y-97154910D01*
X147598981Y-97266719D01*
X147779890Y-97325500D01*
X147970110Y-97325500D01*
X148151019Y-97266719D01*
X148304910Y-97154910D01*
X148416719Y-97001019D01*
X148475500Y-96820110D01*
X148475500Y-96629890D01*
X148416719Y-96448981D01*
X148304910Y-96295090D01*
X148161555Y-96190936D01*
X148118201Y-96134714D01*
X148112126Y-96063977D01*
X148145258Y-96001186D01*
X148235616Y-95963000D01*
X148282610Y-95963000D01*
X148463519Y-95904219D01*
X148617410Y-95792410D01*
X148729219Y-95638519D01*
X148788000Y-95457610D01*
X148788000Y-95150500D01*
X148995110Y-95150500D01*
X149176019Y-95091719D01*
X149329910Y-94979910D01*
X149441719Y-94826019D01*
X149500500Y-94645110D01*
X149500500Y-94454890D01*
X149441719Y-94273981D01*
X149329910Y-94120090D01*
X149176019Y-94008281D01*
X148995110Y-93949500D01*
X148804890Y-93949500D01*
X148623981Y-94008281D01*
X148470090Y-94120090D01*
X148358281Y-94273981D01*
X148299500Y-94454890D01*
X148299500Y-94762000D01*
X148092390Y-94762000D01*
X147911481Y-94820781D01*
X147757590Y-94932590D01*
X147645781Y-95086481D01*
X147587000Y-95267390D01*
X147587000Y-95457610D01*
X147645781Y-95638519D01*
X147757590Y-95792410D01*
X147900945Y-95896564D01*
X147944299Y-95952786D01*
X147950374Y-96023523D01*
X147917242Y-96086314D01*
X147826884Y-96124500D01*
X147779890Y-96124500D01*
X147598981Y-96183281D01*
X147445090Y-96295090D01*
X147333281Y-96448981D01*
X147264683Y-96660101D01*
X147192411Y-96607592D01*
X147192410Y-96607590D01*
X147038519Y-96495781D01*
X146857610Y-96437000D01*
X146667390Y-96437000D01*
X146486481Y-96495781D01*
X146332590Y-96607590D01*
X146220781Y-96761481D01*
X146162000Y-96942390D01*
X145868260Y-96942390D01*
X145875500Y-96920110D01*
X145875500Y-96729890D01*
X145816719Y-96548981D01*
X145704910Y-96395090D01*
X145551019Y-96283281D01*
X145370110Y-96224500D01*
X145179890Y-96224500D01*
X144998981Y-96283281D01*
X144845090Y-96395090D01*
X144733281Y-96548981D01*
X144674500Y-96729890D01*
X141059504Y-96729890D01*
X141179910Y-96642410D01*
X141291719Y-96488519D01*
X141350500Y-96307610D01*
X141350500Y-96307609D01*
X141355823Y-96291226D01*
X141495090Y-96392410D01*
X141648981Y-96504219D01*
X141829890Y-96563000D01*
X142020110Y-96563000D01*
X142201019Y-96504219D01*
X142354910Y-96392410D01*
X142466719Y-96238519D01*
X142525500Y-96057610D01*
X142525500Y-95867390D01*
X142466719Y-95686481D01*
X142354910Y-95532590D01*
X142201019Y-95420781D01*
X142020110Y-95362000D01*
X141829890Y-95362000D01*
X141648981Y-95420781D01*
X141495090Y-95532590D01*
X141383281Y-95686481D01*
X141330482Y-95848981D01*
X141319177Y-95883774D01*
X141026019Y-95670781D01*
X140845110Y-95612000D01*
X140654890Y-95612000D01*
X140473981Y-95670781D01*
X140320090Y-95782590D01*
X140208281Y-95936481D01*
X140149500Y-96117390D01*
X138923923Y-96117390D01*
X138980959Y-96060354D01*
X139067060Y-96088330D01*
X139257280Y-96088330D01*
X139438189Y-96029549D01*
X139592080Y-95917740D01*
X139703889Y-95763849D01*
X139762670Y-95582940D01*
X139762670Y-95392720D01*
X139703889Y-95211811D01*
X139592080Y-95057920D01*
X139553151Y-95029636D01*
X139509797Y-94973413D01*
X139503722Y-94902677D01*
X139536854Y-94839885D01*
X139627212Y-94801700D01*
X139808776Y-94801700D01*
X139920090Y-94954910D01*
X140073981Y-95066719D01*
X140254890Y-95125500D01*
X140445110Y-95125500D01*
X140626019Y-95066719D01*
X140779910Y-94954910D01*
X140891719Y-94801019D01*
X140950500Y-94620110D01*
X140950500Y-94429890D01*
X140891719Y-94248981D01*
X140779910Y-94095090D01*
X140626019Y-93983281D01*
X140445110Y-93924500D01*
X140254890Y-93924500D01*
X140073981Y-93983281D01*
X139920090Y-94095090D01*
X139808776Y-94248300D01*
X137784613Y-94248300D01*
X135867524Y-92331212D01*
X135867653Y-92330817D01*
X135889890Y-92262375D01*
X135895500Y-92245110D01*
X135895500Y-92054890D01*
X135836719Y-91873981D01*
X135724910Y-91720090D01*
X135571019Y-91608281D01*
X135390110Y-91549500D01*
X135199890Y-91549500D01*
X135018981Y-91608281D01*
X134848945Y-91731820D01*
X134846928Y-91729044D01*
X134817218Y-91751955D01*
X134746482Y-91758033D01*
X134683689Y-91724904D01*
X134645500Y-91634542D01*
X134645500Y-91246602D01*
X135225000Y-90667103D01*
X136100050Y-91542154D01*
X136102161Y-91544670D01*
X136138457Y-91587926D01*
X136164337Y-91602867D01*
X136190218Y-91617810D01*
X136239175Y-91652090D01*
X136258612Y-91657298D01*
X136276043Y-91667361D01*
X136334902Y-91677741D01*
X136392630Y-91693208D01*
X136392631Y-91693208D01*
X136452156Y-91688000D01*
X137151799Y-91688000D01*
X137311454Y-91829003D01*
X137402272Y-91871642D01*
X137493088Y-91914280D01*
X137645379Y-91937040D01*
X137651803Y-91938000D01*
X137759844Y-91938000D01*
X137899162Y-92077318D01*
X137911067Y-92096186D01*
X137970667Y-92148823D01*
X137990249Y-92168405D01*
X138007358Y-92181228D01*
X138061465Y-92229013D01*
X138087307Y-92241146D01*
X138110154Y-92258269D01*
X138110155Y-92258269D01*
X138110156Y-92258270D01*
X138121104Y-92262374D01*
X138177754Y-92283611D01*
X138243098Y-92314290D01*
X138270526Y-92318389D01*
X138298041Y-92328704D01*
X138314065Y-92329895D01*
X138380592Y-92334839D01*
X138401810Y-92338010D01*
X138423264Y-92338010D01*
X138488786Y-92342879D01*
X138498145Y-92343574D01*
X138498146Y-92343574D01*
X138524212Y-92338010D01*
X142626672Y-92338010D01*
X142694793Y-92358012D01*
X142741286Y-92411668D01*
X142751390Y-92481942D01*
X142728608Y-92538071D01*
X142620781Y-92686481D01*
X142562000Y-92867390D01*
X142562000Y-93057610D01*
X142620781Y-93238519D01*
X142732590Y-93392410D01*
X142886481Y-93504219D01*
X143067390Y-93563000D01*
X143257610Y-93563000D01*
X143438519Y-93504219D01*
X143592410Y-93392410D01*
X143704219Y-93238519D01*
X143739514Y-93129890D01*
X145799500Y-93129890D01*
X145799500Y-93320110D01*
X145858281Y-93501019D01*
X145970090Y-93654910D01*
X146123981Y-93766719D01*
X146304890Y-93825500D01*
X146495110Y-93825500D01*
X146676019Y-93766719D01*
X146829910Y-93654910D01*
X146941719Y-93501019D01*
X147000500Y-93320110D01*
X147000500Y-93129890D01*
X146941719Y-92948981D01*
X146829910Y-92795090D01*
X146676019Y-92683281D01*
X146495110Y-92624500D01*
X146304890Y-92624500D01*
X146123981Y-92683281D01*
X145970090Y-92795090D01*
X145858281Y-92948981D01*
X145799500Y-93129890D01*
X143739514Y-93129890D01*
X143763000Y-93057610D01*
X143763000Y-92867390D01*
X143704219Y-92686481D01*
X143593294Y-92533806D01*
X143569435Y-92466938D01*
X143585516Y-92397787D01*
X143636430Y-92348306D01*
X143687427Y-92333987D01*
X143743502Y-92330508D01*
X143758670Y-92325032D01*
X143770349Y-92320816D01*
X143793893Y-92317444D01*
X143798619Y-92316767D01*
X143864347Y-92286882D01*
X143889725Y-92277720D01*
X143932234Y-92262375D01*
X143932235Y-92262374D01*
X143932236Y-92262374D01*
X143954526Y-92245880D01*
X143981280Y-92233716D01*
X144044000Y-92179673D01*
X144054049Y-92172237D01*
X144061236Y-92166919D01*
X144076400Y-92151755D01*
X144079803Y-92148823D01*
X144133290Y-92102736D01*
X144147789Y-92080367D01*
X145080892Y-91147264D01*
X145170759Y-91027356D01*
X145241194Y-90839469D01*
X145256063Y-90639366D01*
X145256063Y-90639365D01*
X145214174Y-90443129D01*
X145118892Y-90266545D01*
X145118891Y-90266543D01*
X144977876Y-90123794D01*
X144977875Y-90123793D01*
X144802463Y-90026360D01*
X144606757Y-89982076D01*
X144418187Y-89993776D01*
X144406487Y-89994502D01*
X144217753Y-90062636D01*
X144092443Y-90155361D01*
X144088751Y-90158093D01*
X143309835Y-90937010D01*
X142275000Y-90937010D01*
X142275000Y-88812500D01*
X140250000Y-88812500D01*
X140225006Y-90937010D01*
X138740165Y-90937010D01*
X138600849Y-90797694D01*
X138588943Y-90778824D01*
X138529335Y-90726180D01*
X138509761Y-90706606D01*
X138492660Y-90693790D01*
X138438545Y-90645997D01*
X138412698Y-90633861D01*
X138389855Y-90616741D01*
X138322260Y-90591401D01*
X138256912Y-90560720D01*
X138229483Y-90556621D01*
X138201968Y-90546306D01*
X138156580Y-90542933D01*
X138119422Y-90540172D01*
X138098197Y-90537000D01*
X138076737Y-90537000D01*
X138001866Y-90531437D01*
X137975804Y-90537000D01*
X137649701Y-90537000D01*
X137560704Y-90549746D01*
X137501371Y-90558243D01*
X137379597Y-90613610D01*
X137318709Y-90641294D01*
X137149611Y-90787000D01*
X136619104Y-90787000D01*
X135825500Y-89993398D01*
X135825500Y-89934890D01*
X135766719Y-89753981D01*
X135654910Y-89600090D01*
X135501019Y-89488281D01*
X135320110Y-89429500D01*
X135129890Y-89429500D01*
X134948981Y-89488281D01*
X134795090Y-89600090D01*
X134683281Y-89753981D01*
X134624500Y-89934890D01*
X134624500Y-89993397D01*
X133890358Y-90727540D01*
X133844574Y-90765956D01*
X133814686Y-90817725D01*
X133799460Y-90839471D01*
X133780410Y-90866677D01*
X133775201Y-90886115D01*
X133765138Y-90903546D01*
X133754759Y-90962404D01*
X133747178Y-90990700D01*
X133739292Y-91020132D01*
X125303671Y-91020132D01*
X125160289Y-90990700D01*
X125005853Y-90989622D01*
X124954375Y-90989262D01*
X124954374Y-90989262D01*
X124752106Y-91027847D01*
X124656646Y-91066416D01*
X124561186Y-91104984D01*
X124388883Y-91217736D01*
X124241762Y-91361808D01*
X124125426Y-91531711D01*
X124081353Y-91634542D01*
X124044688Y-91720090D01*
X124044308Y-91720976D01*
X124037723Y-91751955D01*
X124001495Y-91922391D01*
X123998620Y-92128289D01*
X123450500Y-92128289D01*
X123450500Y-89588289D01*
X123998620Y-89588289D01*
X124035791Y-89790817D01*
X124111596Y-89982279D01*
X124223139Y-90155359D01*
X124366182Y-90303484D01*
X124535269Y-90421003D01*
X124723962Y-90503441D01*
X124925077Y-90547659D01*
X125130943Y-90551970D01*
X125130945Y-90551970D01*
X125191736Y-90541251D01*
X125333731Y-90516215D01*
X125525715Y-90441748D01*
X125699570Y-90331415D01*
X125699572Y-90331414D01*
X125848690Y-90189411D01*
X125967387Y-90021148D01*
X126051140Y-89833035D01*
X126096760Y-89632237D01*
X126099760Y-89417390D01*
X137499500Y-89417390D01*
X137499500Y-89607610D01*
X137558281Y-89788519D01*
X137670090Y-89942410D01*
X137823981Y-90054219D01*
X138004890Y-90113000D01*
X138195110Y-90113000D01*
X138376019Y-90054219D01*
X138529910Y-89942410D01*
X138641719Y-89788519D01*
X138700500Y-89607610D01*
X138700500Y-89417390D01*
X138641719Y-89236481D01*
X138529910Y-89082590D01*
X138376019Y-88970781D01*
X138195110Y-88912000D01*
X138004890Y-88912000D01*
X137823981Y-88970781D01*
X137670090Y-89082590D01*
X137558281Y-89236481D01*
X137499500Y-89417390D01*
X126099760Y-89417390D01*
X126100045Y-89397042D01*
X126097144Y-89382391D01*
X126060050Y-89195050D01*
X125981579Y-89004668D01*
X125867629Y-88833160D01*
X125722535Y-88687049D01*
X125722533Y-88687047D01*
X125551822Y-88571900D01*
X125361996Y-88492105D01*
X125361995Y-88492105D01*
X125361993Y-88492104D01*
X125160289Y-88450700D01*
X125005853Y-88449622D01*
X124954375Y-88449262D01*
X124954374Y-88449262D01*
X124752106Y-88487847D01*
X124656647Y-88526415D01*
X124561186Y-88564984D01*
X124388883Y-88677736D01*
X124241762Y-88821808D01*
X124125426Y-88991711D01*
X124044308Y-89180976D01*
X124001495Y-89382391D01*
X123998620Y-89588289D01*
X123450500Y-89588289D01*
X123450500Y-85700500D01*
X124037502Y-85700500D01*
X124105623Y-85720502D01*
G37*
%TD.AperFunction*%
%TD*%
M02*
