%TF.GenerationSoftware,KiCad,Pcbnew,(5.99.0-3293-g62433736b)*%
%TF.CreationDate,2020-09-21T11:29:42+07:00*%
%TF.ProjectId,IMU_board,494d555f-626f-4617-9264-2e6b69636164,rev?*%
%TF.SameCoordinates,Original*%
%TF.FileFunction,Copper,L2,Inr*%
%TF.FilePolarity,Positive*%
%FSLAX46Y46*%
G04 Gerber Fmt 4.6, Leading zero omitted, Abs format (unit mm)*
G04 Created by KiCad (PCBNEW (5.99.0-3293-g62433736b)) date 2020-09-21 11:29:42*
%MOMM*%
%LPD*%
G01*
G04 APERTURE LIST*
%TA.AperFunction,ComponentPad*%
%ADD10R,1.700000X1.700000*%
%TD*%
%TA.AperFunction,ComponentPad*%
%ADD11O,1.700000X1.700000*%
%TD*%
%TA.AperFunction,ViaPad*%
%ADD12C,0.800000*%
%TD*%
%TA.AperFunction,ViaPad*%
%ADD13C,3.300000*%
%TD*%
G04 APERTURE END LIST*
D10*
%TO.N,LSM6D3_CS*%
%TO.C,J1*%
X125050000Y-86960000D03*
D11*
%TO.N,ICM20948_CS_3.3v*%
X125050000Y-89500000D03*
%TO.N,ICM20948_DRDY_3.3v*%
X125050000Y-92040000D03*
%TO.N,IMU_MISO_3.3v*%
X125050000Y-94580000D03*
%TO.N,MPU9250_CS*%
X125050000Y-97120000D03*
%TO.N,Net-(J1-Pad6)*%
X125050000Y-99660000D03*
%TO.N,IMU_MOSI_3.3v*%
X125050000Y-102200000D03*
%TO.N,IMU_CLK_3.3v*%
X125050000Y-104740000D03*
%TO.N,GND*%
X125050000Y-107280000D03*
%TO.N,+5V*%
X125050000Y-109820000D03*
%TD*%
D12*
%TO.N,GND*%
X150425000Y-105225000D03*
D13*
%TO.N,*%
X149250000Y-87750000D03*
X149250000Y-109000000D03*
D12*
%TO.N,MPU9250_CS*%
X140750000Y-96212500D03*
%TO.N,IMU_MOSI_3.3v*%
X139150000Y-102637500D03*
X146762500Y-97037500D03*
%TO.N,IMU_MOSI*%
X135325000Y-100050000D03*
X137025000Y-100050000D03*
%TO.N,IMU_MISO_3.3v*%
X145275000Y-96825000D03*
X138875000Y-97087500D03*
%TO.N,IMU_MISO*%
X135142500Y-96307500D03*
X137450000Y-96125000D03*
%TO.N,IMU_CLK_3.3v*%
X139162170Y-95487830D03*
X137611299Y-105138701D03*
X147875000Y-96725000D03*
%TO.N,ICM20948_DRDY*%
X140350000Y-94525000D03*
X135295000Y-92150000D03*
%TO.N,GND*%
X138100000Y-89512500D03*
X144500000Y-108775000D03*
X138325000Y-108775000D03*
X143162500Y-92962500D03*
X134950000Y-110650000D03*
X138600000Y-98725000D03*
X128800000Y-110475000D03*
X148900000Y-94550000D03*
X150100000Y-98125000D03*
X141925000Y-95962500D03*
X146400000Y-93225000D03*
X142475000Y-102612500D03*
X146662500Y-102862500D03*
%TO.N,+3V3*%
X129528799Y-104273799D03*
X129025000Y-89955000D03*
X150400000Y-103625000D03*
X149950000Y-96875000D03*
X146825000Y-104600000D03*
X129120000Y-93900000D03*
X140200000Y-104462500D03*
X129387889Y-100012111D03*
X144900000Y-100975000D03*
X138250000Y-110500000D03*
X129250000Y-96300000D03*
X146556250Y-101631250D03*
%TO.N,+1V8*%
X135225000Y-90030000D03*
X135378799Y-105998799D03*
X144550000Y-90687500D03*
X138050000Y-91237500D03*
X135345000Y-94000000D03*
X135312889Y-101837111D03*
X135227500Y-98032500D03*
%TO.N,LSM6D3_CS*%
X148187500Y-95362500D03*
%TD*%
%TA.AperFunction,Conductor*%
%TO.N,GND*%
G36*
X124105623Y-85720502D02*
G01*
X124152116Y-85774158D01*
X124162220Y-85844432D01*
X124107505Y-85931265D01*
X124055807Y-85965809D01*
X124011603Y-86031964D01*
X123996082Y-86109998D01*
X123996082Y-87810002D01*
X124011603Y-87888036D01*
X124055808Y-87954192D01*
X124121964Y-87998397D01*
X124199998Y-88013918D01*
X125900002Y-88013918D01*
X125978036Y-87998397D01*
X126044192Y-87954192D01*
X126088397Y-87888036D01*
X126103918Y-87810002D01*
X126103918Y-86109998D01*
X126088397Y-86031964D01*
X126044193Y-85965809D01*
X125992495Y-85931265D01*
X125946968Y-85876787D01*
X125938121Y-85806344D01*
X125968762Y-85742300D01*
X126062498Y-85700500D01*
X148792322Y-85700500D01*
X148860443Y-85720502D01*
X148906936Y-85774158D01*
X148917040Y-85844432D01*
X148887546Y-85909012D01*
X148818519Y-85949747D01*
X148703679Y-85974157D01*
X148397839Y-86098968D01*
X148380455Y-86110000D01*
X148118933Y-86275966D01*
X147875782Y-86499555D01*
X147749601Y-86665793D01*
X147676065Y-86762673D01*
X147526100Y-87056997D01*
X147430625Y-87373225D01*
X147392658Y-87701364D01*
X147413399Y-88031039D01*
X147452333Y-88189550D01*
X147492192Y-88351831D01*
X147626550Y-88653602D01*
X147649281Y-88687049D01*
X147801946Y-88911688D01*
X147812222Y-88926809D01*
X148043340Y-89162819D01*
X148312598Y-89354171D01*
X148611485Y-89494816D01*
X148611487Y-89494817D01*
X148611488Y-89494817D01*
X148930559Y-89580312D01*
X149095143Y-89594133D01*
X149259726Y-89607954D01*
X149259728Y-89607954D01*
X149369349Y-89597592D01*
X149588594Y-89576867D01*
X149843117Y-89505801D01*
X149906749Y-89488035D01*
X150094978Y-89397042D01*
X150204148Y-89344268D01*
X150471389Y-89150105D01*
X150700024Y-88911687D01*
X150882823Y-88636553D01*
X150945331Y-88492105D01*
X151014013Y-88333391D01*
X151089443Y-88011792D01*
X151100623Y-87584836D01*
X151042127Y-87259729D01*
X150926985Y-86950119D01*
X150758834Y-86665793D01*
X150542991Y-86415736D01*
X150286279Y-86207855D01*
X150108282Y-86110000D01*
X149996815Y-86048720D01*
X149996814Y-86048720D01*
X149996811Y-86048718D01*
X149691350Y-85945919D01*
X149633167Y-85905234D01*
X149606217Y-85839551D01*
X149619055Y-85769725D01*
X149667606Y-85717925D01*
X149731539Y-85700500D01*
X151549501Y-85700500D01*
X151549500Y-111549500D01*
X123450500Y-111549500D01*
X123450500Y-109908289D01*
X123998620Y-109908289D01*
X124035791Y-110110817D01*
X124111596Y-110302279D01*
X124223139Y-110475359D01*
X124366182Y-110623484D01*
X124535269Y-110741003D01*
X124723962Y-110823441D01*
X124925077Y-110867659D01*
X125130943Y-110871970D01*
X125130945Y-110871970D01*
X125210436Y-110857954D01*
X125333731Y-110836215D01*
X125525715Y-110761748D01*
X125699570Y-110651415D01*
X125699572Y-110651414D01*
X125848690Y-110509411D01*
X125922421Y-110404890D01*
X137649500Y-110404890D01*
X137649500Y-110595110D01*
X137708281Y-110776019D01*
X137820090Y-110929910D01*
X137973981Y-111041719D01*
X138154890Y-111100500D01*
X138345110Y-111100500D01*
X138526019Y-111041719D01*
X138679910Y-110929910D01*
X138791719Y-110776019D01*
X138850500Y-110595110D01*
X138850500Y-110404890D01*
X138791719Y-110223981D01*
X138679910Y-110070090D01*
X138526019Y-109958281D01*
X138345110Y-109899500D01*
X138154890Y-109899500D01*
X137973981Y-109958281D01*
X137820090Y-110070090D01*
X137708281Y-110223981D01*
X137649500Y-110404890D01*
X125922421Y-110404890D01*
X125967387Y-110341148D01*
X126051140Y-110153035D01*
X126096760Y-109952237D01*
X126100045Y-109717042D01*
X126077233Y-109601831D01*
X126060050Y-109515050D01*
X125981579Y-109324668D01*
X125867629Y-109153160D01*
X125722535Y-109007049D01*
X125722533Y-109007047D01*
X125639981Y-108951364D01*
X147392658Y-108951364D01*
X147413399Y-109281039D01*
X147424116Y-109324670D01*
X147492192Y-109601831D01*
X147626550Y-109903602D01*
X147663710Y-109958281D01*
X147801946Y-110161688D01*
X147812222Y-110176809D01*
X148043340Y-110412819D01*
X148312598Y-110604171D01*
X148611485Y-110744816D01*
X148611487Y-110744817D01*
X148611488Y-110744817D01*
X148930559Y-110830312D01*
X149095144Y-110844133D01*
X149259726Y-110857954D01*
X149259728Y-110857954D01*
X149369349Y-110847592D01*
X149588594Y-110826867D01*
X149843117Y-110755801D01*
X149906749Y-110738035D01*
X150085934Y-110651414D01*
X150204148Y-110594268D01*
X150471389Y-110400105D01*
X150700024Y-110161687D01*
X150882823Y-109886553D01*
X150962517Y-109702391D01*
X151014013Y-109583391D01*
X151089443Y-109261792D01*
X151100623Y-108834836D01*
X151042127Y-108509729D01*
X150926985Y-108200119D01*
X150758834Y-107915793D01*
X150542991Y-107665736D01*
X150286279Y-107457855D01*
X149996811Y-107298718D01*
X149683737Y-107193357D01*
X149683734Y-107193356D01*
X149356956Y-107145102D01*
X149356953Y-107145102D01*
X149026788Y-107155478D01*
X148703679Y-107224157D01*
X148397839Y-107348968D01*
X148397836Y-107348970D01*
X148118933Y-107525966D01*
X147875782Y-107749555D01*
X147749601Y-107915793D01*
X147676065Y-108012673D01*
X147526100Y-108306997D01*
X147430625Y-108623225D01*
X147392658Y-108951364D01*
X125639981Y-108951364D01*
X125551822Y-108891900D01*
X125361996Y-108812105D01*
X125361995Y-108812105D01*
X125361993Y-108812104D01*
X125160289Y-108770700D01*
X125005853Y-108769621D01*
X124954375Y-108769262D01*
X124954374Y-108769262D01*
X124752106Y-108807847D01*
X124685307Y-108834836D01*
X124561186Y-108884984D01*
X124388883Y-108997736D01*
X124241762Y-109141808D01*
X124125426Y-109311711D01*
X124044308Y-109500976D01*
X124001495Y-109702391D01*
X123998924Y-109886553D01*
X123998620Y-109908289D01*
X123450500Y-109908289D01*
X123450500Y-105903689D01*
X134778299Y-105903689D01*
X134778299Y-106093909D01*
X134837080Y-106274818D01*
X134948889Y-106428709D01*
X135102780Y-106540518D01*
X135283689Y-106599299D01*
X135473909Y-106599299D01*
X135654818Y-106540518D01*
X135808709Y-106428709D01*
X135920518Y-106274818D01*
X135979299Y-106093909D01*
X135979299Y-105903689D01*
X135920518Y-105722780D01*
X135808709Y-105568889D01*
X135654818Y-105457080D01*
X135473909Y-105398299D01*
X135283689Y-105398299D01*
X135102780Y-105457080D01*
X134948889Y-105568889D01*
X134837080Y-105722780D01*
X134778299Y-105903689D01*
X123450500Y-105903689D01*
X123450500Y-104828289D01*
X123998620Y-104828289D01*
X124035791Y-105030817D01*
X124111596Y-105222279D01*
X124223139Y-105395359D01*
X124366182Y-105543484D01*
X124535269Y-105661003D01*
X124723962Y-105743441D01*
X124925077Y-105787659D01*
X125130943Y-105791970D01*
X125130945Y-105791970D01*
X125191736Y-105781251D01*
X125333731Y-105756215D01*
X125525715Y-105681748D01*
X125699570Y-105571415D01*
X125699572Y-105571414D01*
X125848690Y-105429411D01*
X125859054Y-105414720D01*
X125967386Y-105261149D01*
X125967387Y-105261148D01*
X126051140Y-105073035D01*
X126057829Y-105043591D01*
X137010799Y-105043591D01*
X137010799Y-105233811D01*
X137069580Y-105414720D01*
X137181389Y-105568611D01*
X137335280Y-105680420D01*
X137516189Y-105739201D01*
X137706409Y-105739201D01*
X137887318Y-105680420D01*
X138041209Y-105568611D01*
X138153018Y-105414720D01*
X138211799Y-105233811D01*
X138211799Y-105043591D01*
X138153018Y-104862682D01*
X138041209Y-104708791D01*
X137887318Y-104596982D01*
X137706409Y-104538201D01*
X137516189Y-104538201D01*
X137335280Y-104596982D01*
X137181389Y-104708791D01*
X137069580Y-104862682D01*
X137010799Y-105043591D01*
X126057829Y-105043591D01*
X126096760Y-104872237D01*
X126100045Y-104637042D01*
X126084317Y-104557610D01*
X126060050Y-104435050D01*
X125981579Y-104244668D01*
X125937743Y-104178689D01*
X128928299Y-104178689D01*
X128928299Y-104368909D01*
X128987080Y-104549818D01*
X129098889Y-104703709D01*
X129252780Y-104815518D01*
X129433689Y-104874299D01*
X129623909Y-104874299D01*
X129804818Y-104815518D01*
X129958709Y-104703709D01*
X130070518Y-104549818D01*
X130129299Y-104368909D01*
X130129299Y-104367390D01*
X139599500Y-104367390D01*
X139599500Y-104557610D01*
X139658281Y-104738519D01*
X139770090Y-104892410D01*
X139923981Y-105004219D01*
X140104890Y-105063000D01*
X140295110Y-105063000D01*
X140476019Y-105004219D01*
X140629910Y-104892410D01*
X140741719Y-104738519D01*
X140800500Y-104557610D01*
X140800500Y-104504890D01*
X146224500Y-104504890D01*
X146224500Y-104695110D01*
X146283281Y-104876019D01*
X146395090Y-105029910D01*
X146548981Y-105141719D01*
X146729890Y-105200500D01*
X146920110Y-105200500D01*
X147101019Y-105141719D01*
X147254910Y-105029910D01*
X147366719Y-104876019D01*
X147425500Y-104695110D01*
X147425500Y-104504890D01*
X147366719Y-104323981D01*
X147254910Y-104170090D01*
X147101019Y-104058281D01*
X146920110Y-103999500D01*
X146729890Y-103999500D01*
X146548981Y-104058281D01*
X146395090Y-104170090D01*
X146283281Y-104323981D01*
X146224500Y-104504890D01*
X140800500Y-104504890D01*
X140800500Y-104367390D01*
X140741719Y-104186481D01*
X140629910Y-104032590D01*
X140476019Y-103920781D01*
X140295110Y-103862000D01*
X140104890Y-103862000D01*
X139923981Y-103920781D01*
X139770090Y-104032590D01*
X139658281Y-104186481D01*
X139599500Y-104367390D01*
X130129299Y-104367390D01*
X130129299Y-104178689D01*
X130070518Y-103997780D01*
X129958709Y-103843889D01*
X129804818Y-103732080D01*
X129623909Y-103673299D01*
X129433689Y-103673299D01*
X129252780Y-103732080D01*
X129098889Y-103843889D01*
X128987080Y-103997780D01*
X128928299Y-104178689D01*
X125937743Y-104178689D01*
X125867629Y-104073160D01*
X125722535Y-103927049D01*
X125722533Y-103927047D01*
X125551822Y-103811900D01*
X125361996Y-103732105D01*
X125361995Y-103732105D01*
X125361993Y-103732104D01*
X125160289Y-103690700D01*
X125005853Y-103689621D01*
X124954375Y-103689262D01*
X124954374Y-103689262D01*
X124752106Y-103727847D01*
X124656646Y-103766416D01*
X124561186Y-103804984D01*
X124388883Y-103917736D01*
X124241762Y-104061808D01*
X124125426Y-104231711D01*
X124044308Y-104420976D01*
X124026471Y-104504890D01*
X124001495Y-104622391D01*
X123998620Y-104828289D01*
X123450500Y-104828289D01*
X123450500Y-103529890D01*
X149799500Y-103529890D01*
X149799500Y-103720110D01*
X149858281Y-103901019D01*
X149970090Y-104054910D01*
X150123981Y-104166719D01*
X150304890Y-104225500D01*
X150495110Y-104225500D01*
X150676019Y-104166719D01*
X150829910Y-104054910D01*
X150941719Y-103901019D01*
X151000500Y-103720110D01*
X151000500Y-103529890D01*
X150941719Y-103348981D01*
X150829910Y-103195090D01*
X150676019Y-103083281D01*
X150495110Y-103024500D01*
X150304890Y-103024500D01*
X150123981Y-103083281D01*
X149970090Y-103195090D01*
X149858281Y-103348981D01*
X149799500Y-103529890D01*
X123450500Y-103529890D01*
X123450500Y-102288289D01*
X123998620Y-102288289D01*
X124035791Y-102490817D01*
X124111596Y-102682279D01*
X124223139Y-102855359D01*
X124366182Y-103003484D01*
X124535269Y-103121003D01*
X124723962Y-103203441D01*
X124925077Y-103247659D01*
X125130943Y-103251970D01*
X125130945Y-103251970D01*
X125210175Y-103238000D01*
X125333731Y-103216215D01*
X125525715Y-103141748D01*
X125699570Y-103031415D01*
X125699572Y-103031414D01*
X125848690Y-102889411D01*
X125967387Y-102721148D01*
X126046974Y-102542390D01*
X138549500Y-102542390D01*
X138549500Y-102732610D01*
X138608281Y-102913519D01*
X138720090Y-103067410D01*
X138873981Y-103179219D01*
X139054890Y-103238000D01*
X139245110Y-103238000D01*
X139426019Y-103179219D01*
X139579910Y-103067410D01*
X139691719Y-102913519D01*
X139750500Y-102732610D01*
X139750500Y-102542390D01*
X139691719Y-102361481D01*
X139579910Y-102207590D01*
X139426019Y-102095781D01*
X139245110Y-102037000D01*
X139054890Y-102037000D01*
X138873981Y-102095781D01*
X138720090Y-102207590D01*
X138608281Y-102361481D01*
X138549500Y-102542390D01*
X126046974Y-102542390D01*
X126051140Y-102533035D01*
X126096760Y-102332237D01*
X126100045Y-102097042D01*
X126100045Y-102097040D01*
X126060050Y-101895050D01*
X125996967Y-101742001D01*
X134712389Y-101742001D01*
X134712389Y-101932221D01*
X134771170Y-102113130D01*
X134882979Y-102267021D01*
X135036870Y-102378830D01*
X135217779Y-102437611D01*
X135407999Y-102437611D01*
X135588908Y-102378830D01*
X135742799Y-102267021D01*
X135854608Y-102113130D01*
X135913389Y-101932221D01*
X135913389Y-101742001D01*
X135854608Y-101561092D01*
X135742799Y-101407201D01*
X135588908Y-101295392D01*
X135407999Y-101236611D01*
X135217779Y-101236611D01*
X135036870Y-101295392D01*
X134882979Y-101407201D01*
X134771170Y-101561092D01*
X134712389Y-101742001D01*
X125996967Y-101742001D01*
X125981579Y-101704668D01*
X125867629Y-101533160D01*
X125722535Y-101387049D01*
X125722533Y-101387047D01*
X125551822Y-101271900D01*
X125361996Y-101192105D01*
X125361995Y-101192105D01*
X125361993Y-101192104D01*
X125160289Y-101150700D01*
X125005853Y-101149622D01*
X124954375Y-101149262D01*
X124954374Y-101149262D01*
X124752106Y-101187847D01*
X124656647Y-101226415D01*
X124561186Y-101264984D01*
X124388883Y-101377736D01*
X124241762Y-101521808D01*
X124125426Y-101691711D01*
X124044308Y-101880976D01*
X124011143Y-102037000D01*
X124001495Y-102082391D01*
X123998620Y-102288289D01*
X123450500Y-102288289D01*
X123450500Y-100879890D01*
X144299500Y-100879890D01*
X144299500Y-101070110D01*
X144358281Y-101251019D01*
X144470090Y-101404910D01*
X144623981Y-101516719D01*
X144804890Y-101575500D01*
X144995110Y-101575500D01*
X145116247Y-101536140D01*
X145955750Y-101536140D01*
X145955750Y-101726360D01*
X146014531Y-101907269D01*
X146126340Y-102061160D01*
X146280231Y-102172969D01*
X146461140Y-102231750D01*
X146651360Y-102231750D01*
X146832269Y-102172969D01*
X146986160Y-102061160D01*
X147097969Y-101907269D01*
X147156750Y-101726360D01*
X147156750Y-101536140D01*
X147097969Y-101355231D01*
X146986160Y-101201340D01*
X146832269Y-101089531D01*
X146651360Y-101030750D01*
X146461140Y-101030750D01*
X146280231Y-101089531D01*
X146126340Y-101201340D01*
X146014531Y-101355231D01*
X145955750Y-101536140D01*
X145116247Y-101536140D01*
X145176019Y-101516719D01*
X145329910Y-101404910D01*
X145441719Y-101251019D01*
X145500500Y-101070110D01*
X145500500Y-100879890D01*
X145441719Y-100698981D01*
X145329910Y-100545090D01*
X145176019Y-100433281D01*
X144995110Y-100374500D01*
X144804890Y-100374500D01*
X144623981Y-100433281D01*
X144470090Y-100545090D01*
X144358281Y-100698981D01*
X144299500Y-100879890D01*
X123450500Y-100879890D01*
X123450500Y-99748289D01*
X123998620Y-99748289D01*
X124035791Y-99950817D01*
X124111596Y-100142279D01*
X124223139Y-100315359D01*
X124366182Y-100463484D01*
X124535269Y-100581003D01*
X124723962Y-100663441D01*
X124925077Y-100707659D01*
X125130943Y-100711970D01*
X125130945Y-100711970D01*
X125204611Y-100698981D01*
X125333731Y-100676215D01*
X125525715Y-100601748D01*
X125699570Y-100491415D01*
X125699572Y-100491414D01*
X125848690Y-100349411D01*
X125865192Y-100326019D01*
X125967386Y-100181149D01*
X125967387Y-100181148D01*
X126051140Y-99993035D01*
X126068414Y-99917001D01*
X128787389Y-99917001D01*
X128787389Y-100107221D01*
X128846170Y-100288130D01*
X128957979Y-100442021D01*
X129111870Y-100553830D01*
X129292779Y-100612611D01*
X129482999Y-100612611D01*
X129663908Y-100553830D01*
X129817799Y-100442021D01*
X129929608Y-100288130D01*
X129988389Y-100107221D01*
X129988389Y-99954890D01*
X134724500Y-99954890D01*
X134724500Y-100145110D01*
X134783281Y-100326019D01*
X134895090Y-100479910D01*
X135048981Y-100591719D01*
X135229890Y-100650500D01*
X135420110Y-100650500D01*
X135601019Y-100591719D01*
X135754910Y-100479910D01*
X135866719Y-100326019D01*
X135925500Y-100145110D01*
X135925500Y-99954890D01*
X136424500Y-99954890D01*
X136424500Y-100145110D01*
X136483281Y-100326019D01*
X136595090Y-100479910D01*
X136748981Y-100591719D01*
X136929890Y-100650500D01*
X137120110Y-100650500D01*
X137301019Y-100591719D01*
X137454910Y-100479910D01*
X137566719Y-100326019D01*
X137625500Y-100145110D01*
X137625500Y-99954890D01*
X137566719Y-99773981D01*
X137454910Y-99620090D01*
X137301019Y-99508281D01*
X137120110Y-99449500D01*
X136929890Y-99449500D01*
X136748981Y-99508281D01*
X136595090Y-99620090D01*
X136483281Y-99773981D01*
X136424500Y-99954890D01*
X135925500Y-99954890D01*
X135866719Y-99773981D01*
X135754910Y-99620090D01*
X135601019Y-99508281D01*
X135420110Y-99449500D01*
X135229890Y-99449500D01*
X135048981Y-99508281D01*
X134895090Y-99620090D01*
X134783281Y-99773981D01*
X134724500Y-99954890D01*
X129988389Y-99954890D01*
X129988389Y-99917001D01*
X129929608Y-99736092D01*
X129817799Y-99582201D01*
X129663908Y-99470392D01*
X129482999Y-99411611D01*
X129292779Y-99411611D01*
X129111870Y-99470392D01*
X128957979Y-99582201D01*
X128846170Y-99736092D01*
X128787389Y-99917001D01*
X126068414Y-99917001D01*
X126096760Y-99792237D01*
X126100045Y-99557042D01*
X126082888Y-99470392D01*
X126060050Y-99355050D01*
X125981579Y-99164668D01*
X125867629Y-98993160D01*
X125722535Y-98847049D01*
X125722533Y-98847047D01*
X125551822Y-98731900D01*
X125361996Y-98652105D01*
X125361995Y-98652105D01*
X125361993Y-98652104D01*
X125160289Y-98610700D01*
X125005853Y-98609621D01*
X124954375Y-98609262D01*
X124954374Y-98609262D01*
X124752106Y-98647847D01*
X124656647Y-98686415D01*
X124561186Y-98724984D01*
X124388883Y-98837736D01*
X124241762Y-98981808D01*
X124125426Y-99151711D01*
X124044308Y-99340976D01*
X124001495Y-99542391D01*
X123998620Y-99748289D01*
X123450500Y-99748289D01*
X123450500Y-97208289D01*
X123998620Y-97208289D01*
X124035791Y-97410817D01*
X124111596Y-97602279D01*
X124223139Y-97775359D01*
X124366182Y-97923484D01*
X124535269Y-98041003D01*
X124723962Y-98123441D01*
X124925077Y-98167659D01*
X125130943Y-98171970D01*
X125130945Y-98171970D01*
X125191736Y-98161251D01*
X125333731Y-98136215D01*
X125525715Y-98061748D01*
X125699570Y-97951415D01*
X125699572Y-97951414D01*
X125714298Y-97937390D01*
X134627000Y-97937390D01*
X134627000Y-98127610D01*
X134685781Y-98308519D01*
X134797590Y-98462410D01*
X134951481Y-98574219D01*
X135132390Y-98633000D01*
X135322610Y-98633000D01*
X135503519Y-98574219D01*
X135657410Y-98462410D01*
X135769219Y-98308519D01*
X135808540Y-98187500D01*
X140250000Y-98187500D01*
X140250000Y-100312500D01*
X142300000Y-100362500D01*
X142325000Y-98187500D01*
X140250000Y-98187500D01*
X135808540Y-98187500D01*
X135828000Y-98127610D01*
X135828000Y-97937390D01*
X135769219Y-97756481D01*
X135657410Y-97602590D01*
X135503519Y-97490781D01*
X135322610Y-97432000D01*
X135132390Y-97432000D01*
X134951481Y-97490781D01*
X134797590Y-97602590D01*
X134685781Y-97756481D01*
X134627000Y-97937390D01*
X125714298Y-97937390D01*
X125848690Y-97809411D01*
X125967387Y-97641148D01*
X126051140Y-97453035D01*
X126096760Y-97252237D01*
X126100045Y-97017042D01*
X126097144Y-97002391D01*
X126095164Y-96992390D01*
X138274500Y-96992390D01*
X138274500Y-97182610D01*
X138333281Y-97363519D01*
X138445090Y-97517410D01*
X138598981Y-97629219D01*
X138779890Y-97688000D01*
X138970110Y-97688000D01*
X139151019Y-97629219D01*
X139304910Y-97517410D01*
X139416719Y-97363519D01*
X139475500Y-97182610D01*
X139475500Y-96992390D01*
X139416719Y-96811481D01*
X139304910Y-96657590D01*
X139151019Y-96545781D01*
X138970110Y-96487000D01*
X138779890Y-96487000D01*
X138598981Y-96545781D01*
X138445090Y-96657590D01*
X138333281Y-96811481D01*
X138274500Y-96992390D01*
X126095164Y-96992390D01*
X126060050Y-96815050D01*
X126020814Y-96719859D01*
X125981580Y-96624670D01*
X125970232Y-96607590D01*
X125867629Y-96453160D01*
X125722535Y-96307049D01*
X125722533Y-96307047D01*
X125571081Y-96204890D01*
X128649500Y-96204890D01*
X128649500Y-96395110D01*
X128708281Y-96576019D01*
X128820090Y-96729910D01*
X128973981Y-96841719D01*
X129154890Y-96900500D01*
X129345110Y-96900500D01*
X129526019Y-96841719D01*
X129679910Y-96729910D01*
X129791719Y-96576019D01*
X129850500Y-96395110D01*
X129850500Y-96212390D01*
X134542000Y-96212390D01*
X134542000Y-96402610D01*
X134600781Y-96583519D01*
X134712590Y-96737410D01*
X134866481Y-96849219D01*
X135047390Y-96908000D01*
X135237610Y-96908000D01*
X135418519Y-96849219D01*
X135572410Y-96737410D01*
X135684219Y-96583519D01*
X135743000Y-96402610D01*
X135743000Y-96212390D01*
X135684219Y-96031481D01*
X135683064Y-96029890D01*
X136849500Y-96029890D01*
X136849500Y-96220110D01*
X136908281Y-96401019D01*
X137020090Y-96554910D01*
X137173981Y-96666719D01*
X137354890Y-96725500D01*
X137545110Y-96725500D01*
X137726019Y-96666719D01*
X137879910Y-96554910D01*
X137991719Y-96401019D01*
X138050500Y-96220110D01*
X138050500Y-96117390D01*
X140149500Y-96117390D01*
X140149500Y-96307610D01*
X140208281Y-96488519D01*
X140320090Y-96642410D01*
X140473981Y-96754219D01*
X140654890Y-96813000D01*
X140845110Y-96813000D01*
X141026019Y-96754219D01*
X141059504Y-96729890D01*
X144674500Y-96729890D01*
X144674500Y-96920110D01*
X144733281Y-97101019D01*
X144845090Y-97254910D01*
X144998981Y-97366719D01*
X145179890Y-97425500D01*
X145370110Y-97425500D01*
X145551019Y-97366719D01*
X145704910Y-97254910D01*
X145816719Y-97101019D01*
X145868260Y-96942390D01*
X146162000Y-96942390D01*
X146162000Y-97132610D01*
X146220781Y-97313519D01*
X146332590Y-97467410D01*
X146486481Y-97579219D01*
X146667390Y-97638000D01*
X146857610Y-97638000D01*
X147038519Y-97579219D01*
X147192410Y-97467410D01*
X147304219Y-97313519D01*
X147372817Y-97102399D01*
X147445089Y-97154908D01*
X147445090Y-97154910D01*
X147598981Y-97266719D01*
X147779890Y-97325500D01*
X147970110Y-97325500D01*
X148151019Y-97266719D01*
X148304910Y-97154910D01*
X148416719Y-97001019D01*
X148475500Y-96820110D01*
X148475500Y-96779890D01*
X149349500Y-96779890D01*
X149349500Y-96970110D01*
X149408281Y-97151019D01*
X149520090Y-97304910D01*
X149673981Y-97416719D01*
X149854890Y-97475500D01*
X150045110Y-97475500D01*
X150226019Y-97416719D01*
X150379910Y-97304910D01*
X150491719Y-97151019D01*
X150550500Y-96970110D01*
X150550500Y-96779890D01*
X150491719Y-96598981D01*
X150379910Y-96445090D01*
X150226019Y-96333281D01*
X150045110Y-96274500D01*
X149854890Y-96274500D01*
X149673981Y-96333281D01*
X149520090Y-96445090D01*
X149408281Y-96598981D01*
X149349500Y-96779890D01*
X148475500Y-96779890D01*
X148475500Y-96629890D01*
X148416719Y-96448981D01*
X148304910Y-96295090D01*
X148161555Y-96190936D01*
X148118201Y-96134714D01*
X148112126Y-96063977D01*
X148145258Y-96001186D01*
X148235616Y-95963000D01*
X148282610Y-95963000D01*
X148463519Y-95904219D01*
X148617410Y-95792410D01*
X148729219Y-95638519D01*
X148788000Y-95457610D01*
X148788000Y-95267390D01*
X148729219Y-95086481D01*
X148617410Y-94932590D01*
X148463519Y-94820781D01*
X148282610Y-94762000D01*
X148092390Y-94762000D01*
X147911481Y-94820781D01*
X147757590Y-94932590D01*
X147645781Y-95086481D01*
X147587000Y-95267390D01*
X147587000Y-95457610D01*
X147645781Y-95638519D01*
X147757590Y-95792410D01*
X147900945Y-95896564D01*
X147944299Y-95952786D01*
X147950374Y-96023523D01*
X147917242Y-96086314D01*
X147826884Y-96124500D01*
X147779890Y-96124500D01*
X147598981Y-96183281D01*
X147445090Y-96295090D01*
X147333281Y-96448981D01*
X147264683Y-96660101D01*
X147192411Y-96607592D01*
X147192410Y-96607590D01*
X147038519Y-96495781D01*
X146857610Y-96437000D01*
X146667390Y-96437000D01*
X146486481Y-96495781D01*
X146332590Y-96607590D01*
X146220781Y-96761481D01*
X146162000Y-96942390D01*
X145868260Y-96942390D01*
X145875500Y-96920110D01*
X145875500Y-96729890D01*
X145816719Y-96548981D01*
X145704910Y-96395090D01*
X145551019Y-96283281D01*
X145370110Y-96224500D01*
X145179890Y-96224500D01*
X144998981Y-96283281D01*
X144845090Y-96395090D01*
X144733281Y-96548981D01*
X144674500Y-96729890D01*
X141059504Y-96729890D01*
X141179910Y-96642410D01*
X141291719Y-96488519D01*
X141350500Y-96307610D01*
X141350500Y-96117390D01*
X141291719Y-95936481D01*
X141179910Y-95782590D01*
X141026019Y-95670781D01*
X140845110Y-95612000D01*
X140654890Y-95612000D01*
X140473981Y-95670781D01*
X140320090Y-95782590D01*
X140208281Y-95936481D01*
X140149500Y-96117390D01*
X138050500Y-96117390D01*
X138050500Y-96029890D01*
X137991719Y-95848981D01*
X137879910Y-95695090D01*
X137726019Y-95583281D01*
X137545110Y-95524500D01*
X137354890Y-95524500D01*
X137173981Y-95583281D01*
X137020090Y-95695090D01*
X136908281Y-95848981D01*
X136849500Y-96029890D01*
X135683064Y-96029890D01*
X135572410Y-95877590D01*
X135418519Y-95765781D01*
X135237610Y-95707000D01*
X135047390Y-95707000D01*
X134866481Y-95765781D01*
X134712590Y-95877590D01*
X134600781Y-96031481D01*
X134542000Y-96212390D01*
X129850500Y-96212390D01*
X129850500Y-96204890D01*
X129791719Y-96023981D01*
X129679910Y-95870090D01*
X129526019Y-95758281D01*
X129345110Y-95699500D01*
X129154890Y-95699500D01*
X128973981Y-95758281D01*
X128820090Y-95870090D01*
X128708281Y-96023981D01*
X128649500Y-96204890D01*
X125571081Y-96204890D01*
X125551822Y-96191900D01*
X125361996Y-96112105D01*
X125361995Y-96112105D01*
X125361993Y-96112104D01*
X125160289Y-96070700D01*
X125005853Y-96069622D01*
X124954375Y-96069262D01*
X124954374Y-96069262D01*
X124752106Y-96107847D01*
X124656646Y-96146416D01*
X124561186Y-96184984D01*
X124388883Y-96297736D01*
X124241762Y-96441808D01*
X124125426Y-96611711D01*
X124044308Y-96800976D01*
X124023153Y-96900500D01*
X124001495Y-97002391D01*
X123998620Y-97208289D01*
X123450500Y-97208289D01*
X123450500Y-94668289D01*
X123998620Y-94668289D01*
X124035791Y-94870817D01*
X124111596Y-95062279D01*
X124223139Y-95235359D01*
X124366182Y-95383484D01*
X124535269Y-95501003D01*
X124723962Y-95583441D01*
X124925077Y-95627659D01*
X125130943Y-95631970D01*
X125130945Y-95631970D01*
X125191736Y-95621251D01*
X125333731Y-95596215D01*
X125525715Y-95521748D01*
X125699570Y-95411415D01*
X125699572Y-95411414D01*
X125719202Y-95392720D01*
X138561670Y-95392720D01*
X138561670Y-95582940D01*
X138620451Y-95763849D01*
X138732260Y-95917740D01*
X138886151Y-96029549D01*
X139067060Y-96088330D01*
X139257280Y-96088330D01*
X139438189Y-96029549D01*
X139592080Y-95917740D01*
X139703889Y-95763849D01*
X139762670Y-95582940D01*
X139762670Y-95392720D01*
X139703889Y-95211811D01*
X139592080Y-95057920D01*
X139438189Y-94946111D01*
X139257280Y-94887330D01*
X139067060Y-94887330D01*
X138886151Y-94946111D01*
X138732260Y-95057920D01*
X138620451Y-95211811D01*
X138561670Y-95392720D01*
X125719202Y-95392720D01*
X125848690Y-95269411D01*
X125967387Y-95101148D01*
X126051140Y-94913035D01*
X126096760Y-94712237D01*
X126100045Y-94477042D01*
X126090709Y-94429890D01*
X126060050Y-94275050D01*
X125981579Y-94084668D01*
X125867629Y-93913160D01*
X125760113Y-93804890D01*
X128519500Y-93804890D01*
X128519500Y-93995110D01*
X128578281Y-94176019D01*
X128690090Y-94329910D01*
X128843981Y-94441719D01*
X129024890Y-94500500D01*
X129215110Y-94500500D01*
X129396019Y-94441719D01*
X129549910Y-94329910D01*
X129661719Y-94176019D01*
X129720500Y-93995110D01*
X129720500Y-93904890D01*
X134744500Y-93904890D01*
X134744500Y-94095110D01*
X134803281Y-94276019D01*
X134915090Y-94429910D01*
X135068981Y-94541719D01*
X135249890Y-94600500D01*
X135440110Y-94600500D01*
X135621019Y-94541719D01*
X135774910Y-94429910D01*
X135774924Y-94429890D01*
X139749500Y-94429890D01*
X139749500Y-94620110D01*
X139808281Y-94801019D01*
X139920090Y-94954910D01*
X140073981Y-95066719D01*
X140254890Y-95125500D01*
X140445110Y-95125500D01*
X140626019Y-95066719D01*
X140779910Y-94954910D01*
X140891719Y-94801019D01*
X140950500Y-94620110D01*
X140950500Y-94429890D01*
X140891719Y-94248981D01*
X140779910Y-94095090D01*
X140626019Y-93983281D01*
X140445110Y-93924500D01*
X140254890Y-93924500D01*
X140073981Y-93983281D01*
X139920090Y-94095090D01*
X139808281Y-94248981D01*
X139749500Y-94429890D01*
X135774924Y-94429890D01*
X135886719Y-94276019D01*
X135945500Y-94095110D01*
X135945500Y-93904890D01*
X135886719Y-93723981D01*
X135774910Y-93570090D01*
X135621019Y-93458281D01*
X135440110Y-93399500D01*
X135249890Y-93399500D01*
X135068981Y-93458281D01*
X134915090Y-93570090D01*
X134803281Y-93723981D01*
X134744500Y-93904890D01*
X129720500Y-93904890D01*
X129720500Y-93804890D01*
X129661719Y-93623981D01*
X129549910Y-93470090D01*
X129396019Y-93358281D01*
X129215110Y-93299500D01*
X129024890Y-93299500D01*
X128843981Y-93358281D01*
X128690090Y-93470090D01*
X128578281Y-93623981D01*
X128519500Y-93804890D01*
X125760113Y-93804890D01*
X125722535Y-93767049D01*
X125722533Y-93767047D01*
X125551822Y-93651900D01*
X125361996Y-93572105D01*
X125361995Y-93572105D01*
X125361993Y-93572104D01*
X125160289Y-93530700D01*
X125005853Y-93529622D01*
X124954375Y-93529262D01*
X124954374Y-93529262D01*
X124752106Y-93567847D01*
X124656646Y-93606416D01*
X124561186Y-93644984D01*
X124388883Y-93757736D01*
X124241762Y-93901808D01*
X124125426Y-94071711D01*
X124044308Y-94260976D01*
X124008399Y-94429910D01*
X124001495Y-94462391D01*
X123998620Y-94668289D01*
X123450500Y-94668289D01*
X123450500Y-92128289D01*
X123998620Y-92128289D01*
X124035791Y-92330817D01*
X124111596Y-92522279D01*
X124223139Y-92695359D01*
X124366182Y-92843484D01*
X124535269Y-92961003D01*
X124723962Y-93043441D01*
X124925077Y-93087659D01*
X125130943Y-93091970D01*
X125130945Y-93091970D01*
X125191736Y-93081251D01*
X125333731Y-93056215D01*
X125525715Y-92981748D01*
X125699570Y-92871415D01*
X125699572Y-92871414D01*
X125848690Y-92729411D01*
X125967387Y-92561148D01*
X126051140Y-92373035D01*
X126096760Y-92172237D01*
X126098399Y-92054890D01*
X134694500Y-92054890D01*
X134694500Y-92245110D01*
X134753281Y-92426019D01*
X134865090Y-92579910D01*
X135018981Y-92691719D01*
X135199890Y-92750500D01*
X135390110Y-92750500D01*
X135571019Y-92691719D01*
X135724910Y-92579910D01*
X135836719Y-92426019D01*
X135895500Y-92245110D01*
X135895500Y-92054890D01*
X135836719Y-91873981D01*
X135724910Y-91720090D01*
X135571019Y-91608281D01*
X135390110Y-91549500D01*
X135199890Y-91549500D01*
X135018981Y-91608281D01*
X134865090Y-91720090D01*
X134753281Y-91873981D01*
X134694500Y-92054890D01*
X126098399Y-92054890D01*
X126100045Y-91937042D01*
X126087559Y-91873981D01*
X126060050Y-91735050D01*
X125981579Y-91544668D01*
X125867629Y-91373160D01*
X125722535Y-91227049D01*
X125722533Y-91227047D01*
X125597025Y-91142390D01*
X137449500Y-91142390D01*
X137449500Y-91332610D01*
X137508281Y-91513519D01*
X137620090Y-91667410D01*
X137773981Y-91779219D01*
X137954890Y-91838000D01*
X138145110Y-91838000D01*
X138326019Y-91779219D01*
X138479910Y-91667410D01*
X138591719Y-91513519D01*
X138650500Y-91332610D01*
X138650500Y-91142390D01*
X138591719Y-90961481D01*
X138574296Y-90937500D01*
X140225000Y-90937500D01*
X142275000Y-90937500D01*
X142275000Y-90592390D01*
X143949500Y-90592390D01*
X143949500Y-90782610D01*
X144008281Y-90963519D01*
X144120090Y-91117410D01*
X144273981Y-91229219D01*
X144454890Y-91288000D01*
X144645110Y-91288000D01*
X144826019Y-91229219D01*
X144979910Y-91117410D01*
X145091719Y-90963519D01*
X145150500Y-90782610D01*
X145150500Y-90592390D01*
X145091719Y-90411481D01*
X144979910Y-90257590D01*
X144826019Y-90145781D01*
X144645110Y-90087000D01*
X144454890Y-90087000D01*
X144273981Y-90145781D01*
X144120090Y-90257590D01*
X144008281Y-90411481D01*
X143949500Y-90592390D01*
X142275000Y-90592390D01*
X142275000Y-88812500D01*
X140250000Y-88812500D01*
X140225000Y-90937500D01*
X138574296Y-90937500D01*
X138479910Y-90807590D01*
X138326019Y-90695781D01*
X138145110Y-90637000D01*
X137954890Y-90637000D01*
X137773981Y-90695781D01*
X137620090Y-90807590D01*
X137508281Y-90961481D01*
X137449500Y-91142390D01*
X125597025Y-91142390D01*
X125551822Y-91111900D01*
X125361996Y-91032105D01*
X125361995Y-91032105D01*
X125361993Y-91032104D01*
X125160289Y-90990700D01*
X125005853Y-90989622D01*
X124954375Y-90989262D01*
X124954374Y-90989262D01*
X124752106Y-91027847D01*
X124656646Y-91066416D01*
X124561186Y-91104984D01*
X124388883Y-91217736D01*
X124241762Y-91361808D01*
X124125426Y-91531711D01*
X124076760Y-91645260D01*
X124044688Y-91720090D01*
X124044308Y-91720976D01*
X124031928Y-91779219D01*
X124001495Y-91922391D01*
X123998620Y-92128289D01*
X123450500Y-92128289D01*
X123450500Y-89588289D01*
X123998620Y-89588289D01*
X124035791Y-89790817D01*
X124111596Y-89982279D01*
X124223139Y-90155359D01*
X124366182Y-90303484D01*
X124535269Y-90421003D01*
X124723962Y-90503441D01*
X124925077Y-90547659D01*
X125130943Y-90551970D01*
X125130945Y-90551970D01*
X125191736Y-90541251D01*
X125333731Y-90516215D01*
X125525715Y-90441748D01*
X125699570Y-90331415D01*
X125699572Y-90331414D01*
X125848690Y-90189411D01*
X125967387Y-90021148D01*
X126039183Y-89859890D01*
X128424500Y-89859890D01*
X128424500Y-90050110D01*
X128483281Y-90231019D01*
X128595090Y-90384910D01*
X128748981Y-90496719D01*
X128929890Y-90555500D01*
X129120110Y-90555500D01*
X129301019Y-90496719D01*
X129454910Y-90384910D01*
X129566719Y-90231019D01*
X129625500Y-90050110D01*
X129625500Y-89934890D01*
X134624500Y-89934890D01*
X134624500Y-90125110D01*
X134683281Y-90306019D01*
X134795090Y-90459910D01*
X134948981Y-90571719D01*
X135129890Y-90630500D01*
X135320110Y-90630500D01*
X135501019Y-90571719D01*
X135654910Y-90459910D01*
X135766719Y-90306019D01*
X135825500Y-90125110D01*
X135825500Y-89934890D01*
X135766719Y-89753981D01*
X135654910Y-89600090D01*
X135501019Y-89488281D01*
X135320110Y-89429500D01*
X135129890Y-89429500D01*
X134948981Y-89488281D01*
X134795090Y-89600090D01*
X134683281Y-89753981D01*
X134624500Y-89934890D01*
X129625500Y-89934890D01*
X129625500Y-89859890D01*
X129566719Y-89678981D01*
X129454910Y-89525090D01*
X129301019Y-89413281D01*
X129120110Y-89354500D01*
X128929890Y-89354500D01*
X128748981Y-89413281D01*
X128595090Y-89525090D01*
X128483281Y-89678981D01*
X128424500Y-89859890D01*
X126039183Y-89859890D01*
X126051140Y-89833035D01*
X126096760Y-89632237D01*
X126100045Y-89397042D01*
X126097144Y-89382391D01*
X126060050Y-89195050D01*
X125981579Y-89004668D01*
X125867629Y-88833160D01*
X125722535Y-88687049D01*
X125722533Y-88687047D01*
X125551822Y-88571900D01*
X125361996Y-88492105D01*
X125361995Y-88492105D01*
X125361993Y-88492104D01*
X125160289Y-88450700D01*
X125005853Y-88449622D01*
X124954375Y-88449262D01*
X124954374Y-88449262D01*
X124752106Y-88487847D01*
X124656647Y-88526415D01*
X124561186Y-88564984D01*
X124388883Y-88677736D01*
X124241762Y-88821808D01*
X124125426Y-88991711D01*
X124044308Y-89180976D01*
X124007424Y-89354500D01*
X124001495Y-89382391D01*
X123998620Y-89588289D01*
X123450500Y-89588289D01*
X123450500Y-85700500D01*
X124037502Y-85700500D01*
X124105623Y-85720502D01*
G37*
%TD.AperFunction*%
%TD*%
M02*
