%TF.GenerationSoftware,KiCad,Pcbnew,(5.99.0-3293-g62433736b)*%
%TF.CreationDate,2020-09-21T11:29:42+07:00*%
%TF.ProjectId,IMU_board,494d555f-626f-4617-9264-2e6b69636164,rev?*%
%TF.SameCoordinates,Original*%
%TF.FileFunction,Copper,L4,Bot*%
%TF.FilePolarity,Positive*%
%FSLAX46Y46*%
G04 Gerber Fmt 4.6, Leading zero omitted, Abs format (unit mm)*
G04 Created by KiCad (PCBNEW (5.99.0-3293-g62433736b)) date 2020-09-21 11:29:42*
%MOMM*%
%LPD*%
G01*
G04 APERTURE LIST*
%TA.AperFunction,ComponentPad*%
%ADD10R,1.700000X1.700000*%
%TD*%
%TA.AperFunction,ComponentPad*%
%ADD11O,1.700000X1.700000*%
%TD*%
%TA.AperFunction,ViaPad*%
%ADD12C,0.800000*%
%TD*%
%TA.AperFunction,ViaPad*%
%ADD13C,3.300000*%
%TD*%
%TA.AperFunction,Conductor*%
%ADD14C,0.152400*%
%TD*%
G04 APERTURE END LIST*
D10*
%TO.P,J1,1,Pin_1*%
%TO.N,LSM6D3_CS*%
X125050000Y-86960000D03*
D11*
%TO.P,J1,2,Pin_2*%
%TO.N,ICM20948_CS_3.3v*%
X125050000Y-89500000D03*
%TO.P,J1,3,Pin_3*%
%TO.N,ICM20948_DRDY_3.3v*%
X125050000Y-92040000D03*
%TO.P,J1,4,Pin_4*%
%TO.N,IMU_MISO_3.3v*%
X125050000Y-94580000D03*
%TO.P,J1,5,Pin_5*%
%TO.N,MPU9250_CS*%
X125050000Y-97120000D03*
%TO.P,J1,6,Pin_6*%
%TO.N,Net-(J1-Pad6)*%
X125050000Y-99660000D03*
%TO.P,J1,7,Pin_7*%
%TO.N,IMU_MOSI_3.3v*%
X125050000Y-102200000D03*
%TO.P,J1,8,Pin_8*%
%TO.N,IMU_CLK_3.3v*%
X125050000Y-104740000D03*
%TO.P,J1,9,Pin_9*%
%TO.N,GND*%
X125050000Y-107280000D03*
%TO.P,J1,10,Pin_10*%
%TO.N,+5V*%
X125050000Y-109820000D03*
%TD*%
D12*
%TO.N,GND*%
X150425000Y-105225000D03*
D13*
%TO.N,*%
X149250000Y-87750000D03*
X149250000Y-109000000D03*
D12*
%TO.N,MPU9250_CS*%
X140750000Y-96212500D03*
%TO.N,IMU_MOSI_3.3v*%
X139150000Y-102637500D03*
X146762500Y-97037500D03*
%TO.N,IMU_MOSI*%
X135325000Y-100050000D03*
X137025000Y-100050000D03*
%TO.N,IMU_MISO_3.3v*%
X145275000Y-96825000D03*
X138875000Y-97087500D03*
%TO.N,IMU_MISO*%
X135142500Y-96307500D03*
X137450000Y-96125000D03*
%TO.N,IMU_CLK_3.3v*%
X139162170Y-95487830D03*
X137611299Y-105138701D03*
X147875000Y-96725000D03*
%TO.N,ICM20948_DRDY*%
X140350000Y-94525000D03*
X135295000Y-92150000D03*
%TO.N,GND*%
X138100000Y-89512500D03*
X144500000Y-108775000D03*
X138325000Y-108775000D03*
X143162500Y-92962500D03*
X134950000Y-110650000D03*
X138600000Y-98725000D03*
X128800000Y-110475000D03*
X148900000Y-94550000D03*
X150100000Y-98125000D03*
X141925000Y-95962500D03*
X146400000Y-93225000D03*
X142475000Y-102612500D03*
X146662500Y-102862500D03*
%TO.N,+3V3*%
X129528799Y-104273799D03*
X129025000Y-89955000D03*
X150400000Y-103625000D03*
X149950000Y-96875000D03*
X146825000Y-104600000D03*
X129120000Y-93900000D03*
X140200000Y-104462500D03*
X129387889Y-100012111D03*
X144900000Y-100975000D03*
X138250000Y-110500000D03*
X129250000Y-96300000D03*
X146556250Y-101631250D03*
%TO.N,+1V8*%
X135225000Y-90030000D03*
X135378799Y-105998799D03*
X144550000Y-90687500D03*
X138050000Y-91237500D03*
X135345000Y-94000000D03*
X135312889Y-101837111D03*
X135227500Y-98032500D03*
%TO.N,LSM6D3_CS*%
X148187500Y-95362500D03*
%TD*%
D14*
%TO.N,MPU9250_CS*%
X140750000Y-96212500D02*
X138926201Y-98036299D01*
X136836305Y-98036299D02*
X135811494Y-99061111D01*
X138926201Y-98036299D02*
X136836305Y-98036299D01*
X135811494Y-99061111D02*
X126991111Y-99061111D01*
X126991111Y-99061111D02*
X125050000Y-97120000D01*
%TO.N,IMU_MOSI_3.3v*%
X141162500Y-102637500D02*
X139150000Y-102637500D01*
X139150000Y-102637500D02*
X125487500Y-102637500D01*
X125487500Y-102637500D02*
X125050000Y-102200000D01*
X146762500Y-97037500D02*
X141162500Y-102637500D01*
%TO.N,IMU_MOSI*%
X137025000Y-100050000D02*
X135325000Y-100050000D01*
%TO.N,IMU_MISO_3.3v*%
X138875000Y-97087500D02*
X137286722Y-97087500D01*
X128800521Y-98708701D02*
X125050000Y-94958180D01*
X143786299Y-95286299D02*
X145325000Y-96825000D01*
X138875000Y-97087500D02*
X140676201Y-95286299D01*
X137286722Y-97087500D02*
X135665521Y-98708701D01*
X140676201Y-95286299D02*
X143786299Y-95286299D01*
X135665521Y-98708701D02*
X128800521Y-98708701D01*
X125050000Y-94958180D02*
X125050000Y-94580000D01*
%TO.N,IMU_MISO*%
X135325000Y-96125000D02*
X135142500Y-96307500D01*
X137450000Y-96125000D02*
X135325000Y-96125000D01*
%TO.N,IMU_CLK_3.3v*%
X140949577Y-105138701D02*
X137611299Y-105138701D01*
X137611299Y-105138701D02*
X125448701Y-105138701D01*
X147875000Y-96725000D02*
X147875000Y-96925778D01*
X125448701Y-105138701D02*
X125050000Y-104740000D01*
X143151201Y-101649577D02*
X143151201Y-102937077D01*
X147875000Y-96925778D02*
X143151201Y-101649577D01*
X143151201Y-102937077D02*
X140949577Y-105138701D01*
%TO.N,LSM6D3_CS*%
X141326201Y-92826201D02*
X141824583Y-92826201D01*
X142898382Y-93900000D02*
X146159315Y-93900000D01*
X130916201Y-92826201D02*
X125050000Y-86960000D01*
X148187500Y-95362500D02*
X147621815Y-95362500D01*
X136350000Y-93900000D02*
X135276201Y-92826201D01*
X135276201Y-92826201D02*
X130916201Y-92826201D01*
X141824583Y-92826201D02*
X142898382Y-93900000D01*
X147621815Y-95362500D02*
X146159315Y-93900000D01*
X135276201Y-92826201D02*
X141326201Y-92826201D01*
%TD*%
%TA.AperFunction,Conductor*%
%TO.N,GND*%
G36*
X148860443Y-85720502D02*
G01*
X148906936Y-85774158D01*
X148917040Y-85844432D01*
X148887546Y-85909012D01*
X148818519Y-85949747D01*
X148703679Y-85974157D01*
X148397839Y-86098968D01*
X148380455Y-86110000D01*
X148118933Y-86275966D01*
X147875782Y-86499555D01*
X147749601Y-86665793D01*
X147676065Y-86762673D01*
X147526100Y-87056997D01*
X147430625Y-87373225D01*
X147392658Y-87701364D01*
X147413399Y-88031039D01*
X147452333Y-88189550D01*
X147492192Y-88351831D01*
X147626550Y-88653602D01*
X147649281Y-88687049D01*
X147801946Y-88911688D01*
X147812222Y-88926809D01*
X148043340Y-89162819D01*
X148312598Y-89354171D01*
X148611485Y-89494816D01*
X148611487Y-89494817D01*
X148611488Y-89494817D01*
X148930559Y-89580312D01*
X149095143Y-89594133D01*
X149259726Y-89607954D01*
X149259728Y-89607954D01*
X149369349Y-89597592D01*
X149588594Y-89576867D01*
X149843117Y-89505801D01*
X149906749Y-89488035D01*
X150094978Y-89397042D01*
X150204148Y-89344268D01*
X150471389Y-89150105D01*
X150700024Y-88911687D01*
X150882823Y-88636553D01*
X150945331Y-88492105D01*
X151014013Y-88333391D01*
X151089443Y-88011792D01*
X151100623Y-87584836D01*
X151042127Y-87259729D01*
X150926985Y-86950119D01*
X150758834Y-86665793D01*
X150542991Y-86415736D01*
X150286279Y-86207855D01*
X150108282Y-86110000D01*
X149996815Y-86048720D01*
X149996814Y-86048720D01*
X149996811Y-86048718D01*
X149691350Y-85945919D01*
X149633167Y-85905234D01*
X149606217Y-85839551D01*
X149619055Y-85769725D01*
X149667606Y-85717925D01*
X149731539Y-85700500D01*
X151549501Y-85700500D01*
X151549500Y-111549500D01*
X123450500Y-111549500D01*
X123450500Y-107475753D01*
X123470502Y-107407632D01*
X123524158Y-107361139D01*
X123594432Y-107351035D01*
X123659012Y-107380529D01*
X123702145Y-107466306D01*
X123704432Y-107496728D01*
X123760186Y-107720345D01*
X123852820Y-107931369D01*
X123979683Y-108123768D01*
X124137153Y-108292044D01*
X124320723Y-108431381D01*
X124525141Y-108537794D01*
X124692640Y-108591572D01*
X124751385Y-108631441D01*
X124779250Y-108696741D01*
X124767387Y-108766739D01*
X124701323Y-108828365D01*
X124691763Y-108832227D01*
X124561186Y-108884984D01*
X124388883Y-108997736D01*
X124241762Y-109141808D01*
X124125426Y-109311711D01*
X124044308Y-109500976D01*
X124001495Y-109702391D01*
X123998924Y-109886553D01*
X123998620Y-109908289D01*
X124035791Y-110110817D01*
X124111596Y-110302279D01*
X124223139Y-110475359D01*
X124366182Y-110623484D01*
X124535269Y-110741003D01*
X124723962Y-110823441D01*
X124925077Y-110867659D01*
X125130943Y-110871970D01*
X125130945Y-110871970D01*
X125210436Y-110857954D01*
X125333731Y-110836215D01*
X125525715Y-110761748D01*
X125699570Y-110651415D01*
X125699572Y-110651414D01*
X125848690Y-110509411D01*
X125922421Y-110404890D01*
X137649500Y-110404890D01*
X137649500Y-110595110D01*
X137708281Y-110776019D01*
X137820090Y-110929910D01*
X137973981Y-111041719D01*
X138154890Y-111100500D01*
X138345110Y-111100500D01*
X138526019Y-111041719D01*
X138679910Y-110929910D01*
X138791719Y-110776019D01*
X138850500Y-110595110D01*
X138850500Y-110404890D01*
X138791719Y-110223981D01*
X138679910Y-110070090D01*
X138526019Y-109958281D01*
X138345110Y-109899500D01*
X138154890Y-109899500D01*
X137973981Y-109958281D01*
X137820090Y-110070090D01*
X137708281Y-110223981D01*
X137649500Y-110404890D01*
X125922421Y-110404890D01*
X125967387Y-110341148D01*
X126051140Y-110153035D01*
X126096760Y-109952237D01*
X126100045Y-109717042D01*
X126077233Y-109601831D01*
X126060050Y-109515050D01*
X125981579Y-109324668D01*
X125867629Y-109153160D01*
X125722535Y-109007049D01*
X125722533Y-109007047D01*
X125639981Y-108951364D01*
X147392658Y-108951364D01*
X147413399Y-109281039D01*
X147424116Y-109324670D01*
X147492192Y-109601831D01*
X147626550Y-109903602D01*
X147663710Y-109958281D01*
X147801946Y-110161688D01*
X147812222Y-110176809D01*
X148043340Y-110412819D01*
X148312598Y-110604171D01*
X148611485Y-110744816D01*
X148611487Y-110744817D01*
X148611488Y-110744817D01*
X148930559Y-110830312D01*
X149095144Y-110844133D01*
X149259726Y-110857954D01*
X149259728Y-110857954D01*
X149369349Y-110847592D01*
X149588594Y-110826867D01*
X149843117Y-110755801D01*
X149906749Y-110738035D01*
X150085934Y-110651414D01*
X150204148Y-110594268D01*
X150471389Y-110400105D01*
X150700024Y-110161687D01*
X150882823Y-109886553D01*
X150962517Y-109702391D01*
X151014013Y-109583391D01*
X151089443Y-109261792D01*
X151100623Y-108834836D01*
X151042127Y-108509729D01*
X150926985Y-108200119D01*
X150758834Y-107915793D01*
X150542991Y-107665736D01*
X150286279Y-107457855D01*
X149996811Y-107298718D01*
X149683737Y-107193357D01*
X149683734Y-107193356D01*
X149356956Y-107145102D01*
X149356953Y-107145102D01*
X149026788Y-107155478D01*
X148703679Y-107224157D01*
X148397839Y-107348968D01*
X148397836Y-107348970D01*
X148118933Y-107525966D01*
X147875782Y-107749555D01*
X147789276Y-107863523D01*
X147676065Y-108012673D01*
X147526100Y-108306997D01*
X147430625Y-108623225D01*
X147392658Y-108951364D01*
X125639981Y-108951364D01*
X125551822Y-108891900D01*
X125402816Y-108829264D01*
X125347770Y-108784428D01*
X125325702Y-108716948D01*
X125343620Y-108648250D01*
X125419756Y-108594623D01*
X125419116Y-108592956D01*
X125425724Y-108590420D01*
X125426954Y-108589553D01*
X125429096Y-108589125D01*
X125644250Y-108506535D01*
X125842412Y-108388874D01*
X126017917Y-108239509D01*
X126165748Y-108062705D01*
X126281674Y-107863523D01*
X126362383Y-107647660D01*
X126384065Y-107534000D01*
X124796000Y-107534000D01*
X124796000Y-107026000D01*
X126384308Y-107026000D01*
X126369198Y-106937600D01*
X126292649Y-106720226D01*
X126180569Y-106518860D01*
X126036158Y-106339247D01*
X125863558Y-106186544D01*
X125667688Y-106065101D01*
X125454159Y-105978395D01*
X125419309Y-105970733D01*
X125357073Y-105936569D01*
X125323186Y-105874181D01*
X125328409Y-105803377D01*
X125400800Y-105730200D01*
X125525712Y-105681749D01*
X125525711Y-105681749D01*
X125525715Y-105681748D01*
X125699570Y-105571415D01*
X125699572Y-105571414D01*
X125819635Y-105457080D01*
X125863403Y-105415401D01*
X134813116Y-105415401D01*
X134881237Y-105435403D01*
X134927730Y-105489059D01*
X134937834Y-105559333D01*
X134915052Y-105615462D01*
X134837080Y-105722780D01*
X134778299Y-105903689D01*
X134778299Y-106093909D01*
X134837080Y-106274818D01*
X134948889Y-106428709D01*
X135102780Y-106540518D01*
X135283689Y-106599299D01*
X135473909Y-106599299D01*
X135654818Y-106540518D01*
X135808709Y-106428709D01*
X135920518Y-106274818D01*
X135979299Y-106093909D01*
X135979299Y-105903689D01*
X135920518Y-105722780D01*
X135842546Y-105615462D01*
X135818688Y-105548595D01*
X135834768Y-105479443D01*
X135885681Y-105429963D01*
X135944482Y-105415401D01*
X137070075Y-105415401D01*
X137181389Y-105568611D01*
X137335280Y-105680420D01*
X137516189Y-105739201D01*
X137706409Y-105739201D01*
X137887318Y-105680420D01*
X138041209Y-105568611D01*
X138152523Y-105415401D01*
X140902385Y-105415401D01*
X140917449Y-105420691D01*
X140964986Y-105415401D01*
X140980768Y-105415401D01*
X140995800Y-105411972D01*
X141042914Y-105406729D01*
X141056703Y-105398079D01*
X141072656Y-105394440D01*
X141110213Y-105364512D01*
X141123266Y-105356324D01*
X141134162Y-105345428D01*
X141171384Y-105315767D01*
X141178429Y-105301161D01*
X141974700Y-104504890D01*
X146224500Y-104504890D01*
X146224500Y-104695110D01*
X146283281Y-104876019D01*
X146395090Y-105029910D01*
X146548981Y-105141719D01*
X146729890Y-105200500D01*
X146920110Y-105200500D01*
X147101019Y-105141719D01*
X147254910Y-105029910D01*
X147366719Y-104876019D01*
X147425500Y-104695110D01*
X147425500Y-104504890D01*
X147366719Y-104323981D01*
X147254910Y-104170090D01*
X147101019Y-104058281D01*
X146920110Y-103999500D01*
X146729890Y-103999500D01*
X146548981Y-104058281D01*
X146395090Y-104170090D01*
X146283281Y-104323981D01*
X146224500Y-104504890D01*
X141974700Y-104504890D01*
X142949700Y-103529890D01*
X149799500Y-103529890D01*
X149799500Y-103720110D01*
X149858281Y-103901019D01*
X149970090Y-104054910D01*
X150123981Y-104166719D01*
X150304890Y-104225500D01*
X150495110Y-104225500D01*
X150676019Y-104166719D01*
X150829910Y-104054910D01*
X150941719Y-103901019D01*
X151000500Y-103720110D01*
X151000500Y-103529890D01*
X150941719Y-103348981D01*
X150829910Y-103195090D01*
X150676019Y-103083281D01*
X150495110Y-103024500D01*
X150304890Y-103024500D01*
X150123981Y-103083281D01*
X149970090Y-103195090D01*
X149858281Y-103348981D01*
X149799500Y-103529890D01*
X142949700Y-103529890D01*
X143313486Y-103166105D01*
X143327880Y-103159193D01*
X143357760Y-103121831D01*
X143368914Y-103110678D01*
X143377117Y-103097627D01*
X143406725Y-103060603D01*
X143410359Y-103044735D01*
X143419067Y-103030881D01*
X143424460Y-102983164D01*
X143427901Y-102968143D01*
X143427901Y-102952730D01*
X143433247Y-102905440D01*
X143430257Y-102896878D01*
X143427901Y-102890130D01*
X143427901Y-101764189D01*
X144255965Y-100936125D01*
X144358281Y-101251020D01*
X144390520Y-101295392D01*
X144470090Y-101404910D01*
X144623981Y-101516719D01*
X144804890Y-101575500D01*
X144995110Y-101575500D01*
X145116247Y-101536140D01*
X145955750Y-101536140D01*
X145955750Y-101726360D01*
X146014531Y-101907269D01*
X146126340Y-102061160D01*
X146280231Y-102172969D01*
X146461140Y-102231750D01*
X146651360Y-102231750D01*
X146832269Y-102172969D01*
X146986160Y-102061160D01*
X147097969Y-101907269D01*
X147156750Y-101726360D01*
X147156750Y-101536140D01*
X147097969Y-101355231D01*
X146986160Y-101201340D01*
X146832269Y-101089531D01*
X146651360Y-101030750D01*
X146461140Y-101030750D01*
X146280231Y-101089531D01*
X146126340Y-101201340D01*
X146014531Y-101355231D01*
X145955750Y-101536140D01*
X145116247Y-101536140D01*
X145176019Y-101516719D01*
X145329910Y-101404910D01*
X145441719Y-101251019D01*
X145500500Y-101070110D01*
X145500500Y-100879890D01*
X145441719Y-100698981D01*
X145329910Y-100545090D01*
X145176020Y-100433281D01*
X144861125Y-100330965D01*
X147866591Y-97325500D01*
X147970110Y-97325500D01*
X148151019Y-97266719D01*
X148304910Y-97154910D01*
X148416719Y-97001019D01*
X148475500Y-96820110D01*
X148475500Y-96779890D01*
X149349500Y-96779890D01*
X149349500Y-96970110D01*
X149408281Y-97151019D01*
X149520090Y-97304910D01*
X149673981Y-97416719D01*
X149854890Y-97475500D01*
X150045110Y-97475500D01*
X150226019Y-97416719D01*
X150379910Y-97304910D01*
X150491719Y-97151019D01*
X150550500Y-96970110D01*
X150550500Y-96779890D01*
X150491719Y-96598981D01*
X150379910Y-96445090D01*
X150226019Y-96333281D01*
X150045110Y-96274500D01*
X149854890Y-96274500D01*
X149673981Y-96333281D01*
X149520090Y-96445090D01*
X149408281Y-96598981D01*
X149349500Y-96779890D01*
X148475500Y-96779890D01*
X148475500Y-96629890D01*
X148416719Y-96448981D01*
X148304910Y-96295090D01*
X148180761Y-96204890D01*
X148161555Y-96190936D01*
X148118201Y-96134714D01*
X148112126Y-96063977D01*
X148145258Y-96001186D01*
X148235616Y-95963000D01*
X148282610Y-95963000D01*
X148463519Y-95904219D01*
X148617410Y-95792410D01*
X148729219Y-95638519D01*
X148788000Y-95457610D01*
X148788000Y-95267390D01*
X148729219Y-95086481D01*
X148617410Y-94932590D01*
X148463519Y-94820781D01*
X148282610Y-94762000D01*
X148092390Y-94762000D01*
X147911481Y-94820781D01*
X147656595Y-95005967D01*
X146388344Y-93737717D01*
X146381431Y-93723321D01*
X146344064Y-93693437D01*
X146332917Y-93682289D01*
X146319874Y-93674091D01*
X146282842Y-93644477D01*
X146282841Y-93644477D01*
X146282840Y-93644476D01*
X146266970Y-93640841D01*
X146253119Y-93632136D01*
X146205413Y-93626743D01*
X146190381Y-93623300D01*
X146174959Y-93623300D01*
X146127679Y-93617955D01*
X146112373Y-93623300D01*
X143012995Y-93623300D01*
X142053612Y-92663918D01*
X142046699Y-92649522D01*
X142009332Y-92619638D01*
X141998185Y-92608490D01*
X141985142Y-92600292D01*
X141948110Y-92570678D01*
X141948109Y-92570678D01*
X141948108Y-92570677D01*
X141932238Y-92567042D01*
X141918387Y-92558337D01*
X141870681Y-92552944D01*
X141855649Y-92549501D01*
X141840227Y-92549501D01*
X141792947Y-92544156D01*
X141777641Y-92549501D01*
X135796597Y-92549501D01*
X135853935Y-92373035D01*
X135895500Y-92245110D01*
X135895500Y-92054890D01*
X135836719Y-91873981D01*
X135724910Y-91720090D01*
X135571019Y-91608281D01*
X135390110Y-91549500D01*
X135199890Y-91549500D01*
X135018981Y-91608281D01*
X134865090Y-91720090D01*
X134753281Y-91873981D01*
X134694500Y-92054890D01*
X134694500Y-92245110D01*
X134736066Y-92373035D01*
X134793403Y-92549501D01*
X131030814Y-92549501D01*
X129623703Y-91142390D01*
X137449500Y-91142390D01*
X137449500Y-91332610D01*
X137508281Y-91513519D01*
X137620090Y-91667410D01*
X137773981Y-91779219D01*
X137954890Y-91838000D01*
X138145110Y-91838000D01*
X138326019Y-91779219D01*
X138479910Y-91667410D01*
X138591719Y-91513519D01*
X138650500Y-91332610D01*
X138650500Y-91142390D01*
X138591719Y-90961481D01*
X138574296Y-90937500D01*
X140225000Y-90937500D01*
X142275000Y-90937500D01*
X142275000Y-90592390D01*
X143949500Y-90592390D01*
X143949500Y-90782610D01*
X144008281Y-90963519D01*
X144120090Y-91117410D01*
X144273981Y-91229219D01*
X144454890Y-91288000D01*
X144645110Y-91288000D01*
X144826019Y-91229219D01*
X144979910Y-91117410D01*
X145091719Y-90963519D01*
X145150500Y-90782610D01*
X145150500Y-90592390D01*
X145091719Y-90411481D01*
X144979910Y-90257590D01*
X144826019Y-90145781D01*
X144645110Y-90087000D01*
X144454890Y-90087000D01*
X144273981Y-90145781D01*
X144120090Y-90257590D01*
X144008281Y-90411481D01*
X143949500Y-90592390D01*
X142275000Y-90592390D01*
X142275000Y-88812500D01*
X140250000Y-88812500D01*
X140225000Y-90937500D01*
X138574296Y-90937500D01*
X138479910Y-90807590D01*
X138326019Y-90695781D01*
X138145110Y-90637000D01*
X137954890Y-90637000D01*
X137773981Y-90695781D01*
X137620090Y-90807590D01*
X137508281Y-90961481D01*
X137449500Y-91142390D01*
X129623703Y-91142390D01*
X129057242Y-90575929D01*
X129301019Y-90496719D01*
X129454910Y-90384910D01*
X129566719Y-90231019D01*
X129625500Y-90050110D01*
X129625500Y-89934890D01*
X134624500Y-89934890D01*
X134624500Y-90125110D01*
X134683281Y-90306019D01*
X134795090Y-90459910D01*
X134948981Y-90571719D01*
X135129890Y-90630500D01*
X135320110Y-90630500D01*
X135501019Y-90571719D01*
X135654910Y-90459910D01*
X135766719Y-90306019D01*
X135825500Y-90125110D01*
X135825500Y-89934890D01*
X135766719Y-89753981D01*
X135654910Y-89600090D01*
X135501019Y-89488281D01*
X135320110Y-89429500D01*
X135129890Y-89429500D01*
X134948981Y-89488281D01*
X134795090Y-89600090D01*
X134683281Y-89753981D01*
X134624500Y-89934890D01*
X129625500Y-89934890D01*
X129625500Y-89859890D01*
X129566719Y-89678981D01*
X129454910Y-89525090D01*
X129301019Y-89413281D01*
X129120110Y-89354500D01*
X128929890Y-89354500D01*
X128748981Y-89413281D01*
X128595090Y-89525090D01*
X128483281Y-89678981D01*
X128404071Y-89922758D01*
X126103918Y-87622606D01*
X126103918Y-86109998D01*
X126088397Y-86031964D01*
X126044193Y-85965809D01*
X125992495Y-85931265D01*
X125946968Y-85876787D01*
X125938121Y-85806344D01*
X125968762Y-85742300D01*
X126062498Y-85700500D01*
X148792322Y-85700500D01*
X148860443Y-85720502D01*
G37*
%TD.AperFunction*%
%TA.AperFunction,Conductor*%
G36*
X124105623Y-85720502D02*
G01*
X124152116Y-85774158D01*
X124162220Y-85844432D01*
X124107505Y-85931265D01*
X124055807Y-85965809D01*
X124011603Y-86031964D01*
X123996082Y-86109998D01*
X123996082Y-87810002D01*
X124011603Y-87888036D01*
X124055808Y-87954192D01*
X124121964Y-87998397D01*
X124199998Y-88013918D01*
X125712606Y-88013918D01*
X130687173Y-92988486D01*
X130694085Y-93002880D01*
X130731447Y-93032760D01*
X130742598Y-93043912D01*
X130755653Y-93052117D01*
X130792676Y-93081725D01*
X130808546Y-93085360D01*
X130822396Y-93094065D01*
X130870103Y-93099458D01*
X130885135Y-93102901D01*
X130900557Y-93102901D01*
X130947837Y-93108246D01*
X130963143Y-93102901D01*
X135161589Y-93102901D01*
X135407105Y-93348417D01*
X135068980Y-93458281D01*
X134915090Y-93570090D01*
X134803281Y-93723981D01*
X134744500Y-93904890D01*
X134744500Y-94095110D01*
X134803281Y-94276019D01*
X134915090Y-94429910D01*
X135068981Y-94541719D01*
X135249890Y-94600500D01*
X135440110Y-94600500D01*
X135621019Y-94541719D01*
X135774910Y-94429910D01*
X135886719Y-94276019D01*
X135924689Y-94159159D01*
X135945500Y-94095110D01*
X135945500Y-94095109D01*
X135996582Y-93937895D01*
X136176396Y-94117710D01*
X136256194Y-94167864D01*
X136303900Y-94173257D01*
X136381636Y-94182045D01*
X136381637Y-94182045D01*
X136500818Y-94140426D01*
X136515355Y-94125914D01*
X136590162Y-94051238D01*
X136631990Y-93932128D01*
X136618028Y-93806662D01*
X136567623Y-93726310D01*
X136159309Y-93317996D01*
X136125284Y-93255684D01*
X136130348Y-93184869D01*
X136172895Y-93128033D01*
X136248404Y-93102901D01*
X141709971Y-93102901D01*
X142669354Y-94062286D01*
X142676266Y-94076679D01*
X142713628Y-94106559D01*
X142724779Y-94117711D01*
X142737834Y-94125916D01*
X142774857Y-94155524D01*
X142790727Y-94159159D01*
X142804577Y-94167864D01*
X142852284Y-94173257D01*
X142867316Y-94176700D01*
X142882738Y-94176700D01*
X142930018Y-94182045D01*
X142945324Y-94176700D01*
X146044703Y-94176700D01*
X147392787Y-95524785D01*
X147399699Y-95539179D01*
X147437056Y-95569054D01*
X147448214Y-95580212D01*
X147453352Y-95583441D01*
X147461265Y-95588414D01*
X147498290Y-95618024D01*
X147514158Y-95621658D01*
X147528009Y-95630364D01*
X147528011Y-95630365D01*
X147575722Y-95635758D01*
X147590748Y-95639200D01*
X147606170Y-95639200D01*
X147649865Y-95644140D01*
X147757590Y-95792410D01*
X147900945Y-95896564D01*
X147944299Y-95952786D01*
X147950374Y-96023523D01*
X147917242Y-96086314D01*
X147826884Y-96124500D01*
X147779890Y-96124500D01*
X147598981Y-96183281D01*
X147445090Y-96295090D01*
X147333281Y-96448981D01*
X147264683Y-96660101D01*
X147192411Y-96607592D01*
X147192410Y-96607590D01*
X147038519Y-96495781D01*
X146857610Y-96437000D01*
X146667390Y-96437000D01*
X146486481Y-96495781D01*
X146332590Y-96607590D01*
X146220781Y-96761481D01*
X146162000Y-96942390D01*
X146162000Y-97132610D01*
X146189976Y-97218711D01*
X141047888Y-102360800D01*
X139691224Y-102360800D01*
X139579910Y-102207590D01*
X139426019Y-102095781D01*
X139245110Y-102037000D01*
X139054890Y-102037000D01*
X138873981Y-102095781D01*
X138720090Y-102207590D01*
X138608776Y-102360800D01*
X135921954Y-102360800D01*
X135853833Y-102340798D01*
X135807340Y-102287142D01*
X135797236Y-102216868D01*
X135820018Y-102160739D01*
X135854608Y-102113130D01*
X135913389Y-101932221D01*
X135913389Y-101742001D01*
X135854608Y-101561092D01*
X135742799Y-101407201D01*
X135588908Y-101295392D01*
X135407999Y-101236611D01*
X135217779Y-101236611D01*
X135036870Y-101295392D01*
X134882979Y-101407201D01*
X134771170Y-101561092D01*
X134712389Y-101742001D01*
X134712389Y-101932221D01*
X134771170Y-102113130D01*
X134805760Y-102160739D01*
X134829619Y-102227607D01*
X134813538Y-102296758D01*
X134762624Y-102346239D01*
X134703824Y-102360800D01*
X126096360Y-102360800D01*
X126096759Y-102332241D01*
X126096760Y-102332237D01*
X126100045Y-102097042D01*
X126100045Y-102097040D01*
X126060050Y-101895050D01*
X125981579Y-101704668D01*
X125867629Y-101533160D01*
X125722535Y-101387049D01*
X125722533Y-101387047D01*
X125551822Y-101271900D01*
X125361996Y-101192105D01*
X125361995Y-101192105D01*
X125361993Y-101192104D01*
X125160289Y-101150700D01*
X125005853Y-101149622D01*
X124954375Y-101149262D01*
X124954374Y-101149262D01*
X124752106Y-101187847D01*
X124656647Y-101226415D01*
X124561186Y-101264984D01*
X124388883Y-101377736D01*
X124241762Y-101521808D01*
X124125426Y-101691711D01*
X124044308Y-101880976D01*
X124011143Y-102037000D01*
X124001495Y-102082391D01*
X123998620Y-102288289D01*
X124035791Y-102490817D01*
X124111596Y-102682279D01*
X124223139Y-102855359D01*
X124366182Y-103003484D01*
X124535269Y-103121003D01*
X124723962Y-103203441D01*
X124925077Y-103247659D01*
X125130943Y-103251970D01*
X125130945Y-103251970D01*
X125210175Y-103238000D01*
X125333731Y-103216215D01*
X125525715Y-103141748D01*
X125699570Y-103031416D01*
X125822660Y-102914200D01*
X138608776Y-102914200D01*
X138720090Y-103067410D01*
X138873981Y-103179219D01*
X139054890Y-103238000D01*
X139245110Y-103238000D01*
X139426019Y-103179219D01*
X139579910Y-103067410D01*
X139691224Y-102914200D01*
X141115308Y-102914200D01*
X141130372Y-102919490D01*
X141177909Y-102914200D01*
X141193691Y-102914200D01*
X141208723Y-102910771D01*
X141255837Y-102905528D01*
X141269626Y-102896878D01*
X141285579Y-102893239D01*
X141323136Y-102863311D01*
X141336189Y-102855123D01*
X141347085Y-102844227D01*
X141384307Y-102814566D01*
X141391352Y-102799960D01*
X142659407Y-101531906D01*
X142721718Y-101497880D01*
X142792533Y-101502945D01*
X142849369Y-101545492D01*
X142874501Y-101621001D01*
X142874501Y-101633933D01*
X142869156Y-101681213D01*
X142874501Y-101696519D01*
X142874502Y-102822463D01*
X141853077Y-103843889D01*
X141008515Y-104688451D01*
X140946203Y-104722476D01*
X140875388Y-104717412D01*
X140818552Y-104674865D01*
X140793741Y-104608345D01*
X140799587Y-104560420D01*
X140800500Y-104557610D01*
X140800500Y-104367390D01*
X140741719Y-104186481D01*
X140629910Y-104032590D01*
X140476019Y-103920781D01*
X140295110Y-103862000D01*
X140104890Y-103862000D01*
X139923981Y-103920781D01*
X139770090Y-104032590D01*
X139658281Y-104186481D01*
X139599500Y-104367390D01*
X139599500Y-104557610D01*
X139698403Y-104862001D01*
X138152523Y-104862001D01*
X138041209Y-104708791D01*
X137887318Y-104596982D01*
X137706409Y-104538201D01*
X137516189Y-104538201D01*
X137335280Y-104596982D01*
X137181389Y-104708791D01*
X137070075Y-104862001D01*
X130090992Y-104862001D01*
X130022871Y-104841999D01*
X129976378Y-104788343D01*
X129966274Y-104718069D01*
X129989056Y-104661940D01*
X130070518Y-104549818D01*
X130129299Y-104368909D01*
X130129299Y-104178689D01*
X130070518Y-103997780D01*
X129958709Y-103843889D01*
X129804818Y-103732080D01*
X129623909Y-103673299D01*
X129433689Y-103673299D01*
X129252780Y-103732080D01*
X129098889Y-103843889D01*
X128987080Y-103997780D01*
X128928299Y-104178689D01*
X128928299Y-104368909D01*
X128987080Y-104549818D01*
X129068542Y-104661940D01*
X129092400Y-104728807D01*
X129076320Y-104797959D01*
X129025406Y-104847439D01*
X128966606Y-104862001D01*
X126096903Y-104862001D01*
X126100045Y-104637042D01*
X126092113Y-104596982D01*
X126060050Y-104435050D01*
X125981579Y-104244668D01*
X125867629Y-104073160D01*
X125722535Y-103927049D01*
X125722533Y-103927047D01*
X125551822Y-103811900D01*
X125361996Y-103732105D01*
X125361995Y-103732105D01*
X125361993Y-103732104D01*
X125160289Y-103690700D01*
X125005853Y-103689621D01*
X124954375Y-103689262D01*
X124954374Y-103689262D01*
X124752106Y-103727847D01*
X124656646Y-103766416D01*
X124561186Y-103804984D01*
X124388883Y-103917736D01*
X124241762Y-104061808D01*
X124125426Y-104231711D01*
X124044308Y-104420976D01*
X124001495Y-104622391D01*
X123999044Y-104797959D01*
X123998620Y-104828289D01*
X124035791Y-105030817D01*
X124111596Y-105222279D01*
X124223139Y-105395359D01*
X124366182Y-105543484D01*
X124535269Y-105661003D01*
X124703158Y-105734352D01*
X124757574Y-105779954D01*
X124778697Y-105847735D01*
X124759822Y-105916176D01*
X124688921Y-105970500D01*
X124549386Y-106012363D01*
X124342960Y-106114833D01*
X124156749Y-106250621D01*
X123996079Y-106415841D01*
X123865546Y-106605768D01*
X123768880Y-106814972D01*
X123708842Y-107037482D01*
X123701941Y-107110484D01*
X123675617Y-107176421D01*
X123617824Y-107217658D01*
X123546911Y-107221104D01*
X123485392Y-107185664D01*
X123450500Y-107098627D01*
X123450500Y-99748289D01*
X123998620Y-99748289D01*
X124035791Y-99950817D01*
X124111596Y-100142279D01*
X124223139Y-100315359D01*
X124366182Y-100463484D01*
X124535269Y-100581003D01*
X124723962Y-100663441D01*
X124925077Y-100707659D01*
X125130943Y-100711970D01*
X125130945Y-100711970D01*
X125204611Y-100698981D01*
X125333731Y-100676215D01*
X125525715Y-100601748D01*
X125699570Y-100491415D01*
X125699572Y-100491414D01*
X125848690Y-100349411D01*
X125861703Y-100330965D01*
X125967386Y-100181149D01*
X125967387Y-100181148D01*
X126051140Y-99993035D01*
X126096760Y-99792237D01*
X126100045Y-99557042D01*
X126092160Y-99517218D01*
X126060050Y-99355050D01*
X126011718Y-99237790D01*
X125981580Y-99164670D01*
X125867628Y-98993159D01*
X125722533Y-98847047D01*
X125551822Y-98731900D01*
X125361996Y-98652105D01*
X125361995Y-98652105D01*
X125361993Y-98652104D01*
X125160289Y-98610700D01*
X125005853Y-98609621D01*
X124954375Y-98609262D01*
X124954374Y-98609262D01*
X124752106Y-98647847D01*
X124656647Y-98686415D01*
X124561186Y-98724984D01*
X124388883Y-98837736D01*
X124241762Y-98981808D01*
X124125426Y-99151711D01*
X124125426Y-99151712D01*
X124045665Y-99337811D01*
X124044308Y-99340976D01*
X124008481Y-99509525D01*
X124001495Y-99542391D01*
X123998620Y-99748289D01*
X123450500Y-99748289D01*
X123450500Y-94668289D01*
X123998620Y-94668289D01*
X124035791Y-94870817D01*
X124111596Y-95062279D01*
X124223139Y-95235359D01*
X124366182Y-95383484D01*
X124535269Y-95501003D01*
X124723962Y-95583441D01*
X124925077Y-95627659D01*
X125130943Y-95631970D01*
X125130945Y-95631970D01*
X125245161Y-95611831D01*
X125302269Y-95601762D01*
X125685282Y-95984775D01*
X125719308Y-96047087D01*
X125714243Y-96117902D01*
X125671696Y-96174738D01*
X125605176Y-96199549D01*
X125547363Y-96190025D01*
X125361996Y-96112105D01*
X125361995Y-96112105D01*
X125361993Y-96112104D01*
X125160289Y-96070700D01*
X125005853Y-96069622D01*
X124954375Y-96069262D01*
X124954374Y-96069262D01*
X124752106Y-96107847D01*
X124656646Y-96146416D01*
X124561186Y-96184984D01*
X124388883Y-96297736D01*
X124241762Y-96441808D01*
X124125426Y-96611711D01*
X124044308Y-96800976D01*
X124018985Y-96920110D01*
X124001495Y-97002391D01*
X123998620Y-97208289D01*
X124035791Y-97410817D01*
X124111596Y-97602279D01*
X124223139Y-97775359D01*
X124366182Y-97923484D01*
X124535269Y-98041003D01*
X124723962Y-98123441D01*
X124925077Y-98167659D01*
X125130943Y-98171970D01*
X125130945Y-98171970D01*
X125266136Y-98148133D01*
X125333733Y-98136214D01*
X125393417Y-98113064D01*
X125525712Y-98061749D01*
X125525715Y-98061747D01*
X125579552Y-98040864D01*
X126762083Y-99223396D01*
X126768995Y-99237790D01*
X126806357Y-99267670D01*
X126817510Y-99278824D01*
X126830561Y-99287027D01*
X126867585Y-99316635D01*
X126883453Y-99320269D01*
X126897307Y-99328977D01*
X126945024Y-99334370D01*
X126960045Y-99337811D01*
X126975454Y-99337811D01*
X127013290Y-99342088D01*
X127022748Y-99343157D01*
X127022749Y-99343157D01*
X127038058Y-99337811D01*
X128906565Y-99337811D01*
X128974686Y-99357813D01*
X129021179Y-99411469D01*
X129031283Y-99481743D01*
X128980626Y-99565747D01*
X128957979Y-99582201D01*
X128846170Y-99736092D01*
X128787389Y-99917001D01*
X128787389Y-100107221D01*
X128846170Y-100288130D01*
X128957979Y-100442021D01*
X129111870Y-100553830D01*
X129292779Y-100612611D01*
X129482999Y-100612611D01*
X129663908Y-100553830D01*
X129817799Y-100442021D01*
X129929608Y-100288130D01*
X129988389Y-100107221D01*
X129988389Y-99917001D01*
X129929608Y-99736092D01*
X129817799Y-99582201D01*
X129795152Y-99565747D01*
X129751798Y-99509525D01*
X129745723Y-99438789D01*
X129778854Y-99375997D01*
X129869213Y-99337811D01*
X134895825Y-99337811D01*
X134963946Y-99357813D01*
X135010439Y-99411469D01*
X135020543Y-99481743D01*
X134969886Y-99565747D01*
X134895090Y-99620090D01*
X134783281Y-99773981D01*
X134724500Y-99954890D01*
X134724500Y-100145110D01*
X134783281Y-100326019D01*
X134895090Y-100479910D01*
X135048981Y-100591719D01*
X135229890Y-100650500D01*
X135420110Y-100650500D01*
X135601019Y-100591719D01*
X135754910Y-100479910D01*
X135866224Y-100326700D01*
X136483776Y-100326700D01*
X136595090Y-100479910D01*
X136748981Y-100591719D01*
X136929890Y-100650500D01*
X137120110Y-100650500D01*
X137301019Y-100591719D01*
X137454910Y-100479910D01*
X137566719Y-100326019D01*
X137625500Y-100145110D01*
X137625500Y-99954890D01*
X137566719Y-99773981D01*
X137454910Y-99620090D01*
X137301019Y-99508281D01*
X137120110Y-99449500D01*
X136929890Y-99449500D01*
X136748981Y-99508281D01*
X136595090Y-99620090D01*
X136483776Y-99773300D01*
X135866224Y-99773300D01*
X135754910Y-99620090D01*
X135690702Y-99573440D01*
X135647348Y-99517218D01*
X135641273Y-99446481D01*
X135674404Y-99383690D01*
X135750827Y-99346277D01*
X135826903Y-99337811D01*
X135842685Y-99337811D01*
X135857717Y-99334382D01*
X135904831Y-99329139D01*
X135918620Y-99320489D01*
X135934573Y-99316850D01*
X135972130Y-99286922D01*
X135985183Y-99278734D01*
X135996079Y-99267838D01*
X136033301Y-99238177D01*
X136040346Y-99223571D01*
X136950918Y-98312999D01*
X138879009Y-98312999D01*
X138894073Y-98318289D01*
X138941610Y-98312999D01*
X138957392Y-98312999D01*
X138972424Y-98309570D01*
X139019538Y-98304327D01*
X139033327Y-98295677D01*
X139049280Y-98292038D01*
X139086837Y-98262110D01*
X139099890Y-98253922D01*
X139110786Y-98243026D01*
X139148008Y-98213365D01*
X139155053Y-98198759D01*
X139166312Y-98187500D01*
X140250000Y-98187500D01*
X140250000Y-100312500D01*
X142300000Y-100362500D01*
X142325000Y-98187500D01*
X140250000Y-98187500D01*
X139166312Y-98187500D01*
X140568789Y-96785024D01*
X140654890Y-96813000D01*
X140845110Y-96813000D01*
X141026019Y-96754219D01*
X141179910Y-96642410D01*
X141291719Y-96488519D01*
X141350500Y-96307610D01*
X141350500Y-96117390D01*
X141291719Y-95936481D01*
X141179910Y-95782590D01*
X141168180Y-95766445D01*
X141170956Y-95764428D01*
X141148042Y-95734712D01*
X141141967Y-95663976D01*
X141175099Y-95601184D01*
X141265457Y-95562999D01*
X143671687Y-95562999D01*
X144714738Y-96606050D01*
X144697176Y-96660101D01*
X144674500Y-96729890D01*
X144674500Y-96920110D01*
X144733281Y-97101019D01*
X144845090Y-97254910D01*
X144998981Y-97366719D01*
X145179890Y-97425500D01*
X145370110Y-97425500D01*
X145551019Y-97366719D01*
X145704910Y-97254910D01*
X145816719Y-97101019D01*
X145875500Y-96920110D01*
X145875500Y-96729890D01*
X145816719Y-96548981D01*
X145704910Y-96395090D01*
X145551019Y-96283281D01*
X145370110Y-96224500D01*
X145115813Y-96224500D01*
X144015328Y-95124016D01*
X144008415Y-95109620D01*
X143971048Y-95079736D01*
X143959901Y-95068588D01*
X143946858Y-95060390D01*
X143909826Y-95030776D01*
X143909825Y-95030776D01*
X143909824Y-95030775D01*
X143893954Y-95027140D01*
X143880103Y-95018435D01*
X143832397Y-95013042D01*
X143817365Y-95009599D01*
X143801943Y-95009599D01*
X143754663Y-95004254D01*
X143739357Y-95009599D01*
X140987465Y-95009599D01*
X140919344Y-94989597D01*
X140872851Y-94935941D01*
X140862747Y-94865667D01*
X140885530Y-94809537D01*
X140891719Y-94801019D01*
X140950500Y-94620110D01*
X140950500Y-94429890D01*
X140891719Y-94248981D01*
X140779910Y-94095090D01*
X140626019Y-93983281D01*
X140445110Y-93924500D01*
X140254890Y-93924500D01*
X140073981Y-93983281D01*
X139920090Y-94095090D01*
X139808281Y-94248981D01*
X139749500Y-94429890D01*
X139749500Y-94620110D01*
X139808281Y-94801019D01*
X139920090Y-94954910D01*
X140073981Y-95066719D01*
X140398896Y-95172291D01*
X139977765Y-95593422D01*
X139915453Y-95627448D01*
X139844638Y-95622383D01*
X139787802Y-95579836D01*
X139762670Y-95504327D01*
X139762670Y-95392720D01*
X139703889Y-95211811D01*
X139592080Y-95057920D01*
X139438189Y-94946111D01*
X139257280Y-94887330D01*
X139067060Y-94887330D01*
X138886151Y-94946111D01*
X138732260Y-95057920D01*
X138620451Y-95211811D01*
X138561670Y-95392720D01*
X138561670Y-95582940D01*
X138620451Y-95763849D01*
X138732260Y-95917740D01*
X138886151Y-96029549D01*
X139067060Y-96088330D01*
X139178668Y-96088330D01*
X139246789Y-96108332D01*
X139293282Y-96161988D01*
X139303386Y-96232262D01*
X139267763Y-96303425D01*
X139056212Y-96514976D01*
X138997135Y-96495781D01*
X138970110Y-96487000D01*
X138779890Y-96487000D01*
X138598981Y-96545781D01*
X138445090Y-96657590D01*
X138333776Y-96810800D01*
X137915496Y-96810800D01*
X137847375Y-96790798D01*
X137800882Y-96737142D01*
X137790778Y-96666868D01*
X137841435Y-96582864D01*
X137879910Y-96554910D01*
X137991719Y-96401019D01*
X138050500Y-96220110D01*
X138050500Y-96029890D01*
X137991719Y-95848981D01*
X137879910Y-95695090D01*
X137726019Y-95583281D01*
X137545110Y-95524500D01*
X137354890Y-95524500D01*
X137173981Y-95583281D01*
X137020090Y-95695090D01*
X136908776Y-95848300D01*
X135532096Y-95848300D01*
X135418519Y-95765781D01*
X135237610Y-95707000D01*
X135047390Y-95707000D01*
X134866481Y-95765781D01*
X134712590Y-95877590D01*
X134600781Y-96031481D01*
X134542000Y-96212390D01*
X134542000Y-96402610D01*
X134600781Y-96583519D01*
X134712590Y-96737410D01*
X134866481Y-96849219D01*
X135047390Y-96908000D01*
X135237610Y-96908000D01*
X135418519Y-96849219D01*
X135572410Y-96737410D01*
X135684219Y-96583519D01*
X135714896Y-96489106D01*
X135743296Y-96401700D01*
X136908776Y-96401700D01*
X137020090Y-96554910D01*
X137173981Y-96666719D01*
X137173983Y-96666720D01*
X137276916Y-96741505D01*
X137163645Y-96831761D01*
X137163643Y-96831761D01*
X137126089Y-96861686D01*
X137113032Y-96869877D01*
X137102132Y-96880777D01*
X137064915Y-96910434D01*
X137057871Y-96925038D01*
X135881344Y-98101565D01*
X135769219Y-97756481D01*
X135657410Y-97602590D01*
X135503519Y-97490781D01*
X135322610Y-97432000D01*
X135132390Y-97432000D01*
X134951481Y-97490781D01*
X134797590Y-97602590D01*
X134685781Y-97756481D01*
X134627000Y-97937390D01*
X134627000Y-98127610D01*
X134670702Y-98262109D01*
X134725903Y-98432001D01*
X128915134Y-98432001D01*
X126688023Y-96204890D01*
X128649500Y-96204890D01*
X128649500Y-96395110D01*
X128708281Y-96576019D01*
X128820090Y-96729910D01*
X128973981Y-96841719D01*
X129154890Y-96900500D01*
X129345110Y-96900500D01*
X129526019Y-96841719D01*
X129679910Y-96729910D01*
X129791719Y-96576019D01*
X129850500Y-96395110D01*
X129850500Y-96204890D01*
X129791719Y-96023981D01*
X129679910Y-95870090D01*
X129526019Y-95758281D01*
X129345110Y-95699500D01*
X129154890Y-95699500D01*
X128973981Y-95758281D01*
X128820090Y-95870090D01*
X128708281Y-96023981D01*
X128649500Y-96204890D01*
X126688023Y-96204890D01*
X125808920Y-95325788D01*
X125950208Y-95125500D01*
X125967387Y-95101148D01*
X126051140Y-94913035D01*
X126096760Y-94712237D01*
X126100045Y-94477042D01*
X126090709Y-94429890D01*
X126060050Y-94275050D01*
X126004561Y-94140426D01*
X125981580Y-94084670D01*
X125966708Y-94062286D01*
X125867629Y-93913160D01*
X125760113Y-93804890D01*
X128519500Y-93804890D01*
X128519500Y-93995110D01*
X128578281Y-94176019D01*
X128690090Y-94329910D01*
X128843981Y-94441719D01*
X129024890Y-94500500D01*
X129215110Y-94500500D01*
X129396019Y-94441719D01*
X129549910Y-94329910D01*
X129661719Y-94176019D01*
X129720500Y-93995110D01*
X129720500Y-93804890D01*
X129661719Y-93623981D01*
X129549910Y-93470090D01*
X129396019Y-93358281D01*
X129215110Y-93299500D01*
X129024890Y-93299500D01*
X128843981Y-93358281D01*
X128690090Y-93470090D01*
X128578281Y-93623981D01*
X128519500Y-93804890D01*
X125760113Y-93804890D01*
X125722535Y-93767049D01*
X125722533Y-93767047D01*
X125551822Y-93651900D01*
X125361996Y-93572105D01*
X125361995Y-93572105D01*
X125361993Y-93572104D01*
X125160289Y-93530700D01*
X125005853Y-93529622D01*
X124954375Y-93529262D01*
X124954374Y-93529262D01*
X124752106Y-93567847D01*
X124656646Y-93606416D01*
X124561186Y-93644984D01*
X124388883Y-93757736D01*
X124241762Y-93901808D01*
X124125426Y-94071711D01*
X124044308Y-94260976D01*
X124008399Y-94429910D01*
X124001495Y-94462391D01*
X123998620Y-94668289D01*
X123450500Y-94668289D01*
X123450500Y-92128289D01*
X123998620Y-92128289D01*
X124035791Y-92330817D01*
X124111596Y-92522279D01*
X124223139Y-92695359D01*
X124366182Y-92843484D01*
X124535269Y-92961003D01*
X124723962Y-93043441D01*
X124925077Y-93087659D01*
X125130943Y-93091970D01*
X125130945Y-93091970D01*
X125191736Y-93081251D01*
X125333731Y-93056215D01*
X125525715Y-92981748D01*
X125699570Y-92871415D01*
X125699572Y-92871414D01*
X125848690Y-92729411D01*
X125967387Y-92561148D01*
X126051140Y-92373035D01*
X126096760Y-92172237D01*
X126100045Y-91937042D01*
X126087559Y-91873981D01*
X126060050Y-91735050D01*
X125981579Y-91544668D01*
X125867629Y-91373160D01*
X125722535Y-91227049D01*
X125722533Y-91227047D01*
X125551822Y-91111900D01*
X125361996Y-91032105D01*
X125361995Y-91032105D01*
X125361993Y-91032104D01*
X125160289Y-90990700D01*
X125005853Y-90989622D01*
X124954375Y-90989262D01*
X124954374Y-90989262D01*
X124752106Y-91027847D01*
X124656646Y-91066416D01*
X124561186Y-91104984D01*
X124388883Y-91217736D01*
X124241762Y-91361808D01*
X124125426Y-91531711D01*
X124076760Y-91645260D01*
X124044688Y-91720090D01*
X124044308Y-91720976D01*
X124031928Y-91779219D01*
X124001495Y-91922391D01*
X123998620Y-92128289D01*
X123450500Y-92128289D01*
X123450500Y-89588289D01*
X123998620Y-89588289D01*
X124035791Y-89790817D01*
X124111596Y-89982279D01*
X124223139Y-90155359D01*
X124366182Y-90303484D01*
X124535269Y-90421003D01*
X124723962Y-90503441D01*
X124925077Y-90547659D01*
X125130943Y-90551970D01*
X125130945Y-90551970D01*
X125191736Y-90541251D01*
X125333731Y-90516215D01*
X125525715Y-90441748D01*
X125699570Y-90331415D01*
X125699572Y-90331414D01*
X125848690Y-90189411D01*
X125967387Y-90021148D01*
X126051140Y-89833035D01*
X126096760Y-89632237D01*
X126100045Y-89397042D01*
X126097144Y-89382391D01*
X126060050Y-89195050D01*
X125981579Y-89004668D01*
X125867629Y-88833160D01*
X125722535Y-88687049D01*
X125722533Y-88687047D01*
X125551822Y-88571900D01*
X125361996Y-88492105D01*
X125361995Y-88492105D01*
X125361993Y-88492104D01*
X125160289Y-88450700D01*
X125005853Y-88449622D01*
X124954375Y-88449262D01*
X124954374Y-88449262D01*
X124752106Y-88487847D01*
X124656647Y-88526415D01*
X124561186Y-88564984D01*
X124388883Y-88677736D01*
X124241762Y-88821808D01*
X124125426Y-88991711D01*
X124044308Y-89180976D01*
X124007424Y-89354500D01*
X124001495Y-89382391D01*
X123998620Y-89588289D01*
X123450500Y-89588289D01*
X123450500Y-85700500D01*
X124037502Y-85700500D01*
X124105623Y-85720502D01*
G37*
%TD.AperFunction*%
%TD*%
M02*
