%TF.GenerationSoftware,KiCad,Pcbnew,(5.1.6)-1*%
%TF.CreationDate,2020-09-08T22:29:01+07:00*%
%TF.ProjectId,Pixracer_clone,50697872-6163-4657-925f-636c6f6e652e,rev?*%
%TF.SameCoordinates,Original*%
%TF.FileFunction,Legend,Top*%
%TF.FilePolarity,Positive*%
%FSLAX46Y46*%
G04 Gerber Fmt 4.6, Leading zero omitted, Abs format (unit mm)*
G04 Created by KiCad (PCBNEW (5.1.6)-1) date 2020-09-08 22:29:01*
%MOMM*%
%LPD*%
G01*
G04 APERTURE LIST*
%ADD10C,0.010000*%
%ADD11C,0.120000*%
%ADD12C,0.150000*%
%ADD13C,0.200000*%
G04 APERTURE END LIST*
D10*
%TO.C,G\u002A\u002A\u002A*%
G36*
X156074995Y-85940406D02*
G01*
X156103686Y-85905634D01*
X156142041Y-85893828D01*
X156192410Y-85897061D01*
X156227697Y-85925609D01*
X156252244Y-85987177D01*
X156270394Y-86089468D01*
X156275361Y-86130300D01*
X156291633Y-86236706D01*
X156316808Y-86362477D01*
X156342045Y-86467134D01*
X156370953Y-86579127D01*
X156385963Y-86653074D01*
X156387544Y-86699652D01*
X156376163Y-86729541D01*
X156354518Y-86751589D01*
X156298500Y-86774033D01*
X156245618Y-86746455D01*
X156196241Y-86669556D01*
X156150741Y-86544039D01*
X156109487Y-86370606D01*
X156087050Y-86244600D01*
X156067721Y-86103228D01*
X156063354Y-86004050D01*
X156074995Y-85940406D01*
G37*
X156074995Y-85940406D02*
X156103686Y-85905634D01*
X156142041Y-85893828D01*
X156192410Y-85897061D01*
X156227697Y-85925609D01*
X156252244Y-85987177D01*
X156270394Y-86089468D01*
X156275361Y-86130300D01*
X156291633Y-86236706D01*
X156316808Y-86362477D01*
X156342045Y-86467134D01*
X156370953Y-86579127D01*
X156385963Y-86653074D01*
X156387544Y-86699652D01*
X156376163Y-86729541D01*
X156354518Y-86751589D01*
X156298500Y-86774033D01*
X156245618Y-86746455D01*
X156196241Y-86669556D01*
X156150741Y-86544039D01*
X156109487Y-86370606D01*
X156087050Y-86244600D01*
X156067721Y-86103228D01*
X156063354Y-86004050D01*
X156074995Y-85940406D01*
G36*
X156476081Y-86228078D02*
G01*
X156495016Y-86069097D01*
X156524653Y-85949684D01*
X156564055Y-85872571D01*
X156612285Y-85840489D01*
X156664450Y-85853592D01*
X156699050Y-85895856D01*
X156717920Y-85955742D01*
X156714998Y-86008867D01*
X156706468Y-86022665D01*
X156698897Y-86053231D01*
X156690489Y-86124586D01*
X156682172Y-86226752D01*
X156674870Y-86349748D01*
X156673552Y-86377315D01*
X156667008Y-86513565D01*
X156660832Y-86607313D01*
X156653176Y-86666807D01*
X156642190Y-86700298D01*
X156626026Y-86716035D01*
X156602834Y-86722266D01*
X156596023Y-86723263D01*
X156540664Y-86719628D01*
X156502812Y-86686563D01*
X156480024Y-86618320D01*
X156469857Y-86509150D01*
X156468785Y-86423896D01*
X156476081Y-86228078D01*
G37*
X156476081Y-86228078D02*
X156495016Y-86069097D01*
X156524653Y-85949684D01*
X156564055Y-85872571D01*
X156612285Y-85840489D01*
X156664450Y-85853592D01*
X156699050Y-85895856D01*
X156717920Y-85955742D01*
X156714998Y-86008867D01*
X156706468Y-86022665D01*
X156698897Y-86053231D01*
X156690489Y-86124586D01*
X156682172Y-86226752D01*
X156674870Y-86349748D01*
X156673552Y-86377315D01*
X156667008Y-86513565D01*
X156660832Y-86607313D01*
X156653176Y-86666807D01*
X156642190Y-86700298D01*
X156626026Y-86716035D01*
X156602834Y-86722266D01*
X156596023Y-86723263D01*
X156540664Y-86719628D01*
X156502812Y-86686563D01*
X156480024Y-86618320D01*
X156469857Y-86509150D01*
X156468785Y-86423896D01*
X156476081Y-86228078D01*
G36*
X156393243Y-87327526D02*
G01*
X156459770Y-87275129D01*
X156536658Y-87260837D01*
X156613504Y-87278254D01*
X156679904Y-87320989D01*
X156725457Y-87382645D01*
X156739757Y-87456830D01*
X156718283Y-87527300D01*
X156651316Y-87605408D01*
X156568379Y-87640392D01*
X156480255Y-87630477D01*
X156402945Y-87579255D01*
X156350574Y-87498422D01*
X156348554Y-87412297D01*
X156393243Y-87327526D01*
G37*
X156393243Y-87327526D02*
X156459770Y-87275129D01*
X156536658Y-87260837D01*
X156613504Y-87278254D01*
X156679904Y-87320989D01*
X156725457Y-87382645D01*
X156739757Y-87456830D01*
X156718283Y-87527300D01*
X156651316Y-87605408D01*
X156568379Y-87640392D01*
X156480255Y-87630477D01*
X156402945Y-87579255D01*
X156350574Y-87498422D01*
X156348554Y-87412297D01*
X156393243Y-87327526D01*
G36*
X156399736Y-89028006D02*
G01*
X156402945Y-89024746D01*
X156485848Y-88971209D01*
X156573403Y-88962450D01*
X156653305Y-88996823D01*
X156709839Y-89065817D01*
X156737818Y-89126550D01*
X156742295Y-89170221D01*
X156725390Y-89223631D01*
X156722831Y-89229982D01*
X156668075Y-89307748D01*
X156590699Y-89347810D01*
X156504465Y-89347918D01*
X156423132Y-89305826D01*
X156400080Y-89282717D01*
X156349725Y-89194932D01*
X156349622Y-89109052D01*
X156399736Y-89028006D01*
G37*
X156399736Y-89028006D02*
X156402945Y-89024746D01*
X156485848Y-88971209D01*
X156573403Y-88962450D01*
X156653305Y-88996823D01*
X156709839Y-89065817D01*
X156737818Y-89126550D01*
X156742295Y-89170221D01*
X156725390Y-89223631D01*
X156722831Y-89229982D01*
X156668075Y-89307748D01*
X156590699Y-89347810D01*
X156504465Y-89347918D01*
X156423132Y-89305826D01*
X156400080Y-89282717D01*
X156349725Y-89194932D01*
X156349622Y-89109052D01*
X156399736Y-89028006D01*
G36*
X156365181Y-88252729D02*
G01*
X156415999Y-88210860D01*
X156486725Y-88195579D01*
X156548739Y-88186819D01*
X156573579Y-88166343D01*
X156574865Y-88121718D01*
X156574247Y-88115673D01*
X156578493Y-88050125D01*
X156596407Y-88007723D01*
X156648372Y-87973730D01*
X156703015Y-87980625D01*
X156751029Y-88019929D01*
X156783107Y-88083166D01*
X156789942Y-88161857D01*
X156786954Y-88181303D01*
X156773908Y-88260421D01*
X156772767Y-88327645D01*
X156783499Y-88411108D01*
X156786666Y-88429892D01*
X156788357Y-88511562D01*
X156755856Y-88576728D01*
X156753427Y-88579771D01*
X156705462Y-88622116D01*
X156649804Y-88625648D01*
X156635108Y-88622375D01*
X156589397Y-88604927D01*
X156572280Y-88572473D01*
X156573672Y-88510595D01*
X156575989Y-88448692D01*
X156559069Y-88420676D01*
X156509159Y-88410384D01*
X156486725Y-88408422D01*
X156403823Y-88385997D01*
X156357944Y-88340037D01*
X156354751Y-88277797D01*
X156365181Y-88252729D01*
G37*
X156365181Y-88252729D02*
X156415999Y-88210860D01*
X156486725Y-88195579D01*
X156548739Y-88186819D01*
X156573579Y-88166343D01*
X156574865Y-88121718D01*
X156574247Y-88115673D01*
X156578493Y-88050125D01*
X156596407Y-88007723D01*
X156648372Y-87973730D01*
X156703015Y-87980625D01*
X156751029Y-88019929D01*
X156783107Y-88083166D01*
X156789942Y-88161857D01*
X156786954Y-88181303D01*
X156773908Y-88260421D01*
X156772767Y-88327645D01*
X156783499Y-88411108D01*
X156786666Y-88429892D01*
X156788357Y-88511562D01*
X156755856Y-88576728D01*
X156753427Y-88579771D01*
X156705462Y-88622116D01*
X156649804Y-88625648D01*
X156635108Y-88622375D01*
X156589397Y-88604927D01*
X156572280Y-88572473D01*
X156573672Y-88510595D01*
X156575989Y-88448692D01*
X156559069Y-88420676D01*
X156509159Y-88410384D01*
X156486725Y-88408422D01*
X156403823Y-88385997D01*
X156357944Y-88340037D01*
X156354751Y-88277797D01*
X156365181Y-88252729D01*
G36*
X155032153Y-87191278D02*
G01*
X155105516Y-87073757D01*
X155225492Y-86956646D01*
X155300852Y-86900180D01*
X155416135Y-86819034D01*
X155494765Y-86760180D01*
X155542677Y-86718211D01*
X155565802Y-86687720D01*
X155570072Y-86663301D01*
X155568523Y-86656213D01*
X155557163Y-86604931D01*
X155543998Y-86528284D01*
X155539679Y-86499137D01*
X155528288Y-86427820D01*
X155518251Y-86380318D01*
X155515202Y-86371767D01*
X155508670Y-86341467D01*
X155499460Y-86274705D01*
X155489508Y-86185606D01*
X155489017Y-86180730D01*
X155478699Y-86089942D01*
X155468467Y-86019884D01*
X155460471Y-85985192D01*
X155460223Y-85984738D01*
X155456145Y-85953410D01*
X155453014Y-85881608D01*
X155450824Y-85779592D01*
X155449568Y-85657624D01*
X155449240Y-85525962D01*
X155449833Y-85394868D01*
X155451340Y-85274601D01*
X155453755Y-85175423D01*
X155457071Y-85107593D01*
X155460799Y-85081864D01*
X155471511Y-85046711D01*
X155484445Y-84980866D01*
X155489537Y-84948664D01*
X155509070Y-84856865D01*
X155543523Y-84733113D01*
X155587946Y-84592209D01*
X155637385Y-84448951D01*
X155686888Y-84318139D01*
X155731504Y-84214571D01*
X155742792Y-84191803D01*
X155830463Y-84043105D01*
X155941603Y-83885028D01*
X156066460Y-83729219D01*
X156195283Y-83587327D01*
X156318321Y-83471000D01*
X156397326Y-83409970D01*
X156461549Y-83365016D01*
X156506637Y-83330895D01*
X156518400Y-83320177D01*
X156552438Y-83293952D01*
X156619540Y-83255107D01*
X156710572Y-83207818D01*
X156816403Y-83156255D01*
X156927899Y-83104593D01*
X157035928Y-83057005D01*
X157131359Y-83017664D01*
X157205058Y-82990744D01*
X157247894Y-82980416D01*
X157255000Y-82983575D01*
X157274505Y-82981043D01*
X157322060Y-82959990D01*
X157327979Y-82956966D01*
X157382502Y-82935415D01*
X157415853Y-82934300D01*
X157416879Y-82935147D01*
X157433587Y-82944520D01*
X157426484Y-82918443D01*
X157398664Y-82864553D01*
X157366927Y-82811843D01*
X157250193Y-82662550D01*
X157204260Y-82619493D01*
X157204260Y-82333761D01*
X157327204Y-82212731D01*
X157389744Y-82149127D01*
X157435372Y-82098868D01*
X157454174Y-82072897D01*
X157437469Y-82049130D01*
X157390056Y-82006838D01*
X157337915Y-81966804D01*
X157263351Y-81917265D01*
X157215583Y-81898659D01*
X157184414Y-81907103D01*
X157183372Y-81907946D01*
X157147152Y-81947013D01*
X157100425Y-82008405D01*
X157053578Y-82076886D01*
X157016998Y-82137220D01*
X157001072Y-82174169D01*
X157001000Y-82175452D01*
X157020451Y-82202284D01*
X157069863Y-82243545D01*
X157102630Y-82266505D01*
X157204260Y-82333761D01*
X157204260Y-82619493D01*
X157088712Y-82511178D01*
X156888025Y-82362836D01*
X156859613Y-82344213D01*
X156718892Y-82247314D01*
X156619785Y-82163740D01*
X156556974Y-82087367D01*
X156525144Y-82012071D01*
X156518400Y-81951247D01*
X156538629Y-81807885D01*
X156597299Y-81696486D01*
X156691380Y-81619673D01*
X156817843Y-81580067D01*
X156949928Y-81577739D01*
X157114346Y-81613856D01*
X157288949Y-81693987D01*
X157475722Y-81819324D01*
X157676650Y-81991060D01*
X157741810Y-82053600D01*
X157850366Y-82162870D01*
X157930527Y-82251589D01*
X157992093Y-82332697D01*
X158044866Y-82419137D01*
X158098646Y-82523849D01*
X158099905Y-82526435D01*
X158149189Y-82630099D01*
X158190501Y-82721265D01*
X158218225Y-82787319D01*
X158226092Y-82809989D01*
X158243474Y-82841231D01*
X158283560Y-82860961D01*
X158358616Y-82874286D01*
X158388697Y-82877684D01*
X158503187Y-82891991D01*
X158625000Y-82910549D01*
X158677400Y-82919812D01*
X158771594Y-82937456D01*
X158857662Y-82953266D01*
X158893300Y-82959648D01*
X158964169Y-82977333D01*
X159013950Y-82996811D01*
X159049908Y-83010885D01*
X159058400Y-83008121D01*
X159079890Y-83008071D01*
X159136884Y-83024189D01*
X159218163Y-83052694D01*
X159312509Y-83089811D01*
X159357383Y-83108812D01*
X159516872Y-83179564D01*
X159644218Y-83239314D01*
X159735254Y-83285968D01*
X159785810Y-83317433D01*
X159795000Y-83328508D01*
X159814929Y-83347896D01*
X159824441Y-83349000D01*
X159869068Y-83366284D01*
X159940230Y-83413450D01*
X160029559Y-83483476D01*
X160128683Y-83569336D01*
X160229233Y-83664007D01*
X160322838Y-83760465D01*
X160348065Y-83788419D01*
X160423962Y-83856802D01*
X160490595Y-83882334D01*
X160493715Y-83882400D01*
X160573952Y-83905372D01*
X160648151Y-83965415D01*
X160703740Y-84049225D01*
X160726979Y-84129292D01*
X160730355Y-84192697D01*
X160717756Y-84241896D01*
X160681606Y-84294895D01*
X160635362Y-84347012D01*
X160531600Y-84459581D01*
X160531600Y-85307393D01*
X160615656Y-85342514D01*
X160698916Y-85401563D01*
X160746703Y-85495254D01*
X160760200Y-85609599D01*
X160754144Y-85675430D01*
X160728693Y-85725356D01*
X160672915Y-85778795D01*
X160658217Y-85790762D01*
X160556235Y-85872717D01*
X160562967Y-86595997D01*
X160565048Y-86806435D01*
X160567207Y-86971619D01*
X160569882Y-87097095D01*
X160573510Y-87188408D01*
X160578526Y-87251102D01*
X160585369Y-87290723D01*
X160594473Y-87312816D01*
X160606278Y-87322926D01*
X160620500Y-87326497D01*
X160668180Y-87349719D01*
X160724937Y-87398803D01*
X160741150Y-87416850D01*
X160799161Y-87520717D01*
X160812377Y-87632794D01*
X160780582Y-87740638D01*
X160747574Y-87789279D01*
X160690140Y-87843231D01*
X160631896Y-87877340D01*
X160624238Y-87879692D01*
X160590142Y-87894377D01*
X160569217Y-87925558D01*
X160555798Y-87985974D01*
X160547963Y-88051291D01*
X160540742Y-88147482D01*
X160535149Y-88273554D01*
X160532002Y-88408592D01*
X160531600Y-88470174D01*
X160531600Y-88732496D01*
X160605557Y-88770741D01*
X160709611Y-88848687D01*
X160769640Y-88951710D01*
X160785600Y-89057266D01*
X160778776Y-89137566D01*
X160750962Y-89198340D01*
X160699239Y-89257041D01*
X160618085Y-89321244D01*
X160541585Y-89343279D01*
X160535139Y-89343400D01*
X160493285Y-89348757D01*
X160454132Y-89370087D01*
X160408492Y-89415282D01*
X160347177Y-89492232D01*
X160320742Y-89527550D01*
X160162397Y-89720397D01*
X159994470Y-89880152D01*
X159798855Y-90023804D01*
X159775989Y-90038635D01*
X159540007Y-90177424D01*
X159320920Y-90278470D01*
X159107710Y-90346473D01*
X159001004Y-90369347D01*
X158938143Y-90380850D01*
X158847687Y-90397488D01*
X158772404Y-90411378D01*
X158600506Y-90432875D01*
X158390015Y-90442710D01*
X158302739Y-90442273D01*
X158302739Y-90240653D01*
X158631302Y-90221204D01*
X158930725Y-90176291D01*
X159194067Y-90105824D01*
X159222668Y-90095736D01*
X159515479Y-89963133D01*
X159779860Y-89788759D01*
X160014085Y-89574053D01*
X160216430Y-89320459D01*
X160292006Y-89201839D01*
X160342067Y-89164943D01*
X160438188Y-89142625D01*
X160444406Y-89141883D01*
X160518953Y-89131153D01*
X160555949Y-89115083D01*
X160568479Y-89084215D01*
X160569700Y-89051300D01*
X160563227Y-88997793D01*
X160533298Y-88974445D01*
X160487480Y-88967166D01*
X160437679Y-88959783D01*
X160399469Y-88944509D01*
X160371569Y-88915430D01*
X160352702Y-88866636D01*
X160341586Y-88792215D01*
X160336944Y-88686257D01*
X160337496Y-88542850D01*
X160341963Y-88356083D01*
X160343539Y-88302000D01*
X160349633Y-88110808D01*
X160356181Y-87964426D01*
X160364786Y-87856878D01*
X160377048Y-87782187D01*
X160394567Y-87734376D01*
X160418946Y-87707469D01*
X160451784Y-87695489D01*
X160494682Y-87692460D01*
X160506821Y-87692400D01*
X160574015Y-87683149D01*
X160602227Y-87648765D01*
X160602616Y-87592052D01*
X160587982Y-87547181D01*
X160547861Y-87522921D01*
X160498558Y-87512340D01*
X160429500Y-87496193D01*
X160382407Y-87476228D01*
X160377569Y-87472330D01*
X160371035Y-87440363D01*
X160365806Y-87361142D01*
X160361952Y-87238198D01*
X160359542Y-87075063D01*
X160358647Y-86875268D01*
X160359336Y-86642343D01*
X160359810Y-86573191D01*
X160366500Y-85698500D01*
X160442700Y-85673100D01*
X160507091Y-85648589D01*
X160550718Y-85627109D01*
X160569209Y-85592855D01*
X160552752Y-85551457D01*
X160511938Y-85518286D01*
X160468646Y-85508000D01*
X160425370Y-85503782D01*
X160391937Y-85487331D01*
X160367105Y-85452951D01*
X160349631Y-85394949D01*
X160338270Y-85307629D01*
X160331779Y-85185296D01*
X160328915Y-85022256D01*
X160328400Y-84865679D01*
X160329565Y-84699968D01*
X160332833Y-84551953D01*
X160337862Y-84429556D01*
X160344309Y-84340697D01*
X160351833Y-84293298D01*
X160353263Y-84289802D01*
X160393981Y-84248906D01*
X160456847Y-84215902D01*
X160517175Y-84182098D01*
X160530417Y-84144484D01*
X160499100Y-84110163D01*
X160425751Y-84086238D01*
X160409837Y-84083789D01*
X160316428Y-84057732D01*
X160259063Y-84007589D01*
X160157095Y-83881703D01*
X160023237Y-83749021D01*
X159872258Y-83622837D01*
X159718926Y-83516448D01*
X159702350Y-83506405D01*
X159440324Y-83366387D01*
X159169402Y-83255469D01*
X158878701Y-83170212D01*
X158557337Y-83107179D01*
X158349409Y-83079077D01*
X158100224Y-83057962D01*
X157880445Y-83058406D01*
X157672729Y-83082088D01*
X157600493Y-83098570D01*
X157600493Y-82760000D01*
X157660579Y-82748196D01*
X157738715Y-82727911D01*
X157820073Y-82703469D01*
X157889823Y-82679197D01*
X157933136Y-82659420D01*
X157940317Y-82651940D01*
X157927387Y-82617020D01*
X157894569Y-82555284D01*
X157863409Y-82503389D01*
X157810034Y-82429792D01*
X157769807Y-82398475D01*
X157755942Y-82399606D01*
X157719187Y-82422387D01*
X157655126Y-82463419D01*
X157591569Y-82504724D01*
X157458239Y-82591914D01*
X157513494Y-82672007D01*
X157550077Y-82725110D01*
X157571556Y-82756430D01*
X157573287Y-82758997D01*
X157600493Y-82760000D01*
X157600493Y-83098570D01*
X157459732Y-83130690D01*
X157295860Y-83181223D01*
X156982751Y-83301692D01*
X156711853Y-83441163D01*
X156476605Y-83604433D01*
X156270443Y-83796299D01*
X156086806Y-84021559D01*
X156026729Y-84109044D01*
X155937701Y-84244226D01*
X156013062Y-84307639D01*
X156103579Y-84411997D01*
X156150765Y-84528797D01*
X156157391Y-84649142D01*
X156126229Y-84764136D01*
X156060048Y-84864882D01*
X155961620Y-84942484D01*
X155833716Y-84988044D01*
X155799563Y-84993153D01*
X155722776Y-85007435D01*
X155683056Y-85032463D01*
X155670009Y-85060210D01*
X155654847Y-85141763D01*
X155666408Y-85186549D01*
X155707623Y-85202687D01*
X155721651Y-85203200D01*
X155822814Y-85226724D01*
X155914918Y-85289791D01*
X155989467Y-85381149D01*
X156037963Y-85489547D01*
X156051908Y-85603730D01*
X156048359Y-85635831D01*
X156010147Y-85743774D01*
X155940316Y-85841356D01*
X155850662Y-85917180D01*
X155752983Y-85959845D01*
X155707496Y-85965200D01*
X155688309Y-85964597D01*
X155674781Y-85967251D01*
X155667288Y-85979858D01*
X155666208Y-86009117D01*
X155671918Y-86061724D01*
X155684797Y-86144375D01*
X155705222Y-86263767D01*
X155733485Y-86426103D01*
X155753520Y-86550405D01*
X155768047Y-86658449D01*
X155775813Y-86739425D01*
X155775568Y-86782522D01*
X155774976Y-86784546D01*
X155749519Y-86813237D01*
X155690980Y-86863414D01*
X155608207Y-86927883D01*
X155515038Y-86995917D01*
X155413566Y-87071764D01*
X155325424Y-87144886D01*
X155260685Y-87206477D01*
X155231081Y-87244133D01*
X155207580Y-87300011D01*
X155213501Y-87341621D01*
X155241442Y-87384659D01*
X155283123Y-87427427D01*
X155355468Y-87488192D01*
X155446549Y-87557271D01*
X155504206Y-87597979D01*
X155594702Y-87661800D01*
X155668040Y-87716799D01*
X155714855Y-87755761D01*
X155726766Y-87769429D01*
X155755240Y-87786112D01*
X155813328Y-87793921D01*
X155820202Y-87794000D01*
X155904193Y-87810404D01*
X155960498Y-87852297D01*
X155983571Y-87908703D01*
X155967867Y-87968646D01*
X155928548Y-88008460D01*
X155863563Y-88039054D01*
X155814248Y-88048000D01*
X155769778Y-88060032D01*
X155756482Y-88105015D01*
X155756400Y-88111500D01*
X155766539Y-88159419D01*
X155806938Y-88174604D01*
X155821569Y-88175000D01*
X155914199Y-88191153D01*
X155969803Y-88237625D01*
X155984999Y-88297814D01*
X155969094Y-88375048D01*
X155918549Y-88417448D01*
X155840220Y-88429000D01*
X155782322Y-88434453D01*
X155759556Y-88458472D01*
X155756400Y-88492500D01*
X155766539Y-88540419D01*
X155806938Y-88555604D01*
X155821569Y-88556000D01*
X155914199Y-88572153D01*
X155969803Y-88618625D01*
X155985000Y-88678814D01*
X155969167Y-88755925D01*
X155918766Y-88798305D01*
X155839492Y-88810001D01*
X155790864Y-88817314D01*
X155733179Y-88842624D01*
X155657663Y-88890980D01*
X155555537Y-88967433D01*
X155526812Y-88989956D01*
X155413384Y-89081470D01*
X155335129Y-89151068D01*
X155285827Y-89206280D01*
X155259257Y-89254640D01*
X155249198Y-89303679D01*
X155248399Y-89327051D01*
X155272872Y-89397289D01*
X155343998Y-89474376D01*
X155458337Y-89556714D01*
X155612450Y-89642701D01*
X155802897Y-89730738D01*
X156026240Y-89819225D01*
X156279037Y-89906561D01*
X156557851Y-89991148D01*
X156835900Y-90065545D01*
X157211616Y-90147081D01*
X157585955Y-90203503D01*
X157951976Y-90234723D01*
X158302739Y-90240653D01*
X158302739Y-90442273D01*
X158151624Y-90441515D01*
X157896031Y-90429922D01*
X157633929Y-90408562D01*
X157376016Y-90378067D01*
X157132986Y-90339069D01*
X156967535Y-90304764D01*
X156867149Y-90283344D01*
X156786493Y-90269673D01*
X156737494Y-90265607D01*
X156728740Y-90267593D01*
X156722146Y-90298936D01*
X156718581Y-90367878D01*
X156717836Y-90461322D01*
X156719704Y-90566169D01*
X156723976Y-90669323D01*
X156730446Y-90757686D01*
X156737357Y-90810529D01*
X156736392Y-90896093D01*
X156698832Y-90950617D01*
X156631088Y-90969000D01*
X156593702Y-90966773D01*
X156569514Y-90953603D01*
X156554389Y-90919761D01*
X156544192Y-90855518D01*
X156534786Y-90751144D01*
X156533914Y-90740400D01*
X156518394Y-90549649D01*
X156505866Y-90404103D01*
X156495089Y-90298345D01*
X156484825Y-90226958D01*
X156473833Y-90184522D01*
X156460875Y-90165622D01*
X156444709Y-90164838D01*
X156424098Y-90176753D01*
X156407697Y-90188764D01*
X156386035Y-90218921D01*
X156368105Y-90278786D01*
X156352285Y-90375649D01*
X156338642Y-90499100D01*
X156323059Y-90651169D01*
X156308890Y-90760011D01*
X156293809Y-90833062D01*
X156275487Y-90877758D01*
X156251597Y-90901533D01*
X156219811Y-90911824D01*
X156208962Y-90913327D01*
X156152790Y-90907529D01*
X156124521Y-90866836D01*
X156124412Y-90866494D01*
X156117475Y-90807719D01*
X156118631Y-90708734D01*
X156127130Y-90579354D01*
X156142218Y-90429393D01*
X156163142Y-90268665D01*
X156177310Y-90176502D01*
X156178639Y-90133093D01*
X156157980Y-90102062D01*
X156104585Y-90071229D01*
X156070813Y-90055852D01*
X155996071Y-90025613D01*
X155937377Y-90006837D01*
X155919073Y-90003800D01*
X155884781Y-89992795D01*
X155814915Y-89962666D01*
X155718965Y-89917743D01*
X155606419Y-89862356D01*
X155581216Y-89849624D01*
X155385452Y-89742250D01*
X155236785Y-89641923D01*
X155132442Y-89546017D01*
X155069648Y-89451904D01*
X155045630Y-89356958D01*
X155045200Y-89341977D01*
X155049732Y-89261542D01*
X155066801Y-89190799D01*
X155101620Y-89122529D01*
X155159397Y-89049514D01*
X155245344Y-88964532D01*
X155364671Y-88860365D01*
X155435308Y-88801453D01*
X155553200Y-88704005D01*
X155553200Y-88286543D01*
X155553199Y-87869082D01*
X155444833Y-87799791D01*
X155301249Y-87704501D01*
X155195330Y-87624878D01*
X155119337Y-87553799D01*
X155065536Y-87484139D01*
X155030250Y-87418012D01*
X155006649Y-87306824D01*
X155032153Y-87191278D01*
G37*
X155032153Y-87191278D02*
X155105516Y-87073757D01*
X155225492Y-86956646D01*
X155300852Y-86900180D01*
X155416135Y-86819034D01*
X155494765Y-86760180D01*
X155542677Y-86718211D01*
X155565802Y-86687720D01*
X155570072Y-86663301D01*
X155568523Y-86656213D01*
X155557163Y-86604931D01*
X155543998Y-86528284D01*
X155539679Y-86499137D01*
X155528288Y-86427820D01*
X155518251Y-86380318D01*
X155515202Y-86371767D01*
X155508670Y-86341467D01*
X155499460Y-86274705D01*
X155489508Y-86185606D01*
X155489017Y-86180730D01*
X155478699Y-86089942D01*
X155468467Y-86019884D01*
X155460471Y-85985192D01*
X155460223Y-85984738D01*
X155456145Y-85953410D01*
X155453014Y-85881608D01*
X155450824Y-85779592D01*
X155449568Y-85657624D01*
X155449240Y-85525962D01*
X155449833Y-85394868D01*
X155451340Y-85274601D01*
X155453755Y-85175423D01*
X155457071Y-85107593D01*
X155460799Y-85081864D01*
X155471511Y-85046711D01*
X155484445Y-84980866D01*
X155489537Y-84948664D01*
X155509070Y-84856865D01*
X155543523Y-84733113D01*
X155587946Y-84592209D01*
X155637385Y-84448951D01*
X155686888Y-84318139D01*
X155731504Y-84214571D01*
X155742792Y-84191803D01*
X155830463Y-84043105D01*
X155941603Y-83885028D01*
X156066460Y-83729219D01*
X156195283Y-83587327D01*
X156318321Y-83471000D01*
X156397326Y-83409970D01*
X156461549Y-83365016D01*
X156506637Y-83330895D01*
X156518400Y-83320177D01*
X156552438Y-83293952D01*
X156619540Y-83255107D01*
X156710572Y-83207818D01*
X156816403Y-83156255D01*
X156927899Y-83104593D01*
X157035928Y-83057005D01*
X157131359Y-83017664D01*
X157205058Y-82990744D01*
X157247894Y-82980416D01*
X157255000Y-82983575D01*
X157274505Y-82981043D01*
X157322060Y-82959990D01*
X157327979Y-82956966D01*
X157382502Y-82935415D01*
X157415853Y-82934300D01*
X157416879Y-82935147D01*
X157433587Y-82944520D01*
X157426484Y-82918443D01*
X157398664Y-82864553D01*
X157366927Y-82811843D01*
X157250193Y-82662550D01*
X157204260Y-82619493D01*
X157204260Y-82333761D01*
X157327204Y-82212731D01*
X157389744Y-82149127D01*
X157435372Y-82098868D01*
X157454174Y-82072897D01*
X157437469Y-82049130D01*
X157390056Y-82006838D01*
X157337915Y-81966804D01*
X157263351Y-81917265D01*
X157215583Y-81898659D01*
X157184414Y-81907103D01*
X157183372Y-81907946D01*
X157147152Y-81947013D01*
X157100425Y-82008405D01*
X157053578Y-82076886D01*
X157016998Y-82137220D01*
X157001072Y-82174169D01*
X157001000Y-82175452D01*
X157020451Y-82202284D01*
X157069863Y-82243545D01*
X157102630Y-82266505D01*
X157204260Y-82333761D01*
X157204260Y-82619493D01*
X157088712Y-82511178D01*
X156888025Y-82362836D01*
X156859613Y-82344213D01*
X156718892Y-82247314D01*
X156619785Y-82163740D01*
X156556974Y-82087367D01*
X156525144Y-82012071D01*
X156518400Y-81951247D01*
X156538629Y-81807885D01*
X156597299Y-81696486D01*
X156691380Y-81619673D01*
X156817843Y-81580067D01*
X156949928Y-81577739D01*
X157114346Y-81613856D01*
X157288949Y-81693987D01*
X157475722Y-81819324D01*
X157676650Y-81991060D01*
X157741810Y-82053600D01*
X157850366Y-82162870D01*
X157930527Y-82251589D01*
X157992093Y-82332697D01*
X158044866Y-82419137D01*
X158098646Y-82523849D01*
X158099905Y-82526435D01*
X158149189Y-82630099D01*
X158190501Y-82721265D01*
X158218225Y-82787319D01*
X158226092Y-82809989D01*
X158243474Y-82841231D01*
X158283560Y-82860961D01*
X158358616Y-82874286D01*
X158388697Y-82877684D01*
X158503187Y-82891991D01*
X158625000Y-82910549D01*
X158677400Y-82919812D01*
X158771594Y-82937456D01*
X158857662Y-82953266D01*
X158893300Y-82959648D01*
X158964169Y-82977333D01*
X159013950Y-82996811D01*
X159049908Y-83010885D01*
X159058400Y-83008121D01*
X159079890Y-83008071D01*
X159136884Y-83024189D01*
X159218163Y-83052694D01*
X159312509Y-83089811D01*
X159357383Y-83108812D01*
X159516872Y-83179564D01*
X159644218Y-83239314D01*
X159735254Y-83285968D01*
X159785810Y-83317433D01*
X159795000Y-83328508D01*
X159814929Y-83347896D01*
X159824441Y-83349000D01*
X159869068Y-83366284D01*
X159940230Y-83413450D01*
X160029559Y-83483476D01*
X160128683Y-83569336D01*
X160229233Y-83664007D01*
X160322838Y-83760465D01*
X160348065Y-83788419D01*
X160423962Y-83856802D01*
X160490595Y-83882334D01*
X160493715Y-83882400D01*
X160573952Y-83905372D01*
X160648151Y-83965415D01*
X160703740Y-84049225D01*
X160726979Y-84129292D01*
X160730355Y-84192697D01*
X160717756Y-84241896D01*
X160681606Y-84294895D01*
X160635362Y-84347012D01*
X160531600Y-84459581D01*
X160531600Y-85307393D01*
X160615656Y-85342514D01*
X160698916Y-85401563D01*
X160746703Y-85495254D01*
X160760200Y-85609599D01*
X160754144Y-85675430D01*
X160728693Y-85725356D01*
X160672915Y-85778795D01*
X160658217Y-85790762D01*
X160556235Y-85872717D01*
X160562967Y-86595997D01*
X160565048Y-86806435D01*
X160567207Y-86971619D01*
X160569882Y-87097095D01*
X160573510Y-87188408D01*
X160578526Y-87251102D01*
X160585369Y-87290723D01*
X160594473Y-87312816D01*
X160606278Y-87322926D01*
X160620500Y-87326497D01*
X160668180Y-87349719D01*
X160724937Y-87398803D01*
X160741150Y-87416850D01*
X160799161Y-87520717D01*
X160812377Y-87632794D01*
X160780582Y-87740638D01*
X160747574Y-87789279D01*
X160690140Y-87843231D01*
X160631896Y-87877340D01*
X160624238Y-87879692D01*
X160590142Y-87894377D01*
X160569217Y-87925558D01*
X160555798Y-87985974D01*
X160547963Y-88051291D01*
X160540742Y-88147482D01*
X160535149Y-88273554D01*
X160532002Y-88408592D01*
X160531600Y-88470174D01*
X160531600Y-88732496D01*
X160605557Y-88770741D01*
X160709611Y-88848687D01*
X160769640Y-88951710D01*
X160785600Y-89057266D01*
X160778776Y-89137566D01*
X160750962Y-89198340D01*
X160699239Y-89257041D01*
X160618085Y-89321244D01*
X160541585Y-89343279D01*
X160535139Y-89343400D01*
X160493285Y-89348757D01*
X160454132Y-89370087D01*
X160408492Y-89415282D01*
X160347177Y-89492232D01*
X160320742Y-89527550D01*
X160162397Y-89720397D01*
X159994470Y-89880152D01*
X159798855Y-90023804D01*
X159775989Y-90038635D01*
X159540007Y-90177424D01*
X159320920Y-90278470D01*
X159107710Y-90346473D01*
X159001004Y-90369347D01*
X158938143Y-90380850D01*
X158847687Y-90397488D01*
X158772404Y-90411378D01*
X158600506Y-90432875D01*
X158390015Y-90442710D01*
X158302739Y-90442273D01*
X158302739Y-90240653D01*
X158631302Y-90221204D01*
X158930725Y-90176291D01*
X159194067Y-90105824D01*
X159222668Y-90095736D01*
X159515479Y-89963133D01*
X159779860Y-89788759D01*
X160014085Y-89574053D01*
X160216430Y-89320459D01*
X160292006Y-89201839D01*
X160342067Y-89164943D01*
X160438188Y-89142625D01*
X160444406Y-89141883D01*
X160518953Y-89131153D01*
X160555949Y-89115083D01*
X160568479Y-89084215D01*
X160569700Y-89051300D01*
X160563227Y-88997793D01*
X160533298Y-88974445D01*
X160487480Y-88967166D01*
X160437679Y-88959783D01*
X160399469Y-88944509D01*
X160371569Y-88915430D01*
X160352702Y-88866636D01*
X160341586Y-88792215D01*
X160336944Y-88686257D01*
X160337496Y-88542850D01*
X160341963Y-88356083D01*
X160343539Y-88302000D01*
X160349633Y-88110808D01*
X160356181Y-87964426D01*
X160364786Y-87856878D01*
X160377048Y-87782187D01*
X160394567Y-87734376D01*
X160418946Y-87707469D01*
X160451784Y-87695489D01*
X160494682Y-87692460D01*
X160506821Y-87692400D01*
X160574015Y-87683149D01*
X160602227Y-87648765D01*
X160602616Y-87592052D01*
X160587982Y-87547181D01*
X160547861Y-87522921D01*
X160498558Y-87512340D01*
X160429500Y-87496193D01*
X160382407Y-87476228D01*
X160377569Y-87472330D01*
X160371035Y-87440363D01*
X160365806Y-87361142D01*
X160361952Y-87238198D01*
X160359542Y-87075063D01*
X160358647Y-86875268D01*
X160359336Y-86642343D01*
X160359810Y-86573191D01*
X160366500Y-85698500D01*
X160442700Y-85673100D01*
X160507091Y-85648589D01*
X160550718Y-85627109D01*
X160569209Y-85592855D01*
X160552752Y-85551457D01*
X160511938Y-85518286D01*
X160468646Y-85508000D01*
X160425370Y-85503782D01*
X160391937Y-85487331D01*
X160367105Y-85452951D01*
X160349631Y-85394949D01*
X160338270Y-85307629D01*
X160331779Y-85185296D01*
X160328915Y-85022256D01*
X160328400Y-84865679D01*
X160329565Y-84699968D01*
X160332833Y-84551953D01*
X160337862Y-84429556D01*
X160344309Y-84340697D01*
X160351833Y-84293298D01*
X160353263Y-84289802D01*
X160393981Y-84248906D01*
X160456847Y-84215902D01*
X160517175Y-84182098D01*
X160530417Y-84144484D01*
X160499100Y-84110163D01*
X160425751Y-84086238D01*
X160409837Y-84083789D01*
X160316428Y-84057732D01*
X160259063Y-84007589D01*
X160157095Y-83881703D01*
X160023237Y-83749021D01*
X159872258Y-83622837D01*
X159718926Y-83516448D01*
X159702350Y-83506405D01*
X159440324Y-83366387D01*
X159169402Y-83255469D01*
X158878701Y-83170212D01*
X158557337Y-83107179D01*
X158349409Y-83079077D01*
X158100224Y-83057962D01*
X157880445Y-83058406D01*
X157672729Y-83082088D01*
X157600493Y-83098570D01*
X157600493Y-82760000D01*
X157660579Y-82748196D01*
X157738715Y-82727911D01*
X157820073Y-82703469D01*
X157889823Y-82679197D01*
X157933136Y-82659420D01*
X157940317Y-82651940D01*
X157927387Y-82617020D01*
X157894569Y-82555284D01*
X157863409Y-82503389D01*
X157810034Y-82429792D01*
X157769807Y-82398475D01*
X157755942Y-82399606D01*
X157719187Y-82422387D01*
X157655126Y-82463419D01*
X157591569Y-82504724D01*
X157458239Y-82591914D01*
X157513494Y-82672007D01*
X157550077Y-82725110D01*
X157571556Y-82756430D01*
X157573287Y-82758997D01*
X157600493Y-82760000D01*
X157600493Y-83098570D01*
X157459732Y-83130690D01*
X157295860Y-83181223D01*
X156982751Y-83301692D01*
X156711853Y-83441163D01*
X156476605Y-83604433D01*
X156270443Y-83796299D01*
X156086806Y-84021559D01*
X156026729Y-84109044D01*
X155937701Y-84244226D01*
X156013062Y-84307639D01*
X156103579Y-84411997D01*
X156150765Y-84528797D01*
X156157391Y-84649142D01*
X156126229Y-84764136D01*
X156060048Y-84864882D01*
X155961620Y-84942484D01*
X155833716Y-84988044D01*
X155799563Y-84993153D01*
X155722776Y-85007435D01*
X155683056Y-85032463D01*
X155670009Y-85060210D01*
X155654847Y-85141763D01*
X155666408Y-85186549D01*
X155707623Y-85202687D01*
X155721651Y-85203200D01*
X155822814Y-85226724D01*
X155914918Y-85289791D01*
X155989467Y-85381149D01*
X156037963Y-85489547D01*
X156051908Y-85603730D01*
X156048359Y-85635831D01*
X156010147Y-85743774D01*
X155940316Y-85841356D01*
X155850662Y-85917180D01*
X155752983Y-85959845D01*
X155707496Y-85965200D01*
X155688309Y-85964597D01*
X155674781Y-85967251D01*
X155667288Y-85979858D01*
X155666208Y-86009117D01*
X155671918Y-86061724D01*
X155684797Y-86144375D01*
X155705222Y-86263767D01*
X155733485Y-86426103D01*
X155753520Y-86550405D01*
X155768047Y-86658449D01*
X155775813Y-86739425D01*
X155775568Y-86782522D01*
X155774976Y-86784546D01*
X155749519Y-86813237D01*
X155690980Y-86863414D01*
X155608207Y-86927883D01*
X155515038Y-86995917D01*
X155413566Y-87071764D01*
X155325424Y-87144886D01*
X155260685Y-87206477D01*
X155231081Y-87244133D01*
X155207580Y-87300011D01*
X155213501Y-87341621D01*
X155241442Y-87384659D01*
X155283123Y-87427427D01*
X155355468Y-87488192D01*
X155446549Y-87557271D01*
X155504206Y-87597979D01*
X155594702Y-87661800D01*
X155668040Y-87716799D01*
X155714855Y-87755761D01*
X155726766Y-87769429D01*
X155755240Y-87786112D01*
X155813328Y-87793921D01*
X155820202Y-87794000D01*
X155904193Y-87810404D01*
X155960498Y-87852297D01*
X155983571Y-87908703D01*
X155967867Y-87968646D01*
X155928548Y-88008460D01*
X155863563Y-88039054D01*
X155814248Y-88048000D01*
X155769778Y-88060032D01*
X155756482Y-88105015D01*
X155756400Y-88111500D01*
X155766539Y-88159419D01*
X155806938Y-88174604D01*
X155821569Y-88175000D01*
X155914199Y-88191153D01*
X155969803Y-88237625D01*
X155984999Y-88297814D01*
X155969094Y-88375048D01*
X155918549Y-88417448D01*
X155840220Y-88429000D01*
X155782322Y-88434453D01*
X155759556Y-88458472D01*
X155756400Y-88492500D01*
X155766539Y-88540419D01*
X155806938Y-88555604D01*
X155821569Y-88556000D01*
X155914199Y-88572153D01*
X155969803Y-88618625D01*
X155985000Y-88678814D01*
X155969167Y-88755925D01*
X155918766Y-88798305D01*
X155839492Y-88810001D01*
X155790864Y-88817314D01*
X155733179Y-88842624D01*
X155657663Y-88890980D01*
X155555537Y-88967433D01*
X155526812Y-88989956D01*
X155413384Y-89081470D01*
X155335129Y-89151068D01*
X155285827Y-89206280D01*
X155259257Y-89254640D01*
X155249198Y-89303679D01*
X155248399Y-89327051D01*
X155272872Y-89397289D01*
X155343998Y-89474376D01*
X155458337Y-89556714D01*
X155612450Y-89642701D01*
X155802897Y-89730738D01*
X156026240Y-89819225D01*
X156279037Y-89906561D01*
X156557851Y-89991148D01*
X156835900Y-90065545D01*
X157211616Y-90147081D01*
X157585955Y-90203503D01*
X157951976Y-90234723D01*
X158302739Y-90240653D01*
X158302739Y-90442273D01*
X158151624Y-90441515D01*
X157896031Y-90429922D01*
X157633929Y-90408562D01*
X157376016Y-90378067D01*
X157132986Y-90339069D01*
X156967535Y-90304764D01*
X156867149Y-90283344D01*
X156786493Y-90269673D01*
X156737494Y-90265607D01*
X156728740Y-90267593D01*
X156722146Y-90298936D01*
X156718581Y-90367878D01*
X156717836Y-90461322D01*
X156719704Y-90566169D01*
X156723976Y-90669323D01*
X156730446Y-90757686D01*
X156737357Y-90810529D01*
X156736392Y-90896093D01*
X156698832Y-90950617D01*
X156631088Y-90969000D01*
X156593702Y-90966773D01*
X156569514Y-90953603D01*
X156554389Y-90919761D01*
X156544192Y-90855518D01*
X156534786Y-90751144D01*
X156533914Y-90740400D01*
X156518394Y-90549649D01*
X156505866Y-90404103D01*
X156495089Y-90298345D01*
X156484825Y-90226958D01*
X156473833Y-90184522D01*
X156460875Y-90165622D01*
X156444709Y-90164838D01*
X156424098Y-90176753D01*
X156407697Y-90188764D01*
X156386035Y-90218921D01*
X156368105Y-90278786D01*
X156352285Y-90375649D01*
X156338642Y-90499100D01*
X156323059Y-90651169D01*
X156308890Y-90760011D01*
X156293809Y-90833062D01*
X156275487Y-90877758D01*
X156251597Y-90901533D01*
X156219811Y-90911824D01*
X156208962Y-90913327D01*
X156152790Y-90907529D01*
X156124521Y-90866836D01*
X156124412Y-90866494D01*
X156117475Y-90807719D01*
X156118631Y-90708734D01*
X156127130Y-90579354D01*
X156142218Y-90429393D01*
X156163142Y-90268665D01*
X156177310Y-90176502D01*
X156178639Y-90133093D01*
X156157980Y-90102062D01*
X156104585Y-90071229D01*
X156070813Y-90055852D01*
X155996071Y-90025613D01*
X155937377Y-90006837D01*
X155919073Y-90003800D01*
X155884781Y-89992795D01*
X155814915Y-89962666D01*
X155718965Y-89917743D01*
X155606419Y-89862356D01*
X155581216Y-89849624D01*
X155385452Y-89742250D01*
X155236785Y-89641923D01*
X155132442Y-89546017D01*
X155069648Y-89451904D01*
X155045630Y-89356958D01*
X155045200Y-89341977D01*
X155049732Y-89261542D01*
X155066801Y-89190799D01*
X155101620Y-89122529D01*
X155159397Y-89049514D01*
X155245344Y-88964532D01*
X155364671Y-88860365D01*
X155435308Y-88801453D01*
X155553200Y-88704005D01*
X155553200Y-88286543D01*
X155553199Y-87869082D01*
X155444833Y-87799791D01*
X155301249Y-87704501D01*
X155195330Y-87624878D01*
X155119337Y-87553799D01*
X155065536Y-87484139D01*
X155030250Y-87418012D01*
X155006649Y-87306824D01*
X155032153Y-87191278D01*
D11*
%TO.C,x*%
X160032107Y-115900000D02*
G75*
G03*
X160032107Y-115900000I-707107J0D01*
G01*
X159425000Y-115900000D02*
G75*
G03*
X159425000Y-115900000I-100000J0D01*
G01*
X159325000Y-115900000D02*
X163325000Y-115900000D01*
X163025000Y-115600000D02*
X163325000Y-115900000D01*
X163325000Y-115900000D02*
X163025000Y-116200000D01*
X159325000Y-115900000D02*
X159325000Y-112300000D01*
X159325000Y-112200000D02*
X159325000Y-112300000D01*
X159325000Y-112300000D02*
X159325000Y-111800000D01*
X158925000Y-112200000D02*
X159325000Y-111800000D01*
X159325000Y-111800000D02*
X159725000Y-112200000D01*
%TO.C,IMU_Debug*%
X156295000Y-121405000D02*
X156295000Y-120075000D01*
X157625000Y-121405000D02*
X156295000Y-121405000D01*
X158895000Y-121405000D02*
X158895000Y-118745000D01*
X158895000Y-118745000D02*
X181815000Y-118745000D01*
X158895000Y-121405000D02*
X181815000Y-121405000D01*
X181815000Y-121405000D02*
X181815000Y-118745000D01*
%TO.C,Switch*%
X144840000Y-109785000D02*
X144840000Y-115665000D01*
X149310000Y-116835000D02*
X149310000Y-115785000D01*
X146810000Y-116835000D02*
X149310000Y-116835000D01*
X149310000Y-109665000D02*
X150300000Y-109665000D01*
X149310000Y-108615000D02*
X149310000Y-109665000D01*
X146810000Y-108615000D02*
X149310000Y-108615000D01*
%TO.C,SWD*%
X187565000Y-72740000D02*
X183685000Y-72740000D01*
X182515000Y-77210000D02*
X183565000Y-77210000D01*
X182515000Y-74710000D02*
X182515000Y-77210000D01*
X187685000Y-77210000D02*
X187685000Y-78200000D01*
X188735000Y-77210000D02*
X187685000Y-77210000D01*
X188735000Y-74710000D02*
X188735000Y-77210000D01*
%TO.C,U2*%
X149555000Y-86770000D02*
X152005000Y-86770000D01*
X151355000Y-83550000D02*
X149555000Y-83550000D01*
%TO.C,C43*%
X148260000Y-85271267D02*
X148260000Y-84928733D01*
X147240000Y-85271267D02*
X147240000Y-84928733D01*
%TO.C,C38*%
X180753733Y-94460000D02*
X181096267Y-94460000D01*
X180753733Y-93440000D02*
X181096267Y-93440000D01*
%TO.C,C15*%
X153660000Y-85246267D02*
X153660000Y-84903733D01*
X152640000Y-85246267D02*
X152640000Y-84903733D01*
%TO.C,FB1*%
X183616422Y-91785000D02*
X184133578Y-91785000D01*
X183616422Y-90365000D02*
X184133578Y-90365000D01*
%TO.C,SBUS*%
X144790000Y-102435000D02*
X144790000Y-106315000D01*
X149260000Y-107485000D02*
X149260000Y-106435000D01*
X146760000Y-107485000D02*
X149260000Y-107485000D01*
X149260000Y-102315000D02*
X150250000Y-102315000D01*
X149260000Y-101265000D02*
X149260000Y-102315000D01*
X146760000Y-101265000D02*
X149260000Y-101265000D01*
%TO.C,I2C1*%
X171965000Y-72765000D02*
X168085000Y-72765000D01*
X166915000Y-77235000D02*
X167965000Y-77235000D01*
X166915000Y-74735000D02*
X166915000Y-77235000D01*
X172085000Y-77235000D02*
X172085000Y-78225000D01*
X173135000Y-77235000D02*
X172085000Y-77235000D01*
X173135000Y-74735000D02*
X173135000Y-77235000D01*
%TO.C,R4*%
X186096267Y-82365000D02*
X185753733Y-82365000D01*
X186096267Y-83385000D02*
X185753733Y-83385000D01*
%TO.C,R3*%
X186121267Y-80640000D02*
X185778733Y-80640000D01*
X186121267Y-81660000D02*
X185778733Y-81660000D01*
%TO.C,J19*%
X188220000Y-89555000D02*
X188220000Y-88225000D01*
X189550000Y-89555000D02*
X188220000Y-89555000D01*
X190820000Y-89555000D02*
X190820000Y-86895000D01*
X190820000Y-86895000D02*
X193420000Y-86895000D01*
X190820000Y-89555000D02*
X193420000Y-89555000D01*
X193420000Y-89555000D02*
X193420000Y-86895000D01*
%TO.C,UART8*%
X164190000Y-72715000D02*
X160310000Y-72715000D01*
X159140000Y-77185000D02*
X160190000Y-77185000D01*
X159140000Y-74685000D02*
X159140000Y-77185000D01*
X164310000Y-77185000D02*
X164310000Y-78175000D01*
X165360000Y-77185000D02*
X164310000Y-77185000D01*
X165360000Y-74685000D02*
X165360000Y-77185000D01*
%TO.C,C25*%
X179985000Y-113302064D02*
X179985000Y-112097936D01*
X178165000Y-113302064D02*
X178165000Y-112097936D01*
%TO.C,C16*%
X169565000Y-114612221D02*
X169565000Y-114937779D01*
X170585000Y-114612221D02*
X170585000Y-114937779D01*
%TO.C,C23*%
X161560000Y-110887779D02*
X161560000Y-110562221D01*
X160540000Y-110887779D02*
X160540000Y-110562221D01*
%TO.C,C26*%
X175185000Y-116787779D02*
X175185000Y-116462221D01*
X174165000Y-116787779D02*
X174165000Y-116462221D01*
%TO.C,C24*%
X164787221Y-115160000D02*
X165112779Y-115160000D01*
X164787221Y-114140000D02*
X165112779Y-114140000D01*
%TO.C,LSM6D*%
X171090000Y-117735000D02*
X171090000Y-118385000D01*
X173810000Y-115165000D02*
X173660000Y-115165000D01*
X173810000Y-115815000D02*
X173810000Y-115165000D01*
X173810000Y-118385000D02*
X173660000Y-118385000D01*
X173810000Y-117735000D02*
X173810000Y-118385000D01*
X171090000Y-115165000D02*
X171240000Y-115165000D01*
X171090000Y-115815000D02*
X171090000Y-115165000D01*
D12*
%TO.C,MPU9250*%
X162450000Y-109600000D02*
X162850000Y-109600000D01*
X165650000Y-109600000D02*
X165250000Y-109600000D01*
X165650000Y-109600000D02*
X165650000Y-110000000D01*
X165650000Y-112800000D02*
X165250000Y-112800000D01*
X165650000Y-112800000D02*
X165650000Y-112400000D01*
X162450000Y-112800000D02*
X162850000Y-112800000D01*
X162450000Y-112800000D02*
X162450000Y-112400000D01*
%TO.C,ICM20948*%
X170075000Y-109500000D02*
X170475000Y-109500000D01*
X173275000Y-109500000D02*
X172875000Y-109500000D01*
X173275000Y-109500000D02*
X173275000Y-109900000D01*
X173275000Y-112700000D02*
X172875000Y-112700000D01*
X173275000Y-112700000D02*
X173275000Y-112300000D01*
X170075000Y-112700000D02*
X170475000Y-112700000D01*
X170075000Y-112700000D02*
X170075000Y-112300000D01*
D11*
%TO.C,C42*%
X162087779Y-113965000D02*
X161762221Y-113965000D01*
X162087779Y-114985000D02*
X161762221Y-114985000D01*
%TO.C,I2C2*%
X183985000Y-121510000D02*
X187865000Y-121510000D01*
X189035000Y-117040000D02*
X187985000Y-117040000D01*
X189035000Y-119540000D02*
X189035000Y-117040000D01*
X183865000Y-117040000D02*
X183865000Y-116050000D01*
X182815000Y-117040000D02*
X183865000Y-117040000D01*
X182815000Y-119540000D02*
X182815000Y-117040000D01*
%TO.C,Boot*%
X167055000Y-81195000D02*
X163495000Y-81195000D01*
X164515000Y-83855000D02*
X161405000Y-83855000D01*
X161975000Y-83855000D02*
X161405000Y-83855000D01*
X169145000Y-81195000D02*
X168575000Y-81195000D01*
X168575000Y-81195000D02*
X168575000Y-79675000D01*
X169145000Y-83855000D02*
X166035000Y-83855000D01*
X161405000Y-81195000D02*
X161405000Y-83855000D01*
X169145000Y-81195000D02*
X169145000Y-83855000D01*
%TO.C,UART3*%
X193410000Y-115815000D02*
X193410000Y-111935000D01*
X188940000Y-110765000D02*
X188940000Y-111815000D01*
X191440000Y-110765000D02*
X188940000Y-110765000D01*
X188940000Y-115935000D02*
X187950000Y-115935000D01*
X188940000Y-116985000D02*
X188940000Y-115935000D01*
X191440000Y-116985000D02*
X188940000Y-116985000D01*
%TO.C,UART7*%
X150535000Y-121485000D02*
X154415000Y-121485000D01*
X155585000Y-117015000D02*
X154535000Y-117015000D01*
X155585000Y-119515000D02*
X155585000Y-117015000D01*
X150415000Y-117015000D02*
X150415000Y-116025000D01*
X149365000Y-117015000D02*
X150415000Y-117015000D01*
X149365000Y-119515000D02*
X149365000Y-117015000D01*
%TO.C,C3*%
X178066422Y-108335000D02*
X178583578Y-108335000D01*
X178066422Y-106915000D02*
X178583578Y-106915000D01*
%TO.C,C1*%
X178910000Y-91386252D02*
X178910000Y-90863748D01*
X177490000Y-91386252D02*
X177490000Y-90863748D01*
%TO.C,Memory*%
X181125000Y-104885000D02*
X184575000Y-104885000D01*
X181125000Y-104885000D02*
X179175000Y-104885000D01*
X181125000Y-99765000D02*
X183075000Y-99765000D01*
X181125000Y-99765000D02*
X179175000Y-99765000D01*
%TO.C,R9*%
X152946267Y-91040000D02*
X152603733Y-91040000D01*
X152946267Y-92060000D02*
X152603733Y-92060000D01*
%TO.C,R8*%
X152971267Y-89540000D02*
X152628733Y-89540000D01*
X152971267Y-90560000D02*
X152628733Y-90560000D01*
%TO.C,R7*%
X152971267Y-88065000D02*
X152628733Y-88065000D01*
X152971267Y-89085000D02*
X152628733Y-89085000D01*
D12*
%TO.C,D3*%
X150525000Y-90225000D02*
X150525000Y-91225000D01*
X145025000Y-91225000D02*
X150525000Y-91225000D01*
X145025000Y-88225000D02*
X150425000Y-88225000D01*
D11*
%TO.C,CAN*%
X179765000Y-72790000D02*
X175885000Y-72790000D01*
X174715000Y-77260000D02*
X175765000Y-77260000D01*
X174715000Y-74760000D02*
X174715000Y-77260000D01*
X179885000Y-77260000D02*
X179885000Y-78250000D01*
X180935000Y-77260000D02*
X179885000Y-77260000D01*
X180935000Y-74760000D02*
X180935000Y-77260000D01*
%TO.C,nRF24*%
X149055000Y-74750000D02*
X149055000Y-73390000D01*
X158195000Y-79950000D02*
X158765000Y-79950000D01*
X155655000Y-79950000D02*
X156675000Y-79950000D01*
X153115000Y-79950000D02*
X154135000Y-79950000D01*
X150575000Y-79950000D02*
X151595000Y-79950000D01*
X148485000Y-79950000D02*
X149055000Y-79950000D01*
X158765000Y-79950000D02*
X158765000Y-74750000D01*
X158195000Y-74750000D02*
X158765000Y-74750000D01*
X155655000Y-74750000D02*
X156675000Y-74750000D01*
X153115000Y-74750000D02*
X154135000Y-74750000D01*
X150575000Y-74750000D02*
X151595000Y-74750000D01*
X148485000Y-74750000D02*
X149055000Y-74750000D01*
X148485000Y-79950000D02*
X148485000Y-74750000D01*
%TO.C,J2*%
X188787500Y-83675000D02*
X189237500Y-83675000D01*
X188787500Y-83675000D02*
X188787500Y-83225000D01*
X189337500Y-78075000D02*
X189337500Y-78525000D01*
X191187500Y-78075000D02*
X189337500Y-78075000D01*
X193737500Y-85875000D02*
X193487500Y-85875000D01*
X193737500Y-78075000D02*
X193487500Y-78075000D01*
X191187500Y-85875000D02*
X189337500Y-85875000D01*
X189337500Y-85875000D02*
X189337500Y-85425000D01*
%TO.C,Y1*%
X153025000Y-94925000D02*
X153025000Y-98925000D01*
X156325000Y-94925000D02*
X153025000Y-94925000D01*
%TO.C,U10*%
X181575000Y-89085000D02*
X184025000Y-89085000D01*
X183375000Y-85865000D02*
X181575000Y-85865000D01*
%TO.C,U8*%
X181500000Y-114260000D02*
X183950000Y-114260000D01*
X183300000Y-111040000D02*
X181500000Y-111040000D01*
%TO.C,U7*%
X178175000Y-118360000D02*
X180625000Y-118360000D01*
X179975000Y-115140000D02*
X178175000Y-115140000D01*
%TO.C,TJA1015*%
X170400000Y-83830000D02*
X170400000Y-87280000D01*
X170400000Y-83830000D02*
X170400000Y-81880000D01*
X175520000Y-83830000D02*
X175520000Y-85780000D01*
X175520000Y-83830000D02*
X175520000Y-81880000D01*
%TO.C,STM32F427VIT6*%
X160890000Y-90990000D02*
X159525000Y-90990000D01*
X160890000Y-90290000D02*
X160890000Y-90990000D01*
X161590000Y-90290000D02*
X160890000Y-90290000D01*
X175110000Y-90290000D02*
X175110000Y-90990000D01*
X174410000Y-90290000D02*
X175110000Y-90290000D01*
X160890000Y-104510000D02*
X160890000Y-103810000D01*
X161590000Y-104510000D02*
X160890000Y-104510000D01*
X175110000Y-104510000D02*
X175110000Y-103810000D01*
X174410000Y-104510000D02*
X175110000Y-104510000D01*
%TO.C,SW1*%
X144975000Y-99200000D02*
X144525000Y-99200000D01*
X144525000Y-92900000D02*
X144975000Y-92900000D01*
X144525000Y-99200000D02*
X144525000Y-92900000D01*
X146275000Y-92900000D02*
X148975000Y-92900000D01*
X148975000Y-99200000D02*
X146275000Y-99200000D01*
X150725000Y-92900000D02*
X150325000Y-92900000D01*
X150725000Y-99200000D02*
X150725000Y-92900000D01*
X150275000Y-99200000D02*
X150725000Y-99200000D01*
%TO.C,Rc_sbus2*%
X151290000Y-104628733D02*
X151290000Y-104971267D01*
X152310000Y-104628733D02*
X152310000Y-104971267D01*
%TO.C,Rc_sbus1*%
X156103733Y-107410000D02*
X156446267Y-107410000D01*
X156103733Y-106390000D02*
X156446267Y-106390000D01*
%TO.C,Rb_sbus1*%
X156840000Y-104378733D02*
X156840000Y-104721267D01*
X157860000Y-104378733D02*
X157860000Y-104721267D01*
%TO.C,R16*%
X177374721Y-79710000D02*
X177700279Y-79710000D01*
X177374721Y-78690000D02*
X177700279Y-78690000D01*
%TO.C,R10*%
X180753733Y-97285000D02*
X181096267Y-97285000D01*
X180753733Y-96265000D02*
X181096267Y-96265000D01*
%TO.C,R6*%
X156153733Y-111585000D02*
X156496267Y-111585000D01*
X156153733Y-110565000D02*
X156496267Y-110565000D01*
%TO.C,R5*%
X156496267Y-112065000D02*
X156153733Y-112065000D01*
X156496267Y-113085000D02*
X156153733Y-113085000D01*
%TO.C,R1*%
X151090000Y-94712221D02*
X151090000Y-95037779D01*
X152110000Y-94712221D02*
X152110000Y-95037779D01*
%TO.C,Q2*%
X153580000Y-103050000D02*
X155040000Y-103050000D01*
X153580000Y-106210000D02*
X155740000Y-106210000D01*
X153580000Y-106210000D02*
X153580000Y-105280000D01*
X153580000Y-103050000D02*
X153580000Y-103980000D01*
%TO.C,J5*%
X188195000Y-89670000D02*
X189525000Y-89670000D01*
X188195000Y-91000000D02*
X188195000Y-89670000D01*
X188195000Y-92270000D02*
X190855000Y-92270000D01*
X190855000Y-92270000D02*
X190855000Y-110110000D01*
X188195000Y-92270000D02*
X188195000Y-110110000D01*
X188195000Y-110110000D02*
X190855000Y-110110000D01*
%TO.C,J4*%
X191045000Y-89670000D02*
X192375000Y-89670000D01*
X191045000Y-91000000D02*
X191045000Y-89670000D01*
X191045000Y-92270000D02*
X193705000Y-92270000D01*
X193705000Y-92270000D02*
X193705000Y-110110000D01*
X191045000Y-92270000D02*
X191045000Y-110110000D01*
X191045000Y-110110000D02*
X193705000Y-110110000D01*
%TO.C,J3*%
X185480000Y-89630000D02*
X186810000Y-89630000D01*
X185480000Y-90960000D02*
X185480000Y-89630000D01*
X185480000Y-92230000D02*
X188140000Y-92230000D01*
X188140000Y-92230000D02*
X188140000Y-110070000D01*
X185480000Y-92230000D02*
X185480000Y-110070000D01*
X185480000Y-110070000D02*
X188140000Y-110070000D01*
%TO.C,D6*%
X182610000Y-94590000D02*
X180150000Y-94590000D01*
X182610000Y-96060000D02*
X182610000Y-94590000D01*
X180150000Y-96060000D02*
X182610000Y-96060000D01*
%TO.C,C37*%
X182721267Y-84340000D02*
X182378733Y-84340000D01*
X182721267Y-85360000D02*
X182378733Y-85360000D01*
%TO.C,C36*%
X185560000Y-87546267D02*
X185560000Y-87203733D01*
X184540000Y-87546267D02*
X184540000Y-87203733D01*
%TO.C,C35*%
X187710000Y-88052064D02*
X187710000Y-86847936D01*
X185890000Y-88052064D02*
X185890000Y-86847936D01*
%TO.C,C34*%
X180812221Y-106285000D02*
X181137779Y-106285000D01*
X180812221Y-105265000D02*
X181137779Y-105265000D01*
%TO.C,C31*%
X177010000Y-112621267D02*
X177010000Y-112278733D01*
X175990000Y-112621267D02*
X175990000Y-112278733D01*
%TO.C,C30*%
X185685000Y-112896267D02*
X185685000Y-112553733D01*
X184665000Y-112896267D02*
X184665000Y-112553733D01*
%TO.C,C29*%
X177035000Y-116821267D02*
X177035000Y-116478733D01*
X176015000Y-116821267D02*
X176015000Y-116478733D01*
%TO.C,C28*%
X181215000Y-116578733D02*
X181215000Y-116921267D01*
X182235000Y-116578733D02*
X182235000Y-116921267D01*
%TO.C,C21*%
X176315000Y-83612221D02*
X176315000Y-83937779D01*
X177335000Y-83612221D02*
X177335000Y-83937779D01*
%TO.C,C7*%
X151065000Y-97662221D02*
X151065000Y-97987779D01*
X152085000Y-97662221D02*
X152085000Y-97987779D01*
%TO.C,x*%
D12*
X163363095Y-117052380D02*
X163886904Y-116385714D01*
X163363095Y-116385714D02*
X163886904Y-117052380D01*
X158286904Y-111085714D02*
X158525000Y-111752380D01*
X158763095Y-111085714D02*
X158525000Y-111752380D01*
X158429761Y-111990476D01*
X158382142Y-112038095D01*
X158286904Y-112085714D01*
X157763095Y-116285714D02*
X158286904Y-116285714D01*
X157763095Y-116952380D01*
X158286904Y-116952380D01*
%TO.C,IMU_Debug*%
D13*
X156763095Y-118402380D02*
X156763095Y-117402380D01*
X157239285Y-118402380D02*
X157239285Y-117402380D01*
X157572619Y-118116666D01*
X157905952Y-117402380D01*
X157905952Y-118402380D01*
X158382142Y-117402380D02*
X158382142Y-118211904D01*
X158429761Y-118307142D01*
X158477380Y-118354761D01*
X158572619Y-118402380D01*
X158763095Y-118402380D01*
X158858333Y-118354761D01*
X158905952Y-118307142D01*
X158953571Y-118211904D01*
X158953571Y-117402380D01*
X159191666Y-118497619D02*
X159953571Y-118497619D01*
X160191666Y-118402380D02*
X160191666Y-117402380D01*
X160429761Y-117402380D01*
X160572619Y-117450000D01*
X160667857Y-117545238D01*
X160715476Y-117640476D01*
X160763095Y-117830952D01*
X160763095Y-117973809D01*
X160715476Y-118164285D01*
X160667857Y-118259523D01*
X160572619Y-118354761D01*
X160429761Y-118402380D01*
X160191666Y-118402380D01*
X161572619Y-118354761D02*
X161477380Y-118402380D01*
X161286904Y-118402380D01*
X161191666Y-118354761D01*
X161144047Y-118259523D01*
X161144047Y-117878571D01*
X161191666Y-117783333D01*
X161286904Y-117735714D01*
X161477380Y-117735714D01*
X161572619Y-117783333D01*
X161620238Y-117878571D01*
X161620238Y-117973809D01*
X161144047Y-118069047D01*
X162048809Y-118402380D02*
X162048809Y-117402380D01*
X162048809Y-117783333D02*
X162144047Y-117735714D01*
X162334523Y-117735714D01*
X162429761Y-117783333D01*
X162477380Y-117830952D01*
X162525000Y-117926190D01*
X162525000Y-118211904D01*
X162477380Y-118307142D01*
X162429761Y-118354761D01*
X162334523Y-118402380D01*
X162144047Y-118402380D01*
X162048809Y-118354761D01*
X163382142Y-117735714D02*
X163382142Y-118402380D01*
X162953571Y-117735714D02*
X162953571Y-118259523D01*
X163001190Y-118354761D01*
X163096428Y-118402380D01*
X163239285Y-118402380D01*
X163334523Y-118354761D01*
X163382142Y-118307142D01*
X164286904Y-117735714D02*
X164286904Y-118545238D01*
X164239285Y-118640476D01*
X164191666Y-118688095D01*
X164096428Y-118735714D01*
X163953571Y-118735714D01*
X163858333Y-118688095D01*
X164286904Y-118354761D02*
X164191666Y-118402380D01*
X164001190Y-118402380D01*
X163905952Y-118354761D01*
X163858333Y-118307142D01*
X163810714Y-118211904D01*
X163810714Y-117926190D01*
X163858333Y-117830952D01*
X163905952Y-117783333D01*
X164001190Y-117735714D01*
X164191666Y-117735714D01*
X164286904Y-117783333D01*
%TO.C,Switch*%
X151929761Y-113064285D02*
X151977380Y-112921428D01*
X151977380Y-112683333D01*
X151929761Y-112588095D01*
X151882142Y-112540476D01*
X151786904Y-112492857D01*
X151691666Y-112492857D01*
X151596428Y-112540476D01*
X151548809Y-112588095D01*
X151501190Y-112683333D01*
X151453571Y-112873809D01*
X151405952Y-112969047D01*
X151358333Y-113016666D01*
X151263095Y-113064285D01*
X151167857Y-113064285D01*
X151072619Y-113016666D01*
X151025000Y-112969047D01*
X150977380Y-112873809D01*
X150977380Y-112635714D01*
X151025000Y-112492857D01*
X151310714Y-112159523D02*
X151977380Y-111969047D01*
X151501190Y-111778571D01*
X151977380Y-111588095D01*
X151310714Y-111397619D01*
X151977380Y-111016666D02*
X151310714Y-111016666D01*
X150977380Y-111016666D02*
X151025000Y-111064285D01*
X151072619Y-111016666D01*
X151025000Y-110969047D01*
X150977380Y-111016666D01*
X151072619Y-111016666D01*
X151310714Y-110683333D02*
X151310714Y-110302380D01*
X150977380Y-110540476D02*
X151834523Y-110540476D01*
X151929761Y-110492857D01*
X151977380Y-110397619D01*
X151977380Y-110302380D01*
X151929761Y-109540476D02*
X151977380Y-109635714D01*
X151977380Y-109826190D01*
X151929761Y-109921428D01*
X151882142Y-109969047D01*
X151786904Y-110016666D01*
X151501190Y-110016666D01*
X151405952Y-109969047D01*
X151358333Y-109921428D01*
X151310714Y-109826190D01*
X151310714Y-109635714D01*
X151358333Y-109540476D01*
X151977380Y-109111904D02*
X150977380Y-109111904D01*
X151977380Y-108683333D02*
X151453571Y-108683333D01*
X151358333Y-108730952D01*
X151310714Y-108826190D01*
X151310714Y-108969047D01*
X151358333Y-109064285D01*
X151405952Y-109111904D01*
%TO.C,SWD*%
X183842857Y-79354761D02*
X183985714Y-79402380D01*
X184223809Y-79402380D01*
X184319047Y-79354761D01*
X184366666Y-79307142D01*
X184414285Y-79211904D01*
X184414285Y-79116666D01*
X184366666Y-79021428D01*
X184319047Y-78973809D01*
X184223809Y-78926190D01*
X184033333Y-78878571D01*
X183938095Y-78830952D01*
X183890476Y-78783333D01*
X183842857Y-78688095D01*
X183842857Y-78592857D01*
X183890476Y-78497619D01*
X183938095Y-78450000D01*
X184033333Y-78402380D01*
X184271428Y-78402380D01*
X184414285Y-78450000D01*
X184747619Y-78402380D02*
X184985714Y-79402380D01*
X185176190Y-78688095D01*
X185366666Y-79402380D01*
X185604761Y-78402380D01*
X185985714Y-79402380D02*
X185985714Y-78402380D01*
X186223809Y-78402380D01*
X186366666Y-78450000D01*
X186461904Y-78545238D01*
X186509523Y-78640476D01*
X186557142Y-78830952D01*
X186557142Y-78973809D01*
X186509523Y-79164285D01*
X186461904Y-79259523D01*
X186366666Y-79354761D01*
X186223809Y-79402380D01*
X185985714Y-79402380D01*
%TO.C,C15*%
D12*
X152077142Y-85717857D02*
X152124761Y-85765476D01*
X152172380Y-85908333D01*
X152172380Y-86003571D01*
X152124761Y-86146428D01*
X152029523Y-86241666D01*
X151934285Y-86289285D01*
X151743809Y-86336904D01*
X151600952Y-86336904D01*
X151410476Y-86289285D01*
X151315238Y-86241666D01*
X151220000Y-86146428D01*
X151172380Y-86003571D01*
X151172380Y-85908333D01*
X151220000Y-85765476D01*
X151267619Y-85717857D01*
X152172380Y-84765476D02*
X152172380Y-85336904D01*
X152172380Y-85051190D02*
X151172380Y-85051190D01*
X151315238Y-85146428D01*
X151410476Y-85241666D01*
X151458095Y-85336904D01*
X151172380Y-83860714D02*
X151172380Y-84336904D01*
X151648571Y-84384523D01*
X151600952Y-84336904D01*
X151553333Y-84241666D01*
X151553333Y-84003571D01*
X151600952Y-83908333D01*
X151648571Y-83860714D01*
X151743809Y-83813095D01*
X151981904Y-83813095D01*
X152077142Y-83860714D01*
X152124761Y-83908333D01*
X152172380Y-84003571D01*
X152172380Y-84241666D01*
X152124761Y-84336904D01*
X152077142Y-84384523D01*
%TO.C,SBUS*%
D13*
X151614285Y-102504761D02*
X151757142Y-102552380D01*
X151995238Y-102552380D01*
X152090476Y-102504761D01*
X152138095Y-102457142D01*
X152185714Y-102361904D01*
X152185714Y-102266666D01*
X152138095Y-102171428D01*
X152090476Y-102123809D01*
X151995238Y-102076190D01*
X151804761Y-102028571D01*
X151709523Y-101980952D01*
X151661904Y-101933333D01*
X151614285Y-101838095D01*
X151614285Y-101742857D01*
X151661904Y-101647619D01*
X151709523Y-101600000D01*
X151804761Y-101552380D01*
X152042857Y-101552380D01*
X152185714Y-101600000D01*
X152947619Y-102028571D02*
X153090476Y-102076190D01*
X153138095Y-102123809D01*
X153185714Y-102219047D01*
X153185714Y-102361904D01*
X153138095Y-102457142D01*
X153090476Y-102504761D01*
X152995238Y-102552380D01*
X152614285Y-102552380D01*
X152614285Y-101552380D01*
X152947619Y-101552380D01*
X153042857Y-101600000D01*
X153090476Y-101647619D01*
X153138095Y-101742857D01*
X153138095Y-101838095D01*
X153090476Y-101933333D01*
X153042857Y-101980952D01*
X152947619Y-102028571D01*
X152614285Y-102028571D01*
X153614285Y-101552380D02*
X153614285Y-102361904D01*
X153661904Y-102457142D01*
X153709523Y-102504761D01*
X153804761Y-102552380D01*
X153995238Y-102552380D01*
X154090476Y-102504761D01*
X154138095Y-102457142D01*
X154185714Y-102361904D01*
X154185714Y-101552380D01*
X154614285Y-102504761D02*
X154757142Y-102552380D01*
X154995238Y-102552380D01*
X155090476Y-102504761D01*
X155138095Y-102457142D01*
X155185714Y-102361904D01*
X155185714Y-102266666D01*
X155138095Y-102171428D01*
X155090476Y-102123809D01*
X154995238Y-102076190D01*
X154804761Y-102028571D01*
X154709523Y-101980952D01*
X154661904Y-101933333D01*
X154614285Y-101838095D01*
X154614285Y-101742857D01*
X154661904Y-101647619D01*
X154709523Y-101600000D01*
X154804761Y-101552380D01*
X155042857Y-101552380D01*
X155185714Y-101600000D01*
%TO.C,I2C1*%
X167997619Y-79452380D02*
X167997619Y-78452380D01*
X168426190Y-78547619D02*
X168473809Y-78500000D01*
X168569047Y-78452380D01*
X168807142Y-78452380D01*
X168902380Y-78500000D01*
X168950000Y-78547619D01*
X168997619Y-78642857D01*
X168997619Y-78738095D01*
X168950000Y-78880952D01*
X168378571Y-79452380D01*
X168997619Y-79452380D01*
X169997619Y-79357142D02*
X169950000Y-79404761D01*
X169807142Y-79452380D01*
X169711904Y-79452380D01*
X169569047Y-79404761D01*
X169473809Y-79309523D01*
X169426190Y-79214285D01*
X169378571Y-79023809D01*
X169378571Y-78880952D01*
X169426190Y-78690476D01*
X169473809Y-78595238D01*
X169569047Y-78500000D01*
X169711904Y-78452380D01*
X169807142Y-78452380D01*
X169950000Y-78500000D01*
X169997619Y-78547619D01*
X170950000Y-79452380D02*
X170378571Y-79452380D01*
X170664285Y-79452380D02*
X170664285Y-78452380D01*
X170569047Y-78595238D01*
X170473809Y-78690476D01*
X170378571Y-78738095D01*
%TO.C,UART8*%
X160653571Y-78527380D02*
X160653571Y-79336904D01*
X160701190Y-79432142D01*
X160748809Y-79479761D01*
X160844047Y-79527380D01*
X161034523Y-79527380D01*
X161129761Y-79479761D01*
X161177380Y-79432142D01*
X161225000Y-79336904D01*
X161225000Y-78527380D01*
X161653571Y-79241666D02*
X162129761Y-79241666D01*
X161558333Y-79527380D02*
X161891666Y-78527380D01*
X162225000Y-79527380D01*
X163129761Y-79527380D02*
X162796428Y-79051190D01*
X162558333Y-79527380D02*
X162558333Y-78527380D01*
X162939285Y-78527380D01*
X163034523Y-78575000D01*
X163082142Y-78622619D01*
X163129761Y-78717857D01*
X163129761Y-78860714D01*
X163082142Y-78955952D01*
X163034523Y-79003571D01*
X162939285Y-79051190D01*
X162558333Y-79051190D01*
X163415476Y-78527380D02*
X163986904Y-78527380D01*
X163701190Y-79527380D02*
X163701190Y-78527380D01*
X164463095Y-78955952D02*
X164367857Y-78908333D01*
X164320238Y-78860714D01*
X164272619Y-78765476D01*
X164272619Y-78717857D01*
X164320238Y-78622619D01*
X164367857Y-78575000D01*
X164463095Y-78527380D01*
X164653571Y-78527380D01*
X164748809Y-78575000D01*
X164796428Y-78622619D01*
X164844047Y-78717857D01*
X164844047Y-78765476D01*
X164796428Y-78860714D01*
X164748809Y-78908333D01*
X164653571Y-78955952D01*
X164463095Y-78955952D01*
X164367857Y-79003571D01*
X164320238Y-79051190D01*
X164272619Y-79146428D01*
X164272619Y-79336904D01*
X164320238Y-79432142D01*
X164367857Y-79479761D01*
X164463095Y-79527380D01*
X164653571Y-79527380D01*
X164748809Y-79479761D01*
X164796428Y-79432142D01*
X164844047Y-79336904D01*
X164844047Y-79146428D01*
X164796428Y-79051190D01*
X164748809Y-79003571D01*
X164653571Y-78955952D01*
%TO.C,LSM6D*%
X166935714Y-117402380D02*
X166459523Y-117402380D01*
X166459523Y-116402380D01*
X167221428Y-117354761D02*
X167364285Y-117402380D01*
X167602380Y-117402380D01*
X167697619Y-117354761D01*
X167745238Y-117307142D01*
X167792857Y-117211904D01*
X167792857Y-117116666D01*
X167745238Y-117021428D01*
X167697619Y-116973809D01*
X167602380Y-116926190D01*
X167411904Y-116878571D01*
X167316666Y-116830952D01*
X167269047Y-116783333D01*
X167221428Y-116688095D01*
X167221428Y-116592857D01*
X167269047Y-116497619D01*
X167316666Y-116450000D01*
X167411904Y-116402380D01*
X167650000Y-116402380D01*
X167792857Y-116450000D01*
X168221428Y-117402380D02*
X168221428Y-116402380D01*
X168554761Y-117116666D01*
X168888095Y-116402380D01*
X168888095Y-117402380D01*
X169792857Y-116402380D02*
X169602380Y-116402380D01*
X169507142Y-116450000D01*
X169459523Y-116497619D01*
X169364285Y-116640476D01*
X169316666Y-116830952D01*
X169316666Y-117211904D01*
X169364285Y-117307142D01*
X169411904Y-117354761D01*
X169507142Y-117402380D01*
X169697619Y-117402380D01*
X169792857Y-117354761D01*
X169840476Y-117307142D01*
X169888095Y-117211904D01*
X169888095Y-116973809D01*
X169840476Y-116878571D01*
X169792857Y-116830952D01*
X169697619Y-116783333D01*
X169507142Y-116783333D01*
X169411904Y-116830952D01*
X169364285Y-116878571D01*
X169316666Y-116973809D01*
X170316666Y-117402380D02*
X170316666Y-116402380D01*
X170554761Y-116402380D01*
X170697619Y-116450000D01*
X170792857Y-116545238D01*
X170840476Y-116640476D01*
X170888095Y-116830952D01*
X170888095Y-116973809D01*
X170840476Y-117164285D01*
X170792857Y-117259523D01*
X170697619Y-117354761D01*
X170554761Y-117402380D01*
X170316666Y-117402380D01*
%TO.C,MPU9250*%
X160613095Y-108827380D02*
X160613095Y-107827380D01*
X160946428Y-108541666D01*
X161279761Y-107827380D01*
X161279761Y-108827380D01*
X161755952Y-108827380D02*
X161755952Y-107827380D01*
X162136904Y-107827380D01*
X162232142Y-107875000D01*
X162279761Y-107922619D01*
X162327380Y-108017857D01*
X162327380Y-108160714D01*
X162279761Y-108255952D01*
X162232142Y-108303571D01*
X162136904Y-108351190D01*
X161755952Y-108351190D01*
X162755952Y-107827380D02*
X162755952Y-108636904D01*
X162803571Y-108732142D01*
X162851190Y-108779761D01*
X162946428Y-108827380D01*
X163136904Y-108827380D01*
X163232142Y-108779761D01*
X163279761Y-108732142D01*
X163327380Y-108636904D01*
X163327380Y-107827380D01*
X163851190Y-108827380D02*
X164041666Y-108827380D01*
X164136904Y-108779761D01*
X164184523Y-108732142D01*
X164279761Y-108589285D01*
X164327380Y-108398809D01*
X164327380Y-108017857D01*
X164279761Y-107922619D01*
X164232142Y-107875000D01*
X164136904Y-107827380D01*
X163946428Y-107827380D01*
X163851190Y-107875000D01*
X163803571Y-107922619D01*
X163755952Y-108017857D01*
X163755952Y-108255952D01*
X163803571Y-108351190D01*
X163851190Y-108398809D01*
X163946428Y-108446428D01*
X164136904Y-108446428D01*
X164232142Y-108398809D01*
X164279761Y-108351190D01*
X164327380Y-108255952D01*
X164708333Y-107922619D02*
X164755952Y-107875000D01*
X164851190Y-107827380D01*
X165089285Y-107827380D01*
X165184523Y-107875000D01*
X165232142Y-107922619D01*
X165279761Y-108017857D01*
X165279761Y-108113095D01*
X165232142Y-108255952D01*
X164660714Y-108827380D01*
X165279761Y-108827380D01*
X166184523Y-107827380D02*
X165708333Y-107827380D01*
X165660714Y-108303571D01*
X165708333Y-108255952D01*
X165803571Y-108208333D01*
X166041666Y-108208333D01*
X166136904Y-108255952D01*
X166184523Y-108303571D01*
X166232142Y-108398809D01*
X166232142Y-108636904D01*
X166184523Y-108732142D01*
X166136904Y-108779761D01*
X166041666Y-108827380D01*
X165803571Y-108827380D01*
X165708333Y-108779761D01*
X165660714Y-108732142D01*
X166851190Y-107827380D02*
X166946428Y-107827380D01*
X167041666Y-107875000D01*
X167089285Y-107922619D01*
X167136904Y-108017857D01*
X167184523Y-108208333D01*
X167184523Y-108446428D01*
X167136904Y-108636904D01*
X167089285Y-108732142D01*
X167041666Y-108779761D01*
X166946428Y-108827380D01*
X166851190Y-108827380D01*
X166755952Y-108779761D01*
X166708333Y-108732142D01*
X166660714Y-108636904D01*
X166613095Y-108446428D01*
X166613095Y-108208333D01*
X166660714Y-108017857D01*
X166708333Y-107922619D01*
X166755952Y-107875000D01*
X166851190Y-107827380D01*
%TO.C,ICM20948*%
X168522619Y-108852380D02*
X168522619Y-107852380D01*
X169570238Y-108757142D02*
X169522619Y-108804761D01*
X169379761Y-108852380D01*
X169284523Y-108852380D01*
X169141666Y-108804761D01*
X169046428Y-108709523D01*
X168998809Y-108614285D01*
X168951190Y-108423809D01*
X168951190Y-108280952D01*
X168998809Y-108090476D01*
X169046428Y-107995238D01*
X169141666Y-107900000D01*
X169284523Y-107852380D01*
X169379761Y-107852380D01*
X169522619Y-107900000D01*
X169570238Y-107947619D01*
X169998809Y-108852380D02*
X169998809Y-107852380D01*
X170332142Y-108566666D01*
X170665476Y-107852380D01*
X170665476Y-108852380D01*
X171094047Y-107947619D02*
X171141666Y-107900000D01*
X171236904Y-107852380D01*
X171475000Y-107852380D01*
X171570238Y-107900000D01*
X171617857Y-107947619D01*
X171665476Y-108042857D01*
X171665476Y-108138095D01*
X171617857Y-108280952D01*
X171046428Y-108852380D01*
X171665476Y-108852380D01*
X172284523Y-107852380D02*
X172379761Y-107852380D01*
X172475000Y-107900000D01*
X172522619Y-107947619D01*
X172570238Y-108042857D01*
X172617857Y-108233333D01*
X172617857Y-108471428D01*
X172570238Y-108661904D01*
X172522619Y-108757142D01*
X172475000Y-108804761D01*
X172379761Y-108852380D01*
X172284523Y-108852380D01*
X172189285Y-108804761D01*
X172141666Y-108757142D01*
X172094047Y-108661904D01*
X172046428Y-108471428D01*
X172046428Y-108233333D01*
X172094047Y-108042857D01*
X172141666Y-107947619D01*
X172189285Y-107900000D01*
X172284523Y-107852380D01*
X173094047Y-108852380D02*
X173284523Y-108852380D01*
X173379761Y-108804761D01*
X173427380Y-108757142D01*
X173522619Y-108614285D01*
X173570238Y-108423809D01*
X173570238Y-108042857D01*
X173522619Y-107947619D01*
X173475000Y-107900000D01*
X173379761Y-107852380D01*
X173189285Y-107852380D01*
X173094047Y-107900000D01*
X173046428Y-107947619D01*
X172998809Y-108042857D01*
X172998809Y-108280952D01*
X173046428Y-108376190D01*
X173094047Y-108423809D01*
X173189285Y-108471428D01*
X173379761Y-108471428D01*
X173475000Y-108423809D01*
X173522619Y-108376190D01*
X173570238Y-108280952D01*
X174427380Y-108185714D02*
X174427380Y-108852380D01*
X174189285Y-107804761D02*
X173951190Y-108519047D01*
X174570238Y-108519047D01*
X175094047Y-108280952D02*
X174998809Y-108233333D01*
X174951190Y-108185714D01*
X174903571Y-108090476D01*
X174903571Y-108042857D01*
X174951190Y-107947619D01*
X174998809Y-107900000D01*
X175094047Y-107852380D01*
X175284523Y-107852380D01*
X175379761Y-107900000D01*
X175427380Y-107947619D01*
X175475000Y-108042857D01*
X175475000Y-108090476D01*
X175427380Y-108185714D01*
X175379761Y-108233333D01*
X175284523Y-108280952D01*
X175094047Y-108280952D01*
X174998809Y-108328571D01*
X174951190Y-108376190D01*
X174903571Y-108471428D01*
X174903571Y-108661904D01*
X174951190Y-108757142D01*
X174998809Y-108804761D01*
X175094047Y-108852380D01*
X175284523Y-108852380D01*
X175379761Y-108804761D01*
X175427380Y-108757142D01*
X175475000Y-108661904D01*
X175475000Y-108471428D01*
X175427380Y-108376190D01*
X175379761Y-108328571D01*
X175284523Y-108280952D01*
%TO.C,I2C2*%
X183547619Y-115652380D02*
X183547619Y-114652380D01*
X183976190Y-114747619D02*
X184023809Y-114700000D01*
X184119047Y-114652380D01*
X184357142Y-114652380D01*
X184452380Y-114700000D01*
X184500000Y-114747619D01*
X184547619Y-114842857D01*
X184547619Y-114938095D01*
X184500000Y-115080952D01*
X183928571Y-115652380D01*
X184547619Y-115652380D01*
X185547619Y-115557142D02*
X185500000Y-115604761D01*
X185357142Y-115652380D01*
X185261904Y-115652380D01*
X185119047Y-115604761D01*
X185023809Y-115509523D01*
X184976190Y-115414285D01*
X184928571Y-115223809D01*
X184928571Y-115080952D01*
X184976190Y-114890476D01*
X185023809Y-114795238D01*
X185119047Y-114700000D01*
X185261904Y-114652380D01*
X185357142Y-114652380D01*
X185500000Y-114700000D01*
X185547619Y-114747619D01*
X185928571Y-114747619D02*
X185976190Y-114700000D01*
X186071428Y-114652380D01*
X186309523Y-114652380D01*
X186404761Y-114700000D01*
X186452380Y-114747619D01*
X186500000Y-114842857D01*
X186500000Y-114938095D01*
X186452380Y-115080952D01*
X185880952Y-115652380D01*
X186500000Y-115652380D01*
%TO.C,Boot*%
X164205952Y-86053571D02*
X164348809Y-86101190D01*
X164396428Y-86148809D01*
X164444047Y-86244047D01*
X164444047Y-86386904D01*
X164396428Y-86482142D01*
X164348809Y-86529761D01*
X164253571Y-86577380D01*
X163872619Y-86577380D01*
X163872619Y-85577380D01*
X164205952Y-85577380D01*
X164301190Y-85625000D01*
X164348809Y-85672619D01*
X164396428Y-85767857D01*
X164396428Y-85863095D01*
X164348809Y-85958333D01*
X164301190Y-86005952D01*
X164205952Y-86053571D01*
X163872619Y-86053571D01*
X165015476Y-86577380D02*
X164920238Y-86529761D01*
X164872619Y-86482142D01*
X164825000Y-86386904D01*
X164825000Y-86101190D01*
X164872619Y-86005952D01*
X164920238Y-85958333D01*
X165015476Y-85910714D01*
X165158333Y-85910714D01*
X165253571Y-85958333D01*
X165301190Y-86005952D01*
X165348809Y-86101190D01*
X165348809Y-86386904D01*
X165301190Y-86482142D01*
X165253571Y-86529761D01*
X165158333Y-86577380D01*
X165015476Y-86577380D01*
X165920238Y-86577380D02*
X165825000Y-86529761D01*
X165777380Y-86482142D01*
X165729761Y-86386904D01*
X165729761Y-86101190D01*
X165777380Y-86005952D01*
X165825000Y-85958333D01*
X165920238Y-85910714D01*
X166063095Y-85910714D01*
X166158333Y-85958333D01*
X166205952Y-86005952D01*
X166253571Y-86101190D01*
X166253571Y-86386904D01*
X166205952Y-86482142D01*
X166158333Y-86529761D01*
X166063095Y-86577380D01*
X165920238Y-86577380D01*
X166539285Y-85910714D02*
X166920238Y-85910714D01*
X166682142Y-85577380D02*
X166682142Y-86434523D01*
X166729761Y-86529761D01*
X166825000Y-86577380D01*
X166920238Y-86577380D01*
%TO.C,UART3*%
X186727380Y-114871428D02*
X187536904Y-114871428D01*
X187632142Y-114823809D01*
X187679761Y-114776190D01*
X187727380Y-114680952D01*
X187727380Y-114490476D01*
X187679761Y-114395238D01*
X187632142Y-114347619D01*
X187536904Y-114300000D01*
X186727380Y-114300000D01*
X187441666Y-113871428D02*
X187441666Y-113395238D01*
X187727380Y-113966666D02*
X186727380Y-113633333D01*
X187727380Y-113300000D01*
X187727380Y-112395238D02*
X187251190Y-112728571D01*
X187727380Y-112966666D02*
X186727380Y-112966666D01*
X186727380Y-112585714D01*
X186775000Y-112490476D01*
X186822619Y-112442857D01*
X186917857Y-112395238D01*
X187060714Y-112395238D01*
X187155952Y-112442857D01*
X187203571Y-112490476D01*
X187251190Y-112585714D01*
X187251190Y-112966666D01*
X186727380Y-112109523D02*
X186727380Y-111538095D01*
X187727380Y-111823809D02*
X186727380Y-111823809D01*
X186727380Y-111300000D02*
X186727380Y-110680952D01*
X187108333Y-111014285D01*
X187108333Y-110871428D01*
X187155952Y-110776190D01*
X187203571Y-110728571D01*
X187298809Y-110680952D01*
X187536904Y-110680952D01*
X187632142Y-110728571D01*
X187679761Y-110776190D01*
X187727380Y-110871428D01*
X187727380Y-111157142D01*
X187679761Y-111252380D01*
X187632142Y-111300000D01*
%TO.C,UART7*%
X151228571Y-114352380D02*
X151228571Y-115161904D01*
X151276190Y-115257142D01*
X151323809Y-115304761D01*
X151419047Y-115352380D01*
X151609523Y-115352380D01*
X151704761Y-115304761D01*
X151752380Y-115257142D01*
X151800000Y-115161904D01*
X151800000Y-114352380D01*
X152228571Y-115066666D02*
X152704761Y-115066666D01*
X152133333Y-115352380D02*
X152466666Y-114352380D01*
X152800000Y-115352380D01*
X153704761Y-115352380D02*
X153371428Y-114876190D01*
X153133333Y-115352380D02*
X153133333Y-114352380D01*
X153514285Y-114352380D01*
X153609523Y-114400000D01*
X153657142Y-114447619D01*
X153704761Y-114542857D01*
X153704761Y-114685714D01*
X153657142Y-114780952D01*
X153609523Y-114828571D01*
X153514285Y-114876190D01*
X153133333Y-114876190D01*
X153990476Y-114352380D02*
X154561904Y-114352380D01*
X154276190Y-115352380D02*
X154276190Y-114352380D01*
X154800000Y-114352380D02*
X155466666Y-114352380D01*
X155038095Y-115352380D01*
%TO.C,Memory*%
X178278571Y-99302380D02*
X178278571Y-98302380D01*
X178611904Y-99016666D01*
X178945238Y-98302380D01*
X178945238Y-99302380D01*
X179802380Y-99254761D02*
X179707142Y-99302380D01*
X179516666Y-99302380D01*
X179421428Y-99254761D01*
X179373809Y-99159523D01*
X179373809Y-98778571D01*
X179421428Y-98683333D01*
X179516666Y-98635714D01*
X179707142Y-98635714D01*
X179802380Y-98683333D01*
X179850000Y-98778571D01*
X179850000Y-98873809D01*
X179373809Y-98969047D01*
X180278571Y-99302380D02*
X180278571Y-98635714D01*
X180278571Y-98730952D02*
X180326190Y-98683333D01*
X180421428Y-98635714D01*
X180564285Y-98635714D01*
X180659523Y-98683333D01*
X180707142Y-98778571D01*
X180707142Y-99302380D01*
X180707142Y-98778571D02*
X180754761Y-98683333D01*
X180850000Y-98635714D01*
X180992857Y-98635714D01*
X181088095Y-98683333D01*
X181135714Y-98778571D01*
X181135714Y-99302380D01*
X181754761Y-99302380D02*
X181659523Y-99254761D01*
X181611904Y-99207142D01*
X181564285Y-99111904D01*
X181564285Y-98826190D01*
X181611904Y-98730952D01*
X181659523Y-98683333D01*
X181754761Y-98635714D01*
X181897619Y-98635714D01*
X181992857Y-98683333D01*
X182040476Y-98730952D01*
X182088095Y-98826190D01*
X182088095Y-99111904D01*
X182040476Y-99207142D01*
X181992857Y-99254761D01*
X181897619Y-99302380D01*
X181754761Y-99302380D01*
X182516666Y-99302380D02*
X182516666Y-98635714D01*
X182516666Y-98826190D02*
X182564285Y-98730952D01*
X182611904Y-98683333D01*
X182707142Y-98635714D01*
X182802380Y-98635714D01*
X183040476Y-98635714D02*
X183278571Y-99302380D01*
X183516666Y-98635714D02*
X183278571Y-99302380D01*
X183183333Y-99540476D01*
X183135714Y-99588095D01*
X183040476Y-99635714D01*
%TO.C,CAN*%
X173982142Y-79382142D02*
X173934523Y-79429761D01*
X173791666Y-79477380D01*
X173696428Y-79477380D01*
X173553571Y-79429761D01*
X173458333Y-79334523D01*
X173410714Y-79239285D01*
X173363095Y-79048809D01*
X173363095Y-78905952D01*
X173410714Y-78715476D01*
X173458333Y-78620238D01*
X173553571Y-78525000D01*
X173696428Y-78477380D01*
X173791666Y-78477380D01*
X173934523Y-78525000D01*
X173982142Y-78572619D01*
X174363095Y-79191666D02*
X174839285Y-79191666D01*
X174267857Y-79477380D02*
X174601190Y-78477380D01*
X174934523Y-79477380D01*
X175267857Y-79477380D02*
X175267857Y-78477380D01*
X175839285Y-79477380D01*
X175839285Y-78477380D01*
%TO.C,nRF24*%
X151014761Y-82295714D02*
X151014761Y-82962380D01*
X151014761Y-82390952D02*
X151062380Y-82343333D01*
X151157619Y-82295714D01*
X151300476Y-82295714D01*
X151395714Y-82343333D01*
X151443333Y-82438571D01*
X151443333Y-82962380D01*
X152490952Y-82962380D02*
X152157619Y-82486190D01*
X151919523Y-82962380D02*
X151919523Y-81962380D01*
X152300476Y-81962380D01*
X152395714Y-82010000D01*
X152443333Y-82057619D01*
X152490952Y-82152857D01*
X152490952Y-82295714D01*
X152443333Y-82390952D01*
X152395714Y-82438571D01*
X152300476Y-82486190D01*
X151919523Y-82486190D01*
X153252857Y-82438571D02*
X152919523Y-82438571D01*
X152919523Y-82962380D02*
X152919523Y-81962380D01*
X153395714Y-81962380D01*
X153729047Y-82057619D02*
X153776666Y-82010000D01*
X153871904Y-81962380D01*
X154110000Y-81962380D01*
X154205238Y-82010000D01*
X154252857Y-82057619D01*
X154300476Y-82152857D01*
X154300476Y-82248095D01*
X154252857Y-82390952D01*
X153681428Y-82962380D01*
X154300476Y-82962380D01*
X155157619Y-82295714D02*
X155157619Y-82962380D01*
X154919523Y-81914761D02*
X154681428Y-82629047D01*
X155300476Y-82629047D01*
%TO.C,J2*%
D12*
X187439880Y-82308333D02*
X188154166Y-82308333D01*
X188297023Y-82355952D01*
X188392261Y-82451190D01*
X188439880Y-82594047D01*
X188439880Y-82689285D01*
X187535119Y-81879761D02*
X187487500Y-81832142D01*
X187439880Y-81736904D01*
X187439880Y-81498809D01*
X187487500Y-81403571D01*
X187535119Y-81355952D01*
X187630357Y-81308333D01*
X187725595Y-81308333D01*
X187868452Y-81355952D01*
X188439880Y-81927380D01*
X188439880Y-81308333D01*
%TO.C,TJA1015*%
D13*
X177662380Y-86730000D02*
X177662380Y-86158571D01*
X178662380Y-86444285D02*
X177662380Y-86444285D01*
X177662380Y-85539523D02*
X178376666Y-85539523D01*
X178519523Y-85587142D01*
X178614761Y-85682380D01*
X178662380Y-85825238D01*
X178662380Y-85920476D01*
X178376666Y-85110952D02*
X178376666Y-84634761D01*
X178662380Y-85206190D02*
X177662380Y-84872857D01*
X178662380Y-84539523D01*
X178662380Y-83682380D02*
X178662380Y-84253809D01*
X178662380Y-83968095D02*
X177662380Y-83968095D01*
X177805238Y-84063333D01*
X177900476Y-84158571D01*
X177948095Y-84253809D01*
X177662380Y-83063333D02*
X177662380Y-82968095D01*
X177710000Y-82872857D01*
X177757619Y-82825238D01*
X177852857Y-82777619D01*
X178043333Y-82730000D01*
X178281428Y-82730000D01*
X178471904Y-82777619D01*
X178567142Y-82825238D01*
X178614761Y-82872857D01*
X178662380Y-82968095D01*
X178662380Y-83063333D01*
X178614761Y-83158571D01*
X178567142Y-83206190D01*
X178471904Y-83253809D01*
X178281428Y-83301428D01*
X178043333Y-83301428D01*
X177852857Y-83253809D01*
X177757619Y-83206190D01*
X177710000Y-83158571D01*
X177662380Y-83063333D01*
X178662380Y-81777619D02*
X178662380Y-82349047D01*
X178662380Y-82063333D02*
X177662380Y-82063333D01*
X177805238Y-82158571D01*
X177900476Y-82253809D01*
X177948095Y-82349047D01*
X177662380Y-80872857D02*
X177662380Y-81349047D01*
X178138571Y-81396666D01*
X178090952Y-81349047D01*
X178043333Y-81253809D01*
X178043333Y-81015714D01*
X178090952Y-80920476D01*
X178138571Y-80872857D01*
X178233809Y-80825238D01*
X178471904Y-80825238D01*
X178567142Y-80872857D01*
X178614761Y-80920476D01*
X178662380Y-81015714D01*
X178662380Y-81253809D01*
X178614761Y-81349047D01*
X178567142Y-81396666D01*
%TO.C,STM32F427VIT6*%
X162428571Y-88384761D02*
X162571428Y-88432380D01*
X162809523Y-88432380D01*
X162904761Y-88384761D01*
X162952380Y-88337142D01*
X163000000Y-88241904D01*
X163000000Y-88146666D01*
X162952380Y-88051428D01*
X162904761Y-88003809D01*
X162809523Y-87956190D01*
X162619047Y-87908571D01*
X162523809Y-87860952D01*
X162476190Y-87813333D01*
X162428571Y-87718095D01*
X162428571Y-87622857D01*
X162476190Y-87527619D01*
X162523809Y-87480000D01*
X162619047Y-87432380D01*
X162857142Y-87432380D01*
X163000000Y-87480000D01*
X163285714Y-87432380D02*
X163857142Y-87432380D01*
X163571428Y-88432380D02*
X163571428Y-87432380D01*
X164190476Y-88432380D02*
X164190476Y-87432380D01*
X164523809Y-88146666D01*
X164857142Y-87432380D01*
X164857142Y-88432380D01*
X165238095Y-87432380D02*
X165857142Y-87432380D01*
X165523809Y-87813333D01*
X165666666Y-87813333D01*
X165761904Y-87860952D01*
X165809523Y-87908571D01*
X165857142Y-88003809D01*
X165857142Y-88241904D01*
X165809523Y-88337142D01*
X165761904Y-88384761D01*
X165666666Y-88432380D01*
X165380952Y-88432380D01*
X165285714Y-88384761D01*
X165238095Y-88337142D01*
X166238095Y-87527619D02*
X166285714Y-87480000D01*
X166380952Y-87432380D01*
X166619047Y-87432380D01*
X166714285Y-87480000D01*
X166761904Y-87527619D01*
X166809523Y-87622857D01*
X166809523Y-87718095D01*
X166761904Y-87860952D01*
X166190476Y-88432380D01*
X166809523Y-88432380D01*
X167571428Y-87908571D02*
X167238095Y-87908571D01*
X167238095Y-88432380D02*
X167238095Y-87432380D01*
X167714285Y-87432380D01*
X168523809Y-87765714D02*
X168523809Y-88432380D01*
X168285714Y-87384761D02*
X168047619Y-88099047D01*
X168666666Y-88099047D01*
X169000000Y-87527619D02*
X169047619Y-87480000D01*
X169142857Y-87432380D01*
X169380952Y-87432380D01*
X169476190Y-87480000D01*
X169523809Y-87527619D01*
X169571428Y-87622857D01*
X169571428Y-87718095D01*
X169523809Y-87860952D01*
X168952380Y-88432380D01*
X169571428Y-88432380D01*
X169904761Y-87432380D02*
X170571428Y-87432380D01*
X170142857Y-88432380D01*
X170809523Y-87432380D02*
X171142857Y-88432380D01*
X171476190Y-87432380D01*
X171809523Y-88432380D02*
X171809523Y-87432380D01*
X172142857Y-87432380D02*
X172714285Y-87432380D01*
X172428571Y-88432380D02*
X172428571Y-87432380D01*
X173476190Y-87432380D02*
X173285714Y-87432380D01*
X173190476Y-87480000D01*
X173142857Y-87527619D01*
X173047619Y-87670476D01*
X172999999Y-87860952D01*
X172999999Y-88241904D01*
X173047619Y-88337142D01*
X173095238Y-88384761D01*
X173190476Y-88432380D01*
X173380952Y-88432380D01*
X173476190Y-88384761D01*
X173523809Y-88337142D01*
X173571428Y-88241904D01*
X173571428Y-88003809D01*
X173523809Y-87908571D01*
X173476190Y-87860952D01*
X173380952Y-87813333D01*
X173190476Y-87813333D01*
X173095238Y-87860952D01*
X173047619Y-87908571D01*
X172999999Y-88003809D01*
%TO.C,J5*%
D12*
X189191666Y-88122380D02*
X189191666Y-88836666D01*
X189144047Y-88979523D01*
X189048809Y-89074761D01*
X188905952Y-89122380D01*
X188810714Y-89122380D01*
X190144047Y-88122380D02*
X189667857Y-88122380D01*
X189620238Y-88598571D01*
X189667857Y-88550952D01*
X189763095Y-88503333D01*
X190001190Y-88503333D01*
X190096428Y-88550952D01*
X190144047Y-88598571D01*
X190191666Y-88693809D01*
X190191666Y-88931904D01*
X190144047Y-89027142D01*
X190096428Y-89074761D01*
X190001190Y-89122380D01*
X189763095Y-89122380D01*
X189667857Y-89074761D01*
X189620238Y-89027142D01*
%TO.C,J4*%
X192041666Y-88122380D02*
X192041666Y-88836666D01*
X191994047Y-88979523D01*
X191898809Y-89074761D01*
X191755952Y-89122380D01*
X191660714Y-89122380D01*
X192946428Y-88455714D02*
X192946428Y-89122380D01*
X192708333Y-88074761D02*
X192470238Y-88789047D01*
X193089285Y-88789047D01*
%TO.C,J3*%
X184191666Y-92477380D02*
X184191666Y-93191666D01*
X184144047Y-93334523D01*
X184048809Y-93429761D01*
X183905952Y-93477380D01*
X183810714Y-93477380D01*
X184572619Y-92477380D02*
X185191666Y-92477380D01*
X184858333Y-92858333D01*
X185001190Y-92858333D01*
X185096428Y-92905952D01*
X185144047Y-92953571D01*
X185191666Y-93048809D01*
X185191666Y-93286904D01*
X185144047Y-93382142D01*
X185096428Y-93429761D01*
X185001190Y-93477380D01*
X184715476Y-93477380D01*
X184620238Y-93429761D01*
X184572619Y-93382142D01*
%TD*%
M02*
