%TF.GenerationSoftware,KiCad,Pcbnew,(5.1.6)-1*%
%TF.CreationDate,2020-09-08T22:29:01+07:00*%
%TF.ProjectId,Pixracer_clone,50697872-6163-4657-925f-636c6f6e652e,rev?*%
%TF.SameCoordinates,Original*%
%TF.FileFunction,Soldermask,Bot*%
%TF.FilePolarity,Negative*%
%FSLAX46Y46*%
G04 Gerber Fmt 4.6, Leading zero omitted, Abs format (unit mm)*
G04 Created by KiCad (PCBNEW (5.1.6)-1) date 2020-09-08 22:29:01*
%MOMM*%
%LPD*%
G01*
G04 APERTURE LIST*
%ADD10R,0.800000X1.700000*%
%ADD11R,1.500000X1.700000*%
%ADD12R,1.500000X2.300000*%
%ADD13R,1.900000X1.500000*%
%ADD14O,1.800000X1.800000*%
%ADD15R,1.800000X1.800000*%
%ADD16O,2.000000X1.300000*%
%ADD17C,1.550000*%
%ADD18R,1.900000X0.900000*%
G04 APERTURE END LIST*
D10*
%TO.C,SDcard*%
X172320000Y-89380000D03*
X171220000Y-89380000D03*
X170120000Y-89380000D03*
X169020000Y-89380000D03*
X167920000Y-89380000D03*
X166820000Y-89380000D03*
X165720000Y-89380000D03*
X164620000Y-89380000D03*
X163520000Y-89380000D03*
D11*
X162220000Y-88780000D03*
D12*
X162220000Y-79280000D03*
D13*
X177020000Y-88880000D03*
D12*
X177920000Y-79280000D03*
%TD*%
D14*
%TO.C,IMU_Debug*%
X180485000Y-120075000D03*
X177945000Y-120075000D03*
X175405000Y-120075000D03*
X172865000Y-120075000D03*
X170325000Y-120075000D03*
X167785000Y-120075000D03*
X165245000Y-120075000D03*
X162705000Y-120075000D03*
X160165000Y-120075000D03*
D15*
X157625000Y-120075000D03*
%TD*%
%TO.C,SPI3*%
G36*
G01*
X145929168Y-78825000D02*
X144570832Y-78825000D01*
G75*
G02*
X144300000Y-78554168I0J270832D01*
G01*
X144300000Y-77795832D01*
G75*
G02*
X144570832Y-77525000I270832J0D01*
G01*
X145929168Y-77525000D01*
G75*
G02*
X146200000Y-77795832I0J-270832D01*
G01*
X146200000Y-78554168D01*
G75*
G02*
X145929168Y-78825000I-270832J0D01*
G01*
G37*
G36*
G01*
X145929168Y-86425000D02*
X144570832Y-86425000D01*
G75*
G02*
X144300000Y-86154168I0J270832D01*
G01*
X144300000Y-85395832D01*
G75*
G02*
X144570832Y-85125000I270832J0D01*
G01*
X145929168Y-85125000D01*
G75*
G02*
X146200000Y-85395832I0J-270832D01*
G01*
X146200000Y-86154168D01*
G75*
G02*
X145929168Y-86425000I-270832J0D01*
G01*
G37*
G36*
G01*
X149775000Y-79825000D02*
X148475000Y-79825000D01*
G75*
G02*
X148300000Y-79650000I0J175000D01*
G01*
X148300000Y-79300000D01*
G75*
G02*
X148475000Y-79125000I175000J0D01*
G01*
X149775000Y-79125000D01*
G75*
G02*
X149950000Y-79300000I0J-175000D01*
G01*
X149950000Y-79650000D01*
G75*
G02*
X149775000Y-79825000I-175000J0D01*
G01*
G37*
G36*
G01*
X149775000Y-80825000D02*
X148475000Y-80825000D01*
G75*
G02*
X148300000Y-80650000I0J175000D01*
G01*
X148300000Y-80300000D01*
G75*
G02*
X148475000Y-80125000I175000J0D01*
G01*
X149775000Y-80125000D01*
G75*
G02*
X149950000Y-80300000I0J-175000D01*
G01*
X149950000Y-80650000D01*
G75*
G02*
X149775000Y-80825000I-175000J0D01*
G01*
G37*
G36*
G01*
X149775000Y-81825000D02*
X148475000Y-81825000D01*
G75*
G02*
X148300000Y-81650000I0J175000D01*
G01*
X148300000Y-81300000D01*
G75*
G02*
X148475000Y-81125000I175000J0D01*
G01*
X149775000Y-81125000D01*
G75*
G02*
X149950000Y-81300000I0J-175000D01*
G01*
X149950000Y-81650000D01*
G75*
G02*
X149775000Y-81825000I-175000J0D01*
G01*
G37*
G36*
G01*
X149775000Y-82825000D02*
X148475000Y-82825000D01*
G75*
G02*
X148300000Y-82650000I0J175000D01*
G01*
X148300000Y-82300000D01*
G75*
G02*
X148475000Y-82125000I175000J0D01*
G01*
X149775000Y-82125000D01*
G75*
G02*
X149950000Y-82300000I0J-175000D01*
G01*
X149950000Y-82650000D01*
G75*
G02*
X149775000Y-82825000I-175000J0D01*
G01*
G37*
G36*
G01*
X149775000Y-83825000D02*
X148475000Y-83825000D01*
G75*
G02*
X148300000Y-83650000I0J175000D01*
G01*
X148300000Y-83300000D01*
G75*
G02*
X148475000Y-83125000I175000J0D01*
G01*
X149775000Y-83125000D01*
G75*
G02*
X149950000Y-83300000I0J-175000D01*
G01*
X149950000Y-83650000D01*
G75*
G02*
X149775000Y-83825000I-175000J0D01*
G01*
G37*
G36*
G01*
X149775000Y-84825000D02*
X148475000Y-84825000D01*
G75*
G02*
X148300000Y-84650000I0J175000D01*
G01*
X148300000Y-84300000D01*
G75*
G02*
X148475000Y-84125000I175000J0D01*
G01*
X149775000Y-84125000D01*
G75*
G02*
X149950000Y-84300000I0J-175000D01*
G01*
X149950000Y-84650000D01*
G75*
G02*
X149775000Y-84825000I-175000J0D01*
G01*
G37*
%TD*%
D14*
%TO.C,J19*%
X192090000Y-88225000D03*
D15*
X189550000Y-88225000D03*
%TD*%
%TO.C,C39*%
G36*
G01*
X181337500Y-87050000D02*
X180812500Y-87050000D01*
G75*
G02*
X180550000Y-86787500I0J262500D01*
G01*
X180550000Y-86162500D01*
G75*
G02*
X180812500Y-85900000I262500J0D01*
G01*
X181337500Y-85900000D01*
G75*
G02*
X181600000Y-86162500I0J-262500D01*
G01*
X181600000Y-86787500D01*
G75*
G02*
X181337500Y-87050000I-262500J0D01*
G01*
G37*
G36*
G01*
X181337500Y-88800000D02*
X180812500Y-88800000D01*
G75*
G02*
X180550000Y-88537500I0J262500D01*
G01*
X180550000Y-87912500D01*
G75*
G02*
X180812500Y-87650000I262500J0D01*
G01*
X181337500Y-87650000D01*
G75*
G02*
X181600000Y-87912500I0J-262500D01*
G01*
X181600000Y-88537500D01*
G75*
G02*
X181337500Y-88800000I-262500J0D01*
G01*
G37*
%TD*%
%TO.C,UART1*%
G36*
G01*
X146029168Y-88600000D02*
X144670832Y-88600000D01*
G75*
G02*
X144400000Y-88329168I0J270832D01*
G01*
X144400000Y-87570832D01*
G75*
G02*
X144670832Y-87300000I270832J0D01*
G01*
X146029168Y-87300000D01*
G75*
G02*
X146300000Y-87570832I0J-270832D01*
G01*
X146300000Y-88329168D01*
G75*
G02*
X146029168Y-88600000I-270832J0D01*
G01*
G37*
G36*
G01*
X146029168Y-94200000D02*
X144670832Y-94200000D01*
G75*
G02*
X144400000Y-93929168I0J270832D01*
G01*
X144400000Y-93170832D01*
G75*
G02*
X144670832Y-92900000I270832J0D01*
G01*
X146029168Y-92900000D01*
G75*
G02*
X146300000Y-93170832I0J-270832D01*
G01*
X146300000Y-93929168D01*
G75*
G02*
X146029168Y-94200000I-270832J0D01*
G01*
G37*
G36*
G01*
X149875000Y-89600000D02*
X148575000Y-89600000D01*
G75*
G02*
X148400000Y-89425000I0J175000D01*
G01*
X148400000Y-89075000D01*
G75*
G02*
X148575000Y-88900000I175000J0D01*
G01*
X149875000Y-88900000D01*
G75*
G02*
X150050000Y-89075000I0J-175000D01*
G01*
X150050000Y-89425000D01*
G75*
G02*
X149875000Y-89600000I-175000J0D01*
G01*
G37*
G36*
G01*
X149875000Y-90600000D02*
X148575000Y-90600000D01*
G75*
G02*
X148400000Y-90425000I0J175000D01*
G01*
X148400000Y-90075000D01*
G75*
G02*
X148575000Y-89900000I175000J0D01*
G01*
X149875000Y-89900000D01*
G75*
G02*
X150050000Y-90075000I0J-175000D01*
G01*
X150050000Y-90425000D01*
G75*
G02*
X149875000Y-90600000I-175000J0D01*
G01*
G37*
G36*
G01*
X149875000Y-91600000D02*
X148575000Y-91600000D01*
G75*
G02*
X148400000Y-91425000I0J175000D01*
G01*
X148400000Y-91075000D01*
G75*
G02*
X148575000Y-90900000I175000J0D01*
G01*
X149875000Y-90900000D01*
G75*
G02*
X150050000Y-91075000I0J-175000D01*
G01*
X150050000Y-91425000D01*
G75*
G02*
X149875000Y-91600000I-175000J0D01*
G01*
G37*
G36*
G01*
X149875000Y-92600000D02*
X148575000Y-92600000D01*
G75*
G02*
X148400000Y-92425000I0J175000D01*
G01*
X148400000Y-92075000D01*
G75*
G02*
X148575000Y-91900000I175000J0D01*
G01*
X149875000Y-91900000D01*
G75*
G02*
X150050000Y-92075000I0J-175000D01*
G01*
X150050000Y-92425000D01*
G75*
G02*
X149875000Y-92600000I-175000J0D01*
G01*
G37*
%TD*%
D14*
%TO.C,Buzzer*%
X183635000Y-75825000D03*
D15*
X186175000Y-75825000D03*
%TD*%
%TO.C,Telemetry*%
G36*
G01*
X157950000Y-74154168D02*
X157950000Y-72795832D01*
G75*
G02*
X158220832Y-72525000I270832J0D01*
G01*
X158979168Y-72525000D01*
G75*
G02*
X159250000Y-72795832I0J-270832D01*
G01*
X159250000Y-74154168D01*
G75*
G02*
X158979168Y-74425000I-270832J0D01*
G01*
X158220832Y-74425000D01*
G75*
G02*
X157950000Y-74154168I0J270832D01*
G01*
G37*
G36*
G01*
X150350000Y-74154168D02*
X150350000Y-72795832D01*
G75*
G02*
X150620832Y-72525000I270832J0D01*
G01*
X151379168Y-72525000D01*
G75*
G02*
X151650000Y-72795832I0J-270832D01*
G01*
X151650000Y-74154168D01*
G75*
G02*
X151379168Y-74425000I-270832J0D01*
G01*
X150620832Y-74425000D01*
G75*
G02*
X150350000Y-74154168I0J270832D01*
G01*
G37*
G36*
G01*
X156950000Y-78000000D02*
X156950000Y-76700000D01*
G75*
G02*
X157125000Y-76525000I175000J0D01*
G01*
X157475000Y-76525000D01*
G75*
G02*
X157650000Y-76700000I0J-175000D01*
G01*
X157650000Y-78000000D01*
G75*
G02*
X157475000Y-78175000I-175000J0D01*
G01*
X157125000Y-78175000D01*
G75*
G02*
X156950000Y-78000000I0J175000D01*
G01*
G37*
G36*
G01*
X155950000Y-78000000D02*
X155950000Y-76700000D01*
G75*
G02*
X156125000Y-76525000I175000J0D01*
G01*
X156475000Y-76525000D01*
G75*
G02*
X156650000Y-76700000I0J-175000D01*
G01*
X156650000Y-78000000D01*
G75*
G02*
X156475000Y-78175000I-175000J0D01*
G01*
X156125000Y-78175000D01*
G75*
G02*
X155950000Y-78000000I0J175000D01*
G01*
G37*
G36*
G01*
X154950000Y-78000000D02*
X154950000Y-76700000D01*
G75*
G02*
X155125000Y-76525000I175000J0D01*
G01*
X155475000Y-76525000D01*
G75*
G02*
X155650000Y-76700000I0J-175000D01*
G01*
X155650000Y-78000000D01*
G75*
G02*
X155475000Y-78175000I-175000J0D01*
G01*
X155125000Y-78175000D01*
G75*
G02*
X154950000Y-78000000I0J175000D01*
G01*
G37*
G36*
G01*
X153950000Y-78000000D02*
X153950000Y-76700000D01*
G75*
G02*
X154125000Y-76525000I175000J0D01*
G01*
X154475000Y-76525000D01*
G75*
G02*
X154650000Y-76700000I0J-175000D01*
G01*
X154650000Y-78000000D01*
G75*
G02*
X154475000Y-78175000I-175000J0D01*
G01*
X154125000Y-78175000D01*
G75*
G02*
X153950000Y-78000000I0J175000D01*
G01*
G37*
G36*
G01*
X152950000Y-78000000D02*
X152950000Y-76700000D01*
G75*
G02*
X153125000Y-76525000I175000J0D01*
G01*
X153475000Y-76525000D01*
G75*
G02*
X153650000Y-76700000I0J-175000D01*
G01*
X153650000Y-78000000D01*
G75*
G02*
X153475000Y-78175000I-175000J0D01*
G01*
X153125000Y-78175000D01*
G75*
G02*
X152950000Y-78000000I0J175000D01*
G01*
G37*
G36*
G01*
X151950000Y-78000000D02*
X151950000Y-76700000D01*
G75*
G02*
X152125000Y-76525000I175000J0D01*
G01*
X152475000Y-76525000D01*
G75*
G02*
X152650000Y-76700000I0J-175000D01*
G01*
X152650000Y-78000000D01*
G75*
G02*
X152475000Y-78175000I-175000J0D01*
G01*
X152125000Y-78175000D01*
G75*
G02*
X151950000Y-78000000I0J175000D01*
G01*
G37*
%TD*%
D16*
%TO.C,J2*%
X192337500Y-78475000D03*
X192337500Y-85475000D03*
D17*
X189637500Y-79475000D03*
X189637500Y-84475000D03*
%TD*%
%TO.C,R17*%
G36*
G01*
X172447500Y-92560000D02*
X172052500Y-92560000D01*
G75*
G02*
X171880000Y-92387500I0J172500D01*
G01*
X171880000Y-92042500D01*
G75*
G02*
X172052500Y-91870000I172500J0D01*
G01*
X172447500Y-91870000D01*
G75*
G02*
X172620000Y-92042500I0J-172500D01*
G01*
X172620000Y-92387500D01*
G75*
G02*
X172447500Y-92560000I-172500J0D01*
G01*
G37*
G36*
G01*
X172447500Y-93530000D02*
X172052500Y-93530000D01*
G75*
G02*
X171880000Y-93357500I0J172500D01*
G01*
X171880000Y-93012500D01*
G75*
G02*
X172052500Y-92840000I172500J0D01*
G01*
X172447500Y-92840000D01*
G75*
G02*
X172620000Y-93012500I0J-172500D01*
G01*
X172620000Y-93357500D01*
G75*
G02*
X172447500Y-93530000I-172500J0D01*
G01*
G37*
%TD*%
%TO.C,R15*%
G36*
G01*
X171422500Y-92560000D02*
X171027500Y-92560000D01*
G75*
G02*
X170855000Y-92387500I0J172500D01*
G01*
X170855000Y-92042500D01*
G75*
G02*
X171027500Y-91870000I172500J0D01*
G01*
X171422500Y-91870000D01*
G75*
G02*
X171595000Y-92042500I0J-172500D01*
G01*
X171595000Y-92387500D01*
G75*
G02*
X171422500Y-92560000I-172500J0D01*
G01*
G37*
G36*
G01*
X171422500Y-93530000D02*
X171027500Y-93530000D01*
G75*
G02*
X170855000Y-93357500I0J172500D01*
G01*
X170855000Y-93012500D01*
G75*
G02*
X171027500Y-92840000I172500J0D01*
G01*
X171422500Y-92840000D01*
G75*
G02*
X171595000Y-93012500I0J-172500D01*
G01*
X171595000Y-93357500D01*
G75*
G02*
X171422500Y-93530000I-172500J0D01*
G01*
G37*
%TD*%
%TO.C,R14*%
G36*
G01*
X170172500Y-92585000D02*
X169777500Y-92585000D01*
G75*
G02*
X169605000Y-92412500I0J172500D01*
G01*
X169605000Y-92067500D01*
G75*
G02*
X169777500Y-91895000I172500J0D01*
G01*
X170172500Y-91895000D01*
G75*
G02*
X170345000Y-92067500I0J-172500D01*
G01*
X170345000Y-92412500D01*
G75*
G02*
X170172500Y-92585000I-172500J0D01*
G01*
G37*
G36*
G01*
X170172500Y-93555000D02*
X169777500Y-93555000D01*
G75*
G02*
X169605000Y-93382500I0J172500D01*
G01*
X169605000Y-93037500D01*
G75*
G02*
X169777500Y-92865000I172500J0D01*
G01*
X170172500Y-92865000D01*
G75*
G02*
X170345000Y-93037500I0J-172500D01*
G01*
X170345000Y-93382500D01*
G75*
G02*
X170172500Y-93555000I-172500J0D01*
G01*
G37*
%TD*%
%TO.C,R13*%
G36*
G01*
X168072500Y-92585000D02*
X167677500Y-92585000D01*
G75*
G02*
X167505000Y-92412500I0J172500D01*
G01*
X167505000Y-92067500D01*
G75*
G02*
X167677500Y-91895000I172500J0D01*
G01*
X168072500Y-91895000D01*
G75*
G02*
X168245000Y-92067500I0J-172500D01*
G01*
X168245000Y-92412500D01*
G75*
G02*
X168072500Y-92585000I-172500J0D01*
G01*
G37*
G36*
G01*
X168072500Y-93555000D02*
X167677500Y-93555000D01*
G75*
G02*
X167505000Y-93382500I0J172500D01*
G01*
X167505000Y-93037500D01*
G75*
G02*
X167677500Y-92865000I172500J0D01*
G01*
X168072500Y-92865000D01*
G75*
G02*
X168245000Y-93037500I0J-172500D01*
G01*
X168245000Y-93382500D01*
G75*
G02*
X168072500Y-93555000I-172500J0D01*
G01*
G37*
%TD*%
%TO.C,R12*%
G36*
G01*
X164747500Y-92585000D02*
X164352500Y-92585000D01*
G75*
G02*
X164180000Y-92412500I0J172500D01*
G01*
X164180000Y-92067500D01*
G75*
G02*
X164352500Y-91895000I172500J0D01*
G01*
X164747500Y-91895000D01*
G75*
G02*
X164920000Y-92067500I0J-172500D01*
G01*
X164920000Y-92412500D01*
G75*
G02*
X164747500Y-92585000I-172500J0D01*
G01*
G37*
G36*
G01*
X164747500Y-93555000D02*
X164352500Y-93555000D01*
G75*
G02*
X164180000Y-93382500I0J172500D01*
G01*
X164180000Y-93037500D01*
G75*
G02*
X164352500Y-92865000I172500J0D01*
G01*
X164747500Y-92865000D01*
G75*
G02*
X164920000Y-93037500I0J-172500D01*
G01*
X164920000Y-93382500D01*
G75*
G02*
X164747500Y-93555000I-172500J0D01*
G01*
G37*
%TD*%
%TO.C,R11*%
G36*
G01*
X166022500Y-92585000D02*
X165627500Y-92585000D01*
G75*
G02*
X165455000Y-92412500I0J172500D01*
G01*
X165455000Y-92067500D01*
G75*
G02*
X165627500Y-91895000I172500J0D01*
G01*
X166022500Y-91895000D01*
G75*
G02*
X166195000Y-92067500I0J-172500D01*
G01*
X166195000Y-92412500D01*
G75*
G02*
X166022500Y-92585000I-172500J0D01*
G01*
G37*
G36*
G01*
X166022500Y-93555000D02*
X165627500Y-93555000D01*
G75*
G02*
X165455000Y-93382500I0J172500D01*
G01*
X165455000Y-93037500D01*
G75*
G02*
X165627500Y-92865000I172500J0D01*
G01*
X166022500Y-92865000D01*
G75*
G02*
X166195000Y-93037500I0J-172500D01*
G01*
X166195000Y-93382500D01*
G75*
G02*
X166022500Y-93555000I-172500J0D01*
G01*
G37*
%TD*%
%TO.C,R2*%
G36*
G01*
X187937500Y-79075000D02*
X187412500Y-79075000D01*
G75*
G02*
X187150000Y-78812500I0J262500D01*
G01*
X187150000Y-78187500D01*
G75*
G02*
X187412500Y-77925000I262500J0D01*
G01*
X187937500Y-77925000D01*
G75*
G02*
X188200000Y-78187500I0J-262500D01*
G01*
X188200000Y-78812500D01*
G75*
G02*
X187937500Y-79075000I-262500J0D01*
G01*
G37*
G36*
G01*
X187937500Y-80825000D02*
X187412500Y-80825000D01*
G75*
G02*
X187150000Y-80562500I0J262500D01*
G01*
X187150000Y-79937500D01*
G75*
G02*
X187412500Y-79675000I262500J0D01*
G01*
X187937500Y-79675000D01*
G75*
G02*
X188200000Y-79937500I0J-262500D01*
G01*
X188200000Y-80562500D01*
G75*
G02*
X187937500Y-80825000I-262500J0D01*
G01*
G37*
%TD*%
D18*
%TO.C,Q1*%
X182375000Y-79275000D03*
X185675000Y-80225000D03*
X185675000Y-78325000D03*
%TD*%
D14*
%TO.C,J5*%
X189525000Y-108780000D03*
X189525000Y-106240000D03*
X189525000Y-103700000D03*
X189525000Y-101160000D03*
X189525000Y-98620000D03*
X189525000Y-96080000D03*
X189525000Y-93540000D03*
D15*
X189525000Y-91000000D03*
%TD*%
D14*
%TO.C,J4*%
X192375000Y-108780000D03*
X192375000Y-106240000D03*
X192375000Y-103700000D03*
X192375000Y-101160000D03*
X192375000Y-98620000D03*
X192375000Y-96080000D03*
X192375000Y-93540000D03*
D15*
X192375000Y-91000000D03*
%TD*%
D14*
%TO.C,J3*%
X186810000Y-108740000D03*
X186810000Y-106200000D03*
X186810000Y-103660000D03*
X186810000Y-101120000D03*
X186810000Y-98580000D03*
X186810000Y-96040000D03*
X186810000Y-93500000D03*
D15*
X186810000Y-90960000D03*
%TD*%
%TO.C,D2*%
G36*
G01*
X182370000Y-90450000D02*
X183680000Y-90450000D01*
G75*
G02*
X183950000Y-90720000I0J-270000D01*
G01*
X183950000Y-91530000D01*
G75*
G02*
X183680000Y-91800000I-270000J0D01*
G01*
X182370000Y-91800000D01*
G75*
G02*
X182100000Y-91530000I0J270000D01*
G01*
X182100000Y-90720000D01*
G75*
G02*
X182370000Y-90450000I270000J0D01*
G01*
G37*
G36*
G01*
X182370000Y-87650000D02*
X183680000Y-87650000D01*
G75*
G02*
X183950000Y-87920000I0J-270000D01*
G01*
X183950000Y-88730000D01*
G75*
G02*
X183680000Y-89000000I-270000J0D01*
G01*
X182370000Y-89000000D01*
G75*
G02*
X182100000Y-88730000I0J270000D01*
G01*
X182100000Y-87920000D01*
G75*
G02*
X182370000Y-87650000I270000J0D01*
G01*
G37*
%TD*%
%TO.C,D1*%
G36*
G01*
X186120000Y-84025000D02*
X187430000Y-84025000D01*
G75*
G02*
X187700000Y-84295000I0J-270000D01*
G01*
X187700000Y-85105000D01*
G75*
G02*
X187430000Y-85375000I-270000J0D01*
G01*
X186120000Y-85375000D01*
G75*
G02*
X185850000Y-85105000I0J270000D01*
G01*
X185850000Y-84295000D01*
G75*
G02*
X186120000Y-84025000I270000J0D01*
G01*
G37*
G36*
G01*
X186120000Y-81225000D02*
X187430000Y-81225000D01*
G75*
G02*
X187700000Y-81495000I0J-270000D01*
G01*
X187700000Y-82305000D01*
G75*
G02*
X187430000Y-82575000I-270000J0D01*
G01*
X186120000Y-82575000D01*
G75*
G02*
X185850000Y-82305000I0J270000D01*
G01*
X185850000Y-81495000D01*
G75*
G02*
X186120000Y-81225000I270000J0D01*
G01*
G37*
%TD*%
M02*
