M48
; DRILL file {KiCad (5.1.6)-1} date 09/08/20 22:29:06
; FORMAT={-:-/ absolute / metric / decimal}
; #@! TF.CreationDate,2020-09-08T22:29:06+07:00
; #@! TF.GenerationSoftware,Kicad,Pcbnew,(5.1.6)-1
; #@! TF.FileFunction,Plated,1,4,PTH
FMAT,2
METRIC
T1C0.300
T2C0.600
T3C0.850
T4C1.000
T5C3.000
%
G90
G05
T1
X145.625Y-95.975
X145.875Y-90.425
X146.8Y-93.3
X147.75Y-84.225
X147.775Y-79.475
X148.05Y-89.25
X149.425Y-111.25
X149.45Y-112.2
X149.475Y-102.85
X149.525Y-110.25
X149.85Y-115.275
X149.875Y-75.4
X150.175Y-116.75
X151.5Y-84.2
X151.555Y-85.16
X151.6Y-93.075
X151.7Y-98.525
X151.825Y-105.7
X151.95Y-115.1
X152.3Y-77.325
X152.949Y-94.531
X153.05Y-115.2
X153.275Y-86.15
X153.625Y-94.15
X154.075Y-116.825
X154.275Y-84.2
X154.275Y-107.775
X154.585Y-99.843
X155.6Y-91.225
X155.925Y-90.175
X156.4Y-92.275
X156.425Y-99.875
X157.175Y-112.65
X157.25Y-89.625
X157.325Y-96.1
X157.35Y-95.15
X157.475Y-99.885
X157.475Y-100.89
X157.475Y-101.86
X159.8Y-110.725
X160.275Y-88.025
X160.405Y-90.03
X160.425Y-107.95
X160.71Y-77.47
X161.075Y-112.525
X161.15Y-114.475
X161.5Y-107.125
X162.0Y-99.225
X162.05Y-87.25
X162.15Y-100.075
X162.25Y-91.65
X162.35Y-97.975
X162.475Y-92.525
X162.65Y-81.45
X162.725Y-114.475
X162.925Y-101.775
X163.3Y-107.275
X163.725Y-78.025
X164.025Y-98.5
X164.15Y-97.075
X164.25Y-107.25
X164.25Y-108.275
X164.4Y-100.05
X164.55Y-92.24
X164.675Y-101.75
X164.825Y-95.925
X165.075Y-106.85
X165.225Y-113.625
X165.375Y-84.75
X165.5Y-103.475
X165.55Y-87.9
X165.55Y-98.525
X165.625Y-87.075
X165.625Y-96.9
X165.65Y-109.225
X165.787Y-94.037
X165.825Y-92.24
X165.925Y-86.325
X166.0Y-95.725
X166.25Y-99.95
X166.25Y-101.775
X166.75Y-106.675
X166.75Y-112.125
X166.8Y-86.225
X166.8Y-109.375
X166.82Y-91.045
X166.875Y-95.2
X166.9Y-108.3
X166.925Y-103.725
X167.15Y-113.625
X167.325Y-96.95
X167.45Y-86.925
X167.475Y-98.625
X167.5Y-101.65
X167.675Y-116.125
X167.875Y-92.24
X168.025Y-80.775
X168.1Y-96.025
X168.125Y-86.475
X168.175Y-100.05
X168.525Y-77.4
X168.55Y-102.025
X168.9Y-86.675
X168.975Y-96.975
X169.0Y-109.025
X169.025Y-112.325
X169.025Y-116.075
X169.2Y-117.425
X169.5Y-100.025
X169.625Y-98.75
X169.7Y-86.4
X169.775Y-102.775
X169.875Y-115.525
X169.875Y-118.075
X169.9Y-114.0
X169.975Y-95.05
X170.188Y-87.425
X170.5Y-103.35
X171.125Y-97.225
X171.125Y-114.9
X171.175Y-113.65
X171.225Y-79.8
X171.225Y-92.215
X171.35Y-100.075
X171.35Y-108.35
X171.425Y-98.85
X171.5Y-78.95
X171.55Y-95.35
X171.7Y-102.725
X172.25Y-108.875
X172.275Y-92.2
X172.5Y-102.425
X172.65Y-118.675
X172.725Y-84.175
X172.825Y-114.4
X172.925Y-113.325
X173.0Y-98.825
X173.05Y-97.4
X173.2Y-100.575
X173.75Y-91.5
X173.75Y-112.8
X173.85Y-101.3
X173.975Y-110.075
X174.1Y-102.1
X174.7Y-117.2
X175.725Y-90.325
X176.325Y-77.55
X176.5Y-111.575
X176.6Y-117.625
X176.825Y-82.95
X176.825Y-84.6
X176.975Y-104.525
X178.5Y-89.4
X178.75Y-112.3
X179.25Y-106.525
X179.425Y-77.525
X180.02Y-93.92
X180.025Y-96.75
X180.125Y-102.975
X180.125Y-104.35
X180.175Y-115.75
X180.175Y-117.75
X180.7Y-87.8
X180.75Y-88.55
X181.475Y-87.8
X181.525Y-88.525
X181.65Y-84.775
X181.65Y-103.1
X181.8Y-93.85
X182.425Y-91.5
X182.45Y-90.8
X183.175Y-103.0
X183.275Y-75.425
X183.3Y-76.075
X183.375Y-111.675
X183.5Y-112.65
X183.575Y-90.775
X183.575Y-100.5
X183.6Y-91.45
X183.925Y-75.4
X184.0Y-76.05
X184.425Y-116.825
X184.775Y-113.6
X185.05Y-86.4
X185.45Y-116.625
X186.275Y-84.65
X186.375Y-78.825
X186.4Y-88.75
X186.425Y-116.625
X187.3Y-84.625
X187.4Y-88.775
X187.45Y-116.875
X188.1Y-77.35
X188.375Y-83.3
X188.875Y-115.425
X188.975Y-113.4
X188.975Y-114.4
T3
X189.637Y-79.475
X189.637Y-84.475
T4
X192.375Y-91.0
X192.375Y-93.54
X192.375Y-96.08
X192.375Y-98.62
X192.375Y-101.16
X192.375Y-103.7
X192.375Y-106.24
X192.375Y-108.78
X189.55Y-88.225
X192.09Y-88.225
X186.81Y-90.96
X186.81Y-93.5
X186.81Y-96.04
X186.81Y-98.58
X186.81Y-101.12
X186.81Y-103.66
X186.81Y-106.2
X186.81Y-108.74
X189.525Y-91.0
X189.525Y-93.54
X189.525Y-96.08
X189.525Y-98.62
X189.525Y-101.16
X189.525Y-103.7
X189.525Y-106.24
X189.525Y-108.78
X157.625Y-120.075
X160.165Y-120.075
X162.705Y-120.075
X165.245Y-120.075
X167.785Y-120.075
X170.325Y-120.075
X172.865Y-120.075
X175.405Y-120.075
X177.945Y-120.075
X180.485Y-120.075
T5
X146.375Y-75.075
X146.6Y-119.2
X191.475Y-75.1
X191.5Y-119.25
T2
G00X191.987Y-78.475
M15
G01X192.688Y-78.475
M16
G05
G00X192.688Y-85.475
M15
G01X191.987Y-85.475
M16
G05
T0
M30
