%TF.GenerationSoftware,KiCad,Pcbnew,(5.1.6)-1*%
%TF.CreationDate,2020-09-08T22:29:01+07:00*%
%TF.ProjectId,Pixracer_clone,50697872-6163-4657-925f-636c6f6e652e,rev?*%
%TF.SameCoordinates,Original*%
%TF.FileFunction,Paste,Top*%
%TF.FilePolarity,Positive*%
%FSLAX46Y46*%
G04 Gerber Fmt 4.6, Leading zero omitted, Abs format (unit mm)*
G04 Created by KiCad (PCBNEW (5.1.6)-1) date 2020-09-08 22:29:01*
%MOMM*%
%LPD*%
G01*
G04 APERTURE LIST*
%ADD10R,1.060000X0.650000*%
%ADD11C,0.100000*%
%ADD12R,1.000000X2.510000*%
%ADD13R,1.500000X1.000000*%
%ADD14R,1.000000X3.000000*%
%ADD15R,1.900000X1.500000*%
%ADD16R,1.350000X0.400000*%
%ADD17R,1.200000X1.400000*%
%ADD18R,1.000000X2.750000*%
%ADD19R,0.900000X0.800000*%
G04 APERTURE END LIST*
%TO.C,C12*%
G36*
G01*
X157647500Y-99210000D02*
X157302500Y-99210000D01*
G75*
G02*
X157155000Y-99062500I0J147500D01*
G01*
X157155000Y-98767500D01*
G75*
G02*
X157302500Y-98620000I147500J0D01*
G01*
X157647500Y-98620000D01*
G75*
G02*
X157795000Y-98767500I0J-147500D01*
G01*
X157795000Y-99062500D01*
G75*
G02*
X157647500Y-99210000I-147500J0D01*
G01*
G37*
G36*
G01*
X157647500Y-100180000D02*
X157302500Y-100180000D01*
G75*
G02*
X157155000Y-100032500I0J147500D01*
G01*
X157155000Y-99737500D01*
G75*
G02*
X157302500Y-99590000I147500J0D01*
G01*
X157647500Y-99590000D01*
G75*
G02*
X157795000Y-99737500I0J-147500D01*
G01*
X157795000Y-100032500D01*
G75*
G02*
X157647500Y-100180000I-147500J0D01*
G01*
G37*
%TD*%
%TO.C,Switch*%
G36*
G01*
X144999999Y-115925000D02*
X146300001Y-115925000D01*
G75*
G02*
X146550000Y-116174999I0J-249999D01*
G01*
X146550000Y-116875001D01*
G75*
G02*
X146300001Y-117125000I-249999J0D01*
G01*
X144999999Y-117125000D01*
G75*
G02*
X144750000Y-116875001I0J249999D01*
G01*
X144750000Y-116174999D01*
G75*
G02*
X144999999Y-115925000I249999J0D01*
G01*
G37*
G36*
G01*
X144999999Y-108325000D02*
X146300001Y-108325000D01*
G75*
G02*
X146550000Y-108574999I0J-249999D01*
G01*
X146550000Y-109275001D01*
G75*
G02*
X146300001Y-109525000I-249999J0D01*
G01*
X144999999Y-109525000D01*
G75*
G02*
X144750000Y-109275001I0J249999D01*
G01*
X144750000Y-108574999D01*
G75*
G02*
X144999999Y-108325000I249999J0D01*
G01*
G37*
G36*
G01*
X148900000Y-114925000D02*
X150150000Y-114925000D01*
G75*
G02*
X150300000Y-115075000I0J-150000D01*
G01*
X150300000Y-115375000D01*
G75*
G02*
X150150000Y-115525000I-150000J0D01*
G01*
X148900000Y-115525000D01*
G75*
G02*
X148750000Y-115375000I0J150000D01*
G01*
X148750000Y-115075000D01*
G75*
G02*
X148900000Y-114925000I150000J0D01*
G01*
G37*
G36*
G01*
X148900000Y-113925000D02*
X150150000Y-113925000D01*
G75*
G02*
X150300000Y-114075000I0J-150000D01*
G01*
X150300000Y-114375000D01*
G75*
G02*
X150150000Y-114525000I-150000J0D01*
G01*
X148900000Y-114525000D01*
G75*
G02*
X148750000Y-114375000I0J150000D01*
G01*
X148750000Y-114075000D01*
G75*
G02*
X148900000Y-113925000I150000J0D01*
G01*
G37*
G36*
G01*
X148900000Y-112925000D02*
X150150000Y-112925000D01*
G75*
G02*
X150300000Y-113075000I0J-150000D01*
G01*
X150300000Y-113375000D01*
G75*
G02*
X150150000Y-113525000I-150000J0D01*
G01*
X148900000Y-113525000D01*
G75*
G02*
X148750000Y-113375000I0J150000D01*
G01*
X148750000Y-113075000D01*
G75*
G02*
X148900000Y-112925000I150000J0D01*
G01*
G37*
G36*
G01*
X148900000Y-111925000D02*
X150150000Y-111925000D01*
G75*
G02*
X150300000Y-112075000I0J-150000D01*
G01*
X150300000Y-112375000D01*
G75*
G02*
X150150000Y-112525000I-150000J0D01*
G01*
X148900000Y-112525000D01*
G75*
G02*
X148750000Y-112375000I0J150000D01*
G01*
X148750000Y-112075000D01*
G75*
G02*
X148900000Y-111925000I150000J0D01*
G01*
G37*
G36*
G01*
X148900000Y-110925000D02*
X150150000Y-110925000D01*
G75*
G02*
X150300000Y-111075000I0J-150000D01*
G01*
X150300000Y-111375000D01*
G75*
G02*
X150150000Y-111525000I-150000J0D01*
G01*
X148900000Y-111525000D01*
G75*
G02*
X148750000Y-111375000I0J150000D01*
G01*
X148750000Y-111075000D01*
G75*
G02*
X148900000Y-110925000I150000J0D01*
G01*
G37*
G36*
G01*
X148900000Y-109925000D02*
X150150000Y-109925000D01*
G75*
G02*
X150300000Y-110075000I0J-150000D01*
G01*
X150300000Y-110375000D01*
G75*
G02*
X150150000Y-110525000I-150000J0D01*
G01*
X148900000Y-110525000D01*
G75*
G02*
X148750000Y-110375000I0J150000D01*
G01*
X148750000Y-110075000D01*
G75*
G02*
X148900000Y-109925000I150000J0D01*
G01*
G37*
%TD*%
%TO.C,SWD*%
G36*
G01*
X183425000Y-72899999D02*
X183425000Y-74200001D01*
G75*
G02*
X183175001Y-74450000I-249999J0D01*
G01*
X182474999Y-74450000D01*
G75*
G02*
X182225000Y-74200001I0J249999D01*
G01*
X182225000Y-72899999D01*
G75*
G02*
X182474999Y-72650000I249999J0D01*
G01*
X183175001Y-72650000D01*
G75*
G02*
X183425000Y-72899999I0J-249999D01*
G01*
G37*
G36*
G01*
X189025000Y-72899999D02*
X189025000Y-74200001D01*
G75*
G02*
X188775001Y-74450000I-249999J0D01*
G01*
X188074999Y-74450000D01*
G75*
G02*
X187825000Y-74200001I0J249999D01*
G01*
X187825000Y-72899999D01*
G75*
G02*
X188074999Y-72650000I249999J0D01*
G01*
X188775001Y-72650000D01*
G75*
G02*
X189025000Y-72899999I0J-249999D01*
G01*
G37*
G36*
G01*
X184425000Y-76800000D02*
X184425000Y-78050000D01*
G75*
G02*
X184275000Y-78200000I-150000J0D01*
G01*
X183975000Y-78200000D01*
G75*
G02*
X183825000Y-78050000I0J150000D01*
G01*
X183825000Y-76800000D01*
G75*
G02*
X183975000Y-76650000I150000J0D01*
G01*
X184275000Y-76650000D01*
G75*
G02*
X184425000Y-76800000I0J-150000D01*
G01*
G37*
G36*
G01*
X185425000Y-76800000D02*
X185425000Y-78050000D01*
G75*
G02*
X185275000Y-78200000I-150000J0D01*
G01*
X184975000Y-78200000D01*
G75*
G02*
X184825000Y-78050000I0J150000D01*
G01*
X184825000Y-76800000D01*
G75*
G02*
X184975000Y-76650000I150000J0D01*
G01*
X185275000Y-76650000D01*
G75*
G02*
X185425000Y-76800000I0J-150000D01*
G01*
G37*
G36*
G01*
X186425000Y-76800000D02*
X186425000Y-78050000D01*
G75*
G02*
X186275000Y-78200000I-150000J0D01*
G01*
X185975000Y-78200000D01*
G75*
G02*
X185825000Y-78050000I0J150000D01*
G01*
X185825000Y-76800000D01*
G75*
G02*
X185975000Y-76650000I150000J0D01*
G01*
X186275000Y-76650000D01*
G75*
G02*
X186425000Y-76800000I0J-150000D01*
G01*
G37*
G36*
G01*
X187425000Y-76800000D02*
X187425000Y-78050000D01*
G75*
G02*
X187275000Y-78200000I-150000J0D01*
G01*
X186975000Y-78200000D01*
G75*
G02*
X186825000Y-78050000I0J150000D01*
G01*
X186825000Y-76800000D01*
G75*
G02*
X186975000Y-76650000I150000J0D01*
G01*
X187275000Y-76650000D01*
G75*
G02*
X187425000Y-76800000I0J-150000D01*
G01*
G37*
%TD*%
D10*
%TO.C,U2*%
X149355000Y-86110000D03*
X149355000Y-84210000D03*
X151555000Y-84210000D03*
X151555000Y-85160000D03*
X151555000Y-86110000D03*
%TD*%
%TO.C,C43*%
G36*
G01*
X147987500Y-84750000D02*
X147512500Y-84750000D01*
G75*
G02*
X147275000Y-84512500I0J237500D01*
G01*
X147275000Y-83937500D01*
G75*
G02*
X147512500Y-83700000I237500J0D01*
G01*
X147987500Y-83700000D01*
G75*
G02*
X148225000Y-83937500I0J-237500D01*
G01*
X148225000Y-84512500D01*
G75*
G02*
X147987500Y-84750000I-237500J0D01*
G01*
G37*
G36*
G01*
X147987500Y-86500000D02*
X147512500Y-86500000D01*
G75*
G02*
X147275000Y-86262500I0J237500D01*
G01*
X147275000Y-85687500D01*
G75*
G02*
X147512500Y-85450000I237500J0D01*
G01*
X147987500Y-85450000D01*
G75*
G02*
X148225000Y-85687500I0J-237500D01*
G01*
X148225000Y-86262500D01*
G75*
G02*
X147987500Y-86500000I-237500J0D01*
G01*
G37*
%TD*%
%TO.C,C38*%
G36*
G01*
X181275000Y-94187500D02*
X181275000Y-93712500D01*
G75*
G02*
X181512500Y-93475000I237500J0D01*
G01*
X182087500Y-93475000D01*
G75*
G02*
X182325000Y-93712500I0J-237500D01*
G01*
X182325000Y-94187500D01*
G75*
G02*
X182087500Y-94425000I-237500J0D01*
G01*
X181512500Y-94425000D01*
G75*
G02*
X181275000Y-94187500I0J237500D01*
G01*
G37*
G36*
G01*
X179525000Y-94187500D02*
X179525000Y-93712500D01*
G75*
G02*
X179762500Y-93475000I237500J0D01*
G01*
X180337500Y-93475000D01*
G75*
G02*
X180575000Y-93712500I0J-237500D01*
G01*
X180575000Y-94187500D01*
G75*
G02*
X180337500Y-94425000I-237500J0D01*
G01*
X179762500Y-94425000D01*
G75*
G02*
X179525000Y-94187500I0J237500D01*
G01*
G37*
%TD*%
%TO.C,C15*%
G36*
G01*
X153387500Y-84725000D02*
X152912500Y-84725000D01*
G75*
G02*
X152675000Y-84487500I0J237500D01*
G01*
X152675000Y-83912500D01*
G75*
G02*
X152912500Y-83675000I237500J0D01*
G01*
X153387500Y-83675000D01*
G75*
G02*
X153625000Y-83912500I0J-237500D01*
G01*
X153625000Y-84487500D01*
G75*
G02*
X153387500Y-84725000I-237500J0D01*
G01*
G37*
G36*
G01*
X153387500Y-86475000D02*
X152912500Y-86475000D01*
G75*
G02*
X152675000Y-86237500I0J237500D01*
G01*
X152675000Y-85662500D01*
G75*
G02*
X152912500Y-85425000I237500J0D01*
G01*
X153387500Y-85425000D01*
G75*
G02*
X153625000Y-85662500I0J-237500D01*
G01*
X153625000Y-86237500D01*
G75*
G02*
X153387500Y-86475000I-237500J0D01*
G01*
G37*
%TD*%
%TO.C,FB1*%
G36*
G01*
X184325000Y-91531250D02*
X184325000Y-90618750D01*
G75*
G02*
X184568750Y-90375000I243750J0D01*
G01*
X185056250Y-90375000D01*
G75*
G02*
X185300000Y-90618750I0J-243750D01*
G01*
X185300000Y-91531250D01*
G75*
G02*
X185056250Y-91775000I-243750J0D01*
G01*
X184568750Y-91775000D01*
G75*
G02*
X184325000Y-91531250I0J243750D01*
G01*
G37*
G36*
G01*
X182450000Y-91531250D02*
X182450000Y-90618750D01*
G75*
G02*
X182693750Y-90375000I243750J0D01*
G01*
X183181250Y-90375000D01*
G75*
G02*
X183425000Y-90618750I0J-243750D01*
G01*
X183425000Y-91531250D01*
G75*
G02*
X183181250Y-91775000I-243750J0D01*
G01*
X182693750Y-91775000D01*
G75*
G02*
X182450000Y-91531250I0J243750D01*
G01*
G37*
%TD*%
%TO.C,SBUS*%
G36*
G01*
X144949999Y-106575000D02*
X146250001Y-106575000D01*
G75*
G02*
X146500000Y-106824999I0J-249999D01*
G01*
X146500000Y-107525001D01*
G75*
G02*
X146250001Y-107775000I-249999J0D01*
G01*
X144949999Y-107775000D01*
G75*
G02*
X144700000Y-107525001I0J249999D01*
G01*
X144700000Y-106824999D01*
G75*
G02*
X144949999Y-106575000I249999J0D01*
G01*
G37*
G36*
G01*
X144949999Y-100975000D02*
X146250001Y-100975000D01*
G75*
G02*
X146500000Y-101224999I0J-249999D01*
G01*
X146500000Y-101925001D01*
G75*
G02*
X146250001Y-102175000I-249999J0D01*
G01*
X144949999Y-102175000D01*
G75*
G02*
X144700000Y-101925001I0J249999D01*
G01*
X144700000Y-101224999D01*
G75*
G02*
X144949999Y-100975000I249999J0D01*
G01*
G37*
G36*
G01*
X148850000Y-105575000D02*
X150100000Y-105575000D01*
G75*
G02*
X150250000Y-105725000I0J-150000D01*
G01*
X150250000Y-106025000D01*
G75*
G02*
X150100000Y-106175000I-150000J0D01*
G01*
X148850000Y-106175000D01*
G75*
G02*
X148700000Y-106025000I0J150000D01*
G01*
X148700000Y-105725000D01*
G75*
G02*
X148850000Y-105575000I150000J0D01*
G01*
G37*
G36*
G01*
X148850000Y-104575000D02*
X150100000Y-104575000D01*
G75*
G02*
X150250000Y-104725000I0J-150000D01*
G01*
X150250000Y-105025000D01*
G75*
G02*
X150100000Y-105175000I-150000J0D01*
G01*
X148850000Y-105175000D01*
G75*
G02*
X148700000Y-105025000I0J150000D01*
G01*
X148700000Y-104725000D01*
G75*
G02*
X148850000Y-104575000I150000J0D01*
G01*
G37*
G36*
G01*
X148850000Y-103575000D02*
X150100000Y-103575000D01*
G75*
G02*
X150250000Y-103725000I0J-150000D01*
G01*
X150250000Y-104025000D01*
G75*
G02*
X150100000Y-104175000I-150000J0D01*
G01*
X148850000Y-104175000D01*
G75*
G02*
X148700000Y-104025000I0J150000D01*
G01*
X148700000Y-103725000D01*
G75*
G02*
X148850000Y-103575000I150000J0D01*
G01*
G37*
G36*
G01*
X148850000Y-102575000D02*
X150100000Y-102575000D01*
G75*
G02*
X150250000Y-102725000I0J-150000D01*
G01*
X150250000Y-103025000D01*
G75*
G02*
X150100000Y-103175000I-150000J0D01*
G01*
X148850000Y-103175000D01*
G75*
G02*
X148700000Y-103025000I0J150000D01*
G01*
X148700000Y-102725000D01*
G75*
G02*
X148850000Y-102575000I150000J0D01*
G01*
G37*
%TD*%
%TO.C,I2C1*%
G36*
G01*
X167825000Y-72924999D02*
X167825000Y-74225001D01*
G75*
G02*
X167575001Y-74475000I-249999J0D01*
G01*
X166874999Y-74475000D01*
G75*
G02*
X166625000Y-74225001I0J249999D01*
G01*
X166625000Y-72924999D01*
G75*
G02*
X166874999Y-72675000I249999J0D01*
G01*
X167575001Y-72675000D01*
G75*
G02*
X167825000Y-72924999I0J-249999D01*
G01*
G37*
G36*
G01*
X173425000Y-72924999D02*
X173425000Y-74225001D01*
G75*
G02*
X173175001Y-74475000I-249999J0D01*
G01*
X172474999Y-74475000D01*
G75*
G02*
X172225000Y-74225001I0J249999D01*
G01*
X172225000Y-72924999D01*
G75*
G02*
X172474999Y-72675000I249999J0D01*
G01*
X173175001Y-72675000D01*
G75*
G02*
X173425000Y-72924999I0J-249999D01*
G01*
G37*
G36*
G01*
X168825000Y-76825000D02*
X168825000Y-78075000D01*
G75*
G02*
X168675000Y-78225000I-150000J0D01*
G01*
X168375000Y-78225000D01*
G75*
G02*
X168225000Y-78075000I0J150000D01*
G01*
X168225000Y-76825000D01*
G75*
G02*
X168375000Y-76675000I150000J0D01*
G01*
X168675000Y-76675000D01*
G75*
G02*
X168825000Y-76825000I0J-150000D01*
G01*
G37*
G36*
G01*
X169825000Y-76825000D02*
X169825000Y-78075000D01*
G75*
G02*
X169675000Y-78225000I-150000J0D01*
G01*
X169375000Y-78225000D01*
G75*
G02*
X169225000Y-78075000I0J150000D01*
G01*
X169225000Y-76825000D01*
G75*
G02*
X169375000Y-76675000I150000J0D01*
G01*
X169675000Y-76675000D01*
G75*
G02*
X169825000Y-76825000I0J-150000D01*
G01*
G37*
G36*
G01*
X170825000Y-76825000D02*
X170825000Y-78075000D01*
G75*
G02*
X170675000Y-78225000I-150000J0D01*
G01*
X170375000Y-78225000D01*
G75*
G02*
X170225000Y-78075000I0J150000D01*
G01*
X170225000Y-76825000D01*
G75*
G02*
X170375000Y-76675000I150000J0D01*
G01*
X170675000Y-76675000D01*
G75*
G02*
X170825000Y-76825000I0J-150000D01*
G01*
G37*
G36*
G01*
X171825000Y-76825000D02*
X171825000Y-78075000D01*
G75*
G02*
X171675000Y-78225000I-150000J0D01*
G01*
X171375000Y-78225000D01*
G75*
G02*
X171225000Y-78075000I0J150000D01*
G01*
X171225000Y-76825000D01*
G75*
G02*
X171375000Y-76675000I150000J0D01*
G01*
X171675000Y-76675000D01*
G75*
G02*
X171825000Y-76825000I0J-150000D01*
G01*
G37*
%TD*%
%TO.C,R4*%
G36*
G01*
X185575000Y-82637500D02*
X185575000Y-83112500D01*
G75*
G02*
X185337500Y-83350000I-237500J0D01*
G01*
X184762500Y-83350000D01*
G75*
G02*
X184525000Y-83112500I0J237500D01*
G01*
X184525000Y-82637500D01*
G75*
G02*
X184762500Y-82400000I237500J0D01*
G01*
X185337500Y-82400000D01*
G75*
G02*
X185575000Y-82637500I0J-237500D01*
G01*
G37*
G36*
G01*
X187325000Y-82637500D02*
X187325000Y-83112500D01*
G75*
G02*
X187087500Y-83350000I-237500J0D01*
G01*
X186512500Y-83350000D01*
G75*
G02*
X186275000Y-83112500I0J237500D01*
G01*
X186275000Y-82637500D01*
G75*
G02*
X186512500Y-82400000I237500J0D01*
G01*
X187087500Y-82400000D01*
G75*
G02*
X187325000Y-82637500I0J-237500D01*
G01*
G37*
%TD*%
%TO.C,R3*%
G36*
G01*
X185600000Y-80912500D02*
X185600000Y-81387500D01*
G75*
G02*
X185362500Y-81625000I-237500J0D01*
G01*
X184787500Y-81625000D01*
G75*
G02*
X184550000Y-81387500I0J237500D01*
G01*
X184550000Y-80912500D01*
G75*
G02*
X184787500Y-80675000I237500J0D01*
G01*
X185362500Y-80675000D01*
G75*
G02*
X185600000Y-80912500I0J-237500D01*
G01*
G37*
G36*
G01*
X187350000Y-80912500D02*
X187350000Y-81387500D01*
G75*
G02*
X187112500Y-81625000I-237500J0D01*
G01*
X186537500Y-81625000D01*
G75*
G02*
X186300000Y-81387500I0J237500D01*
G01*
X186300000Y-80912500D01*
G75*
G02*
X186537500Y-80675000I237500J0D01*
G01*
X187112500Y-80675000D01*
G75*
G02*
X187350000Y-80912500I0J-237500D01*
G01*
G37*
%TD*%
%TO.C,UART8*%
G36*
G01*
X160050000Y-72874999D02*
X160050000Y-74175001D01*
G75*
G02*
X159800001Y-74425000I-249999J0D01*
G01*
X159099999Y-74425000D01*
G75*
G02*
X158850000Y-74175001I0J249999D01*
G01*
X158850000Y-72874999D01*
G75*
G02*
X159099999Y-72625000I249999J0D01*
G01*
X159800001Y-72625000D01*
G75*
G02*
X160050000Y-72874999I0J-249999D01*
G01*
G37*
G36*
G01*
X165650000Y-72874999D02*
X165650000Y-74175001D01*
G75*
G02*
X165400001Y-74425000I-249999J0D01*
G01*
X164699999Y-74425000D01*
G75*
G02*
X164450000Y-74175001I0J249999D01*
G01*
X164450000Y-72874999D01*
G75*
G02*
X164699999Y-72625000I249999J0D01*
G01*
X165400001Y-72625000D01*
G75*
G02*
X165650000Y-72874999I0J-249999D01*
G01*
G37*
G36*
G01*
X161050000Y-76775000D02*
X161050000Y-78025000D01*
G75*
G02*
X160900000Y-78175000I-150000J0D01*
G01*
X160600000Y-78175000D01*
G75*
G02*
X160450000Y-78025000I0J150000D01*
G01*
X160450000Y-76775000D01*
G75*
G02*
X160600000Y-76625000I150000J0D01*
G01*
X160900000Y-76625000D01*
G75*
G02*
X161050000Y-76775000I0J-150000D01*
G01*
G37*
G36*
G01*
X162050000Y-76775000D02*
X162050000Y-78025000D01*
G75*
G02*
X161900000Y-78175000I-150000J0D01*
G01*
X161600000Y-78175000D01*
G75*
G02*
X161450000Y-78025000I0J150000D01*
G01*
X161450000Y-76775000D01*
G75*
G02*
X161600000Y-76625000I150000J0D01*
G01*
X161900000Y-76625000D01*
G75*
G02*
X162050000Y-76775000I0J-150000D01*
G01*
G37*
G36*
G01*
X163050000Y-76775000D02*
X163050000Y-78025000D01*
G75*
G02*
X162900000Y-78175000I-150000J0D01*
G01*
X162600000Y-78175000D01*
G75*
G02*
X162450000Y-78025000I0J150000D01*
G01*
X162450000Y-76775000D01*
G75*
G02*
X162600000Y-76625000I150000J0D01*
G01*
X162900000Y-76625000D01*
G75*
G02*
X163050000Y-76775000I0J-150000D01*
G01*
G37*
G36*
G01*
X164050000Y-76775000D02*
X164050000Y-78025000D01*
G75*
G02*
X163900000Y-78175000I-150000J0D01*
G01*
X163600000Y-78175000D01*
G75*
G02*
X163450000Y-78025000I0J150000D01*
G01*
X163450000Y-76775000D01*
G75*
G02*
X163600000Y-76625000I150000J0D01*
G01*
X163900000Y-76625000D01*
G75*
G02*
X164050000Y-76775000I0J-150000D01*
G01*
G37*
%TD*%
%TO.C,C25*%
G36*
G01*
X179700000Y-111925000D02*
X178450000Y-111925000D01*
G75*
G02*
X178200000Y-111675000I0J250000D01*
G01*
X178200000Y-110925000D01*
G75*
G02*
X178450000Y-110675000I250000J0D01*
G01*
X179700000Y-110675000D01*
G75*
G02*
X179950000Y-110925000I0J-250000D01*
G01*
X179950000Y-111675000D01*
G75*
G02*
X179700000Y-111925000I-250000J0D01*
G01*
G37*
G36*
G01*
X179700000Y-114725000D02*
X178450000Y-114725000D01*
G75*
G02*
X178200000Y-114475000I0J250000D01*
G01*
X178200000Y-113725000D01*
G75*
G02*
X178450000Y-113475000I250000J0D01*
G01*
X179700000Y-113475000D01*
G75*
G02*
X179950000Y-113725000I0J-250000D01*
G01*
X179950000Y-114475000D01*
G75*
G02*
X179700000Y-114725000I-250000J0D01*
G01*
G37*
%TD*%
%TO.C,C20*%
G36*
G01*
X174697500Y-111185000D02*
X174352500Y-111185000D01*
G75*
G02*
X174205000Y-111037500I0J147500D01*
G01*
X174205000Y-110742500D01*
G75*
G02*
X174352500Y-110595000I147500J0D01*
G01*
X174697500Y-110595000D01*
G75*
G02*
X174845000Y-110742500I0J-147500D01*
G01*
X174845000Y-111037500D01*
G75*
G02*
X174697500Y-111185000I-147500J0D01*
G01*
G37*
G36*
G01*
X174697500Y-112155000D02*
X174352500Y-112155000D01*
G75*
G02*
X174205000Y-112007500I0J147500D01*
G01*
X174205000Y-111712500D01*
G75*
G02*
X174352500Y-111565000I147500J0D01*
G01*
X174697500Y-111565000D01*
G75*
G02*
X174845000Y-111712500I0J-147500D01*
G01*
X174845000Y-112007500D01*
G75*
G02*
X174697500Y-112155000I-147500J0D01*
G01*
G37*
%TD*%
%TO.C,C16*%
G36*
G01*
X169818750Y-115125000D02*
X170331250Y-115125000D01*
G75*
G02*
X170550000Y-115343750I0J-218750D01*
G01*
X170550000Y-115781250D01*
G75*
G02*
X170331250Y-116000000I-218750J0D01*
G01*
X169818750Y-116000000D01*
G75*
G02*
X169600000Y-115781250I0J218750D01*
G01*
X169600000Y-115343750D01*
G75*
G02*
X169818750Y-115125000I218750J0D01*
G01*
G37*
G36*
G01*
X169818750Y-113550000D02*
X170331250Y-113550000D01*
G75*
G02*
X170550000Y-113768750I0J-218750D01*
G01*
X170550000Y-114206250D01*
G75*
G02*
X170331250Y-114425000I-218750J0D01*
G01*
X169818750Y-114425000D01*
G75*
G02*
X169600000Y-114206250I0J218750D01*
G01*
X169600000Y-113768750D01*
G75*
G02*
X169818750Y-113550000I218750J0D01*
G01*
G37*
%TD*%
%TO.C,C23*%
G36*
G01*
X161306250Y-110375000D02*
X160793750Y-110375000D01*
G75*
G02*
X160575000Y-110156250I0J218750D01*
G01*
X160575000Y-109718750D01*
G75*
G02*
X160793750Y-109500000I218750J0D01*
G01*
X161306250Y-109500000D01*
G75*
G02*
X161525000Y-109718750I0J-218750D01*
G01*
X161525000Y-110156250D01*
G75*
G02*
X161306250Y-110375000I-218750J0D01*
G01*
G37*
G36*
G01*
X161306250Y-111950000D02*
X160793750Y-111950000D01*
G75*
G02*
X160575000Y-111731250I0J218750D01*
G01*
X160575000Y-111293750D01*
G75*
G02*
X160793750Y-111075000I218750J0D01*
G01*
X161306250Y-111075000D01*
G75*
G02*
X161525000Y-111293750I0J-218750D01*
G01*
X161525000Y-111731250D01*
G75*
G02*
X161306250Y-111950000I-218750J0D01*
G01*
G37*
%TD*%
%TO.C,C26*%
G36*
G01*
X174931250Y-116275000D02*
X174418750Y-116275000D01*
G75*
G02*
X174200000Y-116056250I0J218750D01*
G01*
X174200000Y-115618750D01*
G75*
G02*
X174418750Y-115400000I218750J0D01*
G01*
X174931250Y-115400000D01*
G75*
G02*
X175150000Y-115618750I0J-218750D01*
G01*
X175150000Y-116056250D01*
G75*
G02*
X174931250Y-116275000I-218750J0D01*
G01*
G37*
G36*
G01*
X174931250Y-117850000D02*
X174418750Y-117850000D01*
G75*
G02*
X174200000Y-117631250I0J218750D01*
G01*
X174200000Y-117193750D01*
G75*
G02*
X174418750Y-116975000I218750J0D01*
G01*
X174931250Y-116975000D01*
G75*
G02*
X175150000Y-117193750I0J-218750D01*
G01*
X175150000Y-117631250D01*
G75*
G02*
X174931250Y-117850000I-218750J0D01*
G01*
G37*
%TD*%
%TO.C,C19*%
G36*
G01*
X172615000Y-114522500D02*
X172615000Y-114177500D01*
G75*
G02*
X172762500Y-114030000I147500J0D01*
G01*
X173057500Y-114030000D01*
G75*
G02*
X173205000Y-114177500I0J-147500D01*
G01*
X173205000Y-114522500D01*
G75*
G02*
X173057500Y-114670000I-147500J0D01*
G01*
X172762500Y-114670000D01*
G75*
G02*
X172615000Y-114522500I0J147500D01*
G01*
G37*
G36*
G01*
X171645000Y-114522500D02*
X171645000Y-114177500D01*
G75*
G02*
X171792500Y-114030000I147500J0D01*
G01*
X172087500Y-114030000D01*
G75*
G02*
X172235000Y-114177500I0J-147500D01*
G01*
X172235000Y-114522500D01*
G75*
G02*
X172087500Y-114670000I-147500J0D01*
G01*
X171792500Y-114670000D01*
G75*
G02*
X171645000Y-114522500I0J147500D01*
G01*
G37*
%TD*%
%TO.C,C24*%
G36*
G01*
X165300000Y-114906250D02*
X165300000Y-114393750D01*
G75*
G02*
X165518750Y-114175000I218750J0D01*
G01*
X165956250Y-114175000D01*
G75*
G02*
X166175000Y-114393750I0J-218750D01*
G01*
X166175000Y-114906250D01*
G75*
G02*
X165956250Y-115125000I-218750J0D01*
G01*
X165518750Y-115125000D01*
G75*
G02*
X165300000Y-114906250I0J218750D01*
G01*
G37*
G36*
G01*
X163725000Y-114906250D02*
X163725000Y-114393750D01*
G75*
G02*
X163943750Y-114175000I218750J0D01*
G01*
X164381250Y-114175000D01*
G75*
G02*
X164600000Y-114393750I0J-218750D01*
G01*
X164600000Y-114906250D01*
G75*
G02*
X164381250Y-115125000I-218750J0D01*
G01*
X163943750Y-115125000D01*
G75*
G02*
X163725000Y-114906250I0J218750D01*
G01*
G37*
%TD*%
%TO.C,C17*%
G36*
G01*
X166997500Y-111435000D02*
X166652500Y-111435000D01*
G75*
G02*
X166505000Y-111287500I0J147500D01*
G01*
X166505000Y-110992500D01*
G75*
G02*
X166652500Y-110845000I147500J0D01*
G01*
X166997500Y-110845000D01*
G75*
G02*
X167145000Y-110992500I0J-147500D01*
G01*
X167145000Y-111287500D01*
G75*
G02*
X166997500Y-111435000I-147500J0D01*
G01*
G37*
G36*
G01*
X166997500Y-112405000D02*
X166652500Y-112405000D01*
G75*
G02*
X166505000Y-112257500I0J147500D01*
G01*
X166505000Y-111962500D01*
G75*
G02*
X166652500Y-111815000I147500J0D01*
G01*
X166997500Y-111815000D01*
G75*
G02*
X167145000Y-111962500I0J-147500D01*
G01*
X167145000Y-112257500D01*
G75*
G02*
X166997500Y-112405000I-147500J0D01*
G01*
G37*
%TD*%
D11*
%TO.C,LSM6D*%
G36*
X171226441Y-117135368D02*
G01*
X171230709Y-117121299D01*
X171237640Y-117108332D01*
X171246967Y-117096967D01*
X171258332Y-117087640D01*
X171271299Y-117080709D01*
X171285368Y-117076441D01*
X171300000Y-117075000D01*
X171775000Y-117075000D01*
X171789632Y-117076441D01*
X171803701Y-117080709D01*
X171816668Y-117087640D01*
X171828033Y-117096967D01*
X171837360Y-117108332D01*
X171844291Y-117121299D01*
X171848559Y-117135368D01*
X171850000Y-117150000D01*
X171850000Y-117193934D01*
X171848559Y-117208566D01*
X171844291Y-117222635D01*
X171837360Y-117235602D01*
X171828033Y-117246967D01*
X171621967Y-117453033D01*
X171610602Y-117462360D01*
X171597635Y-117469291D01*
X171583566Y-117473559D01*
X171568934Y-117475000D01*
X171300000Y-117475000D01*
X171285368Y-117473559D01*
X171271299Y-117469291D01*
X171258332Y-117462360D01*
X171246967Y-117453033D01*
X171237640Y-117441668D01*
X171230709Y-117428701D01*
X171226441Y-117414632D01*
X171225000Y-117400000D01*
X171225000Y-117150000D01*
X171226441Y-117135368D01*
G37*
G36*
G01*
X171750000Y-116975000D02*
X171325000Y-116975000D01*
G75*
G02*
X171225000Y-116875000I0J100000D01*
G01*
X171225000Y-116675000D01*
G75*
G02*
X171325000Y-116575000I100000J0D01*
G01*
X171750000Y-116575000D01*
G75*
G02*
X171850000Y-116675000I0J-100000D01*
G01*
X171850000Y-116875000D01*
G75*
G02*
X171750000Y-116975000I-100000J0D01*
G01*
G37*
G36*
X171226441Y-116135368D02*
G01*
X171230709Y-116121299D01*
X171237640Y-116108332D01*
X171246967Y-116096967D01*
X171258332Y-116087640D01*
X171271299Y-116080709D01*
X171285368Y-116076441D01*
X171300000Y-116075000D01*
X171568934Y-116075000D01*
X171583566Y-116076441D01*
X171597635Y-116080709D01*
X171610602Y-116087640D01*
X171621967Y-116096967D01*
X171828033Y-116303033D01*
X171837360Y-116314398D01*
X171844291Y-116327365D01*
X171848559Y-116341434D01*
X171850000Y-116356066D01*
X171850000Y-116400000D01*
X171848559Y-116414632D01*
X171844291Y-116428701D01*
X171837360Y-116441668D01*
X171828033Y-116453033D01*
X171816668Y-116462360D01*
X171803701Y-116469291D01*
X171789632Y-116473559D01*
X171775000Y-116475000D01*
X171300000Y-116475000D01*
X171285368Y-116473559D01*
X171271299Y-116469291D01*
X171258332Y-116462360D01*
X171246967Y-116453033D01*
X171237640Y-116441668D01*
X171230709Y-116428701D01*
X171226441Y-116414632D01*
X171225000Y-116400000D01*
X171225000Y-116150000D01*
X171226441Y-116135368D01*
G37*
G36*
X171501441Y-115360368D02*
G01*
X171505709Y-115346299D01*
X171512640Y-115333332D01*
X171521967Y-115321967D01*
X171533332Y-115312640D01*
X171546299Y-115305709D01*
X171560368Y-115301441D01*
X171575000Y-115300000D01*
X171825000Y-115300000D01*
X171839632Y-115301441D01*
X171853701Y-115305709D01*
X171866668Y-115312640D01*
X171878033Y-115321967D01*
X171887360Y-115333332D01*
X171894291Y-115346299D01*
X171898559Y-115360368D01*
X171900000Y-115375000D01*
X171900000Y-115850000D01*
X171898559Y-115864632D01*
X171894291Y-115878701D01*
X171887360Y-115891668D01*
X171878033Y-115903033D01*
X171866668Y-115912360D01*
X171853701Y-115919291D01*
X171839632Y-115923559D01*
X171825000Y-115925000D01*
X171781066Y-115925000D01*
X171766434Y-115923559D01*
X171752365Y-115919291D01*
X171739398Y-115912360D01*
X171728033Y-115903033D01*
X171521967Y-115696967D01*
X171512640Y-115685602D01*
X171505709Y-115672635D01*
X171501441Y-115658566D01*
X171500000Y-115643934D01*
X171500000Y-115375000D01*
X171501441Y-115360368D01*
G37*
G36*
G01*
X172300000Y-115925000D02*
X172100000Y-115925000D01*
G75*
G02*
X172000000Y-115825000I0J100000D01*
G01*
X172000000Y-115400000D01*
G75*
G02*
X172100000Y-115300000I100000J0D01*
G01*
X172300000Y-115300000D01*
G75*
G02*
X172400000Y-115400000I0J-100000D01*
G01*
X172400000Y-115825000D01*
G75*
G02*
X172300000Y-115925000I-100000J0D01*
G01*
G37*
G36*
G01*
X172800000Y-115925000D02*
X172600000Y-115925000D01*
G75*
G02*
X172500000Y-115825000I0J100000D01*
G01*
X172500000Y-115400000D01*
G75*
G02*
X172600000Y-115300000I100000J0D01*
G01*
X172800000Y-115300000D01*
G75*
G02*
X172900000Y-115400000I0J-100000D01*
G01*
X172900000Y-115825000D01*
G75*
G02*
X172800000Y-115925000I-100000J0D01*
G01*
G37*
G36*
X173001441Y-115360368D02*
G01*
X173005709Y-115346299D01*
X173012640Y-115333332D01*
X173021967Y-115321967D01*
X173033332Y-115312640D01*
X173046299Y-115305709D01*
X173060368Y-115301441D01*
X173075000Y-115300000D01*
X173325000Y-115300000D01*
X173339632Y-115301441D01*
X173353701Y-115305709D01*
X173366668Y-115312640D01*
X173378033Y-115321967D01*
X173387360Y-115333332D01*
X173394291Y-115346299D01*
X173398559Y-115360368D01*
X173400000Y-115375000D01*
X173400000Y-115643934D01*
X173398559Y-115658566D01*
X173394291Y-115672635D01*
X173387360Y-115685602D01*
X173378033Y-115696967D01*
X173171967Y-115903033D01*
X173160602Y-115912360D01*
X173147635Y-115919291D01*
X173133566Y-115923559D01*
X173118934Y-115925000D01*
X173075000Y-115925000D01*
X173060368Y-115923559D01*
X173046299Y-115919291D01*
X173033332Y-115912360D01*
X173021967Y-115903033D01*
X173012640Y-115891668D01*
X173005709Y-115878701D01*
X173001441Y-115864632D01*
X173000000Y-115850000D01*
X173000000Y-115375000D01*
X173001441Y-115360368D01*
G37*
G36*
X173051441Y-116341434D02*
G01*
X173055709Y-116327365D01*
X173062640Y-116314398D01*
X173071967Y-116303033D01*
X173278033Y-116096967D01*
X173289398Y-116087640D01*
X173302365Y-116080709D01*
X173316434Y-116076441D01*
X173331066Y-116075000D01*
X173600000Y-116075000D01*
X173614632Y-116076441D01*
X173628701Y-116080709D01*
X173641668Y-116087640D01*
X173653033Y-116096967D01*
X173662360Y-116108332D01*
X173669291Y-116121299D01*
X173673559Y-116135368D01*
X173675000Y-116150000D01*
X173675000Y-116400000D01*
X173673559Y-116414632D01*
X173669291Y-116428701D01*
X173662360Y-116441668D01*
X173653033Y-116453033D01*
X173641668Y-116462360D01*
X173628701Y-116469291D01*
X173614632Y-116473559D01*
X173600000Y-116475000D01*
X173125000Y-116475000D01*
X173110368Y-116473559D01*
X173096299Y-116469291D01*
X173083332Y-116462360D01*
X173071967Y-116453033D01*
X173062640Y-116441668D01*
X173055709Y-116428701D01*
X173051441Y-116414632D01*
X173050000Y-116400000D01*
X173050000Y-116356066D01*
X173051441Y-116341434D01*
G37*
G36*
G01*
X173575000Y-116975000D02*
X173150000Y-116975000D01*
G75*
G02*
X173050000Y-116875000I0J100000D01*
G01*
X173050000Y-116675000D01*
G75*
G02*
X173150000Y-116575000I100000J0D01*
G01*
X173575000Y-116575000D01*
G75*
G02*
X173675000Y-116675000I0J-100000D01*
G01*
X173675000Y-116875000D01*
G75*
G02*
X173575000Y-116975000I-100000J0D01*
G01*
G37*
G36*
X173051441Y-117135368D02*
G01*
X173055709Y-117121299D01*
X173062640Y-117108332D01*
X173071967Y-117096967D01*
X173083332Y-117087640D01*
X173096299Y-117080709D01*
X173110368Y-117076441D01*
X173125000Y-117075000D01*
X173600000Y-117075000D01*
X173614632Y-117076441D01*
X173628701Y-117080709D01*
X173641668Y-117087640D01*
X173653033Y-117096967D01*
X173662360Y-117108332D01*
X173669291Y-117121299D01*
X173673559Y-117135368D01*
X173675000Y-117150000D01*
X173675000Y-117400000D01*
X173673559Y-117414632D01*
X173669291Y-117428701D01*
X173662360Y-117441668D01*
X173653033Y-117453033D01*
X173641668Y-117462360D01*
X173628701Y-117469291D01*
X173614632Y-117473559D01*
X173600000Y-117475000D01*
X173331066Y-117475000D01*
X173316434Y-117473559D01*
X173302365Y-117469291D01*
X173289398Y-117462360D01*
X173278033Y-117453033D01*
X173071967Y-117246967D01*
X173062640Y-117235602D01*
X173055709Y-117222635D01*
X173051441Y-117208566D01*
X173050000Y-117193934D01*
X173050000Y-117150000D01*
X173051441Y-117135368D01*
G37*
G36*
X173001441Y-117685368D02*
G01*
X173005709Y-117671299D01*
X173012640Y-117658332D01*
X173021967Y-117646967D01*
X173033332Y-117637640D01*
X173046299Y-117630709D01*
X173060368Y-117626441D01*
X173075000Y-117625000D01*
X173118934Y-117625000D01*
X173133566Y-117626441D01*
X173147635Y-117630709D01*
X173160602Y-117637640D01*
X173171967Y-117646967D01*
X173378033Y-117853033D01*
X173387360Y-117864398D01*
X173394291Y-117877365D01*
X173398559Y-117891434D01*
X173400000Y-117906066D01*
X173400000Y-118175000D01*
X173398559Y-118189632D01*
X173394291Y-118203701D01*
X173387360Y-118216668D01*
X173378033Y-118228033D01*
X173366668Y-118237360D01*
X173353701Y-118244291D01*
X173339632Y-118248559D01*
X173325000Y-118250000D01*
X173075000Y-118250000D01*
X173060368Y-118248559D01*
X173046299Y-118244291D01*
X173033332Y-118237360D01*
X173021967Y-118228033D01*
X173012640Y-118216668D01*
X173005709Y-118203701D01*
X173001441Y-118189632D01*
X173000000Y-118175000D01*
X173000000Y-117700000D01*
X173001441Y-117685368D01*
G37*
G36*
G01*
X172800000Y-118250000D02*
X172600000Y-118250000D01*
G75*
G02*
X172500000Y-118150000I0J100000D01*
G01*
X172500000Y-117725000D01*
G75*
G02*
X172600000Y-117625000I100000J0D01*
G01*
X172800000Y-117625000D01*
G75*
G02*
X172900000Y-117725000I0J-100000D01*
G01*
X172900000Y-118150000D01*
G75*
G02*
X172800000Y-118250000I-100000J0D01*
G01*
G37*
G36*
G01*
X172300000Y-118250000D02*
X172100000Y-118250000D01*
G75*
G02*
X172000000Y-118150000I0J100000D01*
G01*
X172000000Y-117725000D01*
G75*
G02*
X172100000Y-117625000I100000J0D01*
G01*
X172300000Y-117625000D01*
G75*
G02*
X172400000Y-117725000I0J-100000D01*
G01*
X172400000Y-118150000D01*
G75*
G02*
X172300000Y-118250000I-100000J0D01*
G01*
G37*
G36*
X171501441Y-117891434D02*
G01*
X171505709Y-117877365D01*
X171512640Y-117864398D01*
X171521967Y-117853033D01*
X171728033Y-117646967D01*
X171739398Y-117637640D01*
X171752365Y-117630709D01*
X171766434Y-117626441D01*
X171781066Y-117625000D01*
X171825000Y-117625000D01*
X171839632Y-117626441D01*
X171853701Y-117630709D01*
X171866668Y-117637640D01*
X171878033Y-117646967D01*
X171887360Y-117658332D01*
X171894291Y-117671299D01*
X171898559Y-117685368D01*
X171900000Y-117700000D01*
X171900000Y-118175000D01*
X171898559Y-118189632D01*
X171894291Y-118203701D01*
X171887360Y-118216668D01*
X171878033Y-118228033D01*
X171866668Y-118237360D01*
X171853701Y-118244291D01*
X171839632Y-118248559D01*
X171825000Y-118250000D01*
X171575000Y-118250000D01*
X171560368Y-118248559D01*
X171546299Y-118244291D01*
X171533332Y-118237360D01*
X171521967Y-118228033D01*
X171512640Y-118216668D01*
X171505709Y-118203701D01*
X171501441Y-118189632D01*
X171500000Y-118175000D01*
X171500000Y-117906066D01*
X171501441Y-117891434D01*
G37*
%TD*%
%TO.C,MPU9250*%
G36*
G01*
X163100000Y-109975000D02*
X163000000Y-109975000D01*
G75*
G02*
X162950000Y-109925000I0J50000D01*
G01*
X162950000Y-109475000D01*
G75*
G02*
X163000000Y-109425000I50000J0D01*
G01*
X163100000Y-109425000D01*
G75*
G02*
X163150000Y-109475000I0J-50000D01*
G01*
X163150000Y-109925000D01*
G75*
G02*
X163100000Y-109975000I-50000J0D01*
G01*
G37*
G36*
G01*
X163500000Y-109975000D02*
X163400000Y-109975000D01*
G75*
G02*
X163350000Y-109925000I0J50000D01*
G01*
X163350000Y-109475000D01*
G75*
G02*
X163400000Y-109425000I50000J0D01*
G01*
X163500000Y-109425000D01*
G75*
G02*
X163550000Y-109475000I0J-50000D01*
G01*
X163550000Y-109925000D01*
G75*
G02*
X163500000Y-109975000I-50000J0D01*
G01*
G37*
G36*
G01*
X163900000Y-109975000D02*
X163800000Y-109975000D01*
G75*
G02*
X163750000Y-109925000I0J50000D01*
G01*
X163750000Y-109475000D01*
G75*
G02*
X163800000Y-109425000I50000J0D01*
G01*
X163900000Y-109425000D01*
G75*
G02*
X163950000Y-109475000I0J-50000D01*
G01*
X163950000Y-109925000D01*
G75*
G02*
X163900000Y-109975000I-50000J0D01*
G01*
G37*
G36*
G01*
X164300000Y-109975000D02*
X164200000Y-109975000D01*
G75*
G02*
X164150000Y-109925000I0J50000D01*
G01*
X164150000Y-109475000D01*
G75*
G02*
X164200000Y-109425000I50000J0D01*
G01*
X164300000Y-109425000D01*
G75*
G02*
X164350000Y-109475000I0J-50000D01*
G01*
X164350000Y-109925000D01*
G75*
G02*
X164300000Y-109975000I-50000J0D01*
G01*
G37*
G36*
G01*
X164700000Y-109975000D02*
X164600000Y-109975000D01*
G75*
G02*
X164550000Y-109925000I0J50000D01*
G01*
X164550000Y-109475000D01*
G75*
G02*
X164600000Y-109425000I50000J0D01*
G01*
X164700000Y-109425000D01*
G75*
G02*
X164750000Y-109475000I0J-50000D01*
G01*
X164750000Y-109925000D01*
G75*
G02*
X164700000Y-109975000I-50000J0D01*
G01*
G37*
G36*
G01*
X165100000Y-109975000D02*
X165000000Y-109975000D01*
G75*
G02*
X164950000Y-109925000I0J50000D01*
G01*
X164950000Y-109475000D01*
G75*
G02*
X165000000Y-109425000I50000J0D01*
G01*
X165100000Y-109425000D01*
G75*
G02*
X165150000Y-109475000I0J-50000D01*
G01*
X165150000Y-109925000D01*
G75*
G02*
X165100000Y-109975000I-50000J0D01*
G01*
G37*
G36*
G01*
X165275000Y-110250000D02*
X165275000Y-110150000D01*
G75*
G02*
X165325000Y-110100000I50000J0D01*
G01*
X165775000Y-110100000D01*
G75*
G02*
X165825000Y-110150000I0J-50000D01*
G01*
X165825000Y-110250000D01*
G75*
G02*
X165775000Y-110300000I-50000J0D01*
G01*
X165325000Y-110300000D01*
G75*
G02*
X165275000Y-110250000I0J50000D01*
G01*
G37*
G36*
G01*
X165275000Y-110650000D02*
X165275000Y-110550000D01*
G75*
G02*
X165325000Y-110500000I50000J0D01*
G01*
X165775000Y-110500000D01*
G75*
G02*
X165825000Y-110550000I0J-50000D01*
G01*
X165825000Y-110650000D01*
G75*
G02*
X165775000Y-110700000I-50000J0D01*
G01*
X165325000Y-110700000D01*
G75*
G02*
X165275000Y-110650000I0J50000D01*
G01*
G37*
G36*
G01*
X165275000Y-111050000D02*
X165275000Y-110950000D01*
G75*
G02*
X165325000Y-110900000I50000J0D01*
G01*
X165775000Y-110900000D01*
G75*
G02*
X165825000Y-110950000I0J-50000D01*
G01*
X165825000Y-111050000D01*
G75*
G02*
X165775000Y-111100000I-50000J0D01*
G01*
X165325000Y-111100000D01*
G75*
G02*
X165275000Y-111050000I0J50000D01*
G01*
G37*
G36*
G01*
X165275000Y-111450000D02*
X165275000Y-111350000D01*
G75*
G02*
X165325000Y-111300000I50000J0D01*
G01*
X165775000Y-111300000D01*
G75*
G02*
X165825000Y-111350000I0J-50000D01*
G01*
X165825000Y-111450000D01*
G75*
G02*
X165775000Y-111500000I-50000J0D01*
G01*
X165325000Y-111500000D01*
G75*
G02*
X165275000Y-111450000I0J50000D01*
G01*
G37*
G36*
G01*
X165275000Y-111850000D02*
X165275000Y-111750000D01*
G75*
G02*
X165325000Y-111700000I50000J0D01*
G01*
X165775000Y-111700000D01*
G75*
G02*
X165825000Y-111750000I0J-50000D01*
G01*
X165825000Y-111850000D01*
G75*
G02*
X165775000Y-111900000I-50000J0D01*
G01*
X165325000Y-111900000D01*
G75*
G02*
X165275000Y-111850000I0J50000D01*
G01*
G37*
G36*
G01*
X165275000Y-112250000D02*
X165275000Y-112150000D01*
G75*
G02*
X165325000Y-112100000I50000J0D01*
G01*
X165775000Y-112100000D01*
G75*
G02*
X165825000Y-112150000I0J-50000D01*
G01*
X165825000Y-112250000D01*
G75*
G02*
X165775000Y-112300000I-50000J0D01*
G01*
X165325000Y-112300000D01*
G75*
G02*
X165275000Y-112250000I0J50000D01*
G01*
G37*
G36*
G01*
X165100000Y-112975000D02*
X165000000Y-112975000D01*
G75*
G02*
X164950000Y-112925000I0J50000D01*
G01*
X164950000Y-112475000D01*
G75*
G02*
X165000000Y-112425000I50000J0D01*
G01*
X165100000Y-112425000D01*
G75*
G02*
X165150000Y-112475000I0J-50000D01*
G01*
X165150000Y-112925000D01*
G75*
G02*
X165100000Y-112975000I-50000J0D01*
G01*
G37*
G36*
G01*
X164700000Y-112975000D02*
X164600000Y-112975000D01*
G75*
G02*
X164550000Y-112925000I0J50000D01*
G01*
X164550000Y-112475000D01*
G75*
G02*
X164600000Y-112425000I50000J0D01*
G01*
X164700000Y-112425000D01*
G75*
G02*
X164750000Y-112475000I0J-50000D01*
G01*
X164750000Y-112925000D01*
G75*
G02*
X164700000Y-112975000I-50000J0D01*
G01*
G37*
G36*
G01*
X164300000Y-112975000D02*
X164200000Y-112975000D01*
G75*
G02*
X164150000Y-112925000I0J50000D01*
G01*
X164150000Y-112475000D01*
G75*
G02*
X164200000Y-112425000I50000J0D01*
G01*
X164300000Y-112425000D01*
G75*
G02*
X164350000Y-112475000I0J-50000D01*
G01*
X164350000Y-112925000D01*
G75*
G02*
X164300000Y-112975000I-50000J0D01*
G01*
G37*
G36*
G01*
X163900000Y-112975000D02*
X163800000Y-112975000D01*
G75*
G02*
X163750000Y-112925000I0J50000D01*
G01*
X163750000Y-112475000D01*
G75*
G02*
X163800000Y-112425000I50000J0D01*
G01*
X163900000Y-112425000D01*
G75*
G02*
X163950000Y-112475000I0J-50000D01*
G01*
X163950000Y-112925000D01*
G75*
G02*
X163900000Y-112975000I-50000J0D01*
G01*
G37*
G36*
G01*
X163500000Y-112975000D02*
X163400000Y-112975000D01*
G75*
G02*
X163350000Y-112925000I0J50000D01*
G01*
X163350000Y-112475000D01*
G75*
G02*
X163400000Y-112425000I50000J0D01*
G01*
X163500000Y-112425000D01*
G75*
G02*
X163550000Y-112475000I0J-50000D01*
G01*
X163550000Y-112925000D01*
G75*
G02*
X163500000Y-112975000I-50000J0D01*
G01*
G37*
G36*
G01*
X163100000Y-112975000D02*
X163000000Y-112975000D01*
G75*
G02*
X162950000Y-112925000I0J50000D01*
G01*
X162950000Y-112475000D01*
G75*
G02*
X163000000Y-112425000I50000J0D01*
G01*
X163100000Y-112425000D01*
G75*
G02*
X163150000Y-112475000I0J-50000D01*
G01*
X163150000Y-112925000D01*
G75*
G02*
X163100000Y-112975000I-50000J0D01*
G01*
G37*
G36*
G01*
X162275000Y-112250000D02*
X162275000Y-112150000D01*
G75*
G02*
X162325000Y-112100000I50000J0D01*
G01*
X162775000Y-112100000D01*
G75*
G02*
X162825000Y-112150000I0J-50000D01*
G01*
X162825000Y-112250000D01*
G75*
G02*
X162775000Y-112300000I-50000J0D01*
G01*
X162325000Y-112300000D01*
G75*
G02*
X162275000Y-112250000I0J50000D01*
G01*
G37*
G36*
G01*
X162275000Y-111850000D02*
X162275000Y-111750000D01*
G75*
G02*
X162325000Y-111700000I50000J0D01*
G01*
X162775000Y-111700000D01*
G75*
G02*
X162825000Y-111750000I0J-50000D01*
G01*
X162825000Y-111850000D01*
G75*
G02*
X162775000Y-111900000I-50000J0D01*
G01*
X162325000Y-111900000D01*
G75*
G02*
X162275000Y-111850000I0J50000D01*
G01*
G37*
G36*
G01*
X162275000Y-111450000D02*
X162275000Y-111350000D01*
G75*
G02*
X162325000Y-111300000I50000J0D01*
G01*
X162775000Y-111300000D01*
G75*
G02*
X162825000Y-111350000I0J-50000D01*
G01*
X162825000Y-111450000D01*
G75*
G02*
X162775000Y-111500000I-50000J0D01*
G01*
X162325000Y-111500000D01*
G75*
G02*
X162275000Y-111450000I0J50000D01*
G01*
G37*
G36*
G01*
X162275000Y-111050000D02*
X162275000Y-110950000D01*
G75*
G02*
X162325000Y-110900000I50000J0D01*
G01*
X162775000Y-110900000D01*
G75*
G02*
X162825000Y-110950000I0J-50000D01*
G01*
X162825000Y-111050000D01*
G75*
G02*
X162775000Y-111100000I-50000J0D01*
G01*
X162325000Y-111100000D01*
G75*
G02*
X162275000Y-111050000I0J50000D01*
G01*
G37*
G36*
G01*
X162275000Y-110650000D02*
X162275000Y-110550000D01*
G75*
G02*
X162325000Y-110500000I50000J0D01*
G01*
X162775000Y-110500000D01*
G75*
G02*
X162825000Y-110550000I0J-50000D01*
G01*
X162825000Y-110650000D01*
G75*
G02*
X162775000Y-110700000I-50000J0D01*
G01*
X162325000Y-110700000D01*
G75*
G02*
X162275000Y-110650000I0J50000D01*
G01*
G37*
G36*
G01*
X162275000Y-110250000D02*
X162275000Y-110150000D01*
G75*
G02*
X162325000Y-110100000I50000J0D01*
G01*
X162775000Y-110100000D01*
G75*
G02*
X162825000Y-110150000I0J-50000D01*
G01*
X162825000Y-110250000D01*
G75*
G02*
X162775000Y-110300000I-50000J0D01*
G01*
X162325000Y-110300000D01*
G75*
G02*
X162275000Y-110250000I0J50000D01*
G01*
G37*
%TD*%
%TO.C,ICM20948*%
G36*
G01*
X170725000Y-109875000D02*
X170625000Y-109875000D01*
G75*
G02*
X170575000Y-109825000I0J50000D01*
G01*
X170575000Y-109375000D01*
G75*
G02*
X170625000Y-109325000I50000J0D01*
G01*
X170725000Y-109325000D01*
G75*
G02*
X170775000Y-109375000I0J-50000D01*
G01*
X170775000Y-109825000D01*
G75*
G02*
X170725000Y-109875000I-50000J0D01*
G01*
G37*
G36*
G01*
X171125000Y-109875000D02*
X171025000Y-109875000D01*
G75*
G02*
X170975000Y-109825000I0J50000D01*
G01*
X170975000Y-109375000D01*
G75*
G02*
X171025000Y-109325000I50000J0D01*
G01*
X171125000Y-109325000D01*
G75*
G02*
X171175000Y-109375000I0J-50000D01*
G01*
X171175000Y-109825000D01*
G75*
G02*
X171125000Y-109875000I-50000J0D01*
G01*
G37*
G36*
G01*
X171525000Y-109875000D02*
X171425000Y-109875000D01*
G75*
G02*
X171375000Y-109825000I0J50000D01*
G01*
X171375000Y-109375000D01*
G75*
G02*
X171425000Y-109325000I50000J0D01*
G01*
X171525000Y-109325000D01*
G75*
G02*
X171575000Y-109375000I0J-50000D01*
G01*
X171575000Y-109825000D01*
G75*
G02*
X171525000Y-109875000I-50000J0D01*
G01*
G37*
G36*
G01*
X171925000Y-109875000D02*
X171825000Y-109875000D01*
G75*
G02*
X171775000Y-109825000I0J50000D01*
G01*
X171775000Y-109375000D01*
G75*
G02*
X171825000Y-109325000I50000J0D01*
G01*
X171925000Y-109325000D01*
G75*
G02*
X171975000Y-109375000I0J-50000D01*
G01*
X171975000Y-109825000D01*
G75*
G02*
X171925000Y-109875000I-50000J0D01*
G01*
G37*
G36*
G01*
X172325000Y-109875000D02*
X172225000Y-109875000D01*
G75*
G02*
X172175000Y-109825000I0J50000D01*
G01*
X172175000Y-109375000D01*
G75*
G02*
X172225000Y-109325000I50000J0D01*
G01*
X172325000Y-109325000D01*
G75*
G02*
X172375000Y-109375000I0J-50000D01*
G01*
X172375000Y-109825000D01*
G75*
G02*
X172325000Y-109875000I-50000J0D01*
G01*
G37*
G36*
G01*
X172725000Y-109875000D02*
X172625000Y-109875000D01*
G75*
G02*
X172575000Y-109825000I0J50000D01*
G01*
X172575000Y-109375000D01*
G75*
G02*
X172625000Y-109325000I50000J0D01*
G01*
X172725000Y-109325000D01*
G75*
G02*
X172775000Y-109375000I0J-50000D01*
G01*
X172775000Y-109825000D01*
G75*
G02*
X172725000Y-109875000I-50000J0D01*
G01*
G37*
G36*
G01*
X172900000Y-110150000D02*
X172900000Y-110050000D01*
G75*
G02*
X172950000Y-110000000I50000J0D01*
G01*
X173400000Y-110000000D01*
G75*
G02*
X173450000Y-110050000I0J-50000D01*
G01*
X173450000Y-110150000D01*
G75*
G02*
X173400000Y-110200000I-50000J0D01*
G01*
X172950000Y-110200000D01*
G75*
G02*
X172900000Y-110150000I0J50000D01*
G01*
G37*
G36*
G01*
X172900000Y-110550000D02*
X172900000Y-110450000D01*
G75*
G02*
X172950000Y-110400000I50000J0D01*
G01*
X173400000Y-110400000D01*
G75*
G02*
X173450000Y-110450000I0J-50000D01*
G01*
X173450000Y-110550000D01*
G75*
G02*
X173400000Y-110600000I-50000J0D01*
G01*
X172950000Y-110600000D01*
G75*
G02*
X172900000Y-110550000I0J50000D01*
G01*
G37*
G36*
G01*
X172900000Y-110950000D02*
X172900000Y-110850000D01*
G75*
G02*
X172950000Y-110800000I50000J0D01*
G01*
X173400000Y-110800000D01*
G75*
G02*
X173450000Y-110850000I0J-50000D01*
G01*
X173450000Y-110950000D01*
G75*
G02*
X173400000Y-111000000I-50000J0D01*
G01*
X172950000Y-111000000D01*
G75*
G02*
X172900000Y-110950000I0J50000D01*
G01*
G37*
G36*
G01*
X172900000Y-111350000D02*
X172900000Y-111250000D01*
G75*
G02*
X172950000Y-111200000I50000J0D01*
G01*
X173400000Y-111200000D01*
G75*
G02*
X173450000Y-111250000I0J-50000D01*
G01*
X173450000Y-111350000D01*
G75*
G02*
X173400000Y-111400000I-50000J0D01*
G01*
X172950000Y-111400000D01*
G75*
G02*
X172900000Y-111350000I0J50000D01*
G01*
G37*
G36*
G01*
X172900000Y-111750000D02*
X172900000Y-111650000D01*
G75*
G02*
X172950000Y-111600000I50000J0D01*
G01*
X173400000Y-111600000D01*
G75*
G02*
X173450000Y-111650000I0J-50000D01*
G01*
X173450000Y-111750000D01*
G75*
G02*
X173400000Y-111800000I-50000J0D01*
G01*
X172950000Y-111800000D01*
G75*
G02*
X172900000Y-111750000I0J50000D01*
G01*
G37*
G36*
G01*
X172900000Y-112150000D02*
X172900000Y-112050000D01*
G75*
G02*
X172950000Y-112000000I50000J0D01*
G01*
X173400000Y-112000000D01*
G75*
G02*
X173450000Y-112050000I0J-50000D01*
G01*
X173450000Y-112150000D01*
G75*
G02*
X173400000Y-112200000I-50000J0D01*
G01*
X172950000Y-112200000D01*
G75*
G02*
X172900000Y-112150000I0J50000D01*
G01*
G37*
G36*
G01*
X172725000Y-112875000D02*
X172625000Y-112875000D01*
G75*
G02*
X172575000Y-112825000I0J50000D01*
G01*
X172575000Y-112375000D01*
G75*
G02*
X172625000Y-112325000I50000J0D01*
G01*
X172725000Y-112325000D01*
G75*
G02*
X172775000Y-112375000I0J-50000D01*
G01*
X172775000Y-112825000D01*
G75*
G02*
X172725000Y-112875000I-50000J0D01*
G01*
G37*
G36*
G01*
X172325000Y-112875000D02*
X172225000Y-112875000D01*
G75*
G02*
X172175000Y-112825000I0J50000D01*
G01*
X172175000Y-112375000D01*
G75*
G02*
X172225000Y-112325000I50000J0D01*
G01*
X172325000Y-112325000D01*
G75*
G02*
X172375000Y-112375000I0J-50000D01*
G01*
X172375000Y-112825000D01*
G75*
G02*
X172325000Y-112875000I-50000J0D01*
G01*
G37*
G36*
G01*
X171925000Y-112875000D02*
X171825000Y-112875000D01*
G75*
G02*
X171775000Y-112825000I0J50000D01*
G01*
X171775000Y-112375000D01*
G75*
G02*
X171825000Y-112325000I50000J0D01*
G01*
X171925000Y-112325000D01*
G75*
G02*
X171975000Y-112375000I0J-50000D01*
G01*
X171975000Y-112825000D01*
G75*
G02*
X171925000Y-112875000I-50000J0D01*
G01*
G37*
G36*
G01*
X171525000Y-112875000D02*
X171425000Y-112875000D01*
G75*
G02*
X171375000Y-112825000I0J50000D01*
G01*
X171375000Y-112375000D01*
G75*
G02*
X171425000Y-112325000I50000J0D01*
G01*
X171525000Y-112325000D01*
G75*
G02*
X171575000Y-112375000I0J-50000D01*
G01*
X171575000Y-112825000D01*
G75*
G02*
X171525000Y-112875000I-50000J0D01*
G01*
G37*
G36*
G01*
X171125000Y-112875000D02*
X171025000Y-112875000D01*
G75*
G02*
X170975000Y-112825000I0J50000D01*
G01*
X170975000Y-112375000D01*
G75*
G02*
X171025000Y-112325000I50000J0D01*
G01*
X171125000Y-112325000D01*
G75*
G02*
X171175000Y-112375000I0J-50000D01*
G01*
X171175000Y-112825000D01*
G75*
G02*
X171125000Y-112875000I-50000J0D01*
G01*
G37*
G36*
G01*
X170725000Y-112875000D02*
X170625000Y-112875000D01*
G75*
G02*
X170575000Y-112825000I0J50000D01*
G01*
X170575000Y-112375000D01*
G75*
G02*
X170625000Y-112325000I50000J0D01*
G01*
X170725000Y-112325000D01*
G75*
G02*
X170775000Y-112375000I0J-50000D01*
G01*
X170775000Y-112825000D01*
G75*
G02*
X170725000Y-112875000I-50000J0D01*
G01*
G37*
G36*
G01*
X169900000Y-112150000D02*
X169900000Y-112050000D01*
G75*
G02*
X169950000Y-112000000I50000J0D01*
G01*
X170400000Y-112000000D01*
G75*
G02*
X170450000Y-112050000I0J-50000D01*
G01*
X170450000Y-112150000D01*
G75*
G02*
X170400000Y-112200000I-50000J0D01*
G01*
X169950000Y-112200000D01*
G75*
G02*
X169900000Y-112150000I0J50000D01*
G01*
G37*
G36*
G01*
X169900000Y-111750000D02*
X169900000Y-111650000D01*
G75*
G02*
X169950000Y-111600000I50000J0D01*
G01*
X170400000Y-111600000D01*
G75*
G02*
X170450000Y-111650000I0J-50000D01*
G01*
X170450000Y-111750000D01*
G75*
G02*
X170400000Y-111800000I-50000J0D01*
G01*
X169950000Y-111800000D01*
G75*
G02*
X169900000Y-111750000I0J50000D01*
G01*
G37*
G36*
G01*
X169900000Y-111350000D02*
X169900000Y-111250000D01*
G75*
G02*
X169950000Y-111200000I50000J0D01*
G01*
X170400000Y-111200000D01*
G75*
G02*
X170450000Y-111250000I0J-50000D01*
G01*
X170450000Y-111350000D01*
G75*
G02*
X170400000Y-111400000I-50000J0D01*
G01*
X169950000Y-111400000D01*
G75*
G02*
X169900000Y-111350000I0J50000D01*
G01*
G37*
G36*
G01*
X169900000Y-110950000D02*
X169900000Y-110850000D01*
G75*
G02*
X169950000Y-110800000I50000J0D01*
G01*
X170400000Y-110800000D01*
G75*
G02*
X170450000Y-110850000I0J-50000D01*
G01*
X170450000Y-110950000D01*
G75*
G02*
X170400000Y-111000000I-50000J0D01*
G01*
X169950000Y-111000000D01*
G75*
G02*
X169900000Y-110950000I0J50000D01*
G01*
G37*
G36*
G01*
X169900000Y-110550000D02*
X169900000Y-110450000D01*
G75*
G02*
X169950000Y-110400000I50000J0D01*
G01*
X170400000Y-110400000D01*
G75*
G02*
X170450000Y-110450000I0J-50000D01*
G01*
X170450000Y-110550000D01*
G75*
G02*
X170400000Y-110600000I-50000J0D01*
G01*
X169950000Y-110600000D01*
G75*
G02*
X169900000Y-110550000I0J50000D01*
G01*
G37*
G36*
G01*
X169900000Y-110150000D02*
X169900000Y-110050000D01*
G75*
G02*
X169950000Y-110000000I50000J0D01*
G01*
X170400000Y-110000000D01*
G75*
G02*
X170450000Y-110050000I0J-50000D01*
G01*
X170450000Y-110150000D01*
G75*
G02*
X170400000Y-110200000I-50000J0D01*
G01*
X169950000Y-110200000D01*
G75*
G02*
X169900000Y-110150000I0J50000D01*
G01*
G37*
%TD*%
%TO.C,C42*%
G36*
G01*
X161575000Y-114218750D02*
X161575000Y-114731250D01*
G75*
G02*
X161356250Y-114950000I-218750J0D01*
G01*
X160918750Y-114950000D01*
G75*
G02*
X160700000Y-114731250I0J218750D01*
G01*
X160700000Y-114218750D01*
G75*
G02*
X160918750Y-114000000I218750J0D01*
G01*
X161356250Y-114000000D01*
G75*
G02*
X161575000Y-114218750I0J-218750D01*
G01*
G37*
G36*
G01*
X163150000Y-114218750D02*
X163150000Y-114731250D01*
G75*
G02*
X162931250Y-114950000I-218750J0D01*
G01*
X162493750Y-114950000D01*
G75*
G02*
X162275000Y-114731250I0J218750D01*
G01*
X162275000Y-114218750D01*
G75*
G02*
X162493750Y-114000000I218750J0D01*
G01*
X162931250Y-114000000D01*
G75*
G02*
X163150000Y-114218750I0J-218750D01*
G01*
G37*
%TD*%
%TO.C,I2C2*%
G36*
G01*
X188125000Y-121350001D02*
X188125000Y-120049999D01*
G75*
G02*
X188374999Y-119800000I249999J0D01*
G01*
X189075001Y-119800000D01*
G75*
G02*
X189325000Y-120049999I0J-249999D01*
G01*
X189325000Y-121350001D01*
G75*
G02*
X189075001Y-121600000I-249999J0D01*
G01*
X188374999Y-121600000D01*
G75*
G02*
X188125000Y-121350001I0J249999D01*
G01*
G37*
G36*
G01*
X182525000Y-121350001D02*
X182525000Y-120049999D01*
G75*
G02*
X182774999Y-119800000I249999J0D01*
G01*
X183475001Y-119800000D01*
G75*
G02*
X183725000Y-120049999I0J-249999D01*
G01*
X183725000Y-121350001D01*
G75*
G02*
X183475001Y-121600000I-249999J0D01*
G01*
X182774999Y-121600000D01*
G75*
G02*
X182525000Y-121350001I0J249999D01*
G01*
G37*
G36*
G01*
X187125000Y-117450000D02*
X187125000Y-116200000D01*
G75*
G02*
X187275000Y-116050000I150000J0D01*
G01*
X187575000Y-116050000D01*
G75*
G02*
X187725000Y-116200000I0J-150000D01*
G01*
X187725000Y-117450000D01*
G75*
G02*
X187575000Y-117600000I-150000J0D01*
G01*
X187275000Y-117600000D01*
G75*
G02*
X187125000Y-117450000I0J150000D01*
G01*
G37*
G36*
G01*
X186125000Y-117450000D02*
X186125000Y-116200000D01*
G75*
G02*
X186275000Y-116050000I150000J0D01*
G01*
X186575000Y-116050000D01*
G75*
G02*
X186725000Y-116200000I0J-150000D01*
G01*
X186725000Y-117450000D01*
G75*
G02*
X186575000Y-117600000I-150000J0D01*
G01*
X186275000Y-117600000D01*
G75*
G02*
X186125000Y-117450000I0J150000D01*
G01*
G37*
G36*
G01*
X185125000Y-117450000D02*
X185125000Y-116200000D01*
G75*
G02*
X185275000Y-116050000I150000J0D01*
G01*
X185575000Y-116050000D01*
G75*
G02*
X185725000Y-116200000I0J-150000D01*
G01*
X185725000Y-117450000D01*
G75*
G02*
X185575000Y-117600000I-150000J0D01*
G01*
X185275000Y-117600000D01*
G75*
G02*
X185125000Y-117450000I0J150000D01*
G01*
G37*
G36*
G01*
X184125000Y-117450000D02*
X184125000Y-116200000D01*
G75*
G02*
X184275000Y-116050000I150000J0D01*
G01*
X184575000Y-116050000D01*
G75*
G02*
X184725000Y-116200000I0J-150000D01*
G01*
X184725000Y-117450000D01*
G75*
G02*
X184575000Y-117600000I-150000J0D01*
G01*
X184275000Y-117600000D01*
G75*
G02*
X184125000Y-117450000I0J150000D01*
G01*
G37*
%TD*%
D12*
%TO.C,Boot*%
X165275000Y-84180000D03*
X162735000Y-80870000D03*
X167815000Y-80870000D03*
%TD*%
%TO.C,UART3*%
G36*
G01*
X193250001Y-111675000D02*
X191949999Y-111675000D01*
G75*
G02*
X191700000Y-111425001I0J249999D01*
G01*
X191700000Y-110724999D01*
G75*
G02*
X191949999Y-110475000I249999J0D01*
G01*
X193250001Y-110475000D01*
G75*
G02*
X193500000Y-110724999I0J-249999D01*
G01*
X193500000Y-111425001D01*
G75*
G02*
X193250001Y-111675000I-249999J0D01*
G01*
G37*
G36*
G01*
X193250001Y-117275000D02*
X191949999Y-117275000D01*
G75*
G02*
X191700000Y-117025001I0J249999D01*
G01*
X191700000Y-116324999D01*
G75*
G02*
X191949999Y-116075000I249999J0D01*
G01*
X193250001Y-116075000D01*
G75*
G02*
X193500000Y-116324999I0J-249999D01*
G01*
X193500000Y-117025001D01*
G75*
G02*
X193250001Y-117275000I-249999J0D01*
G01*
G37*
G36*
G01*
X189350000Y-112675000D02*
X188100000Y-112675000D01*
G75*
G02*
X187950000Y-112525000I0J150000D01*
G01*
X187950000Y-112225000D01*
G75*
G02*
X188100000Y-112075000I150000J0D01*
G01*
X189350000Y-112075000D01*
G75*
G02*
X189500000Y-112225000I0J-150000D01*
G01*
X189500000Y-112525000D01*
G75*
G02*
X189350000Y-112675000I-150000J0D01*
G01*
G37*
G36*
G01*
X189350000Y-113675000D02*
X188100000Y-113675000D01*
G75*
G02*
X187950000Y-113525000I0J150000D01*
G01*
X187950000Y-113225000D01*
G75*
G02*
X188100000Y-113075000I150000J0D01*
G01*
X189350000Y-113075000D01*
G75*
G02*
X189500000Y-113225000I0J-150000D01*
G01*
X189500000Y-113525000D01*
G75*
G02*
X189350000Y-113675000I-150000J0D01*
G01*
G37*
G36*
G01*
X189350000Y-114675000D02*
X188100000Y-114675000D01*
G75*
G02*
X187950000Y-114525000I0J150000D01*
G01*
X187950000Y-114225000D01*
G75*
G02*
X188100000Y-114075000I150000J0D01*
G01*
X189350000Y-114075000D01*
G75*
G02*
X189500000Y-114225000I0J-150000D01*
G01*
X189500000Y-114525000D01*
G75*
G02*
X189350000Y-114675000I-150000J0D01*
G01*
G37*
G36*
G01*
X189350000Y-115675000D02*
X188100000Y-115675000D01*
G75*
G02*
X187950000Y-115525000I0J150000D01*
G01*
X187950000Y-115225000D01*
G75*
G02*
X188100000Y-115075000I150000J0D01*
G01*
X189350000Y-115075000D01*
G75*
G02*
X189500000Y-115225000I0J-150000D01*
G01*
X189500000Y-115525000D01*
G75*
G02*
X189350000Y-115675000I-150000J0D01*
G01*
G37*
%TD*%
%TO.C,UART7*%
G36*
G01*
X154675000Y-121325001D02*
X154675000Y-120024999D01*
G75*
G02*
X154924999Y-119775000I249999J0D01*
G01*
X155625001Y-119775000D01*
G75*
G02*
X155875000Y-120024999I0J-249999D01*
G01*
X155875000Y-121325001D01*
G75*
G02*
X155625001Y-121575000I-249999J0D01*
G01*
X154924999Y-121575000D01*
G75*
G02*
X154675000Y-121325001I0J249999D01*
G01*
G37*
G36*
G01*
X149075000Y-121325001D02*
X149075000Y-120024999D01*
G75*
G02*
X149324999Y-119775000I249999J0D01*
G01*
X150025001Y-119775000D01*
G75*
G02*
X150275000Y-120024999I0J-249999D01*
G01*
X150275000Y-121325001D01*
G75*
G02*
X150025001Y-121575000I-249999J0D01*
G01*
X149324999Y-121575000D01*
G75*
G02*
X149075000Y-121325001I0J249999D01*
G01*
G37*
G36*
G01*
X153675000Y-117425000D02*
X153675000Y-116175000D01*
G75*
G02*
X153825000Y-116025000I150000J0D01*
G01*
X154125000Y-116025000D01*
G75*
G02*
X154275000Y-116175000I0J-150000D01*
G01*
X154275000Y-117425000D01*
G75*
G02*
X154125000Y-117575000I-150000J0D01*
G01*
X153825000Y-117575000D01*
G75*
G02*
X153675000Y-117425000I0J150000D01*
G01*
G37*
G36*
G01*
X152675000Y-117425000D02*
X152675000Y-116175000D01*
G75*
G02*
X152825000Y-116025000I150000J0D01*
G01*
X153125000Y-116025000D01*
G75*
G02*
X153275000Y-116175000I0J-150000D01*
G01*
X153275000Y-117425000D01*
G75*
G02*
X153125000Y-117575000I-150000J0D01*
G01*
X152825000Y-117575000D01*
G75*
G02*
X152675000Y-117425000I0J150000D01*
G01*
G37*
G36*
G01*
X151675000Y-117425000D02*
X151675000Y-116175000D01*
G75*
G02*
X151825000Y-116025000I150000J0D01*
G01*
X152125000Y-116025000D01*
G75*
G02*
X152275000Y-116175000I0J-150000D01*
G01*
X152275000Y-117425000D01*
G75*
G02*
X152125000Y-117575000I-150000J0D01*
G01*
X151825000Y-117575000D01*
G75*
G02*
X151675000Y-117425000I0J150000D01*
G01*
G37*
G36*
G01*
X150675000Y-117425000D02*
X150675000Y-116175000D01*
G75*
G02*
X150825000Y-116025000I150000J0D01*
G01*
X151125000Y-116025000D01*
G75*
G02*
X151275000Y-116175000I0J-150000D01*
G01*
X151275000Y-117425000D01*
G75*
G02*
X151125000Y-117575000I-150000J0D01*
G01*
X150825000Y-117575000D01*
G75*
G02*
X150675000Y-117425000I0J150000D01*
G01*
G37*
%TD*%
%TO.C,C3*%
G36*
G01*
X178775000Y-108081250D02*
X178775000Y-107168750D01*
G75*
G02*
X179018750Y-106925000I243750J0D01*
G01*
X179506250Y-106925000D01*
G75*
G02*
X179750000Y-107168750I0J-243750D01*
G01*
X179750000Y-108081250D01*
G75*
G02*
X179506250Y-108325000I-243750J0D01*
G01*
X179018750Y-108325000D01*
G75*
G02*
X178775000Y-108081250I0J243750D01*
G01*
G37*
G36*
G01*
X176900000Y-108081250D02*
X176900000Y-107168750D01*
G75*
G02*
X177143750Y-106925000I243750J0D01*
G01*
X177631250Y-106925000D01*
G75*
G02*
X177875000Y-107168750I0J-243750D01*
G01*
X177875000Y-108081250D01*
G75*
G02*
X177631250Y-108325000I-243750J0D01*
G01*
X177143750Y-108325000D01*
G75*
G02*
X176900000Y-108081250I0J243750D01*
G01*
G37*
%TD*%
%TO.C,C1*%
G36*
G01*
X178650001Y-90675000D02*
X177749999Y-90675000D01*
G75*
G02*
X177500000Y-90425001I0J249999D01*
G01*
X177500000Y-89774999D01*
G75*
G02*
X177749999Y-89525000I249999J0D01*
G01*
X178650001Y-89525000D01*
G75*
G02*
X178900000Y-89774999I0J-249999D01*
G01*
X178900000Y-90425001D01*
G75*
G02*
X178650001Y-90675000I-249999J0D01*
G01*
G37*
G36*
G01*
X178650001Y-92725000D02*
X177749999Y-92725000D01*
G75*
G02*
X177500000Y-92475001I0J249999D01*
G01*
X177500000Y-91824999D01*
G75*
G02*
X177749999Y-91575000I249999J0D01*
G01*
X178650001Y-91575000D01*
G75*
G02*
X178900000Y-91824999I0J-249999D01*
G01*
X178900000Y-92475001D01*
G75*
G02*
X178650001Y-92725000I-249999J0D01*
G01*
G37*
%TD*%
%TO.C,Memory*%
G36*
G01*
X179625000Y-104080000D02*
X179625000Y-104380000D01*
G75*
G02*
X179475000Y-104530000I-150000J0D01*
G01*
X177825000Y-104530000D01*
G75*
G02*
X177675000Y-104380000I0J150000D01*
G01*
X177675000Y-104080000D01*
G75*
G02*
X177825000Y-103930000I150000J0D01*
G01*
X179475000Y-103930000D01*
G75*
G02*
X179625000Y-104080000I0J-150000D01*
G01*
G37*
G36*
G01*
X179625000Y-102810000D02*
X179625000Y-103110000D01*
G75*
G02*
X179475000Y-103260000I-150000J0D01*
G01*
X177825000Y-103260000D01*
G75*
G02*
X177675000Y-103110000I0J150000D01*
G01*
X177675000Y-102810000D01*
G75*
G02*
X177825000Y-102660000I150000J0D01*
G01*
X179475000Y-102660000D01*
G75*
G02*
X179625000Y-102810000I0J-150000D01*
G01*
G37*
G36*
G01*
X179625000Y-101540000D02*
X179625000Y-101840000D01*
G75*
G02*
X179475000Y-101990000I-150000J0D01*
G01*
X177825000Y-101990000D01*
G75*
G02*
X177675000Y-101840000I0J150000D01*
G01*
X177675000Y-101540000D01*
G75*
G02*
X177825000Y-101390000I150000J0D01*
G01*
X179475000Y-101390000D01*
G75*
G02*
X179625000Y-101540000I0J-150000D01*
G01*
G37*
G36*
G01*
X179625000Y-100270000D02*
X179625000Y-100570000D01*
G75*
G02*
X179475000Y-100720000I-150000J0D01*
G01*
X177825000Y-100720000D01*
G75*
G02*
X177675000Y-100570000I0J150000D01*
G01*
X177675000Y-100270000D01*
G75*
G02*
X177825000Y-100120000I150000J0D01*
G01*
X179475000Y-100120000D01*
G75*
G02*
X179625000Y-100270000I0J-150000D01*
G01*
G37*
G36*
G01*
X184575000Y-100270000D02*
X184575000Y-100570000D01*
G75*
G02*
X184425000Y-100720000I-150000J0D01*
G01*
X182775000Y-100720000D01*
G75*
G02*
X182625000Y-100570000I0J150000D01*
G01*
X182625000Y-100270000D01*
G75*
G02*
X182775000Y-100120000I150000J0D01*
G01*
X184425000Y-100120000D01*
G75*
G02*
X184575000Y-100270000I0J-150000D01*
G01*
G37*
G36*
G01*
X184575000Y-101540000D02*
X184575000Y-101840000D01*
G75*
G02*
X184425000Y-101990000I-150000J0D01*
G01*
X182775000Y-101990000D01*
G75*
G02*
X182625000Y-101840000I0J150000D01*
G01*
X182625000Y-101540000D01*
G75*
G02*
X182775000Y-101390000I150000J0D01*
G01*
X184425000Y-101390000D01*
G75*
G02*
X184575000Y-101540000I0J-150000D01*
G01*
G37*
G36*
G01*
X184575000Y-102810000D02*
X184575000Y-103110000D01*
G75*
G02*
X184425000Y-103260000I-150000J0D01*
G01*
X182775000Y-103260000D01*
G75*
G02*
X182625000Y-103110000I0J150000D01*
G01*
X182625000Y-102810000D01*
G75*
G02*
X182775000Y-102660000I150000J0D01*
G01*
X184425000Y-102660000D01*
G75*
G02*
X184575000Y-102810000I0J-150000D01*
G01*
G37*
G36*
G01*
X184575000Y-104080000D02*
X184575000Y-104380000D01*
G75*
G02*
X184425000Y-104530000I-150000J0D01*
G01*
X182775000Y-104530000D01*
G75*
G02*
X182625000Y-104380000I0J150000D01*
G01*
X182625000Y-104080000D01*
G75*
G02*
X182775000Y-103930000I150000J0D01*
G01*
X184425000Y-103930000D01*
G75*
G02*
X184575000Y-104080000I0J-150000D01*
G01*
G37*
%TD*%
%TO.C,R9*%
G36*
G01*
X152425000Y-91312500D02*
X152425000Y-91787500D01*
G75*
G02*
X152187500Y-92025000I-237500J0D01*
G01*
X151612500Y-92025000D01*
G75*
G02*
X151375000Y-91787500I0J237500D01*
G01*
X151375000Y-91312500D01*
G75*
G02*
X151612500Y-91075000I237500J0D01*
G01*
X152187500Y-91075000D01*
G75*
G02*
X152425000Y-91312500I0J-237500D01*
G01*
G37*
G36*
G01*
X154175000Y-91312500D02*
X154175000Y-91787500D01*
G75*
G02*
X153937500Y-92025000I-237500J0D01*
G01*
X153362500Y-92025000D01*
G75*
G02*
X153125000Y-91787500I0J237500D01*
G01*
X153125000Y-91312500D01*
G75*
G02*
X153362500Y-91075000I237500J0D01*
G01*
X153937500Y-91075000D01*
G75*
G02*
X154175000Y-91312500I0J-237500D01*
G01*
G37*
%TD*%
%TO.C,R8*%
G36*
G01*
X152450000Y-89812500D02*
X152450000Y-90287500D01*
G75*
G02*
X152212500Y-90525000I-237500J0D01*
G01*
X151637500Y-90525000D01*
G75*
G02*
X151400000Y-90287500I0J237500D01*
G01*
X151400000Y-89812500D01*
G75*
G02*
X151637500Y-89575000I237500J0D01*
G01*
X152212500Y-89575000D01*
G75*
G02*
X152450000Y-89812500I0J-237500D01*
G01*
G37*
G36*
G01*
X154200000Y-89812500D02*
X154200000Y-90287500D01*
G75*
G02*
X153962500Y-90525000I-237500J0D01*
G01*
X153387500Y-90525000D01*
G75*
G02*
X153150000Y-90287500I0J237500D01*
G01*
X153150000Y-89812500D01*
G75*
G02*
X153387500Y-89575000I237500J0D01*
G01*
X153962500Y-89575000D01*
G75*
G02*
X154200000Y-89812500I0J-237500D01*
G01*
G37*
%TD*%
%TO.C,R7*%
G36*
G01*
X152450000Y-88337500D02*
X152450000Y-88812500D01*
G75*
G02*
X152212500Y-89050000I-237500J0D01*
G01*
X151637500Y-89050000D01*
G75*
G02*
X151400000Y-88812500I0J237500D01*
G01*
X151400000Y-88337500D01*
G75*
G02*
X151637500Y-88100000I237500J0D01*
G01*
X152212500Y-88100000D01*
G75*
G02*
X152450000Y-88337500I0J-237500D01*
G01*
G37*
G36*
G01*
X154200000Y-88337500D02*
X154200000Y-88812500D01*
G75*
G02*
X153962500Y-89050000I-237500J0D01*
G01*
X153387500Y-89050000D01*
G75*
G02*
X153150000Y-88812500I0J237500D01*
G01*
X153150000Y-88337500D01*
G75*
G02*
X153387500Y-88100000I237500J0D01*
G01*
X153962500Y-88100000D01*
G75*
G02*
X154200000Y-88337500I0J-237500D01*
G01*
G37*
%TD*%
D13*
%TO.C,D3*%
X145975000Y-89025000D03*
X145975000Y-90425000D03*
X149475000Y-89025000D03*
X149475000Y-90425000D03*
%TD*%
%TO.C,CAN*%
G36*
G01*
X175625000Y-72949999D02*
X175625000Y-74250001D01*
G75*
G02*
X175375001Y-74500000I-249999J0D01*
G01*
X174674999Y-74500000D01*
G75*
G02*
X174425000Y-74250001I0J249999D01*
G01*
X174425000Y-72949999D01*
G75*
G02*
X174674999Y-72700000I249999J0D01*
G01*
X175375001Y-72700000D01*
G75*
G02*
X175625000Y-72949999I0J-249999D01*
G01*
G37*
G36*
G01*
X181225000Y-72949999D02*
X181225000Y-74250001D01*
G75*
G02*
X180975001Y-74500000I-249999J0D01*
G01*
X180274999Y-74500000D01*
G75*
G02*
X180025000Y-74250001I0J249999D01*
G01*
X180025000Y-72949999D01*
G75*
G02*
X180274999Y-72700000I249999J0D01*
G01*
X180975001Y-72700000D01*
G75*
G02*
X181225000Y-72949999I0J-249999D01*
G01*
G37*
G36*
G01*
X176625000Y-76850000D02*
X176625000Y-78100000D01*
G75*
G02*
X176475000Y-78250000I-150000J0D01*
G01*
X176175000Y-78250000D01*
G75*
G02*
X176025000Y-78100000I0J150000D01*
G01*
X176025000Y-76850000D01*
G75*
G02*
X176175000Y-76700000I150000J0D01*
G01*
X176475000Y-76700000D01*
G75*
G02*
X176625000Y-76850000I0J-150000D01*
G01*
G37*
G36*
G01*
X177625000Y-76850000D02*
X177625000Y-78100000D01*
G75*
G02*
X177475000Y-78250000I-150000J0D01*
G01*
X177175000Y-78250000D01*
G75*
G02*
X177025000Y-78100000I0J150000D01*
G01*
X177025000Y-76850000D01*
G75*
G02*
X177175000Y-76700000I150000J0D01*
G01*
X177475000Y-76700000D01*
G75*
G02*
X177625000Y-76850000I0J-150000D01*
G01*
G37*
G36*
G01*
X178625000Y-76850000D02*
X178625000Y-78100000D01*
G75*
G02*
X178475000Y-78250000I-150000J0D01*
G01*
X178175000Y-78250000D01*
G75*
G02*
X178025000Y-78100000I0J150000D01*
G01*
X178025000Y-76850000D01*
G75*
G02*
X178175000Y-76700000I150000J0D01*
G01*
X178475000Y-76700000D01*
G75*
G02*
X178625000Y-76850000I0J-150000D01*
G01*
G37*
G36*
G01*
X179625000Y-76850000D02*
X179625000Y-78100000D01*
G75*
G02*
X179475000Y-78250000I-150000J0D01*
G01*
X179175000Y-78250000D01*
G75*
G02*
X179025000Y-78100000I0J150000D01*
G01*
X179025000Y-76850000D01*
G75*
G02*
X179175000Y-76700000I150000J0D01*
G01*
X179475000Y-76700000D01*
G75*
G02*
X179625000Y-76850000I0J-150000D01*
G01*
G37*
%TD*%
D14*
%TO.C,nRF24*%
X157435000Y-79870000D03*
X157435000Y-74830000D03*
X154895000Y-79870000D03*
X154895000Y-74830000D03*
X152355000Y-79870000D03*
X152355000Y-74830000D03*
X149815000Y-79870000D03*
X149815000Y-74830000D03*
%TD*%
D15*
%TO.C,J2*%
X192337500Y-82975000D03*
D16*
X189637500Y-81975000D03*
X189637500Y-81325000D03*
X189637500Y-80675000D03*
X189637500Y-83275000D03*
X189637500Y-82625000D03*
D15*
X192337500Y-80975000D03*
%TD*%
D17*
%TO.C,Y1*%
X155525000Y-95825000D03*
X155525000Y-98025000D03*
X153825000Y-98025000D03*
X153825000Y-95825000D03*
%TD*%
D10*
%TO.C,U10*%
X181375000Y-88425000D03*
X181375000Y-86525000D03*
X183575000Y-86525000D03*
X183575000Y-87475000D03*
X183575000Y-88425000D03*
%TD*%
%TO.C,U8*%
X181300000Y-113600000D03*
X181300000Y-111700000D03*
X183500000Y-111700000D03*
X183500000Y-112650000D03*
X183500000Y-113600000D03*
%TD*%
%TO.C,U7*%
X177975000Y-117700000D03*
X177975000Y-115800000D03*
X180175000Y-115800000D03*
X180175000Y-116750000D03*
X180175000Y-117700000D03*
%TD*%
%TO.C,TJA1015*%
G36*
G01*
X171205000Y-82330000D02*
X170905000Y-82330000D01*
G75*
G02*
X170755000Y-82180000I0J150000D01*
G01*
X170755000Y-80530000D01*
G75*
G02*
X170905000Y-80380000I150000J0D01*
G01*
X171205000Y-80380000D01*
G75*
G02*
X171355000Y-80530000I0J-150000D01*
G01*
X171355000Y-82180000D01*
G75*
G02*
X171205000Y-82330000I-150000J0D01*
G01*
G37*
G36*
G01*
X172475000Y-82330000D02*
X172175000Y-82330000D01*
G75*
G02*
X172025000Y-82180000I0J150000D01*
G01*
X172025000Y-80530000D01*
G75*
G02*
X172175000Y-80380000I150000J0D01*
G01*
X172475000Y-80380000D01*
G75*
G02*
X172625000Y-80530000I0J-150000D01*
G01*
X172625000Y-82180000D01*
G75*
G02*
X172475000Y-82330000I-150000J0D01*
G01*
G37*
G36*
G01*
X173745000Y-82330000D02*
X173445000Y-82330000D01*
G75*
G02*
X173295000Y-82180000I0J150000D01*
G01*
X173295000Y-80530000D01*
G75*
G02*
X173445000Y-80380000I150000J0D01*
G01*
X173745000Y-80380000D01*
G75*
G02*
X173895000Y-80530000I0J-150000D01*
G01*
X173895000Y-82180000D01*
G75*
G02*
X173745000Y-82330000I-150000J0D01*
G01*
G37*
G36*
G01*
X175015000Y-82330000D02*
X174715000Y-82330000D01*
G75*
G02*
X174565000Y-82180000I0J150000D01*
G01*
X174565000Y-80530000D01*
G75*
G02*
X174715000Y-80380000I150000J0D01*
G01*
X175015000Y-80380000D01*
G75*
G02*
X175165000Y-80530000I0J-150000D01*
G01*
X175165000Y-82180000D01*
G75*
G02*
X175015000Y-82330000I-150000J0D01*
G01*
G37*
G36*
G01*
X175015000Y-87280000D02*
X174715000Y-87280000D01*
G75*
G02*
X174565000Y-87130000I0J150000D01*
G01*
X174565000Y-85480000D01*
G75*
G02*
X174715000Y-85330000I150000J0D01*
G01*
X175015000Y-85330000D01*
G75*
G02*
X175165000Y-85480000I0J-150000D01*
G01*
X175165000Y-87130000D01*
G75*
G02*
X175015000Y-87280000I-150000J0D01*
G01*
G37*
G36*
G01*
X173745000Y-87280000D02*
X173445000Y-87280000D01*
G75*
G02*
X173295000Y-87130000I0J150000D01*
G01*
X173295000Y-85480000D01*
G75*
G02*
X173445000Y-85330000I150000J0D01*
G01*
X173745000Y-85330000D01*
G75*
G02*
X173895000Y-85480000I0J-150000D01*
G01*
X173895000Y-87130000D01*
G75*
G02*
X173745000Y-87280000I-150000J0D01*
G01*
G37*
G36*
G01*
X172475000Y-87280000D02*
X172175000Y-87280000D01*
G75*
G02*
X172025000Y-87130000I0J150000D01*
G01*
X172025000Y-85480000D01*
G75*
G02*
X172175000Y-85330000I150000J0D01*
G01*
X172475000Y-85330000D01*
G75*
G02*
X172625000Y-85480000I0J-150000D01*
G01*
X172625000Y-87130000D01*
G75*
G02*
X172475000Y-87280000I-150000J0D01*
G01*
G37*
G36*
G01*
X171205000Y-87280000D02*
X170905000Y-87280000D01*
G75*
G02*
X170755000Y-87130000I0J150000D01*
G01*
X170755000Y-85480000D01*
G75*
G02*
X170905000Y-85330000I150000J0D01*
G01*
X171205000Y-85330000D01*
G75*
G02*
X171355000Y-85480000I0J-150000D01*
G01*
X171355000Y-87130000D01*
G75*
G02*
X171205000Y-87280000I-150000J0D01*
G01*
G37*
%TD*%
%TO.C,STM32F427VIT6*%
G36*
G01*
X161850000Y-90450000D02*
X161850000Y-89000000D01*
G75*
G02*
X161925000Y-88925000I75000J0D01*
G01*
X162075000Y-88925000D01*
G75*
G02*
X162150000Y-89000000I0J-75000D01*
G01*
X162150000Y-90450000D01*
G75*
G02*
X162075000Y-90525000I-75000J0D01*
G01*
X161925000Y-90525000D01*
G75*
G02*
X161850000Y-90450000I0J75000D01*
G01*
G37*
G36*
G01*
X162350000Y-90450000D02*
X162350000Y-89000000D01*
G75*
G02*
X162425000Y-88925000I75000J0D01*
G01*
X162575000Y-88925000D01*
G75*
G02*
X162650000Y-89000000I0J-75000D01*
G01*
X162650000Y-90450000D01*
G75*
G02*
X162575000Y-90525000I-75000J0D01*
G01*
X162425000Y-90525000D01*
G75*
G02*
X162350000Y-90450000I0J75000D01*
G01*
G37*
G36*
G01*
X162850000Y-90450000D02*
X162850000Y-89000000D01*
G75*
G02*
X162925000Y-88925000I75000J0D01*
G01*
X163075000Y-88925000D01*
G75*
G02*
X163150000Y-89000000I0J-75000D01*
G01*
X163150000Y-90450000D01*
G75*
G02*
X163075000Y-90525000I-75000J0D01*
G01*
X162925000Y-90525000D01*
G75*
G02*
X162850000Y-90450000I0J75000D01*
G01*
G37*
G36*
G01*
X163350000Y-90450000D02*
X163350000Y-89000000D01*
G75*
G02*
X163425000Y-88925000I75000J0D01*
G01*
X163575000Y-88925000D01*
G75*
G02*
X163650000Y-89000000I0J-75000D01*
G01*
X163650000Y-90450000D01*
G75*
G02*
X163575000Y-90525000I-75000J0D01*
G01*
X163425000Y-90525000D01*
G75*
G02*
X163350000Y-90450000I0J75000D01*
G01*
G37*
G36*
G01*
X163850000Y-90450000D02*
X163850000Y-89000000D01*
G75*
G02*
X163925000Y-88925000I75000J0D01*
G01*
X164075000Y-88925000D01*
G75*
G02*
X164150000Y-89000000I0J-75000D01*
G01*
X164150000Y-90450000D01*
G75*
G02*
X164075000Y-90525000I-75000J0D01*
G01*
X163925000Y-90525000D01*
G75*
G02*
X163850000Y-90450000I0J75000D01*
G01*
G37*
G36*
G01*
X164350000Y-90450000D02*
X164350000Y-89000000D01*
G75*
G02*
X164425000Y-88925000I75000J0D01*
G01*
X164575000Y-88925000D01*
G75*
G02*
X164650000Y-89000000I0J-75000D01*
G01*
X164650000Y-90450000D01*
G75*
G02*
X164575000Y-90525000I-75000J0D01*
G01*
X164425000Y-90525000D01*
G75*
G02*
X164350000Y-90450000I0J75000D01*
G01*
G37*
G36*
G01*
X164850000Y-90450000D02*
X164850000Y-89000000D01*
G75*
G02*
X164925000Y-88925000I75000J0D01*
G01*
X165075000Y-88925000D01*
G75*
G02*
X165150000Y-89000000I0J-75000D01*
G01*
X165150000Y-90450000D01*
G75*
G02*
X165075000Y-90525000I-75000J0D01*
G01*
X164925000Y-90525000D01*
G75*
G02*
X164850000Y-90450000I0J75000D01*
G01*
G37*
G36*
G01*
X165350000Y-90450000D02*
X165350000Y-89000000D01*
G75*
G02*
X165425000Y-88925000I75000J0D01*
G01*
X165575000Y-88925000D01*
G75*
G02*
X165650000Y-89000000I0J-75000D01*
G01*
X165650000Y-90450000D01*
G75*
G02*
X165575000Y-90525000I-75000J0D01*
G01*
X165425000Y-90525000D01*
G75*
G02*
X165350000Y-90450000I0J75000D01*
G01*
G37*
G36*
G01*
X165850000Y-90450000D02*
X165850000Y-89000000D01*
G75*
G02*
X165925000Y-88925000I75000J0D01*
G01*
X166075000Y-88925000D01*
G75*
G02*
X166150000Y-89000000I0J-75000D01*
G01*
X166150000Y-90450000D01*
G75*
G02*
X166075000Y-90525000I-75000J0D01*
G01*
X165925000Y-90525000D01*
G75*
G02*
X165850000Y-90450000I0J75000D01*
G01*
G37*
G36*
G01*
X166350000Y-90450000D02*
X166350000Y-89000000D01*
G75*
G02*
X166425000Y-88925000I75000J0D01*
G01*
X166575000Y-88925000D01*
G75*
G02*
X166650000Y-89000000I0J-75000D01*
G01*
X166650000Y-90450000D01*
G75*
G02*
X166575000Y-90525000I-75000J0D01*
G01*
X166425000Y-90525000D01*
G75*
G02*
X166350000Y-90450000I0J75000D01*
G01*
G37*
G36*
G01*
X166850000Y-90450000D02*
X166850000Y-89000000D01*
G75*
G02*
X166925000Y-88925000I75000J0D01*
G01*
X167075000Y-88925000D01*
G75*
G02*
X167150000Y-89000000I0J-75000D01*
G01*
X167150000Y-90450000D01*
G75*
G02*
X167075000Y-90525000I-75000J0D01*
G01*
X166925000Y-90525000D01*
G75*
G02*
X166850000Y-90450000I0J75000D01*
G01*
G37*
G36*
G01*
X167350000Y-90450000D02*
X167350000Y-89000000D01*
G75*
G02*
X167425000Y-88925000I75000J0D01*
G01*
X167575000Y-88925000D01*
G75*
G02*
X167650000Y-89000000I0J-75000D01*
G01*
X167650000Y-90450000D01*
G75*
G02*
X167575000Y-90525000I-75000J0D01*
G01*
X167425000Y-90525000D01*
G75*
G02*
X167350000Y-90450000I0J75000D01*
G01*
G37*
G36*
G01*
X167850000Y-90450000D02*
X167850000Y-89000000D01*
G75*
G02*
X167925000Y-88925000I75000J0D01*
G01*
X168075000Y-88925000D01*
G75*
G02*
X168150000Y-89000000I0J-75000D01*
G01*
X168150000Y-90450000D01*
G75*
G02*
X168075000Y-90525000I-75000J0D01*
G01*
X167925000Y-90525000D01*
G75*
G02*
X167850000Y-90450000I0J75000D01*
G01*
G37*
G36*
G01*
X168350000Y-90450000D02*
X168350000Y-89000000D01*
G75*
G02*
X168425000Y-88925000I75000J0D01*
G01*
X168575000Y-88925000D01*
G75*
G02*
X168650000Y-89000000I0J-75000D01*
G01*
X168650000Y-90450000D01*
G75*
G02*
X168575000Y-90525000I-75000J0D01*
G01*
X168425000Y-90525000D01*
G75*
G02*
X168350000Y-90450000I0J75000D01*
G01*
G37*
G36*
G01*
X168850000Y-90450000D02*
X168850000Y-89000000D01*
G75*
G02*
X168925000Y-88925000I75000J0D01*
G01*
X169075000Y-88925000D01*
G75*
G02*
X169150000Y-89000000I0J-75000D01*
G01*
X169150000Y-90450000D01*
G75*
G02*
X169075000Y-90525000I-75000J0D01*
G01*
X168925000Y-90525000D01*
G75*
G02*
X168850000Y-90450000I0J75000D01*
G01*
G37*
G36*
G01*
X169350000Y-90450000D02*
X169350000Y-89000000D01*
G75*
G02*
X169425000Y-88925000I75000J0D01*
G01*
X169575000Y-88925000D01*
G75*
G02*
X169650000Y-89000000I0J-75000D01*
G01*
X169650000Y-90450000D01*
G75*
G02*
X169575000Y-90525000I-75000J0D01*
G01*
X169425000Y-90525000D01*
G75*
G02*
X169350000Y-90450000I0J75000D01*
G01*
G37*
G36*
G01*
X169850000Y-90450000D02*
X169850000Y-89000000D01*
G75*
G02*
X169925000Y-88925000I75000J0D01*
G01*
X170075000Y-88925000D01*
G75*
G02*
X170150000Y-89000000I0J-75000D01*
G01*
X170150000Y-90450000D01*
G75*
G02*
X170075000Y-90525000I-75000J0D01*
G01*
X169925000Y-90525000D01*
G75*
G02*
X169850000Y-90450000I0J75000D01*
G01*
G37*
G36*
G01*
X170350000Y-90450000D02*
X170350000Y-89000000D01*
G75*
G02*
X170425000Y-88925000I75000J0D01*
G01*
X170575000Y-88925000D01*
G75*
G02*
X170650000Y-89000000I0J-75000D01*
G01*
X170650000Y-90450000D01*
G75*
G02*
X170575000Y-90525000I-75000J0D01*
G01*
X170425000Y-90525000D01*
G75*
G02*
X170350000Y-90450000I0J75000D01*
G01*
G37*
G36*
G01*
X170850000Y-90450000D02*
X170850000Y-89000000D01*
G75*
G02*
X170925000Y-88925000I75000J0D01*
G01*
X171075000Y-88925000D01*
G75*
G02*
X171150000Y-89000000I0J-75000D01*
G01*
X171150000Y-90450000D01*
G75*
G02*
X171075000Y-90525000I-75000J0D01*
G01*
X170925000Y-90525000D01*
G75*
G02*
X170850000Y-90450000I0J75000D01*
G01*
G37*
G36*
G01*
X171350000Y-90450000D02*
X171350000Y-89000000D01*
G75*
G02*
X171425000Y-88925000I75000J0D01*
G01*
X171575000Y-88925000D01*
G75*
G02*
X171650000Y-89000000I0J-75000D01*
G01*
X171650000Y-90450000D01*
G75*
G02*
X171575000Y-90525000I-75000J0D01*
G01*
X171425000Y-90525000D01*
G75*
G02*
X171350000Y-90450000I0J75000D01*
G01*
G37*
G36*
G01*
X171850000Y-90450000D02*
X171850000Y-89000000D01*
G75*
G02*
X171925000Y-88925000I75000J0D01*
G01*
X172075000Y-88925000D01*
G75*
G02*
X172150000Y-89000000I0J-75000D01*
G01*
X172150000Y-90450000D01*
G75*
G02*
X172075000Y-90525000I-75000J0D01*
G01*
X171925000Y-90525000D01*
G75*
G02*
X171850000Y-90450000I0J75000D01*
G01*
G37*
G36*
G01*
X172350000Y-90450000D02*
X172350000Y-89000000D01*
G75*
G02*
X172425000Y-88925000I75000J0D01*
G01*
X172575000Y-88925000D01*
G75*
G02*
X172650000Y-89000000I0J-75000D01*
G01*
X172650000Y-90450000D01*
G75*
G02*
X172575000Y-90525000I-75000J0D01*
G01*
X172425000Y-90525000D01*
G75*
G02*
X172350000Y-90450000I0J75000D01*
G01*
G37*
G36*
G01*
X172850000Y-90450000D02*
X172850000Y-89000000D01*
G75*
G02*
X172925000Y-88925000I75000J0D01*
G01*
X173075000Y-88925000D01*
G75*
G02*
X173150000Y-89000000I0J-75000D01*
G01*
X173150000Y-90450000D01*
G75*
G02*
X173075000Y-90525000I-75000J0D01*
G01*
X172925000Y-90525000D01*
G75*
G02*
X172850000Y-90450000I0J75000D01*
G01*
G37*
G36*
G01*
X173350000Y-90450000D02*
X173350000Y-89000000D01*
G75*
G02*
X173425000Y-88925000I75000J0D01*
G01*
X173575000Y-88925000D01*
G75*
G02*
X173650000Y-89000000I0J-75000D01*
G01*
X173650000Y-90450000D01*
G75*
G02*
X173575000Y-90525000I-75000J0D01*
G01*
X173425000Y-90525000D01*
G75*
G02*
X173350000Y-90450000I0J75000D01*
G01*
G37*
G36*
G01*
X173850000Y-90450000D02*
X173850000Y-89000000D01*
G75*
G02*
X173925000Y-88925000I75000J0D01*
G01*
X174075000Y-88925000D01*
G75*
G02*
X174150000Y-89000000I0J-75000D01*
G01*
X174150000Y-90450000D01*
G75*
G02*
X174075000Y-90525000I-75000J0D01*
G01*
X173925000Y-90525000D01*
G75*
G02*
X173850000Y-90450000I0J75000D01*
G01*
G37*
G36*
G01*
X174875000Y-91475000D02*
X174875000Y-91325000D01*
G75*
G02*
X174950000Y-91250000I75000J0D01*
G01*
X176400000Y-91250000D01*
G75*
G02*
X176475000Y-91325000I0J-75000D01*
G01*
X176475000Y-91475000D01*
G75*
G02*
X176400000Y-91550000I-75000J0D01*
G01*
X174950000Y-91550000D01*
G75*
G02*
X174875000Y-91475000I0J75000D01*
G01*
G37*
G36*
G01*
X174875000Y-91975000D02*
X174875000Y-91825000D01*
G75*
G02*
X174950000Y-91750000I75000J0D01*
G01*
X176400000Y-91750000D01*
G75*
G02*
X176475000Y-91825000I0J-75000D01*
G01*
X176475000Y-91975000D01*
G75*
G02*
X176400000Y-92050000I-75000J0D01*
G01*
X174950000Y-92050000D01*
G75*
G02*
X174875000Y-91975000I0J75000D01*
G01*
G37*
G36*
G01*
X174875000Y-92475000D02*
X174875000Y-92325000D01*
G75*
G02*
X174950000Y-92250000I75000J0D01*
G01*
X176400000Y-92250000D01*
G75*
G02*
X176475000Y-92325000I0J-75000D01*
G01*
X176475000Y-92475000D01*
G75*
G02*
X176400000Y-92550000I-75000J0D01*
G01*
X174950000Y-92550000D01*
G75*
G02*
X174875000Y-92475000I0J75000D01*
G01*
G37*
G36*
G01*
X174875000Y-92975000D02*
X174875000Y-92825000D01*
G75*
G02*
X174950000Y-92750000I75000J0D01*
G01*
X176400000Y-92750000D01*
G75*
G02*
X176475000Y-92825000I0J-75000D01*
G01*
X176475000Y-92975000D01*
G75*
G02*
X176400000Y-93050000I-75000J0D01*
G01*
X174950000Y-93050000D01*
G75*
G02*
X174875000Y-92975000I0J75000D01*
G01*
G37*
G36*
G01*
X174875000Y-93475000D02*
X174875000Y-93325000D01*
G75*
G02*
X174950000Y-93250000I75000J0D01*
G01*
X176400000Y-93250000D01*
G75*
G02*
X176475000Y-93325000I0J-75000D01*
G01*
X176475000Y-93475000D01*
G75*
G02*
X176400000Y-93550000I-75000J0D01*
G01*
X174950000Y-93550000D01*
G75*
G02*
X174875000Y-93475000I0J75000D01*
G01*
G37*
G36*
G01*
X174875000Y-93975000D02*
X174875000Y-93825000D01*
G75*
G02*
X174950000Y-93750000I75000J0D01*
G01*
X176400000Y-93750000D01*
G75*
G02*
X176475000Y-93825000I0J-75000D01*
G01*
X176475000Y-93975000D01*
G75*
G02*
X176400000Y-94050000I-75000J0D01*
G01*
X174950000Y-94050000D01*
G75*
G02*
X174875000Y-93975000I0J75000D01*
G01*
G37*
G36*
G01*
X174875000Y-94475000D02*
X174875000Y-94325000D01*
G75*
G02*
X174950000Y-94250000I75000J0D01*
G01*
X176400000Y-94250000D01*
G75*
G02*
X176475000Y-94325000I0J-75000D01*
G01*
X176475000Y-94475000D01*
G75*
G02*
X176400000Y-94550000I-75000J0D01*
G01*
X174950000Y-94550000D01*
G75*
G02*
X174875000Y-94475000I0J75000D01*
G01*
G37*
G36*
G01*
X174875000Y-94975000D02*
X174875000Y-94825000D01*
G75*
G02*
X174950000Y-94750000I75000J0D01*
G01*
X176400000Y-94750000D01*
G75*
G02*
X176475000Y-94825000I0J-75000D01*
G01*
X176475000Y-94975000D01*
G75*
G02*
X176400000Y-95050000I-75000J0D01*
G01*
X174950000Y-95050000D01*
G75*
G02*
X174875000Y-94975000I0J75000D01*
G01*
G37*
G36*
G01*
X174875000Y-95475000D02*
X174875000Y-95325000D01*
G75*
G02*
X174950000Y-95250000I75000J0D01*
G01*
X176400000Y-95250000D01*
G75*
G02*
X176475000Y-95325000I0J-75000D01*
G01*
X176475000Y-95475000D01*
G75*
G02*
X176400000Y-95550000I-75000J0D01*
G01*
X174950000Y-95550000D01*
G75*
G02*
X174875000Y-95475000I0J75000D01*
G01*
G37*
G36*
G01*
X174875000Y-95975000D02*
X174875000Y-95825000D01*
G75*
G02*
X174950000Y-95750000I75000J0D01*
G01*
X176400000Y-95750000D01*
G75*
G02*
X176475000Y-95825000I0J-75000D01*
G01*
X176475000Y-95975000D01*
G75*
G02*
X176400000Y-96050000I-75000J0D01*
G01*
X174950000Y-96050000D01*
G75*
G02*
X174875000Y-95975000I0J75000D01*
G01*
G37*
G36*
G01*
X174875000Y-96475000D02*
X174875000Y-96325000D01*
G75*
G02*
X174950000Y-96250000I75000J0D01*
G01*
X176400000Y-96250000D01*
G75*
G02*
X176475000Y-96325000I0J-75000D01*
G01*
X176475000Y-96475000D01*
G75*
G02*
X176400000Y-96550000I-75000J0D01*
G01*
X174950000Y-96550000D01*
G75*
G02*
X174875000Y-96475000I0J75000D01*
G01*
G37*
G36*
G01*
X174875000Y-96975000D02*
X174875000Y-96825000D01*
G75*
G02*
X174950000Y-96750000I75000J0D01*
G01*
X176400000Y-96750000D01*
G75*
G02*
X176475000Y-96825000I0J-75000D01*
G01*
X176475000Y-96975000D01*
G75*
G02*
X176400000Y-97050000I-75000J0D01*
G01*
X174950000Y-97050000D01*
G75*
G02*
X174875000Y-96975000I0J75000D01*
G01*
G37*
G36*
G01*
X174875000Y-97475000D02*
X174875000Y-97325000D01*
G75*
G02*
X174950000Y-97250000I75000J0D01*
G01*
X176400000Y-97250000D01*
G75*
G02*
X176475000Y-97325000I0J-75000D01*
G01*
X176475000Y-97475000D01*
G75*
G02*
X176400000Y-97550000I-75000J0D01*
G01*
X174950000Y-97550000D01*
G75*
G02*
X174875000Y-97475000I0J75000D01*
G01*
G37*
G36*
G01*
X174875000Y-97975000D02*
X174875000Y-97825000D01*
G75*
G02*
X174950000Y-97750000I75000J0D01*
G01*
X176400000Y-97750000D01*
G75*
G02*
X176475000Y-97825000I0J-75000D01*
G01*
X176475000Y-97975000D01*
G75*
G02*
X176400000Y-98050000I-75000J0D01*
G01*
X174950000Y-98050000D01*
G75*
G02*
X174875000Y-97975000I0J75000D01*
G01*
G37*
G36*
G01*
X174875000Y-98475000D02*
X174875000Y-98325000D01*
G75*
G02*
X174950000Y-98250000I75000J0D01*
G01*
X176400000Y-98250000D01*
G75*
G02*
X176475000Y-98325000I0J-75000D01*
G01*
X176475000Y-98475000D01*
G75*
G02*
X176400000Y-98550000I-75000J0D01*
G01*
X174950000Y-98550000D01*
G75*
G02*
X174875000Y-98475000I0J75000D01*
G01*
G37*
G36*
G01*
X174875000Y-98975000D02*
X174875000Y-98825000D01*
G75*
G02*
X174950000Y-98750000I75000J0D01*
G01*
X176400000Y-98750000D01*
G75*
G02*
X176475000Y-98825000I0J-75000D01*
G01*
X176475000Y-98975000D01*
G75*
G02*
X176400000Y-99050000I-75000J0D01*
G01*
X174950000Y-99050000D01*
G75*
G02*
X174875000Y-98975000I0J75000D01*
G01*
G37*
G36*
G01*
X174875000Y-99475000D02*
X174875000Y-99325000D01*
G75*
G02*
X174950000Y-99250000I75000J0D01*
G01*
X176400000Y-99250000D01*
G75*
G02*
X176475000Y-99325000I0J-75000D01*
G01*
X176475000Y-99475000D01*
G75*
G02*
X176400000Y-99550000I-75000J0D01*
G01*
X174950000Y-99550000D01*
G75*
G02*
X174875000Y-99475000I0J75000D01*
G01*
G37*
G36*
G01*
X174875000Y-99975000D02*
X174875000Y-99825000D01*
G75*
G02*
X174950000Y-99750000I75000J0D01*
G01*
X176400000Y-99750000D01*
G75*
G02*
X176475000Y-99825000I0J-75000D01*
G01*
X176475000Y-99975000D01*
G75*
G02*
X176400000Y-100050000I-75000J0D01*
G01*
X174950000Y-100050000D01*
G75*
G02*
X174875000Y-99975000I0J75000D01*
G01*
G37*
G36*
G01*
X174875000Y-100475000D02*
X174875000Y-100325000D01*
G75*
G02*
X174950000Y-100250000I75000J0D01*
G01*
X176400000Y-100250000D01*
G75*
G02*
X176475000Y-100325000I0J-75000D01*
G01*
X176475000Y-100475000D01*
G75*
G02*
X176400000Y-100550000I-75000J0D01*
G01*
X174950000Y-100550000D01*
G75*
G02*
X174875000Y-100475000I0J75000D01*
G01*
G37*
G36*
G01*
X174875000Y-100975000D02*
X174875000Y-100825000D01*
G75*
G02*
X174950000Y-100750000I75000J0D01*
G01*
X176400000Y-100750000D01*
G75*
G02*
X176475000Y-100825000I0J-75000D01*
G01*
X176475000Y-100975000D01*
G75*
G02*
X176400000Y-101050000I-75000J0D01*
G01*
X174950000Y-101050000D01*
G75*
G02*
X174875000Y-100975000I0J75000D01*
G01*
G37*
G36*
G01*
X174875000Y-101475000D02*
X174875000Y-101325000D01*
G75*
G02*
X174950000Y-101250000I75000J0D01*
G01*
X176400000Y-101250000D01*
G75*
G02*
X176475000Y-101325000I0J-75000D01*
G01*
X176475000Y-101475000D01*
G75*
G02*
X176400000Y-101550000I-75000J0D01*
G01*
X174950000Y-101550000D01*
G75*
G02*
X174875000Y-101475000I0J75000D01*
G01*
G37*
G36*
G01*
X174875000Y-101975000D02*
X174875000Y-101825000D01*
G75*
G02*
X174950000Y-101750000I75000J0D01*
G01*
X176400000Y-101750000D01*
G75*
G02*
X176475000Y-101825000I0J-75000D01*
G01*
X176475000Y-101975000D01*
G75*
G02*
X176400000Y-102050000I-75000J0D01*
G01*
X174950000Y-102050000D01*
G75*
G02*
X174875000Y-101975000I0J75000D01*
G01*
G37*
G36*
G01*
X174875000Y-102475000D02*
X174875000Y-102325000D01*
G75*
G02*
X174950000Y-102250000I75000J0D01*
G01*
X176400000Y-102250000D01*
G75*
G02*
X176475000Y-102325000I0J-75000D01*
G01*
X176475000Y-102475000D01*
G75*
G02*
X176400000Y-102550000I-75000J0D01*
G01*
X174950000Y-102550000D01*
G75*
G02*
X174875000Y-102475000I0J75000D01*
G01*
G37*
G36*
G01*
X174875000Y-102975000D02*
X174875000Y-102825000D01*
G75*
G02*
X174950000Y-102750000I75000J0D01*
G01*
X176400000Y-102750000D01*
G75*
G02*
X176475000Y-102825000I0J-75000D01*
G01*
X176475000Y-102975000D01*
G75*
G02*
X176400000Y-103050000I-75000J0D01*
G01*
X174950000Y-103050000D01*
G75*
G02*
X174875000Y-102975000I0J75000D01*
G01*
G37*
G36*
G01*
X174875000Y-103475000D02*
X174875000Y-103325000D01*
G75*
G02*
X174950000Y-103250000I75000J0D01*
G01*
X176400000Y-103250000D01*
G75*
G02*
X176475000Y-103325000I0J-75000D01*
G01*
X176475000Y-103475000D01*
G75*
G02*
X176400000Y-103550000I-75000J0D01*
G01*
X174950000Y-103550000D01*
G75*
G02*
X174875000Y-103475000I0J75000D01*
G01*
G37*
G36*
G01*
X173850000Y-105800000D02*
X173850000Y-104350000D01*
G75*
G02*
X173925000Y-104275000I75000J0D01*
G01*
X174075000Y-104275000D01*
G75*
G02*
X174150000Y-104350000I0J-75000D01*
G01*
X174150000Y-105800000D01*
G75*
G02*
X174075000Y-105875000I-75000J0D01*
G01*
X173925000Y-105875000D01*
G75*
G02*
X173850000Y-105800000I0J75000D01*
G01*
G37*
G36*
G01*
X173350000Y-105800000D02*
X173350000Y-104350000D01*
G75*
G02*
X173425000Y-104275000I75000J0D01*
G01*
X173575000Y-104275000D01*
G75*
G02*
X173650000Y-104350000I0J-75000D01*
G01*
X173650000Y-105800000D01*
G75*
G02*
X173575000Y-105875000I-75000J0D01*
G01*
X173425000Y-105875000D01*
G75*
G02*
X173350000Y-105800000I0J75000D01*
G01*
G37*
G36*
G01*
X172850000Y-105800000D02*
X172850000Y-104350000D01*
G75*
G02*
X172925000Y-104275000I75000J0D01*
G01*
X173075000Y-104275000D01*
G75*
G02*
X173150000Y-104350000I0J-75000D01*
G01*
X173150000Y-105800000D01*
G75*
G02*
X173075000Y-105875000I-75000J0D01*
G01*
X172925000Y-105875000D01*
G75*
G02*
X172850000Y-105800000I0J75000D01*
G01*
G37*
G36*
G01*
X172350000Y-105800000D02*
X172350000Y-104350000D01*
G75*
G02*
X172425000Y-104275000I75000J0D01*
G01*
X172575000Y-104275000D01*
G75*
G02*
X172650000Y-104350000I0J-75000D01*
G01*
X172650000Y-105800000D01*
G75*
G02*
X172575000Y-105875000I-75000J0D01*
G01*
X172425000Y-105875000D01*
G75*
G02*
X172350000Y-105800000I0J75000D01*
G01*
G37*
G36*
G01*
X171850000Y-105800000D02*
X171850000Y-104350000D01*
G75*
G02*
X171925000Y-104275000I75000J0D01*
G01*
X172075000Y-104275000D01*
G75*
G02*
X172150000Y-104350000I0J-75000D01*
G01*
X172150000Y-105800000D01*
G75*
G02*
X172075000Y-105875000I-75000J0D01*
G01*
X171925000Y-105875000D01*
G75*
G02*
X171850000Y-105800000I0J75000D01*
G01*
G37*
G36*
G01*
X171350000Y-105800000D02*
X171350000Y-104350000D01*
G75*
G02*
X171425000Y-104275000I75000J0D01*
G01*
X171575000Y-104275000D01*
G75*
G02*
X171650000Y-104350000I0J-75000D01*
G01*
X171650000Y-105800000D01*
G75*
G02*
X171575000Y-105875000I-75000J0D01*
G01*
X171425000Y-105875000D01*
G75*
G02*
X171350000Y-105800000I0J75000D01*
G01*
G37*
G36*
G01*
X170850000Y-105800000D02*
X170850000Y-104350000D01*
G75*
G02*
X170925000Y-104275000I75000J0D01*
G01*
X171075000Y-104275000D01*
G75*
G02*
X171150000Y-104350000I0J-75000D01*
G01*
X171150000Y-105800000D01*
G75*
G02*
X171075000Y-105875000I-75000J0D01*
G01*
X170925000Y-105875000D01*
G75*
G02*
X170850000Y-105800000I0J75000D01*
G01*
G37*
G36*
G01*
X170350000Y-105800000D02*
X170350000Y-104350000D01*
G75*
G02*
X170425000Y-104275000I75000J0D01*
G01*
X170575000Y-104275000D01*
G75*
G02*
X170650000Y-104350000I0J-75000D01*
G01*
X170650000Y-105800000D01*
G75*
G02*
X170575000Y-105875000I-75000J0D01*
G01*
X170425000Y-105875000D01*
G75*
G02*
X170350000Y-105800000I0J75000D01*
G01*
G37*
G36*
G01*
X169850000Y-105800000D02*
X169850000Y-104350000D01*
G75*
G02*
X169925000Y-104275000I75000J0D01*
G01*
X170075000Y-104275000D01*
G75*
G02*
X170150000Y-104350000I0J-75000D01*
G01*
X170150000Y-105800000D01*
G75*
G02*
X170075000Y-105875000I-75000J0D01*
G01*
X169925000Y-105875000D01*
G75*
G02*
X169850000Y-105800000I0J75000D01*
G01*
G37*
G36*
G01*
X169350000Y-105800000D02*
X169350000Y-104350000D01*
G75*
G02*
X169425000Y-104275000I75000J0D01*
G01*
X169575000Y-104275000D01*
G75*
G02*
X169650000Y-104350000I0J-75000D01*
G01*
X169650000Y-105800000D01*
G75*
G02*
X169575000Y-105875000I-75000J0D01*
G01*
X169425000Y-105875000D01*
G75*
G02*
X169350000Y-105800000I0J75000D01*
G01*
G37*
G36*
G01*
X168850000Y-105800000D02*
X168850000Y-104350000D01*
G75*
G02*
X168925000Y-104275000I75000J0D01*
G01*
X169075000Y-104275000D01*
G75*
G02*
X169150000Y-104350000I0J-75000D01*
G01*
X169150000Y-105800000D01*
G75*
G02*
X169075000Y-105875000I-75000J0D01*
G01*
X168925000Y-105875000D01*
G75*
G02*
X168850000Y-105800000I0J75000D01*
G01*
G37*
G36*
G01*
X168350000Y-105800000D02*
X168350000Y-104350000D01*
G75*
G02*
X168425000Y-104275000I75000J0D01*
G01*
X168575000Y-104275000D01*
G75*
G02*
X168650000Y-104350000I0J-75000D01*
G01*
X168650000Y-105800000D01*
G75*
G02*
X168575000Y-105875000I-75000J0D01*
G01*
X168425000Y-105875000D01*
G75*
G02*
X168350000Y-105800000I0J75000D01*
G01*
G37*
G36*
G01*
X167850000Y-105800000D02*
X167850000Y-104350000D01*
G75*
G02*
X167925000Y-104275000I75000J0D01*
G01*
X168075000Y-104275000D01*
G75*
G02*
X168150000Y-104350000I0J-75000D01*
G01*
X168150000Y-105800000D01*
G75*
G02*
X168075000Y-105875000I-75000J0D01*
G01*
X167925000Y-105875000D01*
G75*
G02*
X167850000Y-105800000I0J75000D01*
G01*
G37*
G36*
G01*
X167350000Y-105800000D02*
X167350000Y-104350000D01*
G75*
G02*
X167425000Y-104275000I75000J0D01*
G01*
X167575000Y-104275000D01*
G75*
G02*
X167650000Y-104350000I0J-75000D01*
G01*
X167650000Y-105800000D01*
G75*
G02*
X167575000Y-105875000I-75000J0D01*
G01*
X167425000Y-105875000D01*
G75*
G02*
X167350000Y-105800000I0J75000D01*
G01*
G37*
G36*
G01*
X166850000Y-105800000D02*
X166850000Y-104350000D01*
G75*
G02*
X166925000Y-104275000I75000J0D01*
G01*
X167075000Y-104275000D01*
G75*
G02*
X167150000Y-104350000I0J-75000D01*
G01*
X167150000Y-105800000D01*
G75*
G02*
X167075000Y-105875000I-75000J0D01*
G01*
X166925000Y-105875000D01*
G75*
G02*
X166850000Y-105800000I0J75000D01*
G01*
G37*
G36*
G01*
X166350000Y-105800000D02*
X166350000Y-104350000D01*
G75*
G02*
X166425000Y-104275000I75000J0D01*
G01*
X166575000Y-104275000D01*
G75*
G02*
X166650000Y-104350000I0J-75000D01*
G01*
X166650000Y-105800000D01*
G75*
G02*
X166575000Y-105875000I-75000J0D01*
G01*
X166425000Y-105875000D01*
G75*
G02*
X166350000Y-105800000I0J75000D01*
G01*
G37*
G36*
G01*
X165850000Y-105800000D02*
X165850000Y-104350000D01*
G75*
G02*
X165925000Y-104275000I75000J0D01*
G01*
X166075000Y-104275000D01*
G75*
G02*
X166150000Y-104350000I0J-75000D01*
G01*
X166150000Y-105800000D01*
G75*
G02*
X166075000Y-105875000I-75000J0D01*
G01*
X165925000Y-105875000D01*
G75*
G02*
X165850000Y-105800000I0J75000D01*
G01*
G37*
G36*
G01*
X165350000Y-105800000D02*
X165350000Y-104350000D01*
G75*
G02*
X165425000Y-104275000I75000J0D01*
G01*
X165575000Y-104275000D01*
G75*
G02*
X165650000Y-104350000I0J-75000D01*
G01*
X165650000Y-105800000D01*
G75*
G02*
X165575000Y-105875000I-75000J0D01*
G01*
X165425000Y-105875000D01*
G75*
G02*
X165350000Y-105800000I0J75000D01*
G01*
G37*
G36*
G01*
X164850000Y-105800000D02*
X164850000Y-104350000D01*
G75*
G02*
X164925000Y-104275000I75000J0D01*
G01*
X165075000Y-104275000D01*
G75*
G02*
X165150000Y-104350000I0J-75000D01*
G01*
X165150000Y-105800000D01*
G75*
G02*
X165075000Y-105875000I-75000J0D01*
G01*
X164925000Y-105875000D01*
G75*
G02*
X164850000Y-105800000I0J75000D01*
G01*
G37*
G36*
G01*
X164350000Y-105800000D02*
X164350000Y-104350000D01*
G75*
G02*
X164425000Y-104275000I75000J0D01*
G01*
X164575000Y-104275000D01*
G75*
G02*
X164650000Y-104350000I0J-75000D01*
G01*
X164650000Y-105800000D01*
G75*
G02*
X164575000Y-105875000I-75000J0D01*
G01*
X164425000Y-105875000D01*
G75*
G02*
X164350000Y-105800000I0J75000D01*
G01*
G37*
G36*
G01*
X163850000Y-105800000D02*
X163850000Y-104350000D01*
G75*
G02*
X163925000Y-104275000I75000J0D01*
G01*
X164075000Y-104275000D01*
G75*
G02*
X164150000Y-104350000I0J-75000D01*
G01*
X164150000Y-105800000D01*
G75*
G02*
X164075000Y-105875000I-75000J0D01*
G01*
X163925000Y-105875000D01*
G75*
G02*
X163850000Y-105800000I0J75000D01*
G01*
G37*
G36*
G01*
X163350000Y-105800000D02*
X163350000Y-104350000D01*
G75*
G02*
X163425000Y-104275000I75000J0D01*
G01*
X163575000Y-104275000D01*
G75*
G02*
X163650000Y-104350000I0J-75000D01*
G01*
X163650000Y-105800000D01*
G75*
G02*
X163575000Y-105875000I-75000J0D01*
G01*
X163425000Y-105875000D01*
G75*
G02*
X163350000Y-105800000I0J75000D01*
G01*
G37*
G36*
G01*
X162850000Y-105800000D02*
X162850000Y-104350000D01*
G75*
G02*
X162925000Y-104275000I75000J0D01*
G01*
X163075000Y-104275000D01*
G75*
G02*
X163150000Y-104350000I0J-75000D01*
G01*
X163150000Y-105800000D01*
G75*
G02*
X163075000Y-105875000I-75000J0D01*
G01*
X162925000Y-105875000D01*
G75*
G02*
X162850000Y-105800000I0J75000D01*
G01*
G37*
G36*
G01*
X162350000Y-105800000D02*
X162350000Y-104350000D01*
G75*
G02*
X162425000Y-104275000I75000J0D01*
G01*
X162575000Y-104275000D01*
G75*
G02*
X162650000Y-104350000I0J-75000D01*
G01*
X162650000Y-105800000D01*
G75*
G02*
X162575000Y-105875000I-75000J0D01*
G01*
X162425000Y-105875000D01*
G75*
G02*
X162350000Y-105800000I0J75000D01*
G01*
G37*
G36*
G01*
X161850000Y-105800000D02*
X161850000Y-104350000D01*
G75*
G02*
X161925000Y-104275000I75000J0D01*
G01*
X162075000Y-104275000D01*
G75*
G02*
X162150000Y-104350000I0J-75000D01*
G01*
X162150000Y-105800000D01*
G75*
G02*
X162075000Y-105875000I-75000J0D01*
G01*
X161925000Y-105875000D01*
G75*
G02*
X161850000Y-105800000I0J75000D01*
G01*
G37*
G36*
G01*
X159525000Y-103475000D02*
X159525000Y-103325000D01*
G75*
G02*
X159600000Y-103250000I75000J0D01*
G01*
X161050000Y-103250000D01*
G75*
G02*
X161125000Y-103325000I0J-75000D01*
G01*
X161125000Y-103475000D01*
G75*
G02*
X161050000Y-103550000I-75000J0D01*
G01*
X159600000Y-103550000D01*
G75*
G02*
X159525000Y-103475000I0J75000D01*
G01*
G37*
G36*
G01*
X159525000Y-102975000D02*
X159525000Y-102825000D01*
G75*
G02*
X159600000Y-102750000I75000J0D01*
G01*
X161050000Y-102750000D01*
G75*
G02*
X161125000Y-102825000I0J-75000D01*
G01*
X161125000Y-102975000D01*
G75*
G02*
X161050000Y-103050000I-75000J0D01*
G01*
X159600000Y-103050000D01*
G75*
G02*
X159525000Y-102975000I0J75000D01*
G01*
G37*
G36*
G01*
X159525000Y-102475000D02*
X159525000Y-102325000D01*
G75*
G02*
X159600000Y-102250000I75000J0D01*
G01*
X161050000Y-102250000D01*
G75*
G02*
X161125000Y-102325000I0J-75000D01*
G01*
X161125000Y-102475000D01*
G75*
G02*
X161050000Y-102550000I-75000J0D01*
G01*
X159600000Y-102550000D01*
G75*
G02*
X159525000Y-102475000I0J75000D01*
G01*
G37*
G36*
G01*
X159525000Y-101975000D02*
X159525000Y-101825000D01*
G75*
G02*
X159600000Y-101750000I75000J0D01*
G01*
X161050000Y-101750000D01*
G75*
G02*
X161125000Y-101825000I0J-75000D01*
G01*
X161125000Y-101975000D01*
G75*
G02*
X161050000Y-102050000I-75000J0D01*
G01*
X159600000Y-102050000D01*
G75*
G02*
X159525000Y-101975000I0J75000D01*
G01*
G37*
G36*
G01*
X159525000Y-101475000D02*
X159525000Y-101325000D01*
G75*
G02*
X159600000Y-101250000I75000J0D01*
G01*
X161050000Y-101250000D01*
G75*
G02*
X161125000Y-101325000I0J-75000D01*
G01*
X161125000Y-101475000D01*
G75*
G02*
X161050000Y-101550000I-75000J0D01*
G01*
X159600000Y-101550000D01*
G75*
G02*
X159525000Y-101475000I0J75000D01*
G01*
G37*
G36*
G01*
X159525000Y-100975000D02*
X159525000Y-100825000D01*
G75*
G02*
X159600000Y-100750000I75000J0D01*
G01*
X161050000Y-100750000D01*
G75*
G02*
X161125000Y-100825000I0J-75000D01*
G01*
X161125000Y-100975000D01*
G75*
G02*
X161050000Y-101050000I-75000J0D01*
G01*
X159600000Y-101050000D01*
G75*
G02*
X159525000Y-100975000I0J75000D01*
G01*
G37*
G36*
G01*
X159525000Y-100475000D02*
X159525000Y-100325000D01*
G75*
G02*
X159600000Y-100250000I75000J0D01*
G01*
X161050000Y-100250000D01*
G75*
G02*
X161125000Y-100325000I0J-75000D01*
G01*
X161125000Y-100475000D01*
G75*
G02*
X161050000Y-100550000I-75000J0D01*
G01*
X159600000Y-100550000D01*
G75*
G02*
X159525000Y-100475000I0J75000D01*
G01*
G37*
G36*
G01*
X159525000Y-99975000D02*
X159525000Y-99825000D01*
G75*
G02*
X159600000Y-99750000I75000J0D01*
G01*
X161050000Y-99750000D01*
G75*
G02*
X161125000Y-99825000I0J-75000D01*
G01*
X161125000Y-99975000D01*
G75*
G02*
X161050000Y-100050000I-75000J0D01*
G01*
X159600000Y-100050000D01*
G75*
G02*
X159525000Y-99975000I0J75000D01*
G01*
G37*
G36*
G01*
X159525000Y-99475000D02*
X159525000Y-99325000D01*
G75*
G02*
X159600000Y-99250000I75000J0D01*
G01*
X161050000Y-99250000D01*
G75*
G02*
X161125000Y-99325000I0J-75000D01*
G01*
X161125000Y-99475000D01*
G75*
G02*
X161050000Y-99550000I-75000J0D01*
G01*
X159600000Y-99550000D01*
G75*
G02*
X159525000Y-99475000I0J75000D01*
G01*
G37*
G36*
G01*
X159525000Y-98975000D02*
X159525000Y-98825000D01*
G75*
G02*
X159600000Y-98750000I75000J0D01*
G01*
X161050000Y-98750000D01*
G75*
G02*
X161125000Y-98825000I0J-75000D01*
G01*
X161125000Y-98975000D01*
G75*
G02*
X161050000Y-99050000I-75000J0D01*
G01*
X159600000Y-99050000D01*
G75*
G02*
X159525000Y-98975000I0J75000D01*
G01*
G37*
G36*
G01*
X159525000Y-98475000D02*
X159525000Y-98325000D01*
G75*
G02*
X159600000Y-98250000I75000J0D01*
G01*
X161050000Y-98250000D01*
G75*
G02*
X161125000Y-98325000I0J-75000D01*
G01*
X161125000Y-98475000D01*
G75*
G02*
X161050000Y-98550000I-75000J0D01*
G01*
X159600000Y-98550000D01*
G75*
G02*
X159525000Y-98475000I0J75000D01*
G01*
G37*
G36*
G01*
X159525000Y-97975000D02*
X159525000Y-97825000D01*
G75*
G02*
X159600000Y-97750000I75000J0D01*
G01*
X161050000Y-97750000D01*
G75*
G02*
X161125000Y-97825000I0J-75000D01*
G01*
X161125000Y-97975000D01*
G75*
G02*
X161050000Y-98050000I-75000J0D01*
G01*
X159600000Y-98050000D01*
G75*
G02*
X159525000Y-97975000I0J75000D01*
G01*
G37*
G36*
G01*
X159525000Y-97475000D02*
X159525000Y-97325000D01*
G75*
G02*
X159600000Y-97250000I75000J0D01*
G01*
X161050000Y-97250000D01*
G75*
G02*
X161125000Y-97325000I0J-75000D01*
G01*
X161125000Y-97475000D01*
G75*
G02*
X161050000Y-97550000I-75000J0D01*
G01*
X159600000Y-97550000D01*
G75*
G02*
X159525000Y-97475000I0J75000D01*
G01*
G37*
G36*
G01*
X159525000Y-96975000D02*
X159525000Y-96825000D01*
G75*
G02*
X159600000Y-96750000I75000J0D01*
G01*
X161050000Y-96750000D01*
G75*
G02*
X161125000Y-96825000I0J-75000D01*
G01*
X161125000Y-96975000D01*
G75*
G02*
X161050000Y-97050000I-75000J0D01*
G01*
X159600000Y-97050000D01*
G75*
G02*
X159525000Y-96975000I0J75000D01*
G01*
G37*
G36*
G01*
X159525000Y-96475000D02*
X159525000Y-96325000D01*
G75*
G02*
X159600000Y-96250000I75000J0D01*
G01*
X161050000Y-96250000D01*
G75*
G02*
X161125000Y-96325000I0J-75000D01*
G01*
X161125000Y-96475000D01*
G75*
G02*
X161050000Y-96550000I-75000J0D01*
G01*
X159600000Y-96550000D01*
G75*
G02*
X159525000Y-96475000I0J75000D01*
G01*
G37*
G36*
G01*
X159525000Y-95975000D02*
X159525000Y-95825000D01*
G75*
G02*
X159600000Y-95750000I75000J0D01*
G01*
X161050000Y-95750000D01*
G75*
G02*
X161125000Y-95825000I0J-75000D01*
G01*
X161125000Y-95975000D01*
G75*
G02*
X161050000Y-96050000I-75000J0D01*
G01*
X159600000Y-96050000D01*
G75*
G02*
X159525000Y-95975000I0J75000D01*
G01*
G37*
G36*
G01*
X159525000Y-95475000D02*
X159525000Y-95325000D01*
G75*
G02*
X159600000Y-95250000I75000J0D01*
G01*
X161050000Y-95250000D01*
G75*
G02*
X161125000Y-95325000I0J-75000D01*
G01*
X161125000Y-95475000D01*
G75*
G02*
X161050000Y-95550000I-75000J0D01*
G01*
X159600000Y-95550000D01*
G75*
G02*
X159525000Y-95475000I0J75000D01*
G01*
G37*
G36*
G01*
X159525000Y-94975000D02*
X159525000Y-94825000D01*
G75*
G02*
X159600000Y-94750000I75000J0D01*
G01*
X161050000Y-94750000D01*
G75*
G02*
X161125000Y-94825000I0J-75000D01*
G01*
X161125000Y-94975000D01*
G75*
G02*
X161050000Y-95050000I-75000J0D01*
G01*
X159600000Y-95050000D01*
G75*
G02*
X159525000Y-94975000I0J75000D01*
G01*
G37*
G36*
G01*
X159525000Y-94475000D02*
X159525000Y-94325000D01*
G75*
G02*
X159600000Y-94250000I75000J0D01*
G01*
X161050000Y-94250000D01*
G75*
G02*
X161125000Y-94325000I0J-75000D01*
G01*
X161125000Y-94475000D01*
G75*
G02*
X161050000Y-94550000I-75000J0D01*
G01*
X159600000Y-94550000D01*
G75*
G02*
X159525000Y-94475000I0J75000D01*
G01*
G37*
G36*
G01*
X159525000Y-93975000D02*
X159525000Y-93825000D01*
G75*
G02*
X159600000Y-93750000I75000J0D01*
G01*
X161050000Y-93750000D01*
G75*
G02*
X161125000Y-93825000I0J-75000D01*
G01*
X161125000Y-93975000D01*
G75*
G02*
X161050000Y-94050000I-75000J0D01*
G01*
X159600000Y-94050000D01*
G75*
G02*
X159525000Y-93975000I0J75000D01*
G01*
G37*
G36*
G01*
X159525000Y-93475000D02*
X159525000Y-93325000D01*
G75*
G02*
X159600000Y-93250000I75000J0D01*
G01*
X161050000Y-93250000D01*
G75*
G02*
X161125000Y-93325000I0J-75000D01*
G01*
X161125000Y-93475000D01*
G75*
G02*
X161050000Y-93550000I-75000J0D01*
G01*
X159600000Y-93550000D01*
G75*
G02*
X159525000Y-93475000I0J75000D01*
G01*
G37*
G36*
G01*
X159525000Y-92975000D02*
X159525000Y-92825000D01*
G75*
G02*
X159600000Y-92750000I75000J0D01*
G01*
X161050000Y-92750000D01*
G75*
G02*
X161125000Y-92825000I0J-75000D01*
G01*
X161125000Y-92975000D01*
G75*
G02*
X161050000Y-93050000I-75000J0D01*
G01*
X159600000Y-93050000D01*
G75*
G02*
X159525000Y-92975000I0J75000D01*
G01*
G37*
G36*
G01*
X159525000Y-92475000D02*
X159525000Y-92325000D01*
G75*
G02*
X159600000Y-92250000I75000J0D01*
G01*
X161050000Y-92250000D01*
G75*
G02*
X161125000Y-92325000I0J-75000D01*
G01*
X161125000Y-92475000D01*
G75*
G02*
X161050000Y-92550000I-75000J0D01*
G01*
X159600000Y-92550000D01*
G75*
G02*
X159525000Y-92475000I0J75000D01*
G01*
G37*
G36*
G01*
X159525000Y-91975000D02*
X159525000Y-91825000D01*
G75*
G02*
X159600000Y-91750000I75000J0D01*
G01*
X161050000Y-91750000D01*
G75*
G02*
X161125000Y-91825000I0J-75000D01*
G01*
X161125000Y-91975000D01*
G75*
G02*
X161050000Y-92050000I-75000J0D01*
G01*
X159600000Y-92050000D01*
G75*
G02*
X159525000Y-91975000I0J75000D01*
G01*
G37*
G36*
G01*
X159525000Y-91475000D02*
X159525000Y-91325000D01*
G75*
G02*
X159600000Y-91250000I75000J0D01*
G01*
X161050000Y-91250000D01*
G75*
G02*
X161125000Y-91325000I0J-75000D01*
G01*
X161125000Y-91475000D01*
G75*
G02*
X161050000Y-91550000I-75000J0D01*
G01*
X159600000Y-91550000D01*
G75*
G02*
X159525000Y-91475000I0J75000D01*
G01*
G37*
%TD*%
D18*
%TO.C,SW1*%
X149625000Y-93170000D03*
X149625000Y-98930000D03*
X145625000Y-98930000D03*
X145625000Y-93170000D03*
%TD*%
%TO.C,Rc_sbus2*%
G36*
G01*
X151562500Y-105150000D02*
X152037500Y-105150000D01*
G75*
G02*
X152275000Y-105387500I0J-237500D01*
G01*
X152275000Y-105962500D01*
G75*
G02*
X152037500Y-106200000I-237500J0D01*
G01*
X151562500Y-106200000D01*
G75*
G02*
X151325000Y-105962500I0J237500D01*
G01*
X151325000Y-105387500D01*
G75*
G02*
X151562500Y-105150000I237500J0D01*
G01*
G37*
G36*
G01*
X151562500Y-103400000D02*
X152037500Y-103400000D01*
G75*
G02*
X152275000Y-103637500I0J-237500D01*
G01*
X152275000Y-104212500D01*
G75*
G02*
X152037500Y-104450000I-237500J0D01*
G01*
X151562500Y-104450000D01*
G75*
G02*
X151325000Y-104212500I0J237500D01*
G01*
X151325000Y-103637500D01*
G75*
G02*
X151562500Y-103400000I237500J0D01*
G01*
G37*
%TD*%
%TO.C,Rc_sbus1*%
G36*
G01*
X156625000Y-107137500D02*
X156625000Y-106662500D01*
G75*
G02*
X156862500Y-106425000I237500J0D01*
G01*
X157437500Y-106425000D01*
G75*
G02*
X157675000Y-106662500I0J-237500D01*
G01*
X157675000Y-107137500D01*
G75*
G02*
X157437500Y-107375000I-237500J0D01*
G01*
X156862500Y-107375000D01*
G75*
G02*
X156625000Y-107137500I0J237500D01*
G01*
G37*
G36*
G01*
X154875000Y-107137500D02*
X154875000Y-106662500D01*
G75*
G02*
X155112500Y-106425000I237500J0D01*
G01*
X155687500Y-106425000D01*
G75*
G02*
X155925000Y-106662500I0J-237500D01*
G01*
X155925000Y-107137500D01*
G75*
G02*
X155687500Y-107375000I-237500J0D01*
G01*
X155112500Y-107375000D01*
G75*
G02*
X154875000Y-107137500I0J237500D01*
G01*
G37*
%TD*%
%TO.C,Rb_sbus1*%
G36*
G01*
X157112500Y-104900000D02*
X157587500Y-104900000D01*
G75*
G02*
X157825000Y-105137500I0J-237500D01*
G01*
X157825000Y-105712500D01*
G75*
G02*
X157587500Y-105950000I-237500J0D01*
G01*
X157112500Y-105950000D01*
G75*
G02*
X156875000Y-105712500I0J237500D01*
G01*
X156875000Y-105137500D01*
G75*
G02*
X157112500Y-104900000I237500J0D01*
G01*
G37*
G36*
G01*
X157112500Y-103150000D02*
X157587500Y-103150000D01*
G75*
G02*
X157825000Y-103387500I0J-237500D01*
G01*
X157825000Y-103962500D01*
G75*
G02*
X157587500Y-104200000I-237500J0D01*
G01*
X157112500Y-104200000D01*
G75*
G02*
X156875000Y-103962500I0J237500D01*
G01*
X156875000Y-103387500D01*
G75*
G02*
X157112500Y-103150000I237500J0D01*
G01*
G37*
%TD*%
%TO.C,R16*%
G36*
G01*
X177887500Y-79456250D02*
X177887500Y-78943750D01*
G75*
G02*
X178106250Y-78725000I218750J0D01*
G01*
X178543750Y-78725000D01*
G75*
G02*
X178762500Y-78943750I0J-218750D01*
G01*
X178762500Y-79456250D01*
G75*
G02*
X178543750Y-79675000I-218750J0D01*
G01*
X178106250Y-79675000D01*
G75*
G02*
X177887500Y-79456250I0J218750D01*
G01*
G37*
G36*
G01*
X176312500Y-79456250D02*
X176312500Y-78943750D01*
G75*
G02*
X176531250Y-78725000I218750J0D01*
G01*
X176968750Y-78725000D01*
G75*
G02*
X177187500Y-78943750I0J-218750D01*
G01*
X177187500Y-79456250D01*
G75*
G02*
X176968750Y-79675000I-218750J0D01*
G01*
X176531250Y-79675000D01*
G75*
G02*
X176312500Y-79456250I0J218750D01*
G01*
G37*
%TD*%
%TO.C,R10*%
G36*
G01*
X181275000Y-97012500D02*
X181275000Y-96537500D01*
G75*
G02*
X181512500Y-96300000I237500J0D01*
G01*
X182087500Y-96300000D01*
G75*
G02*
X182325000Y-96537500I0J-237500D01*
G01*
X182325000Y-97012500D01*
G75*
G02*
X182087500Y-97250000I-237500J0D01*
G01*
X181512500Y-97250000D01*
G75*
G02*
X181275000Y-97012500I0J237500D01*
G01*
G37*
G36*
G01*
X179525000Y-97012500D02*
X179525000Y-96537500D01*
G75*
G02*
X179762500Y-96300000I237500J0D01*
G01*
X180337500Y-96300000D01*
G75*
G02*
X180575000Y-96537500I0J-237500D01*
G01*
X180575000Y-97012500D01*
G75*
G02*
X180337500Y-97250000I-237500J0D01*
G01*
X179762500Y-97250000D01*
G75*
G02*
X179525000Y-97012500I0J237500D01*
G01*
G37*
%TD*%
%TO.C,R6*%
G36*
G01*
X156675000Y-111312500D02*
X156675000Y-110837500D01*
G75*
G02*
X156912500Y-110600000I237500J0D01*
G01*
X157487500Y-110600000D01*
G75*
G02*
X157725000Y-110837500I0J-237500D01*
G01*
X157725000Y-111312500D01*
G75*
G02*
X157487500Y-111550000I-237500J0D01*
G01*
X156912500Y-111550000D01*
G75*
G02*
X156675000Y-111312500I0J237500D01*
G01*
G37*
G36*
G01*
X154925000Y-111312500D02*
X154925000Y-110837500D01*
G75*
G02*
X155162500Y-110600000I237500J0D01*
G01*
X155737500Y-110600000D01*
G75*
G02*
X155975000Y-110837500I0J-237500D01*
G01*
X155975000Y-111312500D01*
G75*
G02*
X155737500Y-111550000I-237500J0D01*
G01*
X155162500Y-111550000D01*
G75*
G02*
X154925000Y-111312500I0J237500D01*
G01*
G37*
%TD*%
%TO.C,R5*%
G36*
G01*
X155975000Y-112337500D02*
X155975000Y-112812500D01*
G75*
G02*
X155737500Y-113050000I-237500J0D01*
G01*
X155162500Y-113050000D01*
G75*
G02*
X154925000Y-112812500I0J237500D01*
G01*
X154925000Y-112337500D01*
G75*
G02*
X155162500Y-112100000I237500J0D01*
G01*
X155737500Y-112100000D01*
G75*
G02*
X155975000Y-112337500I0J-237500D01*
G01*
G37*
G36*
G01*
X157725000Y-112337500D02*
X157725000Y-112812500D01*
G75*
G02*
X157487500Y-113050000I-237500J0D01*
G01*
X156912500Y-113050000D01*
G75*
G02*
X156675000Y-112812500I0J237500D01*
G01*
X156675000Y-112337500D01*
G75*
G02*
X156912500Y-112100000I237500J0D01*
G01*
X157487500Y-112100000D01*
G75*
G02*
X157725000Y-112337500I0J-237500D01*
G01*
G37*
%TD*%
%TO.C,R1*%
G36*
G01*
X151343750Y-95225000D02*
X151856250Y-95225000D01*
G75*
G02*
X152075000Y-95443750I0J-218750D01*
G01*
X152075000Y-95881250D01*
G75*
G02*
X151856250Y-96100000I-218750J0D01*
G01*
X151343750Y-96100000D01*
G75*
G02*
X151125000Y-95881250I0J218750D01*
G01*
X151125000Y-95443750D01*
G75*
G02*
X151343750Y-95225000I218750J0D01*
G01*
G37*
G36*
G01*
X151343750Y-93650000D02*
X151856250Y-93650000D01*
G75*
G02*
X152075000Y-93868750I0J-218750D01*
G01*
X152075000Y-94306250D01*
G75*
G02*
X151856250Y-94525000I-218750J0D01*
G01*
X151343750Y-94525000D01*
G75*
G02*
X151125000Y-94306250I0J218750D01*
G01*
X151125000Y-93868750D01*
G75*
G02*
X151343750Y-93650000I218750J0D01*
G01*
G37*
%TD*%
D19*
%TO.C,Q2*%
X153340000Y-104630000D03*
X155340000Y-103680000D03*
X155340000Y-105580000D03*
%TD*%
%TO.C,D6*%
G36*
G01*
X180600000Y-95087500D02*
X180600000Y-95562500D01*
G75*
G02*
X180362500Y-95800000I-237500J0D01*
G01*
X179787500Y-95800000D01*
G75*
G02*
X179550000Y-95562500I0J237500D01*
G01*
X179550000Y-95087500D01*
G75*
G02*
X179787500Y-94850000I237500J0D01*
G01*
X180362500Y-94850000D01*
G75*
G02*
X180600000Y-95087500I0J-237500D01*
G01*
G37*
G36*
G01*
X182350000Y-95087500D02*
X182350000Y-95562500D01*
G75*
G02*
X182112500Y-95800000I-237500J0D01*
G01*
X181537500Y-95800000D01*
G75*
G02*
X181300000Y-95562500I0J237500D01*
G01*
X181300000Y-95087500D01*
G75*
G02*
X181537500Y-94850000I237500J0D01*
G01*
X182112500Y-94850000D01*
G75*
G02*
X182350000Y-95087500I0J-237500D01*
G01*
G37*
%TD*%
%TO.C,C40*%
G36*
G01*
X158797500Y-101185000D02*
X158452500Y-101185000D01*
G75*
G02*
X158305000Y-101037500I0J147500D01*
G01*
X158305000Y-100742500D01*
G75*
G02*
X158452500Y-100595000I147500J0D01*
G01*
X158797500Y-100595000D01*
G75*
G02*
X158945000Y-100742500I0J-147500D01*
G01*
X158945000Y-101037500D01*
G75*
G02*
X158797500Y-101185000I-147500J0D01*
G01*
G37*
G36*
G01*
X158797500Y-102155000D02*
X158452500Y-102155000D01*
G75*
G02*
X158305000Y-102007500I0J147500D01*
G01*
X158305000Y-101712500D01*
G75*
G02*
X158452500Y-101565000I147500J0D01*
G01*
X158797500Y-101565000D01*
G75*
G02*
X158945000Y-101712500I0J-147500D01*
G01*
X158945000Y-102007500D01*
G75*
G02*
X158797500Y-102155000I-147500J0D01*
G01*
G37*
%TD*%
%TO.C,C37*%
G36*
G01*
X182200000Y-84612500D02*
X182200000Y-85087500D01*
G75*
G02*
X181962500Y-85325000I-237500J0D01*
G01*
X181387500Y-85325000D01*
G75*
G02*
X181150000Y-85087500I0J237500D01*
G01*
X181150000Y-84612500D01*
G75*
G02*
X181387500Y-84375000I237500J0D01*
G01*
X181962500Y-84375000D01*
G75*
G02*
X182200000Y-84612500I0J-237500D01*
G01*
G37*
G36*
G01*
X183950000Y-84612500D02*
X183950000Y-85087500D01*
G75*
G02*
X183712500Y-85325000I-237500J0D01*
G01*
X183137500Y-85325000D01*
G75*
G02*
X182900000Y-85087500I0J237500D01*
G01*
X182900000Y-84612500D01*
G75*
G02*
X183137500Y-84375000I237500J0D01*
G01*
X183712500Y-84375000D01*
G75*
G02*
X183950000Y-84612500I0J-237500D01*
G01*
G37*
%TD*%
%TO.C,C36*%
G36*
G01*
X185287500Y-87025000D02*
X184812500Y-87025000D01*
G75*
G02*
X184575000Y-86787500I0J237500D01*
G01*
X184575000Y-86212500D01*
G75*
G02*
X184812500Y-85975000I237500J0D01*
G01*
X185287500Y-85975000D01*
G75*
G02*
X185525000Y-86212500I0J-237500D01*
G01*
X185525000Y-86787500D01*
G75*
G02*
X185287500Y-87025000I-237500J0D01*
G01*
G37*
G36*
G01*
X185287500Y-88775000D02*
X184812500Y-88775000D01*
G75*
G02*
X184575000Y-88537500I0J237500D01*
G01*
X184575000Y-87962500D01*
G75*
G02*
X184812500Y-87725000I237500J0D01*
G01*
X185287500Y-87725000D01*
G75*
G02*
X185525000Y-87962500I0J-237500D01*
G01*
X185525000Y-88537500D01*
G75*
G02*
X185287500Y-88775000I-237500J0D01*
G01*
G37*
%TD*%
%TO.C,C35*%
G36*
G01*
X187425000Y-86675000D02*
X186175000Y-86675000D01*
G75*
G02*
X185925000Y-86425000I0J250000D01*
G01*
X185925000Y-85675000D01*
G75*
G02*
X186175000Y-85425000I250000J0D01*
G01*
X187425000Y-85425000D01*
G75*
G02*
X187675000Y-85675000I0J-250000D01*
G01*
X187675000Y-86425000D01*
G75*
G02*
X187425000Y-86675000I-250000J0D01*
G01*
G37*
G36*
G01*
X187425000Y-89475000D02*
X186175000Y-89475000D01*
G75*
G02*
X185925000Y-89225000I0J250000D01*
G01*
X185925000Y-88475000D01*
G75*
G02*
X186175000Y-88225000I250000J0D01*
G01*
X187425000Y-88225000D01*
G75*
G02*
X187675000Y-88475000I0J-250000D01*
G01*
X187675000Y-89225000D01*
G75*
G02*
X187425000Y-89475000I-250000J0D01*
G01*
G37*
%TD*%
%TO.C,C34*%
G36*
G01*
X181325000Y-106031250D02*
X181325000Y-105518750D01*
G75*
G02*
X181543750Y-105300000I218750J0D01*
G01*
X181981250Y-105300000D01*
G75*
G02*
X182200000Y-105518750I0J-218750D01*
G01*
X182200000Y-106031250D01*
G75*
G02*
X181981250Y-106250000I-218750J0D01*
G01*
X181543750Y-106250000D01*
G75*
G02*
X181325000Y-106031250I0J218750D01*
G01*
G37*
G36*
G01*
X179750000Y-106031250D02*
X179750000Y-105518750D01*
G75*
G02*
X179968750Y-105300000I218750J0D01*
G01*
X180406250Y-105300000D01*
G75*
G02*
X180625000Y-105518750I0J-218750D01*
G01*
X180625000Y-106031250D01*
G75*
G02*
X180406250Y-106250000I-218750J0D01*
G01*
X179968750Y-106250000D01*
G75*
G02*
X179750000Y-106031250I0J218750D01*
G01*
G37*
%TD*%
%TO.C,C31*%
G36*
G01*
X176737500Y-112100000D02*
X176262500Y-112100000D01*
G75*
G02*
X176025000Y-111862500I0J237500D01*
G01*
X176025000Y-111287500D01*
G75*
G02*
X176262500Y-111050000I237500J0D01*
G01*
X176737500Y-111050000D01*
G75*
G02*
X176975000Y-111287500I0J-237500D01*
G01*
X176975000Y-111862500D01*
G75*
G02*
X176737500Y-112100000I-237500J0D01*
G01*
G37*
G36*
G01*
X176737500Y-113850000D02*
X176262500Y-113850000D01*
G75*
G02*
X176025000Y-113612500I0J237500D01*
G01*
X176025000Y-113037500D01*
G75*
G02*
X176262500Y-112800000I237500J0D01*
G01*
X176737500Y-112800000D01*
G75*
G02*
X176975000Y-113037500I0J-237500D01*
G01*
X176975000Y-113612500D01*
G75*
G02*
X176737500Y-113850000I-237500J0D01*
G01*
G37*
%TD*%
%TO.C,C30*%
G36*
G01*
X185412500Y-112375000D02*
X184937500Y-112375000D01*
G75*
G02*
X184700000Y-112137500I0J237500D01*
G01*
X184700000Y-111562500D01*
G75*
G02*
X184937500Y-111325000I237500J0D01*
G01*
X185412500Y-111325000D01*
G75*
G02*
X185650000Y-111562500I0J-237500D01*
G01*
X185650000Y-112137500D01*
G75*
G02*
X185412500Y-112375000I-237500J0D01*
G01*
G37*
G36*
G01*
X185412500Y-114125000D02*
X184937500Y-114125000D01*
G75*
G02*
X184700000Y-113887500I0J237500D01*
G01*
X184700000Y-113312500D01*
G75*
G02*
X184937500Y-113075000I237500J0D01*
G01*
X185412500Y-113075000D01*
G75*
G02*
X185650000Y-113312500I0J-237500D01*
G01*
X185650000Y-113887500D01*
G75*
G02*
X185412500Y-114125000I-237500J0D01*
G01*
G37*
%TD*%
%TO.C,C29*%
G36*
G01*
X176762500Y-116300000D02*
X176287500Y-116300000D01*
G75*
G02*
X176050000Y-116062500I0J237500D01*
G01*
X176050000Y-115487500D01*
G75*
G02*
X176287500Y-115250000I237500J0D01*
G01*
X176762500Y-115250000D01*
G75*
G02*
X177000000Y-115487500I0J-237500D01*
G01*
X177000000Y-116062500D01*
G75*
G02*
X176762500Y-116300000I-237500J0D01*
G01*
G37*
G36*
G01*
X176762500Y-118050000D02*
X176287500Y-118050000D01*
G75*
G02*
X176050000Y-117812500I0J237500D01*
G01*
X176050000Y-117237500D01*
G75*
G02*
X176287500Y-117000000I237500J0D01*
G01*
X176762500Y-117000000D01*
G75*
G02*
X177000000Y-117237500I0J-237500D01*
G01*
X177000000Y-117812500D01*
G75*
G02*
X176762500Y-118050000I-237500J0D01*
G01*
G37*
%TD*%
%TO.C,C28*%
G36*
G01*
X181487500Y-117100000D02*
X181962500Y-117100000D01*
G75*
G02*
X182200000Y-117337500I0J-237500D01*
G01*
X182200000Y-117912500D01*
G75*
G02*
X181962500Y-118150000I-237500J0D01*
G01*
X181487500Y-118150000D01*
G75*
G02*
X181250000Y-117912500I0J237500D01*
G01*
X181250000Y-117337500D01*
G75*
G02*
X181487500Y-117100000I237500J0D01*
G01*
G37*
G36*
G01*
X181487500Y-115350000D02*
X181962500Y-115350000D01*
G75*
G02*
X182200000Y-115587500I0J-237500D01*
G01*
X182200000Y-116162500D01*
G75*
G02*
X181962500Y-116400000I-237500J0D01*
G01*
X181487500Y-116400000D01*
G75*
G02*
X181250000Y-116162500I0J237500D01*
G01*
X181250000Y-115587500D01*
G75*
G02*
X181487500Y-115350000I237500J0D01*
G01*
G37*
%TD*%
%TO.C,C21*%
G36*
G01*
X176568750Y-84125000D02*
X177081250Y-84125000D01*
G75*
G02*
X177300000Y-84343750I0J-218750D01*
G01*
X177300000Y-84781250D01*
G75*
G02*
X177081250Y-85000000I-218750J0D01*
G01*
X176568750Y-85000000D01*
G75*
G02*
X176350000Y-84781250I0J218750D01*
G01*
X176350000Y-84343750D01*
G75*
G02*
X176568750Y-84125000I218750J0D01*
G01*
G37*
G36*
G01*
X176568750Y-82550000D02*
X177081250Y-82550000D01*
G75*
G02*
X177300000Y-82768750I0J-218750D01*
G01*
X177300000Y-83206250D01*
G75*
G02*
X177081250Y-83425000I-218750J0D01*
G01*
X176568750Y-83425000D01*
G75*
G02*
X176350000Y-83206250I0J218750D01*
G01*
X176350000Y-82768750D01*
G75*
G02*
X176568750Y-82550000I218750J0D01*
G01*
G37*
%TD*%
%TO.C,C14*%
G36*
G01*
X160810000Y-106927500D02*
X160810000Y-107272500D01*
G75*
G02*
X160662500Y-107420000I-147500J0D01*
G01*
X160367500Y-107420000D01*
G75*
G02*
X160220000Y-107272500I0J147500D01*
G01*
X160220000Y-106927500D01*
G75*
G02*
X160367500Y-106780000I147500J0D01*
G01*
X160662500Y-106780000D01*
G75*
G02*
X160810000Y-106927500I0J-147500D01*
G01*
G37*
G36*
G01*
X161780000Y-106927500D02*
X161780000Y-107272500D01*
G75*
G02*
X161632500Y-107420000I-147500J0D01*
G01*
X161337500Y-107420000D01*
G75*
G02*
X161190000Y-107272500I0J147500D01*
G01*
X161190000Y-106927500D01*
G75*
G02*
X161337500Y-106780000I147500J0D01*
G01*
X161632500Y-106780000D01*
G75*
G02*
X161780000Y-106927500I0J-147500D01*
G01*
G37*
%TD*%
%TO.C,C13*%
G36*
G01*
X176465000Y-89797500D02*
X176465000Y-89452500D01*
G75*
G02*
X176612500Y-89305000I147500J0D01*
G01*
X176907500Y-89305000D01*
G75*
G02*
X177055000Y-89452500I0J-147500D01*
G01*
X177055000Y-89797500D01*
G75*
G02*
X176907500Y-89945000I-147500J0D01*
G01*
X176612500Y-89945000D01*
G75*
G02*
X176465000Y-89797500I0J147500D01*
G01*
G37*
G36*
G01*
X175495000Y-89797500D02*
X175495000Y-89452500D01*
G75*
G02*
X175642500Y-89305000I147500J0D01*
G01*
X175937500Y-89305000D01*
G75*
G02*
X176085000Y-89452500I0J-147500D01*
G01*
X176085000Y-89797500D01*
G75*
G02*
X175937500Y-89945000I-147500J0D01*
G01*
X175642500Y-89945000D01*
G75*
G02*
X175495000Y-89797500I0J147500D01*
G01*
G37*
%TD*%
%TO.C,C10*%
G36*
G01*
X157522500Y-95435000D02*
X157177500Y-95435000D01*
G75*
G02*
X157030000Y-95287500I0J147500D01*
G01*
X157030000Y-94992500D01*
G75*
G02*
X157177500Y-94845000I147500J0D01*
G01*
X157522500Y-94845000D01*
G75*
G02*
X157670000Y-94992500I0J-147500D01*
G01*
X157670000Y-95287500D01*
G75*
G02*
X157522500Y-95435000I-147500J0D01*
G01*
G37*
G36*
G01*
X157522500Y-96405000D02*
X157177500Y-96405000D01*
G75*
G02*
X157030000Y-96257500I0J147500D01*
G01*
X157030000Y-95962500D01*
G75*
G02*
X157177500Y-95815000I147500J0D01*
G01*
X157522500Y-95815000D01*
G75*
G02*
X157670000Y-95962500I0J-147500D01*
G01*
X157670000Y-96257500D01*
G75*
G02*
X157522500Y-96405000I-147500J0D01*
G01*
G37*
%TD*%
%TO.C,C9*%
G36*
G01*
X157647500Y-101185000D02*
X157302500Y-101185000D01*
G75*
G02*
X157155000Y-101037500I0J147500D01*
G01*
X157155000Y-100742500D01*
G75*
G02*
X157302500Y-100595000I147500J0D01*
G01*
X157647500Y-100595000D01*
G75*
G02*
X157795000Y-100742500I0J-147500D01*
G01*
X157795000Y-101037500D01*
G75*
G02*
X157647500Y-101185000I-147500J0D01*
G01*
G37*
G36*
G01*
X157647500Y-102155000D02*
X157302500Y-102155000D01*
G75*
G02*
X157155000Y-102007500I0J147500D01*
G01*
X157155000Y-101712500D01*
G75*
G02*
X157302500Y-101565000I147500J0D01*
G01*
X157647500Y-101565000D01*
G75*
G02*
X157795000Y-101712500I0J-147500D01*
G01*
X157795000Y-102007500D01*
G75*
G02*
X157647500Y-102155000I-147500J0D01*
G01*
G37*
%TD*%
%TO.C,C8*%
G36*
G01*
X175902500Y-105190000D02*
X176247500Y-105190000D01*
G75*
G02*
X176395000Y-105337500I0J-147500D01*
G01*
X176395000Y-105632500D01*
G75*
G02*
X176247500Y-105780000I-147500J0D01*
G01*
X175902500Y-105780000D01*
G75*
G02*
X175755000Y-105632500I0J147500D01*
G01*
X175755000Y-105337500D01*
G75*
G02*
X175902500Y-105190000I147500J0D01*
G01*
G37*
G36*
G01*
X175902500Y-104220000D02*
X176247500Y-104220000D01*
G75*
G02*
X176395000Y-104367500I0J-147500D01*
G01*
X176395000Y-104662500D01*
G75*
G02*
X176247500Y-104810000I-147500J0D01*
G01*
X175902500Y-104810000D01*
G75*
G02*
X175755000Y-104662500I0J147500D01*
G01*
X175755000Y-104367500D01*
G75*
G02*
X175902500Y-104220000I147500J0D01*
G01*
G37*
%TD*%
%TO.C,C7*%
G36*
G01*
X151318750Y-98175000D02*
X151831250Y-98175000D01*
G75*
G02*
X152050000Y-98393750I0J-218750D01*
G01*
X152050000Y-98831250D01*
G75*
G02*
X151831250Y-99050000I-218750J0D01*
G01*
X151318750Y-99050000D01*
G75*
G02*
X151100000Y-98831250I0J218750D01*
G01*
X151100000Y-98393750D01*
G75*
G02*
X151318750Y-98175000I218750J0D01*
G01*
G37*
G36*
G01*
X151318750Y-96600000D02*
X151831250Y-96600000D01*
G75*
G02*
X152050000Y-96818750I0J-218750D01*
G01*
X152050000Y-97256250D01*
G75*
G02*
X151831250Y-97475000I-218750J0D01*
G01*
X151318750Y-97475000D01*
G75*
G02*
X151100000Y-97256250I0J218750D01*
G01*
X151100000Y-96818750D01*
G75*
G02*
X151318750Y-96600000I218750J0D01*
G01*
G37*
%TD*%
%TO.C,C6*%
G36*
G01*
X156547500Y-91610000D02*
X156202500Y-91610000D01*
G75*
G02*
X156055000Y-91462500I0J147500D01*
G01*
X156055000Y-91167500D01*
G75*
G02*
X156202500Y-91020000I147500J0D01*
G01*
X156547500Y-91020000D01*
G75*
G02*
X156695000Y-91167500I0J-147500D01*
G01*
X156695000Y-91462500D01*
G75*
G02*
X156547500Y-91610000I-147500J0D01*
G01*
G37*
G36*
G01*
X156547500Y-92580000D02*
X156202500Y-92580000D01*
G75*
G02*
X156055000Y-92432500I0J147500D01*
G01*
X156055000Y-92137500D01*
G75*
G02*
X156202500Y-91990000I147500J0D01*
G01*
X156547500Y-91990000D01*
G75*
G02*
X156695000Y-92137500I0J-147500D01*
G01*
X156695000Y-92432500D01*
G75*
G02*
X156547500Y-92580000I-147500J0D01*
G01*
G37*
%TD*%
%TO.C,C5*%
G36*
G01*
X161840000Y-88222500D02*
X161840000Y-87877500D01*
G75*
G02*
X161987500Y-87730000I147500J0D01*
G01*
X162282500Y-87730000D01*
G75*
G02*
X162430000Y-87877500I0J-147500D01*
G01*
X162430000Y-88222500D01*
G75*
G02*
X162282500Y-88370000I-147500J0D01*
G01*
X161987500Y-88370000D01*
G75*
G02*
X161840000Y-88222500I0J147500D01*
G01*
G37*
G36*
G01*
X160870000Y-88222500D02*
X160870000Y-87877500D01*
G75*
G02*
X161017500Y-87730000I147500J0D01*
G01*
X161312500Y-87730000D01*
G75*
G02*
X161460000Y-87877500I0J-147500D01*
G01*
X161460000Y-88222500D01*
G75*
G02*
X161312500Y-88370000I-147500J0D01*
G01*
X161017500Y-88370000D01*
G75*
G02*
X160870000Y-88222500I0J147500D01*
G01*
G37*
%TD*%
%TO.C,C4*%
G36*
G01*
X154290000Y-99997500D02*
X154290000Y-99652500D01*
G75*
G02*
X154437500Y-99505000I147500J0D01*
G01*
X154732500Y-99505000D01*
G75*
G02*
X154880000Y-99652500I0J-147500D01*
G01*
X154880000Y-99997500D01*
G75*
G02*
X154732500Y-100145000I-147500J0D01*
G01*
X154437500Y-100145000D01*
G75*
G02*
X154290000Y-99997500I0J147500D01*
G01*
G37*
G36*
G01*
X153320000Y-99997500D02*
X153320000Y-99652500D01*
G75*
G02*
X153467500Y-99505000I147500J0D01*
G01*
X153762500Y-99505000D01*
G75*
G02*
X153910000Y-99652500I0J-147500D01*
G01*
X153910000Y-99997500D01*
G75*
G02*
X153762500Y-100145000I-147500J0D01*
G01*
X153467500Y-100145000D01*
G75*
G02*
X153320000Y-99997500I0J147500D01*
G01*
G37*
%TD*%
%TO.C,C2*%
G36*
G01*
X153920000Y-93977500D02*
X153920000Y-94322500D01*
G75*
G02*
X153772500Y-94470000I-147500J0D01*
G01*
X153477500Y-94470000D01*
G75*
G02*
X153330000Y-94322500I0J147500D01*
G01*
X153330000Y-93977500D01*
G75*
G02*
X153477500Y-93830000I147500J0D01*
G01*
X153772500Y-93830000D01*
G75*
G02*
X153920000Y-93977500I0J-147500D01*
G01*
G37*
G36*
G01*
X154890000Y-93977500D02*
X154890000Y-94322500D01*
G75*
G02*
X154742500Y-94470000I-147500J0D01*
G01*
X154447500Y-94470000D01*
G75*
G02*
X154300000Y-94322500I0J147500D01*
G01*
X154300000Y-93977500D01*
G75*
G02*
X154447500Y-93830000I147500J0D01*
G01*
X154742500Y-93830000D01*
G75*
G02*
X154890000Y-93977500I0J-147500D01*
G01*
G37*
%TD*%
M02*
