%TF.GenerationSoftware,KiCad,Pcbnew,(5.99.0-3293-g62433736b)*%
%TF.CreationDate,2020-09-21T11:37:00+07:00*%
%TF.ProjectId,IMU_board,494d555f-626f-4617-9264-2e6b69636164,rev?*%
%TF.SameCoordinates,Original*%
%TF.FileFunction,Copper,L1,Top*%
%TF.FilePolarity,Positive*%
%FSLAX46Y46*%
G04 Gerber Fmt 4.6, Leading zero omitted, Abs format (unit mm)*
G04 Created by KiCad (PCBNEW (5.99.0-3293-g62433736b)) date 2020-09-21 11:37:00*
%MOMM*%
%LPD*%
G01*
G04 APERTURE LIST*
%TA.AperFunction,SMDPad,CuDef*%
%ADD10R,0.900000X0.800000*%
%TD*%
%TA.AperFunction,SMDPad,CuDef*%
%ADD11R,1.060000X0.650000*%
%TD*%
%TA.AperFunction,ComponentPad*%
%ADD12R,1.700000X1.700000*%
%TD*%
%TA.AperFunction,ComponentPad*%
%ADD13O,1.700000X1.700000*%
%TD*%
%TA.AperFunction,ViaPad*%
%ADD14C,0.800000*%
%TD*%
%TA.AperFunction,ViaPad*%
%ADD15C,3.300000*%
%TD*%
%TA.AperFunction,Conductor*%
%ADD16C,0.250000*%
%TD*%
%TA.AperFunction,Conductor*%
%ADD17C,0.152400*%
%TD*%
%TA.AperFunction,Conductor*%
%ADD18C,0.500000*%
%TD*%
%TA.AperFunction,Conductor*%
%ADD19C,1.000000*%
%TD*%
G04 APERTURE END LIST*
%TO.P,C15,1*%
%TO.N,+3V3*%
%TA.AperFunction,SMDPad,CuDef*%
G36*
G01*
X134737500Y-108250000D02*
X135212500Y-108250000D01*
G75*
G02*
X135450000Y-108487500I0J-237500D01*
G01*
X135450000Y-109062500D01*
G75*
G02*
X135212500Y-109300000I-237500J0D01*
G01*
X134737500Y-109300000D01*
G75*
G02*
X134500000Y-109062500I0J237500D01*
G01*
X134500000Y-108487500D01*
G75*
G02*
X134737500Y-108250000I237500J0D01*
G01*
G37*
%TD.AperFunction*%
%TO.P,C15,2*%
%TO.N,GND*%
%TA.AperFunction,SMDPad,CuDef*%
G36*
G01*
X134737500Y-110000000D02*
X135212500Y-110000000D01*
G75*
G02*
X135450000Y-110237500I0J-237500D01*
G01*
X135450000Y-110812500D01*
G75*
G02*
X135212500Y-111050000I-237500J0D01*
G01*
X134737500Y-111050000D01*
G75*
G02*
X134500000Y-110812500I0J237500D01*
G01*
X134500000Y-110237500D01*
G75*
G02*
X134737500Y-110000000I237500J0D01*
G01*
G37*
%TD.AperFunction*%
%TD*%
D10*
%TO.P,Q4,1,G*%
%TO.N,+1V8*%
X133452500Y-98207500D03*
%TO.P,Q4,2,S*%
%TO.N,IMU_MISO*%
X133452500Y-96307500D03*
%TO.P,Q4,3,D*%
%TO.N,IMU_MISO_3.3v*%
X131452500Y-97257500D03*
%TD*%
D11*
%TO.P,U7,1,IN*%
%TO.N,+3V3*%
X140500000Y-108700000D03*
%TO.P,U7,2,GND*%
%TO.N,GND*%
X140500000Y-109650000D03*
%TO.P,U7,3,EN*%
%TO.N,+3V3*%
X140500000Y-110600000D03*
%TO.P,U7,4,NC*%
%TO.N,Net-(U7-Pad4)*%
X142700000Y-110600000D03*
%TO.P,U7,5,OUT*%
%TO.N,+1V8*%
X142700000Y-108700000D03*
%TD*%
%TO.P,R1,1*%
%TO.N,LED*%
%TA.AperFunction,SMDPad,CuDef*%
G36*
G01*
X148150000Y-105437500D02*
X148150000Y-104962500D01*
G75*
G02*
X148387500Y-104725000I237500J0D01*
G01*
X148962500Y-104725000D01*
G75*
G02*
X149200000Y-104962500I0J-237500D01*
G01*
X149200000Y-105437500D01*
G75*
G02*
X148962500Y-105675000I-237500J0D01*
G01*
X148387500Y-105675000D01*
G75*
G02*
X148150000Y-105437500I0J237500D01*
G01*
G37*
%TD.AperFunction*%
%TO.P,R1,2*%
%TO.N,GND*%
%TA.AperFunction,SMDPad,CuDef*%
G36*
G01*
X149900000Y-105437500D02*
X149900000Y-104962500D01*
G75*
G02*
X150137500Y-104725000I237500J0D01*
G01*
X150712500Y-104725000D01*
G75*
G02*
X150950000Y-104962500I0J-237500D01*
G01*
X150950000Y-105437500D01*
G75*
G02*
X150712500Y-105675000I-237500J0D01*
G01*
X150137500Y-105675000D01*
G75*
G02*
X149900000Y-105437500I0J237500D01*
G01*
G37*
%TD.AperFunction*%
%TD*%
%TO.P,C14,1*%
%TO.N,+3V3*%
%TA.AperFunction,SMDPad,CuDef*%
G36*
G01*
X146075000Y-101931250D02*
X146075000Y-101418750D01*
G75*
G02*
X146293750Y-101200000I218750J0D01*
G01*
X146731250Y-101200000D01*
G75*
G02*
X146950000Y-101418750I0J-218750D01*
G01*
X146950000Y-101931250D01*
G75*
G02*
X146731250Y-102150000I-218750J0D01*
G01*
X146293750Y-102150000D01*
G75*
G02*
X146075000Y-101931250I0J218750D01*
G01*
G37*
%TD.AperFunction*%
%TO.P,C14,2*%
%TO.N,GND*%
%TA.AperFunction,SMDPad,CuDef*%
G36*
G01*
X147650000Y-101931250D02*
X147650000Y-101418750D01*
G75*
G02*
X147868750Y-101200000I218750J0D01*
G01*
X148306250Y-101200000D01*
G75*
G02*
X148525000Y-101418750I0J-218750D01*
G01*
X148525000Y-101931250D01*
G75*
G02*
X148306250Y-102150000I-218750J0D01*
G01*
X147868750Y-102150000D01*
G75*
G02*
X147650000Y-101931250I0J218750D01*
G01*
G37*
%TD.AperFunction*%
%TD*%
%TO.P,R9,1*%
%TO.N,+3V3*%
%TA.AperFunction,SMDPad,CuDef*%
G36*
G01*
X128990000Y-95682500D02*
X129465000Y-95682500D01*
G75*
G02*
X129702500Y-95920000I0J-237500D01*
G01*
X129702500Y-96495000D01*
G75*
G02*
X129465000Y-96732500I-237500J0D01*
G01*
X128990000Y-96732500D01*
G75*
G02*
X128752500Y-96495000I0J237500D01*
G01*
X128752500Y-95920000D01*
G75*
G02*
X128990000Y-95682500I237500J0D01*
G01*
G37*
%TD.AperFunction*%
%TO.P,R9,2*%
%TO.N,IMU_MISO_3.3v*%
%TA.AperFunction,SMDPad,CuDef*%
G36*
G01*
X128990000Y-97432500D02*
X129465000Y-97432500D01*
G75*
G02*
X129702500Y-97670000I0J-237500D01*
G01*
X129702500Y-98245000D01*
G75*
G02*
X129465000Y-98482500I-237500J0D01*
G01*
X128990000Y-98482500D01*
G75*
G02*
X128752500Y-98245000I0J237500D01*
G01*
X128752500Y-97670000D01*
G75*
G02*
X128990000Y-97432500I237500J0D01*
G01*
G37*
%TD.AperFunction*%
%TD*%
%TO.P,D1,1,K*%
%TO.N,LED*%
%TA.AperFunction,SMDPad,CuDef*%
G36*
G01*
X148125000Y-103837500D02*
X148125000Y-103362500D01*
G75*
G02*
X148362500Y-103125000I237500J0D01*
G01*
X148937500Y-103125000D01*
G75*
G02*
X149175000Y-103362500I0J-237500D01*
G01*
X149175000Y-103837500D01*
G75*
G02*
X148937500Y-104075000I-237500J0D01*
G01*
X148362500Y-104075000D01*
G75*
G02*
X148125000Y-103837500I0J237500D01*
G01*
G37*
%TD.AperFunction*%
%TO.P,D1,2,A*%
%TO.N,+3V3*%
%TA.AperFunction,SMDPad,CuDef*%
G36*
G01*
X149875000Y-103837500D02*
X149875000Y-103362500D01*
G75*
G02*
X150112500Y-103125000I237500J0D01*
G01*
X150687500Y-103125000D01*
G75*
G02*
X150925000Y-103362500I0J-237500D01*
G01*
X150925000Y-103837500D01*
G75*
G02*
X150687500Y-104075000I-237500J0D01*
G01*
X150112500Y-104075000D01*
G75*
G02*
X149875000Y-103837500I0J237500D01*
G01*
G37*
%TD.AperFunction*%
%TD*%
%TO.P,R7,1*%
%TO.N,+1V8*%
%TA.AperFunction,SMDPad,CuDef*%
G36*
G01*
X135465000Y-98557500D02*
X134990000Y-98557500D01*
G75*
G02*
X134752500Y-98320000I0J237500D01*
G01*
X134752500Y-97745000D01*
G75*
G02*
X134990000Y-97507500I237500J0D01*
G01*
X135465000Y-97507500D01*
G75*
G02*
X135702500Y-97745000I0J-237500D01*
G01*
X135702500Y-98320000D01*
G75*
G02*
X135465000Y-98557500I-237500J0D01*
G01*
G37*
%TD.AperFunction*%
%TO.P,R7,2*%
%TO.N,IMU_MISO*%
%TA.AperFunction,SMDPad,CuDef*%
G36*
G01*
X135465000Y-96807500D02*
X134990000Y-96807500D01*
G75*
G02*
X134752500Y-96570000I0J237500D01*
G01*
X134752500Y-95995000D01*
G75*
G02*
X134990000Y-95757500I237500J0D01*
G01*
X135465000Y-95757500D01*
G75*
G02*
X135702500Y-95995000I0J-237500D01*
G01*
X135702500Y-96570000D01*
G75*
G02*
X135465000Y-96807500I-237500J0D01*
G01*
G37*
%TD.AperFunction*%
%TD*%
%TO.P,C17,1*%
%TO.N,+3V3*%
%TA.AperFunction,SMDPad,CuDef*%
G36*
G01*
X150500000Y-97275000D02*
X149250000Y-97275000D01*
G75*
G02*
X149000000Y-97025000I0J250000D01*
G01*
X149000000Y-96275000D01*
G75*
G02*
X149250000Y-96025000I250000J0D01*
G01*
X150500000Y-96025000D01*
G75*
G02*
X150750000Y-96275000I0J-250000D01*
G01*
X150750000Y-97025000D01*
G75*
G02*
X150500000Y-97275000I-250000J0D01*
G01*
G37*
%TD.AperFunction*%
%TO.P,C17,2*%
%TO.N,GND*%
%TA.AperFunction,SMDPad,CuDef*%
G36*
G01*
X150500000Y-94475000D02*
X149250000Y-94475000D01*
G75*
G02*
X149000000Y-94225000I0J250000D01*
G01*
X149000000Y-93475000D01*
G75*
G02*
X149250000Y-93225000I250000J0D01*
G01*
X150500000Y-93225000D01*
G75*
G02*
X150750000Y-93475000I0J-250000D01*
G01*
X150750000Y-94225000D01*
G75*
G02*
X150500000Y-94475000I-250000J0D01*
G01*
G37*
%TD.AperFunction*%
%TD*%
%TO.P,C5,1*%
%TO.N,Net-(C5-Pad1)*%
%TA.AperFunction,SMDPad,CuDef*%
G36*
G01*
X141150000Y-93218750D02*
X141150000Y-92706250D01*
G75*
G02*
X141368750Y-92487500I218750J0D01*
G01*
X141806250Y-92487500D01*
G75*
G02*
X142025000Y-92706250I0J-218750D01*
G01*
X142025000Y-93218750D01*
G75*
G02*
X141806250Y-93437500I-218750J0D01*
G01*
X141368750Y-93437500D01*
G75*
G02*
X141150000Y-93218750I0J218750D01*
G01*
G37*
%TD.AperFunction*%
%TO.P,C5,2*%
%TO.N,GND*%
%TA.AperFunction,SMDPad,CuDef*%
G36*
G01*
X142725000Y-93218750D02*
X142725000Y-92706250D01*
G75*
G02*
X142943750Y-92487500I218750J0D01*
G01*
X143381250Y-92487500D01*
G75*
G02*
X143600000Y-92706250I0J-218750D01*
G01*
X143600000Y-93218750D01*
G75*
G02*
X143381250Y-93437500I-218750J0D01*
G01*
X142943750Y-93437500D01*
G75*
G02*
X142725000Y-93218750I0J218750D01*
G01*
G37*
%TD.AperFunction*%
%TD*%
%TO.P,C8,1*%
%TO.N,+3V3*%
%TA.AperFunction,SMDPad,CuDef*%
G36*
G01*
X144931250Y-100512500D02*
X144418750Y-100512500D01*
G75*
G02*
X144200000Y-100293750I0J218750D01*
G01*
X144200000Y-99856250D01*
G75*
G02*
X144418750Y-99637500I218750J0D01*
G01*
X144931250Y-99637500D01*
G75*
G02*
X145150000Y-99856250I0J-218750D01*
G01*
X145150000Y-100293750D01*
G75*
G02*
X144931250Y-100512500I-218750J0D01*
G01*
G37*
%TD.AperFunction*%
%TO.P,C8,2*%
%TO.N,GND*%
%TA.AperFunction,SMDPad,CuDef*%
G36*
G01*
X144931250Y-98937500D02*
X144418750Y-98937500D01*
G75*
G02*
X144200000Y-98718750I0J218750D01*
G01*
X144200000Y-98281250D01*
G75*
G02*
X144418750Y-98062500I218750J0D01*
G01*
X144931250Y-98062500D01*
G75*
G02*
X145150000Y-98281250I0J-218750D01*
G01*
X145150000Y-98718750D01*
G75*
G02*
X144931250Y-98937500I-218750J0D01*
G01*
G37*
%TD.AperFunction*%
%TD*%
D10*
%TO.P,Q7,1,G*%
%TO.N,+1V8*%
X133125000Y-90030000D03*
%TO.P,Q7,2,S*%
%TO.N,ICM20948_CS*%
X133125000Y-88130000D03*
%TO.P,Q7,3,D*%
%TO.N,ICM20948_CS_3.3v*%
X131125000Y-89080000D03*
%TD*%
%TO.P,C12,1*%
%TO.N,+1V8*%
%TA.AperFunction,SMDPad,CuDef*%
G36*
G01*
X144737500Y-111100000D02*
X144262500Y-111100000D01*
G75*
G02*
X144025000Y-110862500I0J237500D01*
G01*
X144025000Y-110287500D01*
G75*
G02*
X144262500Y-110050000I237500J0D01*
G01*
X144737500Y-110050000D01*
G75*
G02*
X144975000Y-110287500I0J-237500D01*
G01*
X144975000Y-110862500D01*
G75*
G02*
X144737500Y-111100000I-237500J0D01*
G01*
G37*
%TD.AperFunction*%
%TO.P,C12,2*%
%TO.N,GND*%
%TA.AperFunction,SMDPad,CuDef*%
G36*
G01*
X144737500Y-109350000D02*
X144262500Y-109350000D01*
G75*
G02*
X144025000Y-109112500I0J237500D01*
G01*
X144025000Y-108537500D01*
G75*
G02*
X144262500Y-108300000I237500J0D01*
G01*
X144737500Y-108300000D01*
G75*
G02*
X144975000Y-108537500I0J-237500D01*
G01*
X144975000Y-109112500D01*
G75*
G02*
X144737500Y-109350000I-237500J0D01*
G01*
G37*
%TD.AperFunction*%
%TD*%
%TO.P,C11,1*%
%TO.N,+3V3*%
%TA.AperFunction,SMDPad,CuDef*%
G36*
G01*
X138487500Y-111025000D02*
X138012500Y-111025000D01*
G75*
G02*
X137775000Y-110787500I0J237500D01*
G01*
X137775000Y-110212500D01*
G75*
G02*
X138012500Y-109975000I237500J0D01*
G01*
X138487500Y-109975000D01*
G75*
G02*
X138725000Y-110212500I0J-237500D01*
G01*
X138725000Y-110787500D01*
G75*
G02*
X138487500Y-111025000I-237500J0D01*
G01*
G37*
%TD.AperFunction*%
%TO.P,C11,2*%
%TO.N,GND*%
%TA.AperFunction,SMDPad,CuDef*%
G36*
G01*
X138487500Y-109275000D02*
X138012500Y-109275000D01*
G75*
G02*
X137775000Y-109037500I0J237500D01*
G01*
X137775000Y-108462500D01*
G75*
G02*
X138012500Y-108225000I237500J0D01*
G01*
X138487500Y-108225000D01*
G75*
G02*
X138725000Y-108462500I0J-237500D01*
G01*
X138725000Y-109037500D01*
G75*
G02*
X138487500Y-109275000I-237500J0D01*
G01*
G37*
%TD.AperFunction*%
%TD*%
%TO.P,C10,1*%
%TO.N,+3V3*%
%TA.AperFunction,SMDPad,CuDef*%
G36*
G01*
X146962500Y-105125000D02*
X146487500Y-105125000D01*
G75*
G02*
X146250000Y-104887500I0J237500D01*
G01*
X146250000Y-104312500D01*
G75*
G02*
X146487500Y-104075000I237500J0D01*
G01*
X146962500Y-104075000D01*
G75*
G02*
X147200000Y-104312500I0J-237500D01*
G01*
X147200000Y-104887500D01*
G75*
G02*
X146962500Y-105125000I-237500J0D01*
G01*
G37*
%TD.AperFunction*%
%TO.P,C10,2*%
%TO.N,GND*%
%TA.AperFunction,SMDPad,CuDef*%
G36*
G01*
X146962500Y-103375000D02*
X146487500Y-103375000D01*
G75*
G02*
X146250000Y-103137500I0J237500D01*
G01*
X146250000Y-102562500D01*
G75*
G02*
X146487500Y-102325000I237500J0D01*
G01*
X146962500Y-102325000D01*
G75*
G02*
X147200000Y-102562500I0J-237500D01*
G01*
X147200000Y-103137500D01*
G75*
G02*
X146962500Y-103375000I-237500J0D01*
G01*
G37*
%TD.AperFunction*%
%TD*%
%TO.P,C16,1*%
%TO.N,+3V3*%
%TA.AperFunction,SMDPad,CuDef*%
G36*
G01*
X150331250Y-100175000D02*
X149818750Y-100175000D01*
G75*
G02*
X149600000Y-99956250I0J218750D01*
G01*
X149600000Y-99518750D01*
G75*
G02*
X149818750Y-99300000I218750J0D01*
G01*
X150331250Y-99300000D01*
G75*
G02*
X150550000Y-99518750I0J-218750D01*
G01*
X150550000Y-99956250D01*
G75*
G02*
X150331250Y-100175000I-218750J0D01*
G01*
G37*
%TD.AperFunction*%
%TO.P,C16,2*%
%TO.N,GND*%
%TA.AperFunction,SMDPad,CuDef*%
G36*
G01*
X150331250Y-98600000D02*
X149818750Y-98600000D01*
G75*
G02*
X149600000Y-98381250I0J218750D01*
G01*
X149600000Y-97943750D01*
G75*
G02*
X149818750Y-97725000I218750J0D01*
G01*
X150331250Y-97725000D01*
G75*
G02*
X150550000Y-97943750I0J-218750D01*
G01*
X150550000Y-98381250D01*
G75*
G02*
X150331250Y-98600000I-218750J0D01*
G01*
G37*
%TD.AperFunction*%
%TD*%
%TO.P,U1,1,NC*%
%TO.N,Net-(U1-Pad1)*%
%TA.AperFunction,SMDPad,CuDef*%
G36*
G01*
X139475000Y-88887500D02*
X139475000Y-88787500D01*
G75*
G02*
X139525000Y-88737500I50000J0D01*
G01*
X139975000Y-88737500D01*
G75*
G02*
X140025000Y-88787500I0J-50000D01*
G01*
X140025000Y-88887500D01*
G75*
G02*
X139975000Y-88937500I-50000J0D01*
G01*
X139525000Y-88937500D01*
G75*
G02*
X139475000Y-88887500I0J50000D01*
G01*
G37*
%TD.AperFunction*%
%TO.P,U1,2,NC*%
%TO.N,Net-(U1-Pad2)*%
%TA.AperFunction,SMDPad,CuDef*%
G36*
G01*
X139475000Y-89287500D02*
X139475000Y-89187500D01*
G75*
G02*
X139525000Y-89137500I50000J0D01*
G01*
X139975000Y-89137500D01*
G75*
G02*
X140025000Y-89187500I0J-50000D01*
G01*
X140025000Y-89287500D01*
G75*
G02*
X139975000Y-89337500I-50000J0D01*
G01*
X139525000Y-89337500D01*
G75*
G02*
X139475000Y-89287500I0J50000D01*
G01*
G37*
%TD.AperFunction*%
%TO.P,U1,3,NC*%
%TO.N,Net-(U1-Pad3)*%
%TA.AperFunction,SMDPad,CuDef*%
G36*
G01*
X139475000Y-89687500D02*
X139475000Y-89587500D01*
G75*
G02*
X139525000Y-89537500I50000J0D01*
G01*
X139975000Y-89537500D01*
G75*
G02*
X140025000Y-89587500I0J-50000D01*
G01*
X140025000Y-89687500D01*
G75*
G02*
X139975000Y-89737500I-50000J0D01*
G01*
X139525000Y-89737500D01*
G75*
G02*
X139475000Y-89687500I0J50000D01*
G01*
G37*
%TD.AperFunction*%
%TO.P,U1,4,NC*%
%TO.N,Net-(U1-Pad4)*%
%TA.AperFunction,SMDPad,CuDef*%
G36*
G01*
X139475000Y-90087500D02*
X139475000Y-89987500D01*
G75*
G02*
X139525000Y-89937500I50000J0D01*
G01*
X139975000Y-89937500D01*
G75*
G02*
X140025000Y-89987500I0J-50000D01*
G01*
X140025000Y-90087500D01*
G75*
G02*
X139975000Y-90137500I-50000J0D01*
G01*
X139525000Y-90137500D01*
G75*
G02*
X139475000Y-90087500I0J50000D01*
G01*
G37*
%TD.AperFunction*%
%TO.P,U1,5,NC*%
%TO.N,Net-(U1-Pad5)*%
%TA.AperFunction,SMDPad,CuDef*%
G36*
G01*
X139475000Y-90487500D02*
X139475000Y-90387500D01*
G75*
G02*
X139525000Y-90337500I50000J0D01*
G01*
X139975000Y-90337500D01*
G75*
G02*
X140025000Y-90387500I0J-50000D01*
G01*
X140025000Y-90487500D01*
G75*
G02*
X139975000Y-90537500I-50000J0D01*
G01*
X139525000Y-90537500D01*
G75*
G02*
X139475000Y-90487500I0J50000D01*
G01*
G37*
%TD.AperFunction*%
%TO.P,U1,6,NC*%
%TO.N,Net-(U1-Pad6)*%
%TA.AperFunction,SMDPad,CuDef*%
G36*
G01*
X139475000Y-90887500D02*
X139475000Y-90787500D01*
G75*
G02*
X139525000Y-90737500I50000J0D01*
G01*
X139975000Y-90737500D01*
G75*
G02*
X140025000Y-90787500I0J-50000D01*
G01*
X140025000Y-90887500D01*
G75*
G02*
X139975000Y-90937500I-50000J0D01*
G01*
X139525000Y-90937500D01*
G75*
G02*
X139475000Y-90887500I0J50000D01*
G01*
G37*
%TD.AperFunction*%
%TO.P,U1,7,AUX_CL*%
%TO.N,Net-(U1-Pad7)*%
%TA.AperFunction,SMDPad,CuDef*%
G36*
G01*
X140300000Y-91612500D02*
X140200000Y-91612500D01*
G75*
G02*
X140150000Y-91562500I0J50000D01*
G01*
X140150000Y-91112500D01*
G75*
G02*
X140200000Y-91062500I50000J0D01*
G01*
X140300000Y-91062500D01*
G75*
G02*
X140350000Y-91112500I0J-50000D01*
G01*
X140350000Y-91562500D01*
G75*
G02*
X140300000Y-91612500I-50000J0D01*
G01*
G37*
%TD.AperFunction*%
%TO.P,U1,8,VDDIO*%
%TO.N,+1V8*%
%TA.AperFunction,SMDPad,CuDef*%
G36*
G01*
X140700000Y-91612500D02*
X140600000Y-91612500D01*
G75*
G02*
X140550000Y-91562500I0J50000D01*
G01*
X140550000Y-91112500D01*
G75*
G02*
X140600000Y-91062500I50000J0D01*
G01*
X140700000Y-91062500D01*
G75*
G02*
X140750000Y-91112500I0J-50000D01*
G01*
X140750000Y-91562500D01*
G75*
G02*
X140700000Y-91612500I-50000J0D01*
G01*
G37*
%TD.AperFunction*%
%TO.P,U1,9,SDO/AD0*%
%TO.N,IMU_MISO*%
%TA.AperFunction,SMDPad,CuDef*%
G36*
G01*
X141100000Y-91612500D02*
X141000000Y-91612500D01*
G75*
G02*
X140950000Y-91562500I0J50000D01*
G01*
X140950000Y-91112500D01*
G75*
G02*
X141000000Y-91062500I50000J0D01*
G01*
X141100000Y-91062500D01*
G75*
G02*
X141150000Y-91112500I0J-50000D01*
G01*
X141150000Y-91562500D01*
G75*
G02*
X141100000Y-91612500I-50000J0D01*
G01*
G37*
%TD.AperFunction*%
%TO.P,U1,10,REGOUT*%
%TO.N,Net-(C5-Pad1)*%
%TA.AperFunction,SMDPad,CuDef*%
G36*
G01*
X141500000Y-91612500D02*
X141400000Y-91612500D01*
G75*
G02*
X141350000Y-91562500I0J50000D01*
G01*
X141350000Y-91112500D01*
G75*
G02*
X141400000Y-91062500I50000J0D01*
G01*
X141500000Y-91062500D01*
G75*
G02*
X141550000Y-91112500I0J-50000D01*
G01*
X141550000Y-91562500D01*
G75*
G02*
X141500000Y-91612500I-50000J0D01*
G01*
G37*
%TD.AperFunction*%
%TO.P,U1,11,FSYNC*%
%TO.N,GND*%
%TA.AperFunction,SMDPad,CuDef*%
G36*
G01*
X141900000Y-91612500D02*
X141800000Y-91612500D01*
G75*
G02*
X141750000Y-91562500I0J50000D01*
G01*
X141750000Y-91112500D01*
G75*
G02*
X141800000Y-91062500I50000J0D01*
G01*
X141900000Y-91062500D01*
G75*
G02*
X141950000Y-91112500I0J-50000D01*
G01*
X141950000Y-91562500D01*
G75*
G02*
X141900000Y-91612500I-50000J0D01*
G01*
G37*
%TD.AperFunction*%
%TO.P,U1,12,INT1*%
%TO.N,ICM20948_DRDY*%
%TA.AperFunction,SMDPad,CuDef*%
G36*
G01*
X142300000Y-91612500D02*
X142200000Y-91612500D01*
G75*
G02*
X142150000Y-91562500I0J50000D01*
G01*
X142150000Y-91112500D01*
G75*
G02*
X142200000Y-91062500I50000J0D01*
G01*
X142300000Y-91062500D01*
G75*
G02*
X142350000Y-91112500I0J-50000D01*
G01*
X142350000Y-91562500D01*
G75*
G02*
X142300000Y-91612500I-50000J0D01*
G01*
G37*
%TD.AperFunction*%
%TO.P,U1,13,VDD*%
%TO.N,+1V8*%
%TA.AperFunction,SMDPad,CuDef*%
G36*
G01*
X142475000Y-90887500D02*
X142475000Y-90787500D01*
G75*
G02*
X142525000Y-90737500I50000J0D01*
G01*
X142975000Y-90737500D01*
G75*
G02*
X143025000Y-90787500I0J-50000D01*
G01*
X143025000Y-90887500D01*
G75*
G02*
X142975000Y-90937500I-50000J0D01*
G01*
X142525000Y-90937500D01*
G75*
G02*
X142475000Y-90887500I0J50000D01*
G01*
G37*
%TD.AperFunction*%
%TO.P,U1,14,NC*%
%TO.N,Net-(U1-Pad14)*%
%TA.AperFunction,SMDPad,CuDef*%
G36*
G01*
X142475000Y-90487500D02*
X142475000Y-90387500D01*
G75*
G02*
X142525000Y-90337500I50000J0D01*
G01*
X142975000Y-90337500D01*
G75*
G02*
X143025000Y-90387500I0J-50000D01*
G01*
X143025000Y-90487500D01*
G75*
G02*
X142975000Y-90537500I-50000J0D01*
G01*
X142525000Y-90537500D01*
G75*
G02*
X142475000Y-90487500I0J50000D01*
G01*
G37*
%TD.AperFunction*%
%TO.P,U1,15,NC*%
%TO.N,Net-(U1-Pad15)*%
%TA.AperFunction,SMDPad,CuDef*%
G36*
G01*
X142475000Y-90087500D02*
X142475000Y-89987500D01*
G75*
G02*
X142525000Y-89937500I50000J0D01*
G01*
X142975000Y-89937500D01*
G75*
G02*
X143025000Y-89987500I0J-50000D01*
G01*
X143025000Y-90087500D01*
G75*
G02*
X142975000Y-90137500I-50000J0D01*
G01*
X142525000Y-90137500D01*
G75*
G02*
X142475000Y-90087500I0J50000D01*
G01*
G37*
%TD.AperFunction*%
%TO.P,U1,16,NC*%
%TO.N,Net-(U1-Pad16)*%
%TA.AperFunction,SMDPad,CuDef*%
G36*
G01*
X142475000Y-89687500D02*
X142475000Y-89587500D01*
G75*
G02*
X142525000Y-89537500I50000J0D01*
G01*
X142975000Y-89537500D01*
G75*
G02*
X143025000Y-89587500I0J-50000D01*
G01*
X143025000Y-89687500D01*
G75*
G02*
X142975000Y-89737500I-50000J0D01*
G01*
X142525000Y-89737500D01*
G75*
G02*
X142475000Y-89687500I0J50000D01*
G01*
G37*
%TD.AperFunction*%
%TO.P,U1,17,NC*%
%TO.N,Net-(U1-Pad17)*%
%TA.AperFunction,SMDPad,CuDef*%
G36*
G01*
X142475000Y-89287500D02*
X142475000Y-89187500D01*
G75*
G02*
X142525000Y-89137500I50000J0D01*
G01*
X142975000Y-89137500D01*
G75*
G02*
X143025000Y-89187500I0J-50000D01*
G01*
X143025000Y-89287500D01*
G75*
G02*
X142975000Y-89337500I-50000J0D01*
G01*
X142525000Y-89337500D01*
G75*
G02*
X142475000Y-89287500I0J50000D01*
G01*
G37*
%TD.AperFunction*%
%TO.P,U1,18,GND*%
%TO.N,GND*%
%TA.AperFunction,SMDPad,CuDef*%
G36*
G01*
X142475000Y-88887500D02*
X142475000Y-88787500D01*
G75*
G02*
X142525000Y-88737500I50000J0D01*
G01*
X142975000Y-88737500D01*
G75*
G02*
X143025000Y-88787500I0J-50000D01*
G01*
X143025000Y-88887500D01*
G75*
G02*
X142975000Y-88937500I-50000J0D01*
G01*
X142525000Y-88937500D01*
G75*
G02*
X142475000Y-88887500I0J50000D01*
G01*
G37*
%TD.AperFunction*%
%TO.P,U1,19,RESV*%
%TO.N,Net-(U1-Pad19)*%
%TA.AperFunction,SMDPad,CuDef*%
G36*
G01*
X142300000Y-88612500D02*
X142200000Y-88612500D01*
G75*
G02*
X142150000Y-88562500I0J50000D01*
G01*
X142150000Y-88112500D01*
G75*
G02*
X142200000Y-88062500I50000J0D01*
G01*
X142300000Y-88062500D01*
G75*
G02*
X142350000Y-88112500I0J-50000D01*
G01*
X142350000Y-88562500D01*
G75*
G02*
X142300000Y-88612500I-50000J0D01*
G01*
G37*
%TD.AperFunction*%
%TO.P,U1,20,GND*%
%TO.N,GND*%
%TA.AperFunction,SMDPad,CuDef*%
G36*
G01*
X141900000Y-88612500D02*
X141800000Y-88612500D01*
G75*
G02*
X141750000Y-88562500I0J50000D01*
G01*
X141750000Y-88112500D01*
G75*
G02*
X141800000Y-88062500I50000J0D01*
G01*
X141900000Y-88062500D01*
G75*
G02*
X141950000Y-88112500I0J-50000D01*
G01*
X141950000Y-88562500D01*
G75*
G02*
X141900000Y-88612500I-50000J0D01*
G01*
G37*
%TD.AperFunction*%
%TO.P,U1,21,AUX_DA*%
%TO.N,Net-(U1-Pad21)*%
%TA.AperFunction,SMDPad,CuDef*%
G36*
G01*
X141500000Y-88612500D02*
X141400000Y-88612500D01*
G75*
G02*
X141350000Y-88562500I0J50000D01*
G01*
X141350000Y-88112500D01*
G75*
G02*
X141400000Y-88062500I50000J0D01*
G01*
X141500000Y-88062500D01*
G75*
G02*
X141550000Y-88112500I0J-50000D01*
G01*
X141550000Y-88562500D01*
G75*
G02*
X141500000Y-88612500I-50000J0D01*
G01*
G37*
%TD.AperFunction*%
%TO.P,U1,22,~CS*%
%TO.N,ICM20948_CS*%
%TA.AperFunction,SMDPad,CuDef*%
G36*
G01*
X141100000Y-88612500D02*
X141000000Y-88612500D01*
G75*
G02*
X140950000Y-88562500I0J50000D01*
G01*
X140950000Y-88112500D01*
G75*
G02*
X141000000Y-88062500I50000J0D01*
G01*
X141100000Y-88062500D01*
G75*
G02*
X141150000Y-88112500I0J-50000D01*
G01*
X141150000Y-88562500D01*
G75*
G02*
X141100000Y-88612500I-50000J0D01*
G01*
G37*
%TD.AperFunction*%
%TO.P,U1,23,SCL/SCLK*%
%TO.N,IMU_CLK*%
%TA.AperFunction,SMDPad,CuDef*%
G36*
G01*
X140700000Y-88612500D02*
X140600000Y-88612500D01*
G75*
G02*
X140550000Y-88562500I0J50000D01*
G01*
X140550000Y-88112500D01*
G75*
G02*
X140600000Y-88062500I50000J0D01*
G01*
X140700000Y-88062500D01*
G75*
G02*
X140750000Y-88112500I0J-50000D01*
G01*
X140750000Y-88562500D01*
G75*
G02*
X140700000Y-88612500I-50000J0D01*
G01*
G37*
%TD.AperFunction*%
%TO.P,U1,24,SDA/SDI*%
%TO.N,IMU_MOSI*%
%TA.AperFunction,SMDPad,CuDef*%
G36*
G01*
X140300000Y-88612500D02*
X140200000Y-88612500D01*
G75*
G02*
X140150000Y-88562500I0J50000D01*
G01*
X140150000Y-88112500D01*
G75*
G02*
X140200000Y-88062500I50000J0D01*
G01*
X140300000Y-88062500D01*
G75*
G02*
X140350000Y-88112500I0J-50000D01*
G01*
X140350000Y-88562500D01*
G75*
G02*
X140300000Y-88612500I-50000J0D01*
G01*
G37*
%TD.AperFunction*%
%TD*%
%TO.P,C3,1*%
%TO.N,+1V8*%
%TA.AperFunction,SMDPad,CuDef*%
G36*
G01*
X146662500Y-95575000D02*
X146187500Y-95575000D01*
G75*
G02*
X145950000Y-95337500I0J237500D01*
G01*
X145950000Y-94762500D01*
G75*
G02*
X146187500Y-94525000I237500J0D01*
G01*
X146662500Y-94525000D01*
G75*
G02*
X146900000Y-94762500I0J-237500D01*
G01*
X146900000Y-95337500D01*
G75*
G02*
X146662500Y-95575000I-237500J0D01*
G01*
G37*
%TD.AperFunction*%
%TO.P,C3,2*%
%TO.N,GND*%
%TA.AperFunction,SMDPad,CuDef*%
G36*
G01*
X146662500Y-93825000D02*
X146187500Y-93825000D01*
G75*
G02*
X145950000Y-93587500I0J237500D01*
G01*
X145950000Y-93012500D01*
G75*
G02*
X146187500Y-92775000I237500J0D01*
G01*
X146662500Y-92775000D01*
G75*
G02*
X146900000Y-93012500I0J-237500D01*
G01*
X146900000Y-93587500D01*
G75*
G02*
X146662500Y-93825000I-237500J0D01*
G01*
G37*
%TD.AperFunction*%
%TD*%
%TO.P,Q5,1,G*%
%TO.N,+1V8*%
X133678799Y-105923799D03*
%TO.P,Q5,2,S*%
%TO.N,IMU_CLK*%
X133678799Y-104023799D03*
%TO.P,Q5,3,D*%
%TO.N,IMU_CLK_3.3v*%
X131678799Y-104973799D03*
%TD*%
%TO.P,R13,1*%
%TO.N,+1V8*%
%TA.AperFunction,SMDPad,CuDef*%
G36*
G01*
X135537500Y-90480000D02*
X135062500Y-90480000D01*
G75*
G02*
X134825000Y-90242500I0J237500D01*
G01*
X134825000Y-89667500D01*
G75*
G02*
X135062500Y-89430000I237500J0D01*
G01*
X135537500Y-89430000D01*
G75*
G02*
X135775000Y-89667500I0J-237500D01*
G01*
X135775000Y-90242500D01*
G75*
G02*
X135537500Y-90480000I-237500J0D01*
G01*
G37*
%TD.AperFunction*%
%TO.P,R13,2*%
%TO.N,ICM20948_CS*%
%TA.AperFunction,SMDPad,CuDef*%
G36*
G01*
X135537500Y-88730000D02*
X135062500Y-88730000D01*
G75*
G02*
X134825000Y-88492500I0J237500D01*
G01*
X134825000Y-87917500D01*
G75*
G02*
X135062500Y-87680000I237500J0D01*
G01*
X135537500Y-87680000D01*
G75*
G02*
X135775000Y-87917500I0J-237500D01*
G01*
X135775000Y-88492500D01*
G75*
G02*
X135537500Y-88730000I-237500J0D01*
G01*
G37*
%TD.AperFunction*%
%TD*%
D11*
%TO.P,U3,1,IN*%
%TO.N,+5V*%
X130575000Y-108725000D03*
%TO.P,U3,2,GND*%
%TO.N,GND*%
X130575000Y-109675000D03*
%TO.P,U3,3,EN*%
%TO.N,+5V*%
X130575000Y-110625000D03*
%TO.P,U3,4,NC*%
%TO.N,Net-(U3-Pad4)*%
X132775000Y-110625000D03*
%TO.P,U3,5,OUT*%
%TO.N,+3V3*%
X132775000Y-108725000D03*
%TD*%
%TO.P,U2,1,RESV_VDDIO*%
%TO.N,+3V3*%
%TA.AperFunction,SMDPad,CuDef*%
G36*
G01*
X139650000Y-98350000D02*
X139650000Y-98250000D01*
G75*
G02*
X139700000Y-98200000I50000J0D01*
G01*
X140150000Y-98200000D01*
G75*
G02*
X140200000Y-98250000I0J-50000D01*
G01*
X140200000Y-98350000D01*
G75*
G02*
X140150000Y-98400000I-50000J0D01*
G01*
X139700000Y-98400000D01*
G75*
G02*
X139650000Y-98350000I0J50000D01*
G01*
G37*
%TD.AperFunction*%
%TO.P,U2,2*%
%TO.N,N/C*%
%TA.AperFunction,SMDPad,CuDef*%
G36*
G01*
X139650000Y-98750000D02*
X139650000Y-98650000D01*
G75*
G02*
X139700000Y-98600000I50000J0D01*
G01*
X140150000Y-98600000D01*
G75*
G02*
X140200000Y-98650000I0J-50000D01*
G01*
X140200000Y-98750000D01*
G75*
G02*
X140150000Y-98800000I-50000J0D01*
G01*
X139700000Y-98800000D01*
G75*
G02*
X139650000Y-98750000I0J50000D01*
G01*
G37*
%TD.AperFunction*%
%TO.P,U2,3*%
%TA.AperFunction,SMDPad,CuDef*%
G36*
G01*
X139650000Y-99150000D02*
X139650000Y-99050000D01*
G75*
G02*
X139700000Y-99000000I50000J0D01*
G01*
X140150000Y-99000000D01*
G75*
G02*
X140200000Y-99050000I0J-50000D01*
G01*
X140200000Y-99150000D01*
G75*
G02*
X140150000Y-99200000I-50000J0D01*
G01*
X139700000Y-99200000D01*
G75*
G02*
X139650000Y-99150000I0J50000D01*
G01*
G37*
%TD.AperFunction*%
%TO.P,U2,4*%
%TA.AperFunction,SMDPad,CuDef*%
G36*
G01*
X139650000Y-99550000D02*
X139650000Y-99450000D01*
G75*
G02*
X139700000Y-99400000I50000J0D01*
G01*
X140150000Y-99400000D01*
G75*
G02*
X140200000Y-99450000I0J-50000D01*
G01*
X140200000Y-99550000D01*
G75*
G02*
X140150000Y-99600000I-50000J0D01*
G01*
X139700000Y-99600000D01*
G75*
G02*
X139650000Y-99550000I0J50000D01*
G01*
G37*
%TD.AperFunction*%
%TO.P,U2,5*%
%TA.AperFunction,SMDPad,CuDef*%
G36*
G01*
X139650000Y-99950000D02*
X139650000Y-99850000D01*
G75*
G02*
X139700000Y-99800000I50000J0D01*
G01*
X140150000Y-99800000D01*
G75*
G02*
X140200000Y-99850000I0J-50000D01*
G01*
X140200000Y-99950000D01*
G75*
G02*
X140150000Y-100000000I-50000J0D01*
G01*
X139700000Y-100000000D01*
G75*
G02*
X139650000Y-99950000I0J50000D01*
G01*
G37*
%TD.AperFunction*%
%TO.P,U2,6*%
%TA.AperFunction,SMDPad,CuDef*%
G36*
G01*
X139650000Y-100350000D02*
X139650000Y-100250000D01*
G75*
G02*
X139700000Y-100200000I50000J0D01*
G01*
X140150000Y-100200000D01*
G75*
G02*
X140200000Y-100250000I0J-50000D01*
G01*
X140200000Y-100350000D01*
G75*
G02*
X140150000Y-100400000I-50000J0D01*
G01*
X139700000Y-100400000D01*
G75*
G02*
X139650000Y-100350000I0J50000D01*
G01*
G37*
%TD.AperFunction*%
%TO.P,U2,7,AUX_SCL*%
%TO.N,Net-(U2-Pad7)*%
%TA.AperFunction,SMDPad,CuDef*%
G36*
G01*
X140475000Y-101075000D02*
X140375000Y-101075000D01*
G75*
G02*
X140325000Y-101025000I0J50000D01*
G01*
X140325000Y-100575000D01*
G75*
G02*
X140375000Y-100525000I50000J0D01*
G01*
X140475000Y-100525000D01*
G75*
G02*
X140525000Y-100575000I0J-50000D01*
G01*
X140525000Y-101025000D01*
G75*
G02*
X140475000Y-101075000I-50000J0D01*
G01*
G37*
%TD.AperFunction*%
%TO.P,U2,8,VDDIO*%
%TO.N,+3V3*%
%TA.AperFunction,SMDPad,CuDef*%
G36*
G01*
X140875000Y-101075000D02*
X140775000Y-101075000D01*
G75*
G02*
X140725000Y-101025000I0J50000D01*
G01*
X140725000Y-100575000D01*
G75*
G02*
X140775000Y-100525000I50000J0D01*
G01*
X140875000Y-100525000D01*
G75*
G02*
X140925000Y-100575000I0J-50000D01*
G01*
X140925000Y-101025000D01*
G75*
G02*
X140875000Y-101075000I-50000J0D01*
G01*
G37*
%TD.AperFunction*%
%TO.P,U2,9,AD0/MISO*%
%TO.N,IMU_MOSI_3.3v*%
%TA.AperFunction,SMDPad,CuDef*%
G36*
G01*
X141275000Y-101075000D02*
X141175000Y-101075000D01*
G75*
G02*
X141125000Y-101025000I0J50000D01*
G01*
X141125000Y-100575000D01*
G75*
G02*
X141175000Y-100525000I50000J0D01*
G01*
X141275000Y-100525000D01*
G75*
G02*
X141325000Y-100575000I0J-50000D01*
G01*
X141325000Y-101025000D01*
G75*
G02*
X141275000Y-101075000I-50000J0D01*
G01*
G37*
%TD.AperFunction*%
%TO.P,U2,10,REGOUT*%
%TO.N,Net-(C9-Pad1)*%
%TA.AperFunction,SMDPad,CuDef*%
G36*
G01*
X141675000Y-101075000D02*
X141575000Y-101075000D01*
G75*
G02*
X141525000Y-101025000I0J50000D01*
G01*
X141525000Y-100575000D01*
G75*
G02*
X141575000Y-100525000I50000J0D01*
G01*
X141675000Y-100525000D01*
G75*
G02*
X141725000Y-100575000I0J-50000D01*
G01*
X141725000Y-101025000D01*
G75*
G02*
X141675000Y-101075000I-50000J0D01*
G01*
G37*
%TD.AperFunction*%
%TO.P,U2,11,FSYNC*%
%TO.N,GND*%
%TA.AperFunction,SMDPad,CuDef*%
G36*
G01*
X142075000Y-101075000D02*
X141975000Y-101075000D01*
G75*
G02*
X141925000Y-101025000I0J50000D01*
G01*
X141925000Y-100575000D01*
G75*
G02*
X141975000Y-100525000I50000J0D01*
G01*
X142075000Y-100525000D01*
G75*
G02*
X142125000Y-100575000I0J-50000D01*
G01*
X142125000Y-101025000D01*
G75*
G02*
X142075000Y-101075000I-50000J0D01*
G01*
G37*
%TD.AperFunction*%
%TO.P,U2,12,INT*%
%TO.N,MPU9250_DRDY*%
%TA.AperFunction,SMDPad,CuDef*%
G36*
G01*
X142475000Y-101075000D02*
X142375000Y-101075000D01*
G75*
G02*
X142325000Y-101025000I0J50000D01*
G01*
X142325000Y-100575000D01*
G75*
G02*
X142375000Y-100525000I50000J0D01*
G01*
X142475000Y-100525000D01*
G75*
G02*
X142525000Y-100575000I0J-50000D01*
G01*
X142525000Y-101025000D01*
G75*
G02*
X142475000Y-101075000I-50000J0D01*
G01*
G37*
%TD.AperFunction*%
%TO.P,U2,13,VDD*%
%TO.N,+3V3*%
%TA.AperFunction,SMDPad,CuDef*%
G36*
G01*
X142650000Y-100350000D02*
X142650000Y-100250000D01*
G75*
G02*
X142700000Y-100200000I50000J0D01*
G01*
X143150000Y-100200000D01*
G75*
G02*
X143200000Y-100250000I0J-50000D01*
G01*
X143200000Y-100350000D01*
G75*
G02*
X143150000Y-100400000I-50000J0D01*
G01*
X142700000Y-100400000D01*
G75*
G02*
X142650000Y-100350000I0J50000D01*
G01*
G37*
%TD.AperFunction*%
%TO.P,U2,14*%
%TO.N,N/C*%
%TA.AperFunction,SMDPad,CuDef*%
G36*
G01*
X142650000Y-99950000D02*
X142650000Y-99850000D01*
G75*
G02*
X142700000Y-99800000I50000J0D01*
G01*
X143150000Y-99800000D01*
G75*
G02*
X143200000Y-99850000I0J-50000D01*
G01*
X143200000Y-99950000D01*
G75*
G02*
X143150000Y-100000000I-50000J0D01*
G01*
X142700000Y-100000000D01*
G75*
G02*
X142650000Y-99950000I0J50000D01*
G01*
G37*
%TD.AperFunction*%
%TO.P,U2,15*%
%TA.AperFunction,SMDPad,CuDef*%
G36*
G01*
X142650000Y-99550000D02*
X142650000Y-99450000D01*
G75*
G02*
X142700000Y-99400000I50000J0D01*
G01*
X143150000Y-99400000D01*
G75*
G02*
X143200000Y-99450000I0J-50000D01*
G01*
X143200000Y-99550000D01*
G75*
G02*
X143150000Y-99600000I-50000J0D01*
G01*
X142700000Y-99600000D01*
G75*
G02*
X142650000Y-99550000I0J50000D01*
G01*
G37*
%TD.AperFunction*%
%TO.P,U2,16*%
%TA.AperFunction,SMDPad,CuDef*%
G36*
G01*
X142650000Y-99150000D02*
X142650000Y-99050000D01*
G75*
G02*
X142700000Y-99000000I50000J0D01*
G01*
X143150000Y-99000000D01*
G75*
G02*
X143200000Y-99050000I0J-50000D01*
G01*
X143200000Y-99150000D01*
G75*
G02*
X143150000Y-99200000I-50000J0D01*
G01*
X142700000Y-99200000D01*
G75*
G02*
X142650000Y-99150000I0J50000D01*
G01*
G37*
%TD.AperFunction*%
%TO.P,U2,17*%
%TA.AperFunction,SMDPad,CuDef*%
G36*
G01*
X142650000Y-98750000D02*
X142650000Y-98650000D01*
G75*
G02*
X142700000Y-98600000I50000J0D01*
G01*
X143150000Y-98600000D01*
G75*
G02*
X143200000Y-98650000I0J-50000D01*
G01*
X143200000Y-98750000D01*
G75*
G02*
X143150000Y-98800000I-50000J0D01*
G01*
X142700000Y-98800000D01*
G75*
G02*
X142650000Y-98750000I0J50000D01*
G01*
G37*
%TD.AperFunction*%
%TO.P,U2,18,GND*%
%TO.N,GND*%
%TA.AperFunction,SMDPad,CuDef*%
G36*
G01*
X142650000Y-98350000D02*
X142650000Y-98250000D01*
G75*
G02*
X142700000Y-98200000I50000J0D01*
G01*
X143150000Y-98200000D01*
G75*
G02*
X143200000Y-98250000I0J-50000D01*
G01*
X143200000Y-98350000D01*
G75*
G02*
X143150000Y-98400000I-50000J0D01*
G01*
X142700000Y-98400000D01*
G75*
G02*
X142650000Y-98350000I0J50000D01*
G01*
G37*
%TD.AperFunction*%
%TO.P,U2,19*%
%TO.N,N/C*%
%TA.AperFunction,SMDPad,CuDef*%
G36*
G01*
X142475000Y-98075000D02*
X142375000Y-98075000D01*
G75*
G02*
X142325000Y-98025000I0J50000D01*
G01*
X142325000Y-97575000D01*
G75*
G02*
X142375000Y-97525000I50000J0D01*
G01*
X142475000Y-97525000D01*
G75*
G02*
X142525000Y-97575000I0J-50000D01*
G01*
X142525000Y-98025000D01*
G75*
G02*
X142475000Y-98075000I-50000J0D01*
G01*
G37*
%TD.AperFunction*%
%TO.P,U2,20,RESV_GND*%
%TO.N,GND*%
%TA.AperFunction,SMDPad,CuDef*%
G36*
G01*
X142075000Y-98075000D02*
X141975000Y-98075000D01*
G75*
G02*
X141925000Y-98025000I0J50000D01*
G01*
X141925000Y-97575000D01*
G75*
G02*
X141975000Y-97525000I50000J0D01*
G01*
X142075000Y-97525000D01*
G75*
G02*
X142125000Y-97575000I0J-50000D01*
G01*
X142125000Y-98025000D01*
G75*
G02*
X142075000Y-98075000I-50000J0D01*
G01*
G37*
%TD.AperFunction*%
%TO.P,U2,21,AUX_SDA*%
%TO.N,Net-(U2-Pad21)*%
%TA.AperFunction,SMDPad,CuDef*%
G36*
G01*
X141675000Y-98075000D02*
X141575000Y-98075000D01*
G75*
G02*
X141525000Y-98025000I0J50000D01*
G01*
X141525000Y-97575000D01*
G75*
G02*
X141575000Y-97525000I50000J0D01*
G01*
X141675000Y-97525000D01*
G75*
G02*
X141725000Y-97575000I0J-50000D01*
G01*
X141725000Y-98025000D01*
G75*
G02*
X141675000Y-98075000I-50000J0D01*
G01*
G37*
%TD.AperFunction*%
%TO.P,U2,22,~CS*%
%TO.N,MPU9250_CS*%
%TA.AperFunction,SMDPad,CuDef*%
G36*
G01*
X141275000Y-98075000D02*
X141175000Y-98075000D01*
G75*
G02*
X141125000Y-98025000I0J50000D01*
G01*
X141125000Y-97575000D01*
G75*
G02*
X141175000Y-97525000I50000J0D01*
G01*
X141275000Y-97525000D01*
G75*
G02*
X141325000Y-97575000I0J-50000D01*
G01*
X141325000Y-98025000D01*
G75*
G02*
X141275000Y-98075000I-50000J0D01*
G01*
G37*
%TD.AperFunction*%
%TO.P,U2,23,SCL/SCLK*%
%TO.N,IMU_CLK_3.3v*%
%TA.AperFunction,SMDPad,CuDef*%
G36*
G01*
X140875000Y-98075000D02*
X140775000Y-98075000D01*
G75*
G02*
X140725000Y-98025000I0J50000D01*
G01*
X140725000Y-97575000D01*
G75*
G02*
X140775000Y-97525000I50000J0D01*
G01*
X140875000Y-97525000D01*
G75*
G02*
X140925000Y-97575000I0J-50000D01*
G01*
X140925000Y-98025000D01*
G75*
G02*
X140875000Y-98075000I-50000J0D01*
G01*
G37*
%TD.AperFunction*%
%TO.P,U2,24,SDA/MOSI*%
%TO.N,IMU_MISO_3.3v*%
%TA.AperFunction,SMDPad,CuDef*%
G36*
G01*
X140475000Y-98075000D02*
X140375000Y-98075000D01*
G75*
G02*
X140325000Y-98025000I0J50000D01*
G01*
X140325000Y-97575000D01*
G75*
G02*
X140375000Y-97525000I50000J0D01*
G01*
X140475000Y-97525000D01*
G75*
G02*
X140525000Y-97575000I0J-50000D01*
G01*
X140525000Y-98025000D01*
G75*
G02*
X140475000Y-98075000I-50000J0D01*
G01*
G37*
%TD.AperFunction*%
%TD*%
%TO.P,C7,1*%
%TO.N,+3V3*%
%TA.AperFunction,SMDPad,CuDef*%
G36*
G01*
X139750000Y-105112500D02*
X139750000Y-103862500D01*
G75*
G02*
X140000000Y-103612500I250000J0D01*
G01*
X140750000Y-103612500D01*
G75*
G02*
X141000000Y-103862500I0J-250000D01*
G01*
X141000000Y-105112500D01*
G75*
G02*
X140750000Y-105362500I-250000J0D01*
G01*
X140000000Y-105362500D01*
G75*
G02*
X139750000Y-105112500I0J250000D01*
G01*
G37*
%TD.AperFunction*%
%TO.P,C7,2*%
%TO.N,GND*%
%TA.AperFunction,SMDPad,CuDef*%
G36*
G01*
X142550000Y-105112500D02*
X142550000Y-103862500D01*
G75*
G02*
X142800000Y-103612500I250000J0D01*
G01*
X143550000Y-103612500D01*
G75*
G02*
X143800000Y-103862500I0J-250000D01*
G01*
X143800000Y-105112500D01*
G75*
G02*
X143550000Y-105362500I-250000J0D01*
G01*
X142800000Y-105362500D01*
G75*
G02*
X142550000Y-105112500I0J250000D01*
G01*
G37*
%TD.AperFunction*%
%TD*%
%TA.AperFunction,SMDPad,CuDef*%
%TO.P,U4,1,SDO/SA0*%
%TO.N,IMU_MISO_3.3v*%
G36*
X145998814Y-98033547D02*
G01*
X146000890Y-98032991D01*
X146004071Y-98034474D01*
X146021232Y-98037500D01*
X146034581Y-98048701D01*
X146050370Y-98056064D01*
X146256436Y-98262129D01*
X146259278Y-98266188D01*
X146261140Y-98267263D01*
X146262341Y-98270562D01*
X146272335Y-98284835D01*
X146273853Y-98302193D01*
X146279813Y-98318566D01*
X146279813Y-98362500D01*
X146277985Y-98372869D01*
X146278600Y-98376359D01*
X146276828Y-98379427D01*
X146275000Y-98389798D01*
X146261670Y-98405684D01*
X146251303Y-98423640D01*
X146244535Y-98426103D01*
X146239906Y-98431620D01*
X146219486Y-98435220D01*
X146200000Y-98442313D01*
X145725000Y-98442313D01*
X145714631Y-98440485D01*
X145711141Y-98441100D01*
X145708073Y-98439328D01*
X145697702Y-98437500D01*
X145681816Y-98424170D01*
X145663860Y-98413803D01*
X145661397Y-98407035D01*
X145655880Y-98402406D01*
X145652280Y-98381986D01*
X145645187Y-98362500D01*
X145645187Y-98112500D01*
X145647015Y-98102131D01*
X145646400Y-98098641D01*
X145648172Y-98095573D01*
X145650000Y-98085202D01*
X145663330Y-98069316D01*
X145673697Y-98051360D01*
X145680465Y-98048897D01*
X145685094Y-98043380D01*
X145705514Y-98039780D01*
X145725000Y-98032687D01*
X145993934Y-98032687D01*
X145998814Y-98033547D01*
G37*
%TD.AperFunction*%
%TO.P,U4,2,SDX*%
%TO.N,GND*%
%TA.AperFunction,SMDPad,CuDef*%
G36*
G01*
X145650000Y-98837500D02*
X145650000Y-98637500D01*
G75*
G02*
X145750000Y-98537500I100000J0D01*
G01*
X146175000Y-98537500D01*
G75*
G02*
X146275000Y-98637500I0J-100000D01*
G01*
X146275000Y-98837500D01*
G75*
G02*
X146175000Y-98937500I-100000J0D01*
G01*
X145750000Y-98937500D01*
G75*
G02*
X145650000Y-98837500I0J100000D01*
G01*
G37*
%TD.AperFunction*%
%TO.P,U4,3,SCX*%
%TA.AperFunction,SMDPad,CuDef*%
G36*
G01*
X145650000Y-99337500D02*
X145650000Y-99137500D01*
G75*
G02*
X145750000Y-99037500I100000J0D01*
G01*
X146175000Y-99037500D01*
G75*
G02*
X146275000Y-99137500I0J-100000D01*
G01*
X146275000Y-99337500D01*
G75*
G02*
X146175000Y-99437500I-100000J0D01*
G01*
X145750000Y-99437500D01*
G75*
G02*
X145650000Y-99337500I0J100000D01*
G01*
G37*
%TD.AperFunction*%
%TA.AperFunction,SMDPad,CuDef*%
%TO.P,U4,4,INT1*%
%TO.N,LSM6D3_DRDY1*%
G36*
X146210369Y-99534515D02*
G01*
X146213859Y-99533900D01*
X146216927Y-99535672D01*
X146227298Y-99537500D01*
X146243184Y-99550830D01*
X146261140Y-99561197D01*
X146263603Y-99567965D01*
X146269120Y-99572594D01*
X146272720Y-99593014D01*
X146279813Y-99612500D01*
X146279813Y-99656434D01*
X146278953Y-99661314D01*
X146279509Y-99663390D01*
X146278026Y-99666571D01*
X146275000Y-99683732D01*
X146263799Y-99697080D01*
X146256436Y-99712871D01*
X146050370Y-99918936D01*
X146046312Y-99921777D01*
X146045237Y-99923640D01*
X146041937Y-99924841D01*
X146027664Y-99934836D01*
X146010305Y-99936354D01*
X145993934Y-99942313D01*
X145725000Y-99942313D01*
X145714631Y-99940485D01*
X145711141Y-99941100D01*
X145708073Y-99939328D01*
X145697702Y-99937500D01*
X145681816Y-99924170D01*
X145663860Y-99913803D01*
X145661397Y-99907035D01*
X145655880Y-99902406D01*
X145652280Y-99881986D01*
X145645187Y-99862500D01*
X145645187Y-99612500D01*
X145647015Y-99602131D01*
X145646400Y-99598641D01*
X145648172Y-99595573D01*
X145650000Y-99585202D01*
X145663330Y-99569316D01*
X145673697Y-99551360D01*
X145680465Y-99548897D01*
X145685094Y-99543380D01*
X145705514Y-99539780D01*
X145725000Y-99532687D01*
X146200000Y-99532687D01*
X146210369Y-99534515D01*
G37*
%TD.AperFunction*%
%TA.AperFunction,SMDPad,CuDef*%
%TO.P,U4,5,VDDIO*%
%TO.N,+3V3*%
G36*
X146760369Y-99584515D02*
G01*
X146763859Y-99583900D01*
X146766927Y-99585672D01*
X146777298Y-99587500D01*
X146793184Y-99600830D01*
X146811140Y-99611197D01*
X146813603Y-99617965D01*
X146819120Y-99622594D01*
X146822720Y-99643014D01*
X146829813Y-99662500D01*
X146829813Y-100137500D01*
X146827985Y-100147869D01*
X146828600Y-100151359D01*
X146826828Y-100154427D01*
X146825000Y-100164798D01*
X146811670Y-100180684D01*
X146801303Y-100198640D01*
X146794535Y-100201103D01*
X146789906Y-100206620D01*
X146769486Y-100210220D01*
X146750000Y-100217313D01*
X146500000Y-100217313D01*
X146489631Y-100215485D01*
X146486141Y-100216100D01*
X146483073Y-100214328D01*
X146472702Y-100212500D01*
X146456816Y-100199170D01*
X146438860Y-100188803D01*
X146436397Y-100182035D01*
X146430880Y-100177406D01*
X146427280Y-100156986D01*
X146420187Y-100137500D01*
X146420187Y-99868566D01*
X146421047Y-99863686D01*
X146420491Y-99861610D01*
X146421974Y-99858429D01*
X146425000Y-99841268D01*
X146436201Y-99827919D01*
X146443564Y-99812130D01*
X146649629Y-99606064D01*
X146653688Y-99603222D01*
X146654763Y-99601360D01*
X146658062Y-99600159D01*
X146672335Y-99590165D01*
X146689693Y-99588647D01*
X146706066Y-99582687D01*
X146750000Y-99582687D01*
X146760369Y-99584515D01*
G37*
%TD.AperFunction*%
%TO.P,U4,6,GND*%
%TO.N,GND*%
%TA.AperFunction,SMDPad,CuDef*%
G36*
G01*
X146925000Y-100112500D02*
X146925000Y-99687500D01*
G75*
G02*
X147025000Y-99587500I100000J0D01*
G01*
X147225000Y-99587500D01*
G75*
G02*
X147325000Y-99687500I0J-100000D01*
G01*
X147325000Y-100112500D01*
G75*
G02*
X147225000Y-100212500I-100000J0D01*
G01*
X147025000Y-100212500D01*
G75*
G02*
X146925000Y-100112500I0J100000D01*
G01*
G37*
%TD.AperFunction*%
%TA.AperFunction,SMDPad,CuDef*%
%TO.P,U4,7,GND*%
G36*
X147548814Y-99583547D02*
G01*
X147550890Y-99582991D01*
X147554071Y-99584474D01*
X147571232Y-99587500D01*
X147584581Y-99598701D01*
X147600370Y-99606064D01*
X147806436Y-99812129D01*
X147809278Y-99816188D01*
X147811140Y-99817263D01*
X147812341Y-99820562D01*
X147822335Y-99834835D01*
X147823853Y-99852193D01*
X147829813Y-99868566D01*
X147829813Y-100137500D01*
X147827985Y-100147869D01*
X147828600Y-100151359D01*
X147826828Y-100154427D01*
X147825000Y-100164798D01*
X147811670Y-100180684D01*
X147801303Y-100198640D01*
X147794535Y-100201103D01*
X147789906Y-100206620D01*
X147769486Y-100210220D01*
X147750000Y-100217313D01*
X147500000Y-100217313D01*
X147489631Y-100215485D01*
X147486141Y-100216100D01*
X147483073Y-100214328D01*
X147472702Y-100212500D01*
X147456816Y-100199170D01*
X147438860Y-100188803D01*
X147436397Y-100182035D01*
X147430880Y-100177406D01*
X147427280Y-100156986D01*
X147420187Y-100137500D01*
X147420187Y-99662500D01*
X147422015Y-99652131D01*
X147421400Y-99648641D01*
X147423172Y-99645573D01*
X147425000Y-99635202D01*
X147438330Y-99619316D01*
X147448697Y-99601360D01*
X147455465Y-99598897D01*
X147460094Y-99593380D01*
X147480514Y-99589780D01*
X147500000Y-99582687D01*
X147543934Y-99582687D01*
X147548814Y-99583547D01*
G37*
%TD.AperFunction*%
%TA.AperFunction,SMDPad,CuDef*%
%TO.P,U4,8,VDD*%
%TO.N,+3V3*%
G36*
X148535369Y-99534515D02*
G01*
X148538859Y-99533900D01*
X148541927Y-99535672D01*
X148552298Y-99537500D01*
X148568184Y-99550830D01*
X148586140Y-99561197D01*
X148588603Y-99567965D01*
X148594120Y-99572594D01*
X148597720Y-99593014D01*
X148604813Y-99612500D01*
X148604813Y-99862500D01*
X148602985Y-99872869D01*
X148603600Y-99876359D01*
X148601828Y-99879427D01*
X148600000Y-99889798D01*
X148586670Y-99905684D01*
X148576303Y-99923640D01*
X148569535Y-99926103D01*
X148564906Y-99931620D01*
X148544486Y-99935220D01*
X148525000Y-99942313D01*
X148256066Y-99942313D01*
X148251186Y-99941453D01*
X148249110Y-99942009D01*
X148245929Y-99940526D01*
X148228768Y-99937500D01*
X148215420Y-99926299D01*
X148199629Y-99918936D01*
X147993564Y-99712870D01*
X147990723Y-99708812D01*
X147988860Y-99707737D01*
X147987659Y-99704437D01*
X147977664Y-99690164D01*
X147976146Y-99672805D01*
X147970187Y-99656434D01*
X147970187Y-99612500D01*
X147972015Y-99602131D01*
X147971400Y-99598641D01*
X147973172Y-99595573D01*
X147975000Y-99585202D01*
X147988330Y-99569316D01*
X147998697Y-99551360D01*
X148005465Y-99548897D01*
X148010094Y-99543380D01*
X148030514Y-99539780D01*
X148050000Y-99532687D01*
X148525000Y-99532687D01*
X148535369Y-99534515D01*
G37*
%TD.AperFunction*%
%TO.P,U4,9,INT2*%
%TO.N,LSM6D3_DRDY2*%
%TA.AperFunction,SMDPad,CuDef*%
G36*
G01*
X147975000Y-99337500D02*
X147975000Y-99137500D01*
G75*
G02*
X148075000Y-99037500I100000J0D01*
G01*
X148500000Y-99037500D01*
G75*
G02*
X148600000Y-99137500I0J-100000D01*
G01*
X148600000Y-99337500D01*
G75*
G02*
X148500000Y-99437500I-100000J0D01*
G01*
X148075000Y-99437500D01*
G75*
G02*
X147975000Y-99337500I0J100000D01*
G01*
G37*
%TD.AperFunction*%
%TO.P,U4,10,NC*%
%TO.N,Net-(U4-Pad10)*%
%TA.AperFunction,SMDPad,CuDef*%
G36*
G01*
X147975000Y-98837500D02*
X147975000Y-98637500D01*
G75*
G02*
X148075000Y-98537500I100000J0D01*
G01*
X148500000Y-98537500D01*
G75*
G02*
X148600000Y-98637500I0J-100000D01*
G01*
X148600000Y-98837500D01*
G75*
G02*
X148500000Y-98937500I-100000J0D01*
G01*
X148075000Y-98937500D01*
G75*
G02*
X147975000Y-98837500I0J100000D01*
G01*
G37*
%TD.AperFunction*%
%TA.AperFunction,SMDPad,CuDef*%
%TO.P,U4,11,NC*%
%TO.N,Net-(U4-Pad11)*%
G36*
X148535369Y-98034515D02*
G01*
X148538859Y-98033900D01*
X148541927Y-98035672D01*
X148552298Y-98037500D01*
X148568184Y-98050830D01*
X148586140Y-98061197D01*
X148588603Y-98067965D01*
X148594120Y-98072594D01*
X148597720Y-98093014D01*
X148604813Y-98112500D01*
X148604813Y-98362500D01*
X148602985Y-98372869D01*
X148603600Y-98376359D01*
X148601828Y-98379427D01*
X148600000Y-98389798D01*
X148586670Y-98405684D01*
X148576303Y-98423640D01*
X148569535Y-98426103D01*
X148564906Y-98431620D01*
X148544486Y-98435220D01*
X148525000Y-98442313D01*
X148050000Y-98442313D01*
X148039631Y-98440485D01*
X148036141Y-98441100D01*
X148033073Y-98439328D01*
X148022702Y-98437500D01*
X148006816Y-98424170D01*
X147988860Y-98413803D01*
X147986397Y-98407035D01*
X147980880Y-98402406D01*
X147977280Y-98381986D01*
X147970187Y-98362500D01*
X147970187Y-98318566D01*
X147971047Y-98313686D01*
X147970491Y-98311610D01*
X147971974Y-98308429D01*
X147975000Y-98291268D01*
X147986201Y-98277919D01*
X147993564Y-98262130D01*
X148199629Y-98056064D01*
X148203688Y-98053222D01*
X148204763Y-98051360D01*
X148208062Y-98050159D01*
X148222335Y-98040165D01*
X148239693Y-98038647D01*
X148256066Y-98032687D01*
X148525000Y-98032687D01*
X148535369Y-98034515D01*
G37*
%TD.AperFunction*%
%TA.AperFunction,SMDPad,CuDef*%
%TO.P,U4,12,CS*%
%TO.N,LSM6D3_CS*%
G36*
X147760369Y-97759515D02*
G01*
X147763859Y-97758900D01*
X147766927Y-97760672D01*
X147777298Y-97762500D01*
X147793184Y-97775830D01*
X147811140Y-97786197D01*
X147813603Y-97792965D01*
X147819120Y-97797594D01*
X147822720Y-97818014D01*
X147829813Y-97837500D01*
X147829813Y-98106434D01*
X147828953Y-98111314D01*
X147829509Y-98113390D01*
X147828026Y-98116571D01*
X147825000Y-98133732D01*
X147813799Y-98147080D01*
X147806436Y-98162871D01*
X147600370Y-98368936D01*
X147596312Y-98371777D01*
X147595237Y-98373640D01*
X147591937Y-98374841D01*
X147577664Y-98384836D01*
X147560305Y-98386354D01*
X147543934Y-98392313D01*
X147500000Y-98392313D01*
X147489631Y-98390485D01*
X147486141Y-98391100D01*
X147483073Y-98389328D01*
X147472702Y-98387500D01*
X147456816Y-98374170D01*
X147438860Y-98363803D01*
X147436397Y-98357035D01*
X147430880Y-98352406D01*
X147427280Y-98331986D01*
X147420187Y-98312500D01*
X147420187Y-97837500D01*
X147422015Y-97827131D01*
X147421400Y-97823641D01*
X147423172Y-97820573D01*
X147425000Y-97810202D01*
X147438330Y-97794316D01*
X147448697Y-97776360D01*
X147455465Y-97773897D01*
X147460094Y-97768380D01*
X147480514Y-97764780D01*
X147500000Y-97757687D01*
X147750000Y-97757687D01*
X147760369Y-97759515D01*
G37*
%TD.AperFunction*%
%TO.P,U4,13,SCL*%
%TO.N,IMU_CLK_3.3v*%
%TA.AperFunction,SMDPad,CuDef*%
G36*
G01*
X146925000Y-98287500D02*
X146925000Y-97862500D01*
G75*
G02*
X147025000Y-97762500I100000J0D01*
G01*
X147225000Y-97762500D01*
G75*
G02*
X147325000Y-97862500I0J-100000D01*
G01*
X147325000Y-98287500D01*
G75*
G02*
X147225000Y-98387500I-100000J0D01*
G01*
X147025000Y-98387500D01*
G75*
G02*
X146925000Y-98287500I0J100000D01*
G01*
G37*
%TD.AperFunction*%
%TA.AperFunction,SMDPad,CuDef*%
%TO.P,U4,14,SDA*%
%TO.N,IMU_MOSI_3.3v*%
G36*
X146760369Y-97759515D02*
G01*
X146763859Y-97758900D01*
X146766927Y-97760672D01*
X146777298Y-97762500D01*
X146793184Y-97775830D01*
X146811140Y-97786197D01*
X146813603Y-97792965D01*
X146819120Y-97797594D01*
X146822720Y-97818014D01*
X146829813Y-97837500D01*
X146829813Y-98312500D01*
X146827985Y-98322869D01*
X146828600Y-98326359D01*
X146826828Y-98329427D01*
X146825000Y-98339798D01*
X146811670Y-98355684D01*
X146801303Y-98373640D01*
X146794535Y-98376103D01*
X146789906Y-98381620D01*
X146769486Y-98385220D01*
X146750000Y-98392313D01*
X146706066Y-98392313D01*
X146701186Y-98391453D01*
X146699110Y-98392009D01*
X146695929Y-98390526D01*
X146678768Y-98387500D01*
X146665420Y-98376299D01*
X146649629Y-98368936D01*
X146443564Y-98162870D01*
X146440723Y-98158812D01*
X146438860Y-98157737D01*
X146437659Y-98154437D01*
X146427664Y-98140164D01*
X146426146Y-98122805D01*
X146420187Y-98106434D01*
X146420187Y-97837500D01*
X146422015Y-97827131D01*
X146421400Y-97823641D01*
X146423172Y-97820573D01*
X146425000Y-97810202D01*
X146438330Y-97794316D01*
X146448697Y-97776360D01*
X146455465Y-97773897D01*
X146460094Y-97768380D01*
X146480514Y-97764780D01*
X146500000Y-97757687D01*
X146750000Y-97757687D01*
X146760369Y-97759515D01*
G37*
%TD.AperFunction*%
%TD*%
%TO.P,R6,1*%
%TO.N,+3V3*%
%TA.AperFunction,SMDPad,CuDef*%
G36*
G01*
X129357500Y-94375000D02*
X128882500Y-94375000D01*
G75*
G02*
X128645000Y-94137500I0J237500D01*
G01*
X128645000Y-93562500D01*
G75*
G02*
X128882500Y-93325000I237500J0D01*
G01*
X129357500Y-93325000D01*
G75*
G02*
X129595000Y-93562500I0J-237500D01*
G01*
X129595000Y-94137500D01*
G75*
G02*
X129357500Y-94375000I-237500J0D01*
G01*
G37*
%TD.AperFunction*%
%TO.P,R6,2*%
%TO.N,ICM20948_DRDY_3.3v*%
%TA.AperFunction,SMDPad,CuDef*%
G36*
G01*
X129357500Y-92625000D02*
X128882500Y-92625000D01*
G75*
G02*
X128645000Y-92387500I0J237500D01*
G01*
X128645000Y-91812500D01*
G75*
G02*
X128882500Y-91575000I237500J0D01*
G01*
X129357500Y-91575000D01*
G75*
G02*
X129595000Y-91812500I0J-237500D01*
G01*
X129595000Y-92387500D01*
G75*
G02*
X129357500Y-92625000I-237500J0D01*
G01*
G37*
%TD.AperFunction*%
%TD*%
D12*
%TO.P,J1,1,Pin_1*%
%TO.N,LSM6D3_CS*%
X125050000Y-86960000D03*
D13*
%TO.P,J1,2,Pin_2*%
%TO.N,ICM20948_CS_3.3v*%
X125050000Y-89500000D03*
%TO.P,J1,3,Pin_3*%
%TO.N,ICM20948_DRDY_3.3v*%
X125050000Y-92040000D03*
%TO.P,J1,4,Pin_4*%
%TO.N,IMU_MISO_3.3v*%
X125050000Y-94580000D03*
%TO.P,J1,5,Pin_5*%
%TO.N,MPU9250_CS*%
X125050000Y-97120000D03*
%TO.P,J1,6,Pin_6*%
%TO.N,Net-(J1-Pad6)*%
X125050000Y-99660000D03*
%TO.P,J1,7,Pin_7*%
%TO.N,IMU_MOSI_3.3v*%
X125050000Y-102200000D03*
%TO.P,J1,8,Pin_8*%
%TO.N,IMU_CLK_3.3v*%
X125050000Y-104740000D03*
%TO.P,J1,9,Pin_9*%
%TO.N,GND*%
X125050000Y-107280000D03*
%TO.P,J1,10,Pin_10*%
%TO.N,+5V*%
X125050000Y-109820000D03*
%TD*%
D10*
%TO.P,Q6,1,G*%
%TO.N,+1V8*%
X133562889Y-101837111D03*
%TO.P,Q6,2,S*%
%TO.N,IMU_MOSI*%
X133562889Y-99937111D03*
%TO.P,Q6,3,D*%
%TO.N,IMU_MOSI_3.3v*%
X131562889Y-100887111D03*
%TD*%
%TO.P,C9,1*%
%TO.N,Net-(C9-Pad1)*%
%TA.AperFunction,SMDPad,CuDef*%
G36*
G01*
X140462500Y-102868750D02*
X140462500Y-102356250D01*
G75*
G02*
X140681250Y-102137500I218750J0D01*
G01*
X141118750Y-102137500D01*
G75*
G02*
X141337500Y-102356250I0J-218750D01*
G01*
X141337500Y-102868750D01*
G75*
G02*
X141118750Y-103087500I-218750J0D01*
G01*
X140681250Y-103087500D01*
G75*
G02*
X140462500Y-102868750I0J218750D01*
G01*
G37*
%TD.AperFunction*%
%TO.P,C9,2*%
%TO.N,GND*%
%TA.AperFunction,SMDPad,CuDef*%
G36*
G01*
X142037500Y-102868750D02*
X142037500Y-102356250D01*
G75*
G02*
X142256250Y-102137500I218750J0D01*
G01*
X142693750Y-102137500D01*
G75*
G02*
X142912500Y-102356250I0J-218750D01*
G01*
X142912500Y-102868750D01*
G75*
G02*
X142693750Y-103087500I-218750J0D01*
G01*
X142256250Y-103087500D01*
G75*
G02*
X142037500Y-102868750I0J218750D01*
G01*
G37*
%TD.AperFunction*%
%TD*%
%TO.P,Q3,1,G*%
%TO.N,+1V8*%
X133370000Y-94150000D03*
%TO.P,Q3,2,S*%
%TO.N,ICM20948_DRDY*%
X133370000Y-92250000D03*
%TO.P,Q3,3,D*%
%TO.N,ICM20948_DRDY_3.3v*%
X131370000Y-93200000D03*
%TD*%
%TO.P,C6,1*%
%TO.N,+1V8*%
%TA.AperFunction,SMDPad,CuDef*%
G36*
G01*
X144787500Y-91212500D02*
X144312500Y-91212500D01*
G75*
G02*
X144075000Y-90975000I0J237500D01*
G01*
X144075000Y-90400000D01*
G75*
G02*
X144312500Y-90162500I237500J0D01*
G01*
X144787500Y-90162500D01*
G75*
G02*
X145025000Y-90400000I0J-237500D01*
G01*
X145025000Y-90975000D01*
G75*
G02*
X144787500Y-91212500I-237500J0D01*
G01*
G37*
%TD.AperFunction*%
%TO.P,C6,2*%
%TO.N,GND*%
%TA.AperFunction,SMDPad,CuDef*%
G36*
G01*
X144787500Y-89462500D02*
X144312500Y-89462500D01*
G75*
G02*
X144075000Y-89225000I0J237500D01*
G01*
X144075000Y-88650000D01*
G75*
G02*
X144312500Y-88412500I237500J0D01*
G01*
X144787500Y-88412500D01*
G75*
G02*
X145025000Y-88650000I0J-237500D01*
G01*
X145025000Y-89225000D01*
G75*
G02*
X144787500Y-89462500I-237500J0D01*
G01*
G37*
%TD.AperFunction*%
%TD*%
%TO.P,R12,1*%
%TO.N,+3V3*%
%TA.AperFunction,SMDPad,CuDef*%
G36*
G01*
X129000389Y-99487111D02*
X129475389Y-99487111D01*
G75*
G02*
X129712889Y-99724611I0J-237500D01*
G01*
X129712889Y-100299611D01*
G75*
G02*
X129475389Y-100537111I-237500J0D01*
G01*
X129000389Y-100537111D01*
G75*
G02*
X128762889Y-100299611I0J237500D01*
G01*
X128762889Y-99724611D01*
G75*
G02*
X129000389Y-99487111I237500J0D01*
G01*
G37*
%TD.AperFunction*%
%TO.P,R12,2*%
%TO.N,IMU_MOSI_3.3v*%
%TA.AperFunction,SMDPad,CuDef*%
G36*
G01*
X129000389Y-101237111D02*
X129475389Y-101237111D01*
G75*
G02*
X129712889Y-101474611I0J-237500D01*
G01*
X129712889Y-102049611D01*
G75*
G02*
X129475389Y-102287111I-237500J0D01*
G01*
X129000389Y-102287111D01*
G75*
G02*
X128762889Y-102049611I0J237500D01*
G01*
X128762889Y-101474611D01*
G75*
G02*
X129000389Y-101237111I237500J0D01*
G01*
G37*
%TD.AperFunction*%
%TD*%
%TO.P,R4,1*%
%TO.N,+1V8*%
%TA.AperFunction,SMDPad,CuDef*%
G36*
G01*
X135532500Y-94425000D02*
X135057500Y-94425000D01*
G75*
G02*
X134820000Y-94187500I0J237500D01*
G01*
X134820000Y-93612500D01*
G75*
G02*
X135057500Y-93375000I237500J0D01*
G01*
X135532500Y-93375000D01*
G75*
G02*
X135770000Y-93612500I0J-237500D01*
G01*
X135770000Y-94187500D01*
G75*
G02*
X135532500Y-94425000I-237500J0D01*
G01*
G37*
%TD.AperFunction*%
%TO.P,R4,2*%
%TO.N,ICM20948_DRDY*%
%TA.AperFunction,SMDPad,CuDef*%
G36*
G01*
X135532500Y-92675000D02*
X135057500Y-92675000D01*
G75*
G02*
X134820000Y-92437500I0J237500D01*
G01*
X134820000Y-91862500D01*
G75*
G02*
X135057500Y-91625000I237500J0D01*
G01*
X135532500Y-91625000D01*
G75*
G02*
X135770000Y-91862500I0J-237500D01*
G01*
X135770000Y-92437500D01*
G75*
G02*
X135532500Y-92675000I-237500J0D01*
G01*
G37*
%TD.AperFunction*%
%TD*%
%TO.P,C2,1*%
%TO.N,+3V3*%
%TA.AperFunction,SMDPad,CuDef*%
G36*
G01*
X138831250Y-100750000D02*
X138318750Y-100750000D01*
G75*
G02*
X138100000Y-100531250I0J218750D01*
G01*
X138100000Y-100093750D01*
G75*
G02*
X138318750Y-99875000I218750J0D01*
G01*
X138831250Y-99875000D01*
G75*
G02*
X139050000Y-100093750I0J-218750D01*
G01*
X139050000Y-100531250D01*
G75*
G02*
X138831250Y-100750000I-218750J0D01*
G01*
G37*
%TD.AperFunction*%
%TO.P,C2,2*%
%TO.N,GND*%
%TA.AperFunction,SMDPad,CuDef*%
G36*
G01*
X138831250Y-99175000D02*
X138318750Y-99175000D01*
G75*
G02*
X138100000Y-98956250I0J218750D01*
G01*
X138100000Y-98518750D01*
G75*
G02*
X138318750Y-98300000I218750J0D01*
G01*
X138831250Y-98300000D01*
G75*
G02*
X139050000Y-98518750I0J-218750D01*
G01*
X139050000Y-98956250D01*
G75*
G02*
X138831250Y-99175000I-218750J0D01*
G01*
G37*
%TD.AperFunction*%
%TD*%
%TO.P,R11,1*%
%TO.N,+1V8*%
%TA.AperFunction,SMDPad,CuDef*%
G36*
G01*
X135525389Y-102387111D02*
X135050389Y-102387111D01*
G75*
G02*
X134812889Y-102149611I0J237500D01*
G01*
X134812889Y-101574611D01*
G75*
G02*
X135050389Y-101337111I237500J0D01*
G01*
X135525389Y-101337111D01*
G75*
G02*
X135762889Y-101574611I0J-237500D01*
G01*
X135762889Y-102149611D01*
G75*
G02*
X135525389Y-102387111I-237500J0D01*
G01*
G37*
%TD.AperFunction*%
%TO.P,R11,2*%
%TO.N,IMU_MOSI*%
%TA.AperFunction,SMDPad,CuDef*%
G36*
G01*
X135525389Y-100637111D02*
X135050389Y-100637111D01*
G75*
G02*
X134812889Y-100399611I0J237500D01*
G01*
X134812889Y-99824611D01*
G75*
G02*
X135050389Y-99587111I237500J0D01*
G01*
X135525389Y-99587111D01*
G75*
G02*
X135762889Y-99824611I0J-237500D01*
G01*
X135762889Y-100399611D01*
G75*
G02*
X135525389Y-100637111I-237500J0D01*
G01*
G37*
%TD.AperFunction*%
%TD*%
%TO.P,R14,1*%
%TO.N,+3V3*%
%TA.AperFunction,SMDPad,CuDef*%
G36*
G01*
X129162500Y-90480000D02*
X128687500Y-90480000D01*
G75*
G02*
X128450000Y-90242500I0J237500D01*
G01*
X128450000Y-89667500D01*
G75*
G02*
X128687500Y-89430000I237500J0D01*
G01*
X129162500Y-89430000D01*
G75*
G02*
X129400000Y-89667500I0J-237500D01*
G01*
X129400000Y-90242500D01*
G75*
G02*
X129162500Y-90480000I-237500J0D01*
G01*
G37*
%TD.AperFunction*%
%TO.P,R14,2*%
%TO.N,ICM20948_CS_3.3v*%
%TA.AperFunction,SMDPad,CuDef*%
G36*
G01*
X129162500Y-88730000D02*
X128687500Y-88730000D01*
G75*
G02*
X128450000Y-88492500I0J237500D01*
G01*
X128450000Y-87917500D01*
G75*
G02*
X128687500Y-87680000I237500J0D01*
G01*
X129162500Y-87680000D01*
G75*
G02*
X129400000Y-87917500I0J-237500D01*
G01*
X129400000Y-88492500D01*
G75*
G02*
X129162500Y-88730000I-237500J0D01*
G01*
G37*
%TD.AperFunction*%
%TD*%
%TO.P,C13,1*%
%TO.N,+5V*%
%TA.AperFunction,SMDPad,CuDef*%
G36*
G01*
X128537500Y-108125000D02*
X129012500Y-108125000D01*
G75*
G02*
X129250000Y-108362500I0J-237500D01*
G01*
X129250000Y-108937500D01*
G75*
G02*
X129012500Y-109175000I-237500J0D01*
G01*
X128537500Y-109175000D01*
G75*
G02*
X128300000Y-108937500I0J237500D01*
G01*
X128300000Y-108362500D01*
G75*
G02*
X128537500Y-108125000I237500J0D01*
G01*
G37*
%TD.AperFunction*%
%TO.P,C13,2*%
%TO.N,GND*%
%TA.AperFunction,SMDPad,CuDef*%
G36*
G01*
X128537500Y-109875000D02*
X129012500Y-109875000D01*
G75*
G02*
X129250000Y-110112500I0J-237500D01*
G01*
X129250000Y-110687500D01*
G75*
G02*
X129012500Y-110925000I-237500J0D01*
G01*
X128537500Y-110925000D01*
G75*
G02*
X128300000Y-110687500I0J237500D01*
G01*
X128300000Y-110112500D01*
G75*
G02*
X128537500Y-109875000I237500J0D01*
G01*
G37*
%TD.AperFunction*%
%TD*%
%TO.P,C1,1*%
%TO.N,+1V8*%
%TA.AperFunction,SMDPad,CuDef*%
G36*
G01*
X138306250Y-91562500D02*
X137793750Y-91562500D01*
G75*
G02*
X137575000Y-91343750I0J218750D01*
G01*
X137575000Y-90906250D01*
G75*
G02*
X137793750Y-90687500I218750J0D01*
G01*
X138306250Y-90687500D01*
G75*
G02*
X138525000Y-90906250I0J-218750D01*
G01*
X138525000Y-91343750D01*
G75*
G02*
X138306250Y-91562500I-218750J0D01*
G01*
G37*
%TD.AperFunction*%
%TO.P,C1,2*%
%TO.N,GND*%
%TA.AperFunction,SMDPad,CuDef*%
G36*
G01*
X138306250Y-89987500D02*
X137793750Y-89987500D01*
G75*
G02*
X137575000Y-89768750I0J218750D01*
G01*
X137575000Y-89331250D01*
G75*
G02*
X137793750Y-89112500I218750J0D01*
G01*
X138306250Y-89112500D01*
G75*
G02*
X138525000Y-89331250I0J-218750D01*
G01*
X138525000Y-89768750D01*
G75*
G02*
X138306250Y-89987500I-218750J0D01*
G01*
G37*
%TD.AperFunction*%
%TD*%
%TO.P,C4,1*%
%TO.N,+1V8*%
%TA.AperFunction,SMDPad,CuDef*%
G36*
G01*
X146950000Y-91612500D02*
X146950000Y-91137500D01*
G75*
G02*
X147187500Y-90900000I237500J0D01*
G01*
X147762500Y-90900000D01*
G75*
G02*
X148000000Y-91137500I0J-237500D01*
G01*
X148000000Y-91612500D01*
G75*
G02*
X147762500Y-91850000I-237500J0D01*
G01*
X147187500Y-91850000D01*
G75*
G02*
X146950000Y-91612500I0J237500D01*
G01*
G37*
%TD.AperFunction*%
%TO.P,C4,2*%
%TO.N,GND*%
%TA.AperFunction,SMDPad,CuDef*%
G36*
G01*
X148700000Y-91612500D02*
X148700000Y-91137500D01*
G75*
G02*
X148937500Y-90900000I237500J0D01*
G01*
X149512500Y-90900000D01*
G75*
G02*
X149750000Y-91137500I0J-237500D01*
G01*
X149750000Y-91612500D01*
G75*
G02*
X149512500Y-91850000I-237500J0D01*
G01*
X148937500Y-91850000D01*
G75*
G02*
X148700000Y-91612500I0J237500D01*
G01*
G37*
%TD.AperFunction*%
%TD*%
%TO.P,R10,1*%
%TO.N,+3V3*%
%TA.AperFunction,SMDPad,CuDef*%
G36*
G01*
X129191299Y-103748799D02*
X129666299Y-103748799D01*
G75*
G02*
X129903799Y-103986299I0J-237500D01*
G01*
X129903799Y-104561299D01*
G75*
G02*
X129666299Y-104798799I-237500J0D01*
G01*
X129191299Y-104798799D01*
G75*
G02*
X128953799Y-104561299I0J237500D01*
G01*
X128953799Y-103986299D01*
G75*
G02*
X129191299Y-103748799I237500J0D01*
G01*
G37*
%TD.AperFunction*%
%TO.P,R10,2*%
%TO.N,IMU_CLK_3.3v*%
%TA.AperFunction,SMDPad,CuDef*%
G36*
G01*
X129191299Y-105498799D02*
X129666299Y-105498799D01*
G75*
G02*
X129903799Y-105736299I0J-237500D01*
G01*
X129903799Y-106311299D01*
G75*
G02*
X129666299Y-106548799I-237500J0D01*
G01*
X129191299Y-106548799D01*
G75*
G02*
X128953799Y-106311299I0J237500D01*
G01*
X128953799Y-105736299D01*
G75*
G02*
X129191299Y-105498799I237500J0D01*
G01*
G37*
%TD.AperFunction*%
%TD*%
%TO.P,R8,1*%
%TO.N,+1V8*%
%TA.AperFunction,SMDPad,CuDef*%
G36*
G01*
X135591299Y-106448799D02*
X135116299Y-106448799D01*
G75*
G02*
X134878799Y-106211299I0J237500D01*
G01*
X134878799Y-105636299D01*
G75*
G02*
X135116299Y-105398799I237500J0D01*
G01*
X135591299Y-105398799D01*
G75*
G02*
X135828799Y-105636299I0J-237500D01*
G01*
X135828799Y-106211299D01*
G75*
G02*
X135591299Y-106448799I-237500J0D01*
G01*
G37*
%TD.AperFunction*%
%TO.P,R8,2*%
%TO.N,IMU_CLK*%
%TA.AperFunction,SMDPad,CuDef*%
G36*
G01*
X135591299Y-104698799D02*
X135116299Y-104698799D01*
G75*
G02*
X134878799Y-104461299I0J237500D01*
G01*
X134878799Y-103886299D01*
G75*
G02*
X135116299Y-103648799I237500J0D01*
G01*
X135591299Y-103648799D01*
G75*
G02*
X135828799Y-103886299I0J-237500D01*
G01*
X135828799Y-104461299D01*
G75*
G02*
X135591299Y-104698799I-237500J0D01*
G01*
G37*
%TD.AperFunction*%
%TD*%
D14*
%TO.N,GND*%
X150425000Y-105225000D03*
D15*
%TO.N,*%
X149250000Y-87750000D03*
X149250000Y-109000000D03*
D14*
%TO.N,MPU9250_CS*%
X140750000Y-96212500D03*
%TO.N,IMU_MOSI_3.3v*%
X139150000Y-102637500D03*
X146762500Y-97037500D03*
%TO.N,IMU_MOSI*%
X135325000Y-100050000D03*
X137025000Y-100050000D03*
%TO.N,IMU_MISO_3.3v*%
X145275000Y-96825000D03*
X138875000Y-97087500D03*
%TO.N,IMU_MISO*%
X135142500Y-96307500D03*
X137450000Y-96125000D03*
%TO.N,IMU_CLK_3.3v*%
X139162170Y-95487830D03*
X137611299Y-105138701D03*
X147875000Y-96725000D03*
%TO.N,ICM20948_DRDY*%
X140350000Y-94525000D03*
X135295000Y-92150000D03*
%TO.N,GND*%
X138100000Y-89512500D03*
X144500000Y-108775000D03*
X138325000Y-108775000D03*
X143162500Y-92962500D03*
X134950000Y-110650000D03*
X138600000Y-98725000D03*
X128800000Y-110475000D03*
X148900000Y-94550000D03*
X150100000Y-98125000D03*
X141925000Y-95962500D03*
X146400000Y-93225000D03*
X142475000Y-102612500D03*
X146662500Y-102862500D03*
%TO.N,+3V3*%
X129528799Y-104273799D03*
X129025000Y-89955000D03*
X150400000Y-103625000D03*
X149950000Y-96875000D03*
X146825000Y-104600000D03*
X129120000Y-93900000D03*
X140200000Y-104462500D03*
X129387889Y-100012111D03*
X144900000Y-100975000D03*
X138250000Y-110500000D03*
X129250000Y-96300000D03*
X146556250Y-101631250D03*
%TO.N,+1V8*%
X135225000Y-90030000D03*
X135378799Y-105998799D03*
X144550000Y-90687500D03*
X138050000Y-91237500D03*
X135345000Y-94000000D03*
X135312889Y-101837111D03*
X135227500Y-98032500D03*
%TO.N,LSM6D3_CS*%
X148187500Y-95362500D03*
%TD*%
D16*
%TO.N,+3V3*%
X138424999Y-103162499D02*
X138706250Y-103443750D01*
D17*
%TO.N,LED*%
X148675000Y-105200000D02*
X148675000Y-103625000D01*
X148675000Y-103625000D02*
X148650000Y-103600000D01*
%TO.N,Net-(C9-Pad1)*%
X141625000Y-101764118D02*
X140900000Y-102489118D01*
X141625000Y-100800000D02*
X141625000Y-101764118D01*
X140900000Y-102489118D02*
X140900000Y-102612500D01*
%TO.N,Net-(C5-Pad1)*%
X141450000Y-92825000D02*
X141587500Y-92962500D01*
X141450000Y-91337500D02*
X141450000Y-92825000D01*
%TO.N,MPU9250_CS*%
X141225000Y-97800000D02*
X141225000Y-96687500D01*
X141225000Y-96687500D02*
X140750000Y-96212500D01*
%TO.N,IMU_MOSI_3.3v*%
X125050000Y-102200000D02*
X128800000Y-102200000D01*
X141225000Y-101235552D02*
X140595643Y-101864909D01*
X146762500Y-97037500D02*
X146925000Y-96875000D01*
X139922591Y-101864909D02*
X139150000Y-102637500D01*
X141225000Y-100800000D02*
X141225000Y-101235552D01*
X131562889Y-100887111D02*
X130112889Y-100887111D01*
X146675000Y-98137500D02*
X146675000Y-97125000D01*
X130112889Y-100887111D02*
X129237889Y-101762111D01*
X128800000Y-102200000D02*
X129237889Y-101762111D01*
X140595643Y-101864909D02*
X139922591Y-101864909D01*
X146675000Y-97125000D02*
X146762500Y-97037500D01*
%TO.N,IMU_MOSI*%
X137025000Y-100025000D02*
X137025000Y-100050000D01*
X136600000Y-99600000D02*
X137025000Y-100025000D01*
X135512889Y-99937111D02*
X135562889Y-99987111D01*
X139712500Y-87800000D02*
X140250000Y-88337500D01*
X136550000Y-88475000D02*
X136600000Y-88525000D01*
X133562889Y-99937111D02*
X135512889Y-99937111D01*
X136600000Y-88525000D02*
X136600000Y-99600000D01*
X136550000Y-88475000D02*
X137225000Y-87800000D01*
X137225000Y-87800000D02*
X139712500Y-87800000D01*
%TO.N,IMU_MISO_3.3v*%
X129927500Y-97257500D02*
X129227500Y-97957500D01*
X125050000Y-94958180D02*
X125050000Y-94580000D01*
X140275000Y-97812500D02*
X139900000Y-97437500D01*
X129227500Y-97957500D02*
X128049320Y-97957500D01*
X128049320Y-97957500D02*
X125050000Y-94958180D01*
X140275000Y-97812500D02*
X139550000Y-97087500D01*
X145275000Y-97550000D02*
X145275000Y-96825000D01*
X145962500Y-98237500D02*
X145275000Y-97550000D01*
X131452500Y-97257500D02*
X129927500Y-97257500D01*
X139550000Y-97087500D02*
X138875000Y-97087500D01*
%TO.N,IMU_MISO*%
X135602500Y-96307500D02*
X135142500Y-96307500D01*
X135602500Y-96057500D02*
X135602500Y-96307500D01*
X141050000Y-91337500D02*
X141050000Y-91674670D01*
X137450000Y-95373052D02*
X137450000Y-96125000D01*
X141050000Y-91674670D02*
X141050000Y-91773052D01*
X135142500Y-96307500D02*
X133452500Y-96307500D01*
X141050000Y-91773052D02*
X137450000Y-95373052D01*
%TO.N,IMU_CLK_3.3v*%
X147175000Y-97771936D02*
X147625000Y-97321936D01*
X130628799Y-106023799D02*
X131678799Y-104973799D01*
X139162170Y-95487830D02*
X139162170Y-95737170D01*
X147625000Y-97321936D02*
X147875000Y-97071936D01*
X139175000Y-95462500D02*
X139162170Y-95475330D01*
X129428799Y-106023799D02*
X130628799Y-106023799D01*
X125050000Y-104740000D02*
X128145000Y-104740000D01*
X147875000Y-97071936D02*
X147875000Y-96725000D01*
X139162170Y-95737170D02*
X140825000Y-97400000D01*
X140825000Y-97800000D02*
X140825000Y-97400000D01*
X139162170Y-95475330D02*
X139162170Y-95487830D01*
X128145000Y-104740000D02*
X129428799Y-106023799D01*
X147175000Y-98137500D02*
X147175000Y-97771936D01*
%TO.N,IMU_CLK*%
X140650000Y-88000330D02*
X139774670Y-87125000D01*
X135353799Y-104173799D02*
X136197591Y-103330007D01*
X139774670Y-87125000D02*
X136900000Y-87125000D01*
X135628799Y-104098799D02*
X133753799Y-104098799D01*
X136197591Y-103330007D02*
X136197591Y-87827409D01*
X136900000Y-87125000D02*
X136712500Y-87312500D01*
X140650000Y-88337500D02*
X140650000Y-88000330D01*
X136197591Y-87827409D02*
X136712500Y-87312500D01*
X133753799Y-104098799D02*
X133678799Y-104023799D01*
%TO.N,ICM20948_DRDY_3.3v*%
X129120000Y-92100000D02*
X125110000Y-92100000D01*
X125110000Y-92100000D02*
X125050000Y-92040000D01*
X130220000Y-93200000D02*
X129120000Y-92100000D01*
X131370000Y-93200000D02*
X130220000Y-93200000D01*
%TO.N,ICM20948_DRDY*%
X144050000Y-92671350D02*
X144050000Y-93253650D01*
X140350000Y-94525000D02*
X140125000Y-94525000D01*
X142716150Y-91337500D02*
X144050000Y-92671350D01*
X144050000Y-93253650D02*
X142828650Y-94475000D01*
X135295000Y-92150000D02*
X133470000Y-92150000D01*
X142250000Y-91337500D02*
X142716150Y-91337500D01*
X142828650Y-94475000D02*
X142778650Y-94525000D01*
X133470000Y-92150000D02*
X133370000Y-92250000D01*
X142778650Y-94525000D02*
X140350000Y-94525000D01*
%TO.N,ICM20948_CS_3.3v*%
X126345000Y-88205000D02*
X125050000Y-89500000D01*
X129800000Y-89080000D02*
X128925000Y-88205000D01*
X131125000Y-89080000D02*
X129800000Y-89080000D01*
X128925000Y-88205000D02*
X126345000Y-88205000D01*
%TO.N,ICM20948_CS*%
X141050000Y-88337500D02*
X141050000Y-87901947D01*
X139920643Y-86772590D02*
X136732410Y-86772590D01*
D16*
X135300000Y-88205000D02*
X133200000Y-88205000D01*
D17*
X136732410Y-86772590D02*
X135300000Y-88205000D01*
X136330000Y-87175000D02*
X135300000Y-88205000D01*
X141050000Y-87901947D02*
X139920643Y-86772590D01*
D16*
X133200000Y-88205000D02*
X133125000Y-88130000D01*
D17*
X141050000Y-88337500D02*
X141050000Y-88000330D01*
%TO.N,GND*%
X142025000Y-102162500D02*
X142475000Y-102612500D01*
X147675000Y-101262500D02*
X148087500Y-101675000D01*
X143175000Y-104487500D02*
X143175000Y-103312500D01*
X141875000Y-96362500D02*
X141900000Y-96337500D01*
X144650000Y-93200000D02*
X144750000Y-93300000D01*
D16*
X149875000Y-92025000D02*
X149225000Y-91375000D01*
D17*
X145962500Y-98737500D02*
X144912500Y-98737500D01*
X146325000Y-93300000D02*
X146400000Y-93225000D01*
X142025000Y-100800000D02*
X142025000Y-102162500D01*
X146662500Y-102862500D02*
X147850000Y-101675000D01*
X142750000Y-88837500D02*
X144450000Y-88837500D01*
X146712500Y-102862500D02*
X146725000Y-102850000D01*
X146662500Y-102862500D02*
X146712500Y-102862500D01*
X128775000Y-110400000D02*
X129500000Y-109675000D01*
X144912500Y-98737500D02*
X144675000Y-98500000D01*
X147675000Y-99962500D02*
X147675000Y-101262500D01*
X147850000Y-101675000D02*
X148087500Y-101675000D01*
X142766150Y-92962500D02*
X143162500Y-92962500D01*
X147175000Y-99962500D02*
X147675000Y-99962500D01*
X142775000Y-98312500D02*
X144487500Y-98312500D01*
X141850000Y-92046350D02*
X142766150Y-92962500D01*
X141850000Y-91337500D02*
X141850000Y-92046350D01*
X142025000Y-96062500D02*
X141925000Y-95962500D01*
X141850000Y-88337500D02*
X141850000Y-88000330D01*
X146012500Y-99300000D02*
X146012500Y-98800000D01*
X139200000Y-109650000D02*
X140500000Y-109650000D01*
X144750000Y-93300000D02*
X146325000Y-93300000D01*
X138325000Y-108775000D02*
X139200000Y-109650000D01*
D16*
X149875000Y-93850000D02*
X149875000Y-92025000D01*
D17*
X142025000Y-97800000D02*
X142025000Y-96062500D01*
X129500000Y-109675000D02*
X130575000Y-109675000D01*
X143175000Y-103312500D02*
X142475000Y-102612500D01*
D18*
%TO.N,+5V*%
X131290002Y-110625000D02*
X130575000Y-110625000D01*
D19*
X125050000Y-109820000D02*
X126220000Y-108650000D01*
D18*
X131555001Y-108989999D02*
X131555001Y-110360001D01*
D19*
X126220000Y-108650000D02*
X128775000Y-108650000D01*
X128675000Y-108550000D02*
X128775000Y-108650000D01*
D18*
X130575000Y-108725000D02*
X131290002Y-108725000D01*
X131555001Y-110360001D02*
X131290002Y-110625000D01*
X130500000Y-108650000D02*
X130575000Y-108725000D01*
X128775000Y-108650000D02*
X130500000Y-108650000D01*
X131290002Y-108725000D02*
X131555001Y-108989999D01*
D17*
%TO.N,+3V3*%
X140825000Y-100800000D02*
X140825000Y-101137170D01*
D16*
X146512500Y-100337500D02*
X146550000Y-100300000D01*
D17*
X142775000Y-100312500D02*
X144437500Y-100312500D01*
D16*
X149950000Y-96875000D02*
X150515685Y-96875000D01*
X138424999Y-103162499D02*
X138424999Y-100462501D01*
D18*
X136525000Y-108775000D02*
X138250000Y-110500000D01*
X138250000Y-110500000D02*
X140400000Y-110500000D01*
D17*
X146556250Y-101631250D02*
X146512500Y-101675000D01*
X150012500Y-99800000D02*
X148337500Y-99800000D01*
X138575000Y-100312500D02*
X139373790Y-99513710D01*
X140825000Y-101137170D02*
X140449670Y-101512500D01*
D18*
X140400000Y-110500000D02*
X140500000Y-110600000D01*
D16*
X150875010Y-97234325D02*
X150875010Y-98937490D01*
D17*
X146675000Y-99962500D02*
X146675000Y-101512500D01*
X150075000Y-99737500D02*
X150012500Y-99800000D01*
X140449670Y-101512500D02*
X140137500Y-101512500D01*
D18*
X134925000Y-108725000D02*
X134975000Y-108775000D01*
D16*
X150875010Y-98937490D02*
X150075000Y-99737500D01*
D17*
X146675000Y-101512500D02*
X146556250Y-101631250D01*
D18*
X141480001Y-108964999D02*
X141480001Y-110335001D01*
X132775000Y-108725000D02*
X134925000Y-108725000D01*
D17*
X140137500Y-101512500D02*
X139525000Y-101512500D01*
X139373790Y-98376540D02*
X139437830Y-98312500D01*
X139525000Y-101512500D02*
X138325000Y-100312500D01*
D16*
X139750000Y-104487500D02*
X138706250Y-103443750D01*
X140375000Y-104487500D02*
X139750000Y-104487500D01*
D18*
X141215002Y-110600000D02*
X140500000Y-110600000D01*
X140500000Y-108700000D02*
X141215002Y-108700000D01*
D16*
X150515685Y-96875000D02*
X150875010Y-97234325D01*
D18*
X134975000Y-108775000D02*
X136525000Y-108775000D01*
D16*
X138424999Y-100462501D02*
X138575000Y-100312500D01*
X138473799Y-103211299D02*
X138424999Y-103162499D01*
D17*
X140312170Y-101512500D02*
X140137500Y-101512500D01*
X139437830Y-98312500D02*
X139775000Y-98312500D01*
X138473799Y-103211299D02*
X138706250Y-103443750D01*
D16*
X146512500Y-101675000D02*
X146512500Y-100337500D01*
D18*
X141215002Y-108700000D02*
X141480001Y-108964999D01*
D17*
X139373790Y-99513710D02*
X139373790Y-98376540D01*
D18*
X141480001Y-110335001D02*
X141215002Y-110600000D01*
D17*
X144900000Y-100046936D02*
X144900000Y-100975000D01*
D16*
%TO.N,+1V8*%
X135728799Y-105748799D02*
X133853799Y-105748799D01*
D17*
X140435960Y-91888710D02*
X138701210Y-91888710D01*
D19*
X145700000Y-108170176D02*
X144179824Y-106650000D01*
X144179824Y-106650000D02*
X136080000Y-106650000D01*
D18*
X147350010Y-94124990D02*
X146425000Y-95050000D01*
D16*
X135345000Y-94000000D02*
X133520000Y-94000000D01*
D17*
X140650000Y-91337500D02*
X140650000Y-91674670D01*
D16*
X133853799Y-105748799D02*
X133678799Y-105923799D01*
D18*
X147350010Y-91025010D02*
X147350010Y-94124990D01*
D17*
X144400000Y-90837500D02*
X142750000Y-90837500D01*
D18*
X142700000Y-108775000D02*
X144500000Y-110575000D01*
D16*
X135462889Y-101837111D02*
X135562889Y-101737111D01*
D19*
X144500000Y-110575000D02*
X144975000Y-110575000D01*
D16*
X133562889Y-101837111D02*
X135462889Y-101837111D01*
D17*
X140650000Y-91674670D02*
X140435960Y-91888710D01*
D16*
X133520000Y-94000000D02*
X133370000Y-94150000D01*
D17*
X138701210Y-91888710D02*
X138050000Y-91237500D01*
D16*
X135602500Y-98057500D02*
X133602500Y-98057500D01*
D19*
X145700000Y-109850000D02*
X145700000Y-108170176D01*
X136080000Y-106650000D02*
X135353799Y-105923799D01*
D16*
X133602500Y-98057500D02*
X133452500Y-98207500D01*
D19*
X147475000Y-91375000D02*
X145237500Y-91375000D01*
D18*
X142700000Y-108700000D02*
X142700000Y-108775000D01*
D16*
X135225000Y-90030000D02*
X133125000Y-90030000D01*
D19*
X144975000Y-110575000D02*
X145700000Y-109850000D01*
D17*
X133620000Y-93900000D02*
X133370000Y-94150000D01*
D19*
X145237500Y-91375000D02*
X144550000Y-90687500D01*
D16*
X135225000Y-90030000D02*
X135300000Y-89955000D01*
D17*
%TO.N,LSM6D3_CS*%
X147625000Y-98075000D02*
X148723790Y-96976210D01*
X148723790Y-96976210D02*
X148723790Y-95898790D01*
X148723790Y-95898790D02*
X148187500Y-95362500D01*
X148187500Y-95362500D02*
X148125000Y-95300000D01*
%TD*%
%TA.AperFunction,Conductor*%
%TO.N,GND*%
G36*
X124105623Y-85720502D02*
G01*
X124152116Y-85774158D01*
X124162220Y-85844432D01*
X124107505Y-85931265D01*
X124055807Y-85965809D01*
X124011603Y-86031964D01*
X123996082Y-86109998D01*
X123996082Y-87810002D01*
X124011603Y-87888036D01*
X124055808Y-87954192D01*
X124121964Y-87998397D01*
X124199998Y-88013918D01*
X125840579Y-88013918D01*
X125908700Y-88033920D01*
X125955193Y-88087576D01*
X125965297Y-88157850D01*
X125929674Y-88229013D01*
X125576439Y-88582248D01*
X125495853Y-88548373D01*
X125361996Y-88492105D01*
X125361995Y-88492105D01*
X125361993Y-88492104D01*
X125160289Y-88450700D01*
X125005853Y-88449622D01*
X124954375Y-88449262D01*
X124954374Y-88449262D01*
X124752106Y-88487847D01*
X124656647Y-88526415D01*
X124561186Y-88564984D01*
X124388883Y-88677736D01*
X124241762Y-88821808D01*
X124125426Y-88991711D01*
X124113055Y-89020576D01*
X124052507Y-89161847D01*
X124044308Y-89180976D01*
X124001495Y-89382391D01*
X124000726Y-89437500D01*
X123998620Y-89588289D01*
X124035791Y-89790817D01*
X124111596Y-89982279D01*
X124223139Y-90155359D01*
X124366182Y-90303484D01*
X124535269Y-90421003D01*
X124723962Y-90503441D01*
X124925077Y-90547659D01*
X125130943Y-90551970D01*
X125130945Y-90551970D01*
X125191736Y-90541251D01*
X125333731Y-90516215D01*
X125525715Y-90441748D01*
X125699570Y-90331415D01*
X125699572Y-90331414D01*
X125848690Y-90189411D01*
X125967387Y-90021148D01*
X126051140Y-89833035D01*
X126096760Y-89632237D01*
X126100045Y-89397042D01*
X126097854Y-89385976D01*
X126060050Y-89195050D01*
X125968464Y-88972849D01*
X126459613Y-88481700D01*
X128237254Y-88481700D01*
X128258538Y-88572193D01*
X128286296Y-88690211D01*
X128371697Y-88803300D01*
X128386574Y-88823001D01*
X128528046Y-88910597D01*
X128609599Y-88925842D01*
X128650375Y-88933464D01*
X129191167Y-88933464D01*
X129248637Y-88919949D01*
X129349264Y-89020576D01*
X129383290Y-89082888D01*
X129378225Y-89153703D01*
X129335678Y-89210539D01*
X129237017Y-89233526D01*
X129199625Y-89226536D01*
X128658836Y-89226536D01*
X128489789Y-89266296D01*
X128374634Y-89353257D01*
X128356999Y-89366574D01*
X128269403Y-89508046D01*
X128259060Y-89563378D01*
X128246607Y-89629998D01*
X128246536Y-89630376D01*
X128246536Y-90271164D01*
X128277298Y-90401954D01*
X128286296Y-90440211D01*
X128367437Y-90547659D01*
X128386574Y-90573001D01*
X128528046Y-90660597D01*
X128602422Y-90674500D01*
X128650375Y-90683464D01*
X129191164Y-90683464D01*
X129360211Y-90643704D01*
X129431637Y-90589766D01*
X129493000Y-90543427D01*
X129509849Y-90516215D01*
X129580597Y-90401954D01*
X129603464Y-90279624D01*
X129603464Y-90117930D01*
X129625500Y-90050110D01*
X129625500Y-89859890D01*
X129603464Y-89792070D01*
X129603464Y-89638837D01*
X129530352Y-89327986D01*
X129706195Y-89347864D01*
X129753902Y-89353257D01*
X129768934Y-89356700D01*
X129784356Y-89356700D01*
X129831636Y-89362045D01*
X129846942Y-89356700D01*
X130471082Y-89356700D01*
X130471082Y-89480002D01*
X130486603Y-89558036D01*
X130530808Y-89624192D01*
X130596964Y-89668397D01*
X130674998Y-89683918D01*
X131575002Y-89683918D01*
X131653036Y-89668397D01*
X131719192Y-89624192D01*
X131763397Y-89558036D01*
X131778918Y-89480002D01*
X131778918Y-88679998D01*
X131763397Y-88601964D01*
X131719192Y-88535808D01*
X131653036Y-88491603D01*
X131575002Y-88476082D01*
X130674998Y-88476082D01*
X130596964Y-88491603D01*
X130530808Y-88535808D01*
X130486603Y-88601964D01*
X130471082Y-88679998D01*
X130471082Y-88803300D01*
X129914613Y-88803300D01*
X129603464Y-88492151D01*
X129603464Y-87888837D01*
X129584595Y-87808609D01*
X129566106Y-87729998D01*
X132471082Y-87729998D01*
X132471082Y-88530002D01*
X132486603Y-88608036D01*
X132530808Y-88674192D01*
X132596964Y-88718397D01*
X132674998Y-88733918D01*
X133575002Y-88733918D01*
X133653036Y-88718397D01*
X133719192Y-88674192D01*
X133763394Y-88608039D01*
X133763396Y-88608036D01*
X133778819Y-88530500D01*
X134623732Y-88530500D01*
X134661296Y-88690211D01*
X134746697Y-88803300D01*
X134761574Y-88823001D01*
X134903046Y-88910597D01*
X134984599Y-88925842D01*
X135025375Y-88933464D01*
X135566164Y-88933464D01*
X135761084Y-88887619D01*
X135761612Y-88889863D01*
X135785369Y-88880886D01*
X135854807Y-88895683D01*
X135905222Y-88945671D01*
X135920892Y-89006526D01*
X135920892Y-89161847D01*
X135900890Y-89229968D01*
X135847234Y-89276461D01*
X135776960Y-89286565D01*
X135728562Y-89268974D01*
X135696954Y-89249403D01*
X135592984Y-89229968D01*
X135574625Y-89226536D01*
X135033836Y-89226536D01*
X134864789Y-89266296D01*
X134749634Y-89353257D01*
X134731999Y-89366574D01*
X134644404Y-89508045D01*
X134644404Y-89508046D01*
X134644403Y-89508048D01*
X134629404Y-89588287D01*
X134607679Y-89704500D01*
X133793737Y-89704500D01*
X133763396Y-89551964D01*
X133719192Y-89485808D01*
X133653036Y-89441603D01*
X133575002Y-89426082D01*
X132674998Y-89426082D01*
X132596964Y-89441603D01*
X132530808Y-89485808D01*
X132486603Y-89551964D01*
X132471082Y-89629998D01*
X132471082Y-90430002D01*
X132486603Y-90508036D01*
X132530808Y-90574192D01*
X132596964Y-90618397D01*
X132674998Y-90633918D01*
X133575002Y-90633918D01*
X133653036Y-90618397D01*
X133719192Y-90574192D01*
X133763396Y-90508036D01*
X133793737Y-90355500D01*
X134641372Y-90355500D01*
X134661296Y-90440211D01*
X134745692Y-90551970D01*
X134761574Y-90573001D01*
X134903046Y-90660597D01*
X134977422Y-90674500D01*
X135025375Y-90683464D01*
X135566164Y-90683464D01*
X135761084Y-90637619D01*
X135761612Y-90639863D01*
X135785369Y-90630886D01*
X135854807Y-90645683D01*
X135905222Y-90695671D01*
X135920892Y-90756526D01*
X135920892Y-91359943D01*
X135900890Y-91428064D01*
X135847234Y-91474557D01*
X135776960Y-91484661D01*
X135728561Y-91467070D01*
X135691953Y-91444403D01*
X135630789Y-91432970D01*
X135569625Y-91421536D01*
X135028836Y-91421536D01*
X134931613Y-91444403D01*
X134859789Y-91461296D01*
X134749384Y-91544670D01*
X134726999Y-91561574D01*
X134639403Y-91703046D01*
X134607577Y-91873300D01*
X134028553Y-91873300D01*
X134008396Y-91771964D01*
X133964192Y-91705808D01*
X133898036Y-91661603D01*
X133820002Y-91646082D01*
X132919998Y-91646082D01*
X132841964Y-91661603D01*
X132775808Y-91705808D01*
X132731603Y-91771964D01*
X132716082Y-91849998D01*
X132716082Y-92650002D01*
X132731603Y-92728036D01*
X132775808Y-92794192D01*
X132841964Y-92838397D01*
X132919998Y-92853918D01*
X133820002Y-92853918D01*
X133898036Y-92838397D01*
X133964192Y-92794192D01*
X134008397Y-92728036D01*
X134023918Y-92650002D01*
X134023918Y-92426700D01*
X134607254Y-92426700D01*
X134629734Y-92522279D01*
X134656296Y-92635211D01*
X134727432Y-92729410D01*
X134756574Y-92768001D01*
X134898046Y-92855597D01*
X134979599Y-92870842D01*
X135020375Y-92878464D01*
X135561164Y-92878464D01*
X135756084Y-92832619D01*
X135756205Y-92833131D01*
X135785379Y-92822111D01*
X135854816Y-92836913D01*
X135905227Y-92886905D01*
X135920892Y-92947751D01*
X135920892Y-93109943D01*
X135900890Y-93178064D01*
X135847234Y-93224557D01*
X135776960Y-93234661D01*
X135728561Y-93217070D01*
X135691953Y-93194403D01*
X135630788Y-93182969D01*
X135569625Y-93171536D01*
X135028836Y-93171536D01*
X134859789Y-93211296D01*
X134782994Y-93269289D01*
X134726999Y-93311574D01*
X134639403Y-93453046D01*
X134598006Y-93674500D01*
X134010091Y-93674500D01*
X133964192Y-93605808D01*
X133898036Y-93561603D01*
X133820002Y-93546082D01*
X132919998Y-93546082D01*
X132841964Y-93561603D01*
X132775808Y-93605808D01*
X132731603Y-93671964D01*
X132716082Y-93749998D01*
X132716082Y-94550002D01*
X132731603Y-94628036D01*
X132775808Y-94694192D01*
X132841964Y-94738397D01*
X132919998Y-94753918D01*
X133820002Y-94753918D01*
X133898036Y-94738397D01*
X133964192Y-94694192D01*
X134008397Y-94628036D01*
X134023918Y-94550002D01*
X134023918Y-94325500D01*
X134611205Y-94325500D01*
X134656296Y-94385210D01*
X134656296Y-94385211D01*
X134718815Y-94468000D01*
X134756574Y-94518001D01*
X134898046Y-94605597D01*
X134975685Y-94620110D01*
X135020375Y-94628464D01*
X135561164Y-94628464D01*
X135756084Y-94582619D01*
X135756205Y-94583131D01*
X135785379Y-94572111D01*
X135854816Y-94586913D01*
X135905227Y-94636905D01*
X135920892Y-94697751D01*
X135920892Y-95534237D01*
X135900890Y-95602358D01*
X135847234Y-95648851D01*
X135776960Y-95658955D01*
X135728562Y-95641364D01*
X135624454Y-95576903D01*
X135542901Y-95561658D01*
X135502125Y-95554036D01*
X134961336Y-95554036D01*
X134810554Y-95589500D01*
X134792289Y-95593796D01*
X134681084Y-95677774D01*
X134659499Y-95694074D01*
X134571903Y-95835546D01*
X134535404Y-96030800D01*
X134106418Y-96030800D01*
X134106418Y-95907498D01*
X134090897Y-95829464D01*
X134046692Y-95763308D01*
X133980536Y-95719103D01*
X133902502Y-95703582D01*
X133002498Y-95703582D01*
X132924464Y-95719103D01*
X132858308Y-95763308D01*
X132814103Y-95829464D01*
X132798582Y-95907498D01*
X132798582Y-96707502D01*
X132814103Y-96785536D01*
X132858308Y-96851692D01*
X132924464Y-96895897D01*
X133002498Y-96911418D01*
X133902502Y-96911418D01*
X133980536Y-96895897D01*
X134046692Y-96851692D01*
X134090897Y-96785536D01*
X134106418Y-96707502D01*
X134106418Y-96584200D01*
X134545634Y-96584200D01*
X134581030Y-96734692D01*
X134588796Y-96767711D01*
X134637327Y-96831976D01*
X134689074Y-96900501D01*
X134830546Y-96988097D01*
X134907014Y-97002391D01*
X134952875Y-97010964D01*
X135493664Y-97010964D01*
X135662711Y-96971204D01*
X135718959Y-96928728D01*
X135785375Y-96903638D01*
X135854812Y-96918438D01*
X135905224Y-96968429D01*
X135920891Y-97029278D01*
X135920891Y-97284237D01*
X135900889Y-97352358D01*
X135847233Y-97398851D01*
X135776959Y-97408955D01*
X135728562Y-97391365D01*
X135665564Y-97352358D01*
X135624453Y-97326903D01*
X135552854Y-97313519D01*
X135502125Y-97304036D01*
X134961336Y-97304036D01*
X134825975Y-97335873D01*
X134792289Y-97343796D01*
X134703539Y-97410817D01*
X134659499Y-97444074D01*
X134571903Y-97585546D01*
X134544526Y-97732000D01*
X134092591Y-97732000D01*
X134046692Y-97663308D01*
X133980536Y-97619103D01*
X133902502Y-97603582D01*
X133002498Y-97603582D01*
X132924464Y-97619103D01*
X132858308Y-97663308D01*
X132814103Y-97729464D01*
X132798582Y-97807498D01*
X132798582Y-98607502D01*
X132814103Y-98685536D01*
X132858308Y-98751692D01*
X132924464Y-98795897D01*
X133002498Y-98811418D01*
X133902502Y-98811418D01*
X133980536Y-98795897D01*
X134046692Y-98751692D01*
X134090897Y-98685536D01*
X134106418Y-98607502D01*
X134106418Y-98383000D01*
X134557112Y-98383000D01*
X134588796Y-98517711D01*
X134683511Y-98643134D01*
X134689074Y-98650501D01*
X134830546Y-98738097D01*
X134903274Y-98751692D01*
X134952875Y-98760964D01*
X135493664Y-98760964D01*
X135662711Y-98721204D01*
X135718959Y-98678728D01*
X135785375Y-98653638D01*
X135854812Y-98668438D01*
X135905224Y-98718429D01*
X135920891Y-98779278D01*
X135920891Y-99326456D01*
X135900889Y-99394577D01*
X135847233Y-99441070D01*
X135776959Y-99451174D01*
X135728561Y-99433584D01*
X135684841Y-99406514D01*
X135645169Y-99399098D01*
X135562514Y-99383647D01*
X135021725Y-99383647D01*
X134899880Y-99412305D01*
X134852678Y-99423407D01*
X134725613Y-99519362D01*
X134719888Y-99523685D01*
X134635232Y-99660411D01*
X134216807Y-99660411D01*
X134216807Y-99537109D01*
X134201286Y-99459075D01*
X134157081Y-99392919D01*
X134090925Y-99348714D01*
X134012891Y-99333193D01*
X133112887Y-99333193D01*
X133034853Y-99348714D01*
X132968697Y-99392919D01*
X132924492Y-99459075D01*
X132908971Y-99537109D01*
X132908971Y-100337113D01*
X132924492Y-100415147D01*
X132968697Y-100481303D01*
X133034853Y-100525508D01*
X133112887Y-100541029D01*
X134012891Y-100541029D01*
X134090925Y-100525508D01*
X134157081Y-100481303D01*
X134201286Y-100415147D01*
X134216807Y-100337113D01*
X134216807Y-100213811D01*
X134609425Y-100213811D01*
X134609425Y-100428275D01*
X134642038Y-100566935D01*
X134649185Y-100597322D01*
X134732507Y-100707658D01*
X134749463Y-100730112D01*
X134890935Y-100817708D01*
X134972488Y-100832953D01*
X135013264Y-100840575D01*
X135554053Y-100840575D01*
X135734061Y-100798237D01*
X135785373Y-100778852D01*
X135854810Y-100793651D01*
X135905223Y-100843641D01*
X135920891Y-100904492D01*
X135920891Y-101076456D01*
X135900889Y-101144577D01*
X135847233Y-101191070D01*
X135776959Y-101201174D01*
X135728561Y-101183584D01*
X135684841Y-101156514D01*
X135620984Y-101144577D01*
X135562514Y-101133647D01*
X135021725Y-101133647D01*
X134924502Y-101156514D01*
X134852678Y-101173407D01*
X134722252Y-101271900D01*
X134719888Y-101273685D01*
X134632293Y-101415156D01*
X134632293Y-101415158D01*
X134632292Y-101415159D01*
X134614262Y-101511611D01*
X134231626Y-101511611D01*
X134201285Y-101359075D01*
X134157081Y-101292919D01*
X134090925Y-101248714D01*
X134012891Y-101233193D01*
X133112887Y-101233193D01*
X133034853Y-101248714D01*
X132968697Y-101292919D01*
X132924492Y-101359075D01*
X132908971Y-101437109D01*
X132908971Y-102237113D01*
X132924492Y-102315147D01*
X132968697Y-102381303D01*
X133034853Y-102425508D01*
X133112887Y-102441029D01*
X134012891Y-102441029D01*
X134090925Y-102425508D01*
X134157081Y-102381303D01*
X134201285Y-102315147D01*
X134231626Y-102162611D01*
X134605741Y-102162611D01*
X134609425Y-102178274D01*
X134649185Y-102347322D01*
X134742398Y-102470756D01*
X134749463Y-102480112D01*
X134890935Y-102567708D01*
X134972488Y-102582953D01*
X135013264Y-102590575D01*
X135554053Y-102590575D01*
X135734061Y-102548237D01*
X135785373Y-102528852D01*
X135854810Y-102543651D01*
X135905223Y-102593641D01*
X135920891Y-102654492D01*
X135920891Y-103215394D01*
X135690950Y-103445335D01*
X135087635Y-103445335D01*
X135007729Y-103464129D01*
X134918588Y-103485095D01*
X134828568Y-103553075D01*
X134785798Y-103585373D01*
X134698203Y-103726844D01*
X134698203Y-103726846D01*
X134698202Y-103726847D01*
X134680396Y-103822099D01*
X134332717Y-103822099D01*
X134332717Y-103623799D01*
X134325074Y-103585372D01*
X134317196Y-103545763D01*
X134272991Y-103479607D01*
X134206835Y-103435402D01*
X134128801Y-103419881D01*
X133228797Y-103419881D01*
X133150763Y-103435402D01*
X133084607Y-103479607D01*
X133040402Y-103545763D01*
X133024881Y-103623797D01*
X133024881Y-104423801D01*
X133040402Y-104501835D01*
X133084607Y-104567991D01*
X133150763Y-104612196D01*
X133228797Y-104627717D01*
X134128801Y-104627717D01*
X134206835Y-104612196D01*
X134272991Y-104567991D01*
X134317196Y-104501835D01*
X134342326Y-104375499D01*
X134675335Y-104375499D01*
X134675335Y-104489963D01*
X134706097Y-104620753D01*
X134715095Y-104659010D01*
X134793877Y-104763334D01*
X134815373Y-104791800D01*
X134956845Y-104879396D01*
X135038398Y-104894641D01*
X135079174Y-104902263D01*
X135619963Y-104902263D01*
X135789010Y-104862503D01*
X135834317Y-104828289D01*
X135921799Y-104762226D01*
X135921800Y-104762225D01*
X136009396Y-104620753D01*
X136029617Y-104512577D01*
X136032263Y-104498424D01*
X136032263Y-103886648D01*
X136359876Y-103559035D01*
X136372288Y-103553075D01*
X136374270Y-103552123D01*
X136404150Y-103514761D01*
X136415302Y-103503610D01*
X136423507Y-103490555D01*
X136427874Y-103485095D01*
X136453115Y-103453532D01*
X136453215Y-103453095D01*
X136456750Y-103437661D01*
X136458170Y-103435403D01*
X136465455Y-103423812D01*
X136470848Y-103376105D01*
X136474291Y-103361073D01*
X136474291Y-103345651D01*
X136479636Y-103298371D01*
X136474291Y-103283065D01*
X136474291Y-100639434D01*
X136494293Y-100571313D01*
X136547949Y-100524820D01*
X136618223Y-100514716D01*
X136674352Y-100537498D01*
X136748981Y-100591719D01*
X136929890Y-100650500D01*
X137120110Y-100650500D01*
X137301019Y-100591719D01*
X137454910Y-100479910D01*
X137566719Y-100326019D01*
X137625500Y-100145110D01*
X137625500Y-100058067D01*
X137896536Y-100058067D01*
X137896536Y-100558835D01*
X137920635Y-100661297D01*
X137934591Y-100720635D01*
X138030572Y-100847734D01*
X138099500Y-100890413D01*
X138099499Y-103130447D01*
X138093123Y-103162499D01*
X138099499Y-103194551D01*
X138099499Y-103194552D01*
X138118386Y-103289501D01*
X138138743Y-103319968D01*
X138190327Y-103397172D01*
X138217507Y-103415332D01*
X138266302Y-103464128D01*
X138266304Y-103464129D01*
X138498752Y-103696578D01*
X138498755Y-103696580D01*
X139497169Y-104694995D01*
X139546536Y-104768879D01*
X139546536Y-105141882D01*
X139587432Y-105315760D01*
X139690575Y-105452343D01*
X139836091Y-105542444D01*
X139899003Y-105554204D01*
X139961914Y-105565964D01*
X140779382Y-105565964D01*
X140953260Y-105525068D01*
X141089843Y-105421925D01*
X141179944Y-105276409D01*
X141196390Y-105188427D01*
X141203464Y-105150586D01*
X141203464Y-104275376D01*
X146046536Y-104275376D01*
X146046536Y-104916164D01*
X146086296Y-105085211D01*
X146186574Y-105218001D01*
X146328046Y-105305597D01*
X146395478Y-105318202D01*
X146450375Y-105328464D01*
X146991164Y-105328464D01*
X147160211Y-105288704D01*
X147196701Y-105261148D01*
X147293000Y-105188427D01*
X147293001Y-105188426D01*
X147380597Y-105046954D01*
X147401742Y-104933836D01*
X147403464Y-104924625D01*
X147403464Y-104762930D01*
X147425500Y-104695110D01*
X147425500Y-104504890D01*
X147403464Y-104437070D01*
X147403464Y-104283837D01*
X147403001Y-104281866D01*
X147363704Y-104114789D01*
X147285759Y-104011573D01*
X147263427Y-103982000D01*
X147263426Y-103981999D01*
X147121954Y-103894403D01*
X147040401Y-103879158D01*
X146999625Y-103871536D01*
X146458836Y-103871536D01*
X146445703Y-103874625D01*
X146289789Y-103911296D01*
X146176362Y-103996952D01*
X146156999Y-104011574D01*
X146069403Y-104153046D01*
X146046536Y-104275376D01*
X141203464Y-104275376D01*
X141203464Y-103833119D01*
X141201989Y-103826845D01*
X141162568Y-103659240D01*
X141053913Y-103515357D01*
X141014354Y-103471224D01*
X141003071Y-103401130D01*
X141031475Y-103336063D01*
X141047505Y-103325376D01*
X147921536Y-103325376D01*
X147921536Y-103866164D01*
X147952298Y-103996954D01*
X147961296Y-104035211D01*
X148050281Y-104153046D01*
X148061574Y-104168001D01*
X148203046Y-104255597D01*
X148277060Y-104269432D01*
X148325375Y-104278464D01*
X148325376Y-104278464D01*
X148398301Y-104292096D01*
X148398300Y-104410733D01*
X148398294Y-104512255D01*
X148189789Y-104561296D01*
X148111058Y-104620751D01*
X148056999Y-104661574D01*
X147969403Y-104803046D01*
X147958341Y-104862225D01*
X147946677Y-104924624D01*
X147946536Y-104925376D01*
X147946536Y-105466164D01*
X147977298Y-105596954D01*
X147986296Y-105635211D01*
X148077674Y-105756215D01*
X148086574Y-105768001D01*
X148228046Y-105855597D01*
X148309599Y-105870842D01*
X148350375Y-105878464D01*
X148991164Y-105878464D01*
X149160211Y-105838704D01*
X149253839Y-105768000D01*
X149293000Y-105738427D01*
X149312065Y-105707636D01*
X149380597Y-105596954D01*
X149403464Y-105474624D01*
X149403464Y-104933836D01*
X149363704Y-104764789D01*
X149330448Y-104720751D01*
X149263427Y-104632000D01*
X149263426Y-104631999D01*
X149121954Y-104544403D01*
X148951700Y-104512577D01*
X148951700Y-104281866D01*
X149135211Y-104238704D01*
X149228839Y-104168000D01*
X149268000Y-104138427D01*
X149282636Y-104114789D01*
X149355597Y-103996954D01*
X149378464Y-103874624D01*
X149378464Y-103333836D01*
X149376475Y-103325376D01*
X149671536Y-103325376D01*
X149671536Y-103866164D01*
X149702298Y-103996954D01*
X149711296Y-104035211D01*
X149800281Y-104153046D01*
X149811574Y-104168001D01*
X149953046Y-104255597D01*
X150034599Y-104270842D01*
X150075375Y-104278464D01*
X150716164Y-104278464D01*
X150885211Y-104238704D01*
X150978839Y-104168000D01*
X151018000Y-104138427D01*
X151032636Y-104114789D01*
X151105597Y-103996954D01*
X151128464Y-103874624D01*
X151128464Y-103333836D01*
X151088704Y-103164789D01*
X151062770Y-103130447D01*
X150988427Y-103032000D01*
X150988426Y-103031999D01*
X150846954Y-102944403D01*
X150765401Y-102929158D01*
X150724625Y-102921536D01*
X150083836Y-102921536D01*
X149986613Y-102944403D01*
X149914789Y-102961296D01*
X149835045Y-103021516D01*
X149781999Y-103061574D01*
X149694403Y-103203046D01*
X149671536Y-103325376D01*
X149376475Y-103325376D01*
X149338704Y-103164789D01*
X149312770Y-103130447D01*
X149238427Y-103032000D01*
X149238426Y-103031999D01*
X149096954Y-102944403D01*
X149015401Y-102929158D01*
X148974625Y-102921536D01*
X148333836Y-102921536D01*
X148236613Y-102944403D01*
X148164789Y-102961296D01*
X148085045Y-103021516D01*
X148031999Y-103061574D01*
X147944403Y-103203046D01*
X147921536Y-103325376D01*
X141047505Y-103325376D01*
X141090548Y-103296681D01*
X141128072Y-103290964D01*
X141146335Y-103290964D01*
X141308135Y-103252909D01*
X141435234Y-103156928D01*
X141519078Y-103021517D01*
X141540964Y-102904433D01*
X141540964Y-102328666D01*
X141523979Y-102256451D01*
X141787283Y-101993147D01*
X141801679Y-101986234D01*
X141817113Y-101966935D01*
X141831563Y-101948867D01*
X141842710Y-101937720D01*
X141845026Y-101934036D01*
X141850911Y-101924672D01*
X141880524Y-101887643D01*
X141884159Y-101871775D01*
X141892863Y-101857925D01*
X141892864Y-101857923D01*
X141898257Y-101810216D01*
X141901700Y-101795184D01*
X141901700Y-101779762D01*
X141907045Y-101732482D01*
X141901700Y-101717176D01*
X141901700Y-101188379D01*
X141921702Y-101120258D01*
X141975358Y-101073765D01*
X142045632Y-101063661D01*
X142132465Y-101118378D01*
X142192209Y-101207791D01*
X142276522Y-101264127D01*
X142276523Y-101264127D01*
X142276524Y-101264128D01*
X142350878Y-101278918D01*
X142499122Y-101278918D01*
X142573476Y-101264128D01*
X142573477Y-101264127D01*
X142573478Y-101264127D01*
X142657791Y-101207791D01*
X142714127Y-101123478D01*
X142714127Y-101123477D01*
X142714128Y-101123476D01*
X142728918Y-101049122D01*
X142728918Y-100603918D01*
X143174122Y-100603918D01*
X143248115Y-100589200D01*
X144096601Y-100589200D01*
X144130572Y-100610234D01*
X144249734Y-100684016D01*
X144344148Y-100742475D01*
X144319704Y-100817708D01*
X144299500Y-100879890D01*
X144299500Y-101070110D01*
X144358281Y-101251019D01*
X144470090Y-101404910D01*
X144623981Y-101516719D01*
X144804890Y-101575500D01*
X144995110Y-101575500D01*
X145176019Y-101516719D01*
X145329910Y-101404910D01*
X145441719Y-101251019D01*
X145500500Y-101070110D01*
X145500500Y-100879890D01*
X145441719Y-100698981D01*
X145361905Y-100589127D01*
X145297865Y-100500984D01*
X145331576Y-100446525D01*
X145334905Y-100428717D01*
X145353464Y-100329435D01*
X145353464Y-100188283D01*
X145373466Y-100120162D01*
X145427122Y-100073669D01*
X145497396Y-100063565D01*
X145542477Y-100079171D01*
X145561858Y-100090364D01*
X145561900Y-100090401D01*
X145562268Y-100090614D01*
X145562271Y-100090616D01*
X145564410Y-100091850D01*
X145566925Y-100093961D01*
X145566933Y-100093965D01*
X145583143Y-100107566D01*
X145666983Y-100140180D01*
X145673676Y-100140327D01*
X145679227Y-100141306D01*
X145689596Y-100143134D01*
X145725000Y-100146231D01*
X145993934Y-100146231D01*
X146036112Y-100138794D01*
X146045428Y-100137979D01*
X146049841Y-100136373D01*
X146063683Y-100133932D01*
X146114758Y-100124926D01*
X146128837Y-100163640D01*
X146155959Y-100178731D01*
X146189487Y-100241313D01*
X146189735Y-100291698D01*
X146187953Y-100300659D01*
X146180624Y-100337500D01*
X146187001Y-100369557D01*
X146187000Y-101015155D01*
X146104365Y-101034591D01*
X146104364Y-101034592D01*
X146104363Y-101034592D01*
X145977266Y-101130572D01*
X145893422Y-101265983D01*
X145891982Y-101273685D01*
X145872533Y-101377736D01*
X145871536Y-101383067D01*
X145871536Y-101958835D01*
X145909591Y-102120635D01*
X146005572Y-102247734D01*
X146140983Y-102331578D01*
X146180011Y-102338873D01*
X146258065Y-102353464D01*
X146758835Y-102353464D01*
X146920635Y-102315409D01*
X147047734Y-102219428D01*
X147131578Y-102084017D01*
X147153464Y-101966933D01*
X147153464Y-101736473D01*
X147156750Y-101726360D01*
X147156750Y-101536140D01*
X147153464Y-101526027D01*
X147153464Y-101391165D01*
X147115409Y-101229365D01*
X147019428Y-101102266D01*
X146951700Y-101060330D01*
X146951700Y-100345943D01*
X146977832Y-100300700D01*
X146977868Y-100300659D01*
X146979350Y-100298091D01*
X146981210Y-100295875D01*
X146983651Y-100290640D01*
X147005185Y-100253343D01*
X147027680Y-100195517D01*
X147027827Y-100188824D01*
X147028806Y-100183273D01*
X147030634Y-100172904D01*
X147033731Y-100137500D01*
X147033731Y-99662496D01*
X147021432Y-99592750D01*
X147020442Y-99590031D01*
X147019942Y-99587192D01*
X146999995Y-99528431D01*
X146999994Y-99528430D01*
X146999994Y-99528429D01*
X146986155Y-99511187D01*
X146972920Y-99487060D01*
X146952221Y-99468907D01*
X146950195Y-99466383D01*
X146950191Y-99466379D01*
X146944674Y-99461750D01*
X146944673Y-99461751D01*
X146930552Y-99449904D01*
X146913100Y-99434599D01*
X146910591Y-99433151D01*
X146908374Y-99431290D01*
X146908354Y-99431281D01*
X146891843Y-99417429D01*
X146808017Y-99384820D01*
X146801324Y-99384673D01*
X146795773Y-99383694D01*
X146785404Y-99381866D01*
X146750000Y-99378769D01*
X146706066Y-99378769D01*
X146663881Y-99386207D01*
X146654570Y-99387022D01*
X146650161Y-99388626D01*
X146636303Y-99391070D01*
X146562965Y-99417768D01*
X146562964Y-99417769D01*
X146557585Y-99419727D01*
X146531830Y-99429103D01*
X146475584Y-99449578D01*
X146363143Y-99384636D01*
X146363100Y-99384599D01*
X146361532Y-99383694D01*
X146360590Y-99383150D01*
X146358075Y-99381039D01*
X146358067Y-99381035D01*
X146341857Y-99367434D01*
X146258017Y-99334820D01*
X146251324Y-99334673D01*
X146245773Y-99333694D01*
X146235404Y-99331866D01*
X146200000Y-99328769D01*
X145724996Y-99328769D01*
X145655250Y-99341068D01*
X145652531Y-99342058D01*
X145649692Y-99342558D01*
X145590931Y-99362505D01*
X145590930Y-99362506D01*
X145590929Y-99362506D01*
X145573687Y-99376345D01*
X145549560Y-99389580D01*
X145532929Y-99408544D01*
X145531408Y-99410278D01*
X145528883Y-99412305D01*
X145528879Y-99412309D01*
X145524250Y-99417826D01*
X145524251Y-99417827D01*
X145512401Y-99431951D01*
X145497099Y-99449400D01*
X145495651Y-99451909D01*
X145493790Y-99454126D01*
X145493781Y-99454146D01*
X145464252Y-99489343D01*
X145464246Y-99489340D01*
X145458663Y-99495994D01*
X145453600Y-99524714D01*
X145347282Y-99709075D01*
X145315410Y-99666869D01*
X145315409Y-99666865D01*
X145219428Y-99539766D01*
X145219427Y-99539765D01*
X145084017Y-99455922D01*
X145044989Y-99448627D01*
X144966935Y-99434036D01*
X144391165Y-99434036D01*
X144229365Y-99472091D01*
X144102266Y-99568072D01*
X144018422Y-99703483D01*
X144018422Y-99703484D01*
X143996536Y-99820565D01*
X143996536Y-100035800D01*
X143403918Y-100035800D01*
X143403918Y-99825879D01*
X143403889Y-99825732D01*
X143389128Y-99751524D01*
X143354701Y-99700000D01*
X143389128Y-99648476D01*
X143403918Y-99574122D01*
X143403918Y-99425878D01*
X143389128Y-99351524D01*
X143354701Y-99300000D01*
X143389128Y-99248476D01*
X143403918Y-99174122D01*
X143403918Y-99025878D01*
X143389128Y-98951524D01*
X143354701Y-98900000D01*
X143389128Y-98848476D01*
X143403918Y-98774122D01*
X143403918Y-98625878D01*
X143389128Y-98551524D01*
X143385389Y-98545927D01*
X143332791Y-98467209D01*
X143248478Y-98410873D01*
X143248477Y-98410873D01*
X143248476Y-98410872D01*
X143174122Y-98396082D01*
X142767708Y-98396082D01*
X142699587Y-98376080D01*
X142653094Y-98322424D01*
X142642990Y-98252150D01*
X142662943Y-98200080D01*
X142673351Y-98184503D01*
X142714128Y-98123476D01*
X142728918Y-98049122D01*
X142728918Y-97550878D01*
X142714128Y-97476524D01*
X142708039Y-97467410D01*
X142657791Y-97392209D01*
X142573478Y-97335873D01*
X142573477Y-97335873D01*
X142573476Y-97335872D01*
X142499122Y-97321082D01*
X142350878Y-97321082D01*
X142276524Y-97335872D01*
X142276523Y-97335873D01*
X142276522Y-97335873D01*
X142192210Y-97392207D01*
X142025000Y-97642458D01*
X141857790Y-97392207D01*
X141773478Y-97335873D01*
X141773477Y-97335873D01*
X141773476Y-97335872D01*
X141699122Y-97321082D01*
X141501700Y-97321082D01*
X141501700Y-96734692D01*
X141503387Y-96729890D01*
X144674500Y-96729890D01*
X144674500Y-96920110D01*
X144733281Y-97101019D01*
X144845090Y-97254910D01*
X144998300Y-97366224D01*
X144998300Y-97502808D01*
X144993010Y-97517872D01*
X144998300Y-97565409D01*
X144998300Y-97581190D01*
X145001729Y-97596223D01*
X145006972Y-97643338D01*
X145015621Y-97657127D01*
X145019260Y-97673076D01*
X145019261Y-97673077D01*
X145019261Y-97673078D01*
X145049187Y-97710633D01*
X145057377Y-97723689D01*
X145068275Y-97734587D01*
X145097934Y-97771807D01*
X145112540Y-97778852D01*
X145441269Y-98107581D01*
X145441269Y-98362504D01*
X145453568Y-98432250D01*
X145454558Y-98434969D01*
X145455058Y-98437808D01*
X145469274Y-98479686D01*
X145475006Y-98496571D01*
X145488845Y-98513813D01*
X145502080Y-98537940D01*
X145520109Y-98553751D01*
X145522778Y-98556092D01*
X145524805Y-98558617D01*
X145524809Y-98558621D01*
X145530326Y-98563250D01*
X145530327Y-98563249D01*
X145544448Y-98575096D01*
X145561900Y-98590401D01*
X145564409Y-98591849D01*
X145566626Y-98593710D01*
X145566646Y-98593719D01*
X145583157Y-98607571D01*
X145666983Y-98640180D01*
X145673676Y-98640327D01*
X145679227Y-98641306D01*
X145689596Y-98643134D01*
X145725000Y-98646231D01*
X146200004Y-98646231D01*
X146269750Y-98633932D01*
X146272469Y-98632942D01*
X146275308Y-98632442D01*
X146334069Y-98612495D01*
X146334070Y-98612494D01*
X146334071Y-98612494D01*
X146351313Y-98598655D01*
X146375440Y-98585420D01*
X146393584Y-98564731D01*
X146464616Y-98507675D01*
X146612928Y-98576821D01*
X146612930Y-98576822D01*
X146612946Y-98576829D01*
X146628334Y-98581314D01*
X146643357Y-98588320D01*
X146660518Y-98591346D01*
X146660627Y-98590727D01*
X146665802Y-98592235D01*
X146665795Y-98592276D01*
X146666166Y-98592341D01*
X146672470Y-98594179D01*
X146675470Y-98593983D01*
X146719110Y-98601678D01*
X146749999Y-98596231D01*
X146750000Y-98596231D01*
X146819750Y-98583931D01*
X146819751Y-98583931D01*
X146819755Y-98583930D01*
X146822469Y-98582942D01*
X146825311Y-98582441D01*
X146872011Y-98566589D01*
X146946040Y-98581314D01*
X146996836Y-98591418D01*
X147253164Y-98591418D01*
X147342388Y-98573670D01*
X147347932Y-98572567D01*
X147437130Y-98588292D01*
X147441984Y-98590180D01*
X147442911Y-98590200D01*
X147448676Y-98590327D01*
X147454227Y-98591306D01*
X147464596Y-98593134D01*
X147500000Y-98596231D01*
X147543934Y-98596231D01*
X147586112Y-98588794D01*
X147595428Y-98587979D01*
X147599841Y-98586373D01*
X147605803Y-98585322D01*
X147613667Y-98583935D01*
X147613668Y-98583935D01*
X147613683Y-98583932D01*
X147630054Y-98577973D01*
X147630053Y-98577971D01*
X147661676Y-98566463D01*
X147664976Y-98565262D01*
X147664977Y-98565261D01*
X147771082Y-98526646D01*
X147771082Y-98865664D01*
X147788830Y-98954888D01*
X147788831Y-98954890D01*
X147795318Y-98987500D01*
X147788831Y-99020110D01*
X147788830Y-99020112D01*
X147771082Y-99109336D01*
X147771082Y-99365664D01*
X147788679Y-99454126D01*
X147789933Y-99460432D01*
X147774208Y-99549632D01*
X147772320Y-99554485D01*
X147772173Y-99561176D01*
X147771194Y-99566727D01*
X147769366Y-99577096D01*
X147766269Y-99612500D01*
X147766269Y-99656434D01*
X147773706Y-99698612D01*
X147774521Y-99707928D01*
X147776127Y-99712341D01*
X147778568Y-99726183D01*
X147784527Y-99742554D01*
X147796038Y-99774176D01*
X147796037Y-99774176D01*
X147797238Y-99777476D01*
X147804949Y-99791527D01*
X147810629Y-99807134D01*
X147820624Y-99821407D01*
X147821145Y-99821042D01*
X147823718Y-99825732D01*
X147823675Y-99825762D01*
X147823953Y-99826159D01*
X147827111Y-99831914D01*
X147829367Y-99833891D01*
X147836760Y-99844449D01*
X147966432Y-99974122D01*
X148055437Y-100063127D01*
X148090524Y-100087696D01*
X148097687Y-100093706D01*
X148101942Y-100095690D01*
X148113454Y-100103751D01*
X148113462Y-100103755D01*
X148113478Y-100103766D01*
X148162930Y-100126822D01*
X148162933Y-100126823D01*
X148162946Y-100126829D01*
X148178334Y-100131314D01*
X148193357Y-100138320D01*
X148210518Y-100141346D01*
X148210627Y-100140727D01*
X148214473Y-100141848D01*
X148215802Y-100142235D01*
X148215795Y-100142276D01*
X148216165Y-100142341D01*
X148222470Y-100144179D01*
X148225470Y-100143983D01*
X148238219Y-100146231D01*
X148525004Y-100146231D01*
X148594750Y-100133932D01*
X148597469Y-100132942D01*
X148600308Y-100132442D01*
X148636482Y-100120162D01*
X148659071Y-100112494D01*
X148676313Y-100098655D01*
X148688671Y-100091876D01*
X148716345Y-100076700D01*
X149382533Y-100076700D01*
X149530572Y-100272734D01*
X149665983Y-100356578D01*
X149689693Y-100361010D01*
X149783065Y-100378464D01*
X150358835Y-100378464D01*
X150520635Y-100340409D01*
X150647734Y-100244428D01*
X150731578Y-100109017D01*
X150741102Y-100058065D01*
X150753464Y-99991935D01*
X150753464Y-99519362D01*
X151082505Y-99190321D01*
X151109682Y-99172162D01*
X151181623Y-99064493D01*
X151200510Y-98969544D01*
X151200510Y-98969543D01*
X151206886Y-98937490D01*
X151200510Y-98905438D01*
X151200510Y-97266377D01*
X151206886Y-97234324D01*
X151197852Y-97188908D01*
X151181623Y-97107322D01*
X151109682Y-96999653D01*
X151082506Y-96981495D01*
X150953464Y-96852453D01*
X150953464Y-96245619D01*
X150947465Y-96220110D01*
X150912568Y-96071740D01*
X150809425Y-95935157D01*
X150663909Y-95845056D01*
X150580497Y-95829464D01*
X150538086Y-95821536D01*
X149220619Y-95821536D01*
X149046740Y-95862432D01*
X149001694Y-95873027D01*
X149000490Y-95867743D01*
X149000490Y-95867599D01*
X148997061Y-95852567D01*
X148991818Y-95805452D01*
X148983168Y-95791662D01*
X148979529Y-95775711D01*
X148979518Y-95775697D01*
X148949600Y-95738152D01*
X148941414Y-95725101D01*
X148930513Y-95714200D01*
X148900856Y-95676983D01*
X148886251Y-95669938D01*
X148760024Y-95543711D01*
X148788000Y-95457610D01*
X148788000Y-95267390D01*
X148729219Y-95086481D01*
X148617410Y-94932590D01*
X148463519Y-94820781D01*
X148282610Y-94762000D01*
X148092390Y-94762000D01*
X147911481Y-94820781D01*
X147757590Y-94932590D01*
X147645781Y-95086481D01*
X147587000Y-95267390D01*
X147587000Y-95457610D01*
X147645781Y-95638519D01*
X147757590Y-95792410D01*
X147853967Y-95862432D01*
X147900945Y-95896564D01*
X147944299Y-95952786D01*
X147950374Y-96023523D01*
X147917242Y-96086314D01*
X147826884Y-96124500D01*
X147779890Y-96124500D01*
X147598981Y-96183281D01*
X147445090Y-96295090D01*
X147333281Y-96448981D01*
X147264683Y-96660101D01*
X147192411Y-96607592D01*
X147192410Y-96607590D01*
X147038519Y-96495781D01*
X146857610Y-96437000D01*
X146667390Y-96437000D01*
X146486481Y-96495781D01*
X146332590Y-96607590D01*
X146220781Y-96761481D01*
X146162000Y-96942390D01*
X146162000Y-97132610D01*
X146220781Y-97313519D01*
X146332590Y-97467410D01*
X146332591Y-97467411D01*
X146387432Y-97542892D01*
X146324561Y-97614579D01*
X146324560Y-97614580D01*
X146308515Y-97632875D01*
X146306408Y-97635278D01*
X146303883Y-97637305D01*
X146303879Y-97637309D01*
X146299250Y-97642826D01*
X146299251Y-97642827D01*
X146287401Y-97656951D01*
X146272099Y-97674400D01*
X146270651Y-97676909D01*
X146268790Y-97679126D01*
X146268781Y-97679146D01*
X146239252Y-97714343D01*
X146239246Y-97714340D01*
X146233664Y-97720994D01*
X146228595Y-97749746D01*
X146153799Y-97879295D01*
X146087066Y-97848176D01*
X146087063Y-97848175D01*
X146087054Y-97848171D01*
X146071668Y-97843686D01*
X146056643Y-97836680D01*
X146039482Y-97833654D01*
X146039373Y-97834273D01*
X146034198Y-97832765D01*
X146034205Y-97832724D01*
X146033838Y-97832659D01*
X146027531Y-97830821D01*
X146027530Y-97830821D01*
X146026878Y-97830864D01*
X146024529Y-97831017D01*
X145930804Y-97814491D01*
X145551700Y-97435387D01*
X145551700Y-97366224D01*
X145704910Y-97254910D01*
X145816719Y-97101019D01*
X145875500Y-96920110D01*
X145875500Y-96729890D01*
X145816719Y-96548981D01*
X145704910Y-96395090D01*
X145551019Y-96283281D01*
X145370110Y-96224500D01*
X145179890Y-96224500D01*
X144998981Y-96283281D01*
X144845090Y-96395090D01*
X144733281Y-96548981D01*
X144674500Y-96729890D01*
X141503387Y-96729890D01*
X141506990Y-96719628D01*
X141501700Y-96672094D01*
X141501700Y-96656308D01*
X141498270Y-96641271D01*
X141493027Y-96594162D01*
X141484379Y-96580376D01*
X141480739Y-96564421D01*
X141450813Y-96526865D01*
X141442624Y-96513811D01*
X141431723Y-96502910D01*
X141402066Y-96465693D01*
X141402065Y-96465692D01*
X141387459Y-96458646D01*
X141322524Y-96393711D01*
X141350500Y-96307611D01*
X141350500Y-96117390D01*
X141291719Y-95936481D01*
X141179910Y-95782590D01*
X141026019Y-95670781D01*
X140845110Y-95612000D01*
X140654890Y-95612000D01*
X140473981Y-95670781D01*
X140320090Y-95782590D01*
X140208281Y-95936481D01*
X140096578Y-96280265D01*
X139651823Y-95835511D01*
X139703889Y-95763849D01*
X139762670Y-95582940D01*
X139762670Y-95392720D01*
X139703889Y-95211811D01*
X139592080Y-95057920D01*
X139438189Y-94946111D01*
X139257280Y-94887330D01*
X139067060Y-94887330D01*
X138886151Y-94946111D01*
X138732260Y-95057920D01*
X138620451Y-95211811D01*
X138561670Y-95392720D01*
X138561670Y-95582940D01*
X138620451Y-95763849D01*
X138732260Y-95917740D01*
X138886151Y-96029549D01*
X139067060Y-96088330D01*
X139122018Y-96088330D01*
X139625258Y-96591570D01*
X139659284Y-96653882D01*
X139654219Y-96724697D01*
X139611672Y-96781533D01*
X139522008Y-96805867D01*
X139518364Y-96805455D01*
X139503058Y-96810800D01*
X139416224Y-96810800D01*
X139304910Y-96657590D01*
X139151019Y-96545781D01*
X138970110Y-96487000D01*
X138779890Y-96487000D01*
X138598981Y-96545781D01*
X138445090Y-96657590D01*
X138333281Y-96811481D01*
X138274500Y-96992390D01*
X138274500Y-97182610D01*
X138333281Y-97363519D01*
X138445090Y-97517410D01*
X138598981Y-97629219D01*
X138779890Y-97688000D01*
X138970110Y-97688000D01*
X139151019Y-97629219D01*
X139304909Y-97517411D01*
X139304910Y-97517410D01*
X139416224Y-97364200D01*
X139435388Y-97364200D01*
X139852175Y-97780987D01*
X139886201Y-97843299D01*
X139881136Y-97914114D01*
X139838589Y-97970950D01*
X139763080Y-97996082D01*
X139675878Y-97996082D01*
X139601524Y-98010872D01*
X139601522Y-98010873D01*
X139601523Y-98010873D01*
X139564215Y-98035800D01*
X139485023Y-98035800D01*
X139469958Y-98030510D01*
X139422424Y-98035800D01*
X139406639Y-98035800D01*
X139391601Y-98039230D01*
X139344493Y-98044473D01*
X139330707Y-98053121D01*
X139314751Y-98056761D01*
X139277194Y-98086689D01*
X139264141Y-98094877D01*
X139253245Y-98105773D01*
X139205756Y-98143615D01*
X139170661Y-98187500D01*
X139167237Y-98191781D01*
X139156079Y-98202939D01*
X139149741Y-98213024D01*
X139147879Y-98215987D01*
X139118267Y-98253014D01*
X139118267Y-98253015D01*
X139114633Y-98268883D01*
X139105926Y-98282736D01*
X139100532Y-98330450D01*
X139097091Y-98345474D01*
X139097091Y-98360887D01*
X139094591Y-98383000D01*
X139091745Y-98408177D01*
X139097091Y-98423487D01*
X139097090Y-99399097D01*
X138824651Y-99671536D01*
X138291165Y-99671536D01*
X138129365Y-99709591D01*
X138002266Y-99805572D01*
X137918422Y-99940983D01*
X137912227Y-99974122D01*
X137896905Y-100056095D01*
X137896536Y-100058067D01*
X137625500Y-100058067D01*
X137625500Y-99954890D01*
X137566719Y-99773981D01*
X137454910Y-99620090D01*
X137301019Y-99508281D01*
X137120110Y-99449500D01*
X136876700Y-99449500D01*
X136876700Y-96698020D01*
X136896702Y-96629899D01*
X136950358Y-96583406D01*
X137020632Y-96573302D01*
X137076761Y-96596084D01*
X137157097Y-96654452D01*
X137173981Y-96666719D01*
X137354890Y-96725500D01*
X137545110Y-96725500D01*
X137726019Y-96666719D01*
X137879910Y-96554910D01*
X137991719Y-96401019D01*
X138050500Y-96220110D01*
X138050500Y-96029890D01*
X137991719Y-95848981D01*
X137879910Y-95695090D01*
X137726700Y-95583776D01*
X137726700Y-95487664D01*
X140751413Y-92462951D01*
X140813725Y-92428925D01*
X140884540Y-92433990D01*
X140941376Y-92476537D01*
X140964363Y-92575198D01*
X140950381Y-92650000D01*
X140946536Y-92670567D01*
X140946536Y-93246335D01*
X140984591Y-93408135D01*
X141080572Y-93535234D01*
X141215983Y-93619078D01*
X141255011Y-93626373D01*
X141333065Y-93640964D01*
X141833835Y-93640964D01*
X141995635Y-93602909D01*
X142122734Y-93506928D01*
X142206578Y-93371517D01*
X142217783Y-93311573D01*
X142228464Y-93254435D01*
X142228464Y-92678666D01*
X142221723Y-92650002D01*
X142190409Y-92516865D01*
X142094428Y-92389766D01*
X141959017Y-92305922D01*
X141919989Y-92298627D01*
X141841935Y-92284036D01*
X141726700Y-92284036D01*
X141726700Y-91725879D01*
X141746702Y-91657758D01*
X141800358Y-91611265D01*
X141870632Y-91601161D01*
X141957465Y-91655878D01*
X142017209Y-91745291D01*
X142101522Y-91801627D01*
X142101523Y-91801627D01*
X142101524Y-91801628D01*
X142175878Y-91816418D01*
X142324122Y-91816418D01*
X142398476Y-91801628D01*
X142398477Y-91801627D01*
X142398478Y-91801627D01*
X142482791Y-91745291D01*
X142570383Y-91614200D01*
X142601538Y-91614200D01*
X143773300Y-92785962D01*
X143773301Y-93139036D01*
X142664038Y-94248300D01*
X140891224Y-94248300D01*
X140779910Y-94095090D01*
X140626019Y-93983281D01*
X140445110Y-93924500D01*
X140254890Y-93924500D01*
X140073981Y-93983281D01*
X139920090Y-94095090D01*
X139808281Y-94248981D01*
X139749500Y-94429890D01*
X139749500Y-94620110D01*
X139808281Y-94801019D01*
X139920090Y-94954910D01*
X140073981Y-95066719D01*
X140254890Y-95125500D01*
X140445110Y-95125500D01*
X140626019Y-95066719D01*
X140779910Y-94954910D01*
X140891224Y-94801700D01*
X142731458Y-94801700D01*
X142746522Y-94806990D01*
X142794059Y-94801700D01*
X142809841Y-94801700D01*
X142824873Y-94798271D01*
X142871987Y-94793028D01*
X142885776Y-94784378D01*
X142901729Y-94780739D01*
X142939286Y-94750811D01*
X142952339Y-94742623D01*
X142963235Y-94731727D01*
X143000457Y-94702066D01*
X143007502Y-94687460D01*
X143046362Y-94648600D01*
X144212285Y-93482678D01*
X144226679Y-93475766D01*
X144256554Y-93438409D01*
X144267712Y-93427251D01*
X144275915Y-93414199D01*
X144305524Y-93377175D01*
X144307060Y-93370467D01*
X144309159Y-93361304D01*
X144317864Y-93347455D01*
X144323257Y-93299748D01*
X144326700Y-93284715D01*
X144326700Y-93269294D01*
X144332045Y-93222014D01*
X144326700Y-93206708D01*
X144326700Y-92718542D01*
X144331990Y-92703478D01*
X144326700Y-92655941D01*
X144326700Y-92640159D01*
X144323271Y-92625127D01*
X144318028Y-92578012D01*
X144318028Y-92578011D01*
X144309379Y-92564222D01*
X144305740Y-92548272D01*
X144275810Y-92510712D01*
X144267624Y-92497661D01*
X144256723Y-92486760D01*
X144227066Y-92449543D01*
X144212462Y-92442499D01*
X143099257Y-91329295D01*
X143065232Y-91266983D01*
X143070296Y-91196168D01*
X143112843Y-91139332D01*
X143188352Y-91114200D01*
X143867111Y-91114200D01*
X143911296Y-91172711D01*
X143982487Y-91266983D01*
X144011574Y-91305501D01*
X144153045Y-91393096D01*
X144153047Y-91393096D01*
X144153048Y-91393097D01*
X144223830Y-91406329D01*
X144290667Y-91418823D01*
X144686652Y-91814809D01*
X144698555Y-91833674D01*
X144698557Y-91833675D01*
X144698557Y-91833676D01*
X144758148Y-91886305D01*
X144777736Y-91905893D01*
X144794851Y-91918720D01*
X144848955Y-91966504D01*
X144874798Y-91978637D01*
X144897644Y-91995759D01*
X144897645Y-91995759D01*
X144897646Y-91995760D01*
X144912673Y-92001393D01*
X144965244Y-92021101D01*
X145030588Y-92051780D01*
X145058016Y-92055879D01*
X145085531Y-92066194D01*
X145123889Y-92069044D01*
X145168079Y-92072329D01*
X145189303Y-92075500D01*
X145210763Y-92075500D01*
X145285635Y-92081063D01*
X145311697Y-92075500D01*
X146899510Y-92075500D01*
X146899511Y-93938385D01*
X146516361Y-94321536D01*
X146158836Y-94321536D01*
X145989789Y-94361296D01*
X145887651Y-94438427D01*
X145856999Y-94461574D01*
X145769403Y-94603046D01*
X145746536Y-94725376D01*
X145746536Y-95366164D01*
X145777298Y-95496954D01*
X145786296Y-95535211D01*
X145875938Y-95653916D01*
X145886574Y-95668001D01*
X146028046Y-95755597D01*
X146109599Y-95770842D01*
X146150375Y-95778464D01*
X146691164Y-95778464D01*
X146860211Y-95738704D01*
X146906720Y-95703582D01*
X146993000Y-95638427D01*
X146996998Y-95631970D01*
X147080597Y-95496954D01*
X147103464Y-95374624D01*
X147103464Y-95008639D01*
X147654663Y-94457441D01*
X147700436Y-94419033D01*
X147730320Y-94367272D01*
X147764600Y-94318315D01*
X147769808Y-94298878D01*
X147779871Y-94281447D01*
X147790251Y-94222588D01*
X147805718Y-94164860D01*
X147800510Y-94105325D01*
X147800510Y-92051266D01*
X147960211Y-92013704D01*
X148022714Y-91966504D01*
X148093000Y-91913427D01*
X148097665Y-91905893D01*
X148180597Y-91771954D01*
X148202824Y-91653048D01*
X148203464Y-91649625D01*
X148203464Y-91108837D01*
X148185417Y-91032104D01*
X148163704Y-90939789D01*
X148117546Y-90878666D01*
X148063427Y-90807000D01*
X148063426Y-90806999D01*
X147921954Y-90719403D01*
X147840401Y-90704158D01*
X147799625Y-90696536D01*
X147670644Y-90696536D01*
X147656966Y-90694492D01*
X147650458Y-90689031D01*
X147578735Y-90628847D01*
X147429445Y-90574511D01*
X147270575Y-90574511D01*
X147121287Y-90628847D01*
X147121286Y-90628848D01*
X147066879Y-90674500D01*
X145527656Y-90674500D01*
X145229686Y-90376531D01*
X145188704Y-90202289D01*
X145088426Y-90069499D01*
X144946954Y-89981903D01*
X144865401Y-89966658D01*
X144824625Y-89959036D01*
X144283836Y-89959036D01*
X144114789Y-89998796D01*
X143981999Y-90099074D01*
X143894403Y-90240546D01*
X143894403Y-90240548D01*
X143871536Y-90362875D01*
X143871536Y-90511602D01*
X143860404Y-90560800D01*
X143228918Y-90560800D01*
X143228918Y-90363379D01*
X143214129Y-90289031D01*
X143214128Y-90289024D01*
X143179701Y-90237500D01*
X143214128Y-90185976D01*
X143228918Y-90111622D01*
X143228918Y-89963378D01*
X143214128Y-89889024D01*
X143179701Y-89837500D01*
X143214128Y-89785976D01*
X143228918Y-89711622D01*
X143228918Y-89563378D01*
X143214128Y-89489024D01*
X143179701Y-89437500D01*
X143214128Y-89385976D01*
X143228918Y-89311622D01*
X143228918Y-89163378D01*
X143214128Y-89089024D01*
X143157791Y-89004709D01*
X143157733Y-89004670D01*
X143073478Y-88948373D01*
X143073477Y-88948373D01*
X143073476Y-88948372D01*
X142999122Y-88933582D01*
X142592708Y-88933582D01*
X142524587Y-88913580D01*
X142478094Y-88859924D01*
X142467990Y-88789650D01*
X142487943Y-88737580D01*
X142500761Y-88718397D01*
X142539128Y-88660976D01*
X142553918Y-88586622D01*
X142553918Y-88088378D01*
X142539128Y-88014024D01*
X142539058Y-88013918D01*
X142482791Y-87929709D01*
X142398478Y-87873373D01*
X142398477Y-87873373D01*
X142398476Y-87873372D01*
X142324122Y-87858582D01*
X142175878Y-87858582D01*
X142101524Y-87873372D01*
X142101523Y-87873373D01*
X142101522Y-87873373D01*
X142017210Y-87929707D01*
X141850000Y-88179958D01*
X141682790Y-87929707D01*
X141598478Y-87873373D01*
X141598477Y-87873373D01*
X141598476Y-87873372D01*
X141524122Y-87858582D01*
X141323929Y-87858582D01*
X141323265Y-87855674D01*
X141318028Y-87808609D01*
X141309380Y-87794823D01*
X141305740Y-87778869D01*
X141275810Y-87741309D01*
X141267625Y-87728260D01*
X141267623Y-87728257D01*
X141256723Y-87717357D01*
X141227066Y-87680140D01*
X141227065Y-87680139D01*
X141212460Y-87673095D01*
X140149672Y-86610307D01*
X140142759Y-86595911D01*
X140142275Y-86595524D01*
X140105392Y-86566027D01*
X140094245Y-86554879D01*
X140081202Y-86546681D01*
X140044170Y-86517067D01*
X140044169Y-86517067D01*
X140044168Y-86517066D01*
X140028298Y-86513431D01*
X140014447Y-86504726D01*
X139966741Y-86499333D01*
X139951709Y-86495890D01*
X139936287Y-86495890D01*
X139889007Y-86490545D01*
X139873701Y-86495890D01*
X136779603Y-86495890D01*
X136764539Y-86490600D01*
X136764538Y-86490600D01*
X136717001Y-86495890D01*
X136701219Y-86495890D01*
X136686187Y-86499319D01*
X136650851Y-86503251D01*
X136639071Y-86504562D01*
X136625282Y-86513211D01*
X136609332Y-86516850D01*
X136571773Y-86546779D01*
X136558720Y-86554967D01*
X136547820Y-86565867D01*
X136510603Y-86595524D01*
X136510602Y-86595525D01*
X136503558Y-86610130D01*
X136156311Y-86957377D01*
X136156310Y-86957377D01*
X135637151Y-87476536D01*
X135033836Y-87476536D01*
X134991970Y-87486383D01*
X134864789Y-87516296D01*
X134844031Y-87531972D01*
X134731999Y-87616574D01*
X134644402Y-87758048D01*
X134621698Y-87879500D01*
X133778918Y-87879500D01*
X133778918Y-87730000D01*
X133778572Y-87728260D01*
X133763397Y-87651964D01*
X133719192Y-87585808D01*
X133653036Y-87541603D01*
X133575002Y-87526082D01*
X132674998Y-87526082D01*
X132596964Y-87541603D01*
X132530808Y-87585808D01*
X132486603Y-87651964D01*
X132471082Y-87729998D01*
X129566106Y-87729998D01*
X129563704Y-87719789D01*
X129463426Y-87586999D01*
X129321954Y-87499403D01*
X129240401Y-87484158D01*
X129199625Y-87476536D01*
X128658836Y-87476536D01*
X128616970Y-87486383D01*
X128489789Y-87516296D01*
X128469031Y-87531972D01*
X128356999Y-87616574D01*
X128269403Y-87758046D01*
X128237577Y-87928300D01*
X126392193Y-87928300D01*
X126377129Y-87923010D01*
X126377128Y-87923010D01*
X126329591Y-87928300D01*
X126313809Y-87928300D01*
X126298777Y-87931729D01*
X126251662Y-87936972D01*
X126103918Y-87953413D01*
X126103918Y-86109998D01*
X126088397Y-86031964D01*
X126044193Y-85965809D01*
X125992495Y-85931265D01*
X125946968Y-85876787D01*
X125938121Y-85806344D01*
X125968762Y-85742300D01*
X126062498Y-85700500D01*
X148792322Y-85700500D01*
X148860443Y-85720502D01*
X148906936Y-85774158D01*
X148917040Y-85844432D01*
X148887546Y-85909012D01*
X148818519Y-85949747D01*
X148703679Y-85974157D01*
X148397839Y-86098968D01*
X148380455Y-86110000D01*
X148118933Y-86275966D01*
X147875782Y-86499555D01*
X147749601Y-86665793D01*
X147676065Y-86762673D01*
X147526100Y-87056997D01*
X147430625Y-87373225D01*
X147402469Y-87616573D01*
X147392658Y-87701367D01*
X147399405Y-87808609D01*
X147413399Y-88031039D01*
X147427286Y-88087576D01*
X147492192Y-88351831D01*
X147626550Y-88653602D01*
X147727149Y-88801628D01*
X147807559Y-88919947D01*
X147812222Y-88926809D01*
X148043340Y-89162819D01*
X148312598Y-89354171D01*
X148611485Y-89494816D01*
X148611487Y-89494817D01*
X148611488Y-89494817D01*
X148930559Y-89580312D01*
X149095143Y-89594133D01*
X149259726Y-89607954D01*
X149259728Y-89607954D01*
X149369349Y-89597592D01*
X149588594Y-89576867D01*
X149843117Y-89505801D01*
X149906749Y-89488035D01*
X150094978Y-89397042D01*
X150204148Y-89344268D01*
X150471389Y-89150105D01*
X150700024Y-88911687D01*
X150882823Y-88636553D01*
X150895162Y-88608039D01*
X151014013Y-88333391D01*
X151089443Y-88011792D01*
X151100623Y-87584836D01*
X151042127Y-87259729D01*
X150926985Y-86950119D01*
X150758834Y-86665793D01*
X150542991Y-86415736D01*
X150286279Y-86207855D01*
X150108282Y-86110000D01*
X149996815Y-86048720D01*
X149996814Y-86048720D01*
X149996811Y-86048718D01*
X149691350Y-85945919D01*
X149633167Y-85905234D01*
X149606217Y-85839551D01*
X149619055Y-85769725D01*
X149667606Y-85717925D01*
X149731539Y-85700500D01*
X151549501Y-85700500D01*
X151549500Y-111549500D01*
X144806138Y-111549500D01*
X144738017Y-111529498D01*
X144691524Y-111475842D01*
X144681420Y-111405568D01*
X144710914Y-111340988D01*
X144777290Y-111300847D01*
X144786227Y-111298745D01*
X144885058Y-111275500D01*
X144896487Y-111275500D01*
X144918243Y-111280423D01*
X144918245Y-111280423D01*
X144949983Y-111278454D01*
X144997593Y-111275500D01*
X145025298Y-111275500D01*
X145046474Y-111272468D01*
X145100502Y-111269116D01*
X145118512Y-111267998D01*
X145133680Y-111262522D01*
X145145359Y-111258306D01*
X145168903Y-111254934D01*
X145173629Y-111254257D01*
X145239357Y-111224372D01*
X145264735Y-111215210D01*
X145307244Y-111199865D01*
X145307245Y-111199864D01*
X145307246Y-111199864D01*
X145329536Y-111183370D01*
X145356290Y-111171206D01*
X145419010Y-111117163D01*
X145436247Y-111104408D01*
X145451411Y-111089244D01*
X145508299Y-111040226D01*
X145516200Y-111028036D01*
X145522798Y-111017857D01*
X146139812Y-110400844D01*
X146158675Y-110388943D01*
X146211300Y-110329357D01*
X146230895Y-110309762D01*
X146243723Y-110292645D01*
X146291503Y-110238545D01*
X146303635Y-110212704D01*
X146320759Y-110189856D01*
X146346101Y-110122256D01*
X146376780Y-110056912D01*
X146380879Y-110029484D01*
X146391194Y-110001969D01*
X146397328Y-109919424D01*
X146400500Y-109898197D01*
X146400500Y-109876731D01*
X146402042Y-109855987D01*
X146406063Y-109801866D01*
X146400500Y-109775804D01*
X146400500Y-108951367D01*
X147392658Y-108951367D01*
X147402041Y-109100500D01*
X147413399Y-109281039D01*
X147452333Y-109439550D01*
X147492192Y-109601831D01*
X147626550Y-109903602D01*
X147722163Y-110044292D01*
X147812221Y-110176808D01*
X147935087Y-110302275D01*
X148043340Y-110412819D01*
X148312598Y-110604171D01*
X148611485Y-110744816D01*
X148611487Y-110744817D01*
X148611488Y-110744817D01*
X148930559Y-110830312D01*
X149095144Y-110844133D01*
X149259726Y-110857954D01*
X149259728Y-110857954D01*
X149369349Y-110847592D01*
X149588594Y-110826867D01*
X149862319Y-110750440D01*
X149906749Y-110738035D01*
X150132209Y-110629044D01*
X150204148Y-110594268D01*
X150471389Y-110400105D01*
X150700024Y-110161687D01*
X150882823Y-109886553D01*
X150962517Y-109702391D01*
X151014013Y-109583391D01*
X151089443Y-109261792D01*
X151093600Y-109103036D01*
X151100623Y-108834837D01*
X151089258Y-108771673D01*
X151042127Y-108509729D01*
X150926985Y-108200119D01*
X150909813Y-108171082D01*
X150791332Y-107970744D01*
X150758834Y-107915793D01*
X150542991Y-107665736D01*
X150286279Y-107457855D01*
X150085230Y-107347327D01*
X149996815Y-107298720D01*
X149996814Y-107298720D01*
X149996811Y-107298718D01*
X149683737Y-107193357D01*
X149683734Y-107193356D01*
X149356956Y-107145102D01*
X149356953Y-107145102D01*
X149026788Y-107155478D01*
X148703679Y-107224157D01*
X148397839Y-107348968D01*
X148397836Y-107348970D01*
X148118933Y-107525966D01*
X147875782Y-107749555D01*
X147772347Y-107885826D01*
X147676065Y-108012673D01*
X147526100Y-108306997D01*
X147526099Y-108307000D01*
X147517718Y-108334758D01*
X147430625Y-108623225D01*
X147392801Y-108950130D01*
X147392658Y-108951367D01*
X146400500Y-108951367D01*
X146400500Y-108248688D01*
X146405423Y-108226931D01*
X146400500Y-108147586D01*
X146400500Y-108119878D01*
X146397468Y-108098701D01*
X146392998Y-108026665D01*
X146392998Y-108026663D01*
X146383305Y-107999813D01*
X146379257Y-107971547D01*
X146369233Y-107949500D01*
X146349374Y-107905822D01*
X146332401Y-107858807D01*
X146324864Y-107837929D01*
X146319366Y-107830498D01*
X146308371Y-107815639D01*
X146296207Y-107788887D01*
X146262316Y-107749555D01*
X146242174Y-107726179D01*
X146233664Y-107714678D01*
X146229411Y-107708930D01*
X146214232Y-107693751D01*
X146165226Y-107636877D01*
X146165225Y-107636876D01*
X146142865Y-107622383D01*
X144730673Y-106210194D01*
X144718767Y-106191324D01*
X144659159Y-106138680D01*
X144639585Y-106119106D01*
X144622484Y-106106290D01*
X144568369Y-106058497D01*
X144542522Y-106046361D01*
X144519679Y-106029241D01*
X144452084Y-106003901D01*
X144386736Y-105973220D01*
X144359307Y-105969121D01*
X144331792Y-105958806D01*
X144286404Y-105955433D01*
X144249246Y-105952672D01*
X144228021Y-105949500D01*
X144206561Y-105949500D01*
X144131690Y-105943937D01*
X144105628Y-105949500D01*
X137854707Y-105949500D01*
X137786586Y-105929498D01*
X137740093Y-105875842D01*
X137729989Y-105805568D01*
X137759483Y-105740988D01*
X137815771Y-105703667D01*
X137887318Y-105680420D01*
X138041209Y-105568611D01*
X138153018Y-105414720D01*
X138211799Y-105233811D01*
X138211799Y-105043591D01*
X138153018Y-104862682D01*
X138041209Y-104708791D01*
X137887318Y-104596982D01*
X137706409Y-104538201D01*
X137516189Y-104538201D01*
X137335280Y-104596982D01*
X137181389Y-104708791D01*
X137069580Y-104862682D01*
X137010799Y-105043591D01*
X137010799Y-105233811D01*
X137069580Y-105414720D01*
X137181389Y-105568611D01*
X137335280Y-105680420D01*
X137406827Y-105703667D01*
X137465433Y-105743740D01*
X137493070Y-105809137D01*
X137480963Y-105879094D01*
X137432957Y-105931400D01*
X137367891Y-105949500D01*
X136370156Y-105949500D01*
X136033485Y-105612829D01*
X135992503Y-105438588D01*
X135914558Y-105335372D01*
X135892226Y-105305799D01*
X135892225Y-105305798D01*
X135750753Y-105218202D01*
X135669200Y-105202957D01*
X135628424Y-105195335D01*
X135087635Y-105195335D01*
X134918588Y-105235095D01*
X134794947Y-105328464D01*
X134785799Y-105335372D01*
X134731357Y-105423299D01*
X134302188Y-105423299D01*
X134272992Y-105379607D01*
X134206835Y-105335402D01*
X134128801Y-105319881D01*
X133228797Y-105319881D01*
X133150763Y-105335402D01*
X133084607Y-105379607D01*
X133040402Y-105445763D01*
X133024881Y-105523797D01*
X133024881Y-106323801D01*
X133040402Y-106401835D01*
X133084607Y-106467991D01*
X133150763Y-106512196D01*
X133228797Y-106527717D01*
X134128801Y-106527717D01*
X134206835Y-106512196D01*
X134272991Y-106467991D01*
X134317196Y-106401835D01*
X134332717Y-106323801D01*
X134332717Y-106074299D01*
X134663324Y-106074299D01*
X134675335Y-106107571D01*
X134675335Y-106239963D01*
X134715095Y-106409010D01*
X134815373Y-106541800D01*
X134956845Y-106629396D01*
X135094467Y-106655122D01*
X135529152Y-107089808D01*
X135541057Y-107108676D01*
X135600657Y-107161313D01*
X135620236Y-107180892D01*
X135620240Y-107180895D01*
X135637341Y-107193711D01*
X135671815Y-107224157D01*
X135691455Y-107241503D01*
X135717300Y-107253637D01*
X135740144Y-107270758D01*
X135807733Y-107296096D01*
X135873087Y-107326780D01*
X135877907Y-107327500D01*
X135900520Y-107330880D01*
X135928031Y-107341193D01*
X135983056Y-107345282D01*
X136010568Y-107347327D01*
X136031801Y-107350500D01*
X136053267Y-107350500D01*
X136118777Y-107355368D01*
X136128134Y-107356063D01*
X136128135Y-107356063D01*
X136154196Y-107350500D01*
X143889669Y-107350500D01*
X144999501Y-108460334D01*
X144999500Y-109559844D01*
X144712809Y-109846536D01*
X144408639Y-109846536D01*
X143433918Y-108871816D01*
X143433918Y-108374998D01*
X143418397Y-108296964D01*
X143374192Y-108230808D01*
X143308036Y-108186603D01*
X143230002Y-108171082D01*
X142169998Y-108171082D01*
X142091964Y-108186603D01*
X142025808Y-108230808D01*
X141981603Y-108296964D01*
X141966082Y-108374998D01*
X141966082Y-108509788D01*
X141946080Y-108577909D01*
X141892424Y-108624402D01*
X141822150Y-108634506D01*
X141750987Y-108598883D01*
X141547462Y-108395358D01*
X141546897Y-108394685D01*
X141509045Y-108349573D01*
X141457274Y-108319684D01*
X141408328Y-108285412D01*
X141408329Y-108285412D01*
X141408327Y-108285411D01*
X141388890Y-108280203D01*
X141371459Y-108270139D01*
X141362177Y-108268502D01*
X141312590Y-108259758D01*
X141254871Y-108244292D01*
X141254870Y-108244292D01*
X141201376Y-108248972D01*
X141168393Y-108226933D01*
X141108036Y-108186604D01*
X141108037Y-108186604D01*
X141108035Y-108186603D01*
X141030002Y-108171082D01*
X139969998Y-108171082D01*
X139891964Y-108186603D01*
X139825808Y-108230808D01*
X139781603Y-108296964D01*
X139766082Y-108374998D01*
X139766082Y-109025002D01*
X139781603Y-109103036D01*
X139825808Y-109169192D01*
X139891964Y-109213397D01*
X139969998Y-109228918D01*
X141029501Y-109228918D01*
X141029502Y-110071082D01*
X140561805Y-110071082D01*
X140497588Y-110059758D01*
X140439869Y-110044292D01*
X140439868Y-110044292D01*
X140380344Y-110049500D01*
X138914916Y-110049500D01*
X138879021Y-110001966D01*
X138788427Y-109882000D01*
X138788426Y-109881999D01*
X138646954Y-109794403D01*
X138547462Y-109775805D01*
X138524625Y-109771536D01*
X138158639Y-109771536D01*
X136857459Y-108470357D01*
X136849049Y-108460334D01*
X136819044Y-108424574D01*
X136767272Y-108394684D01*
X136718326Y-108360412D01*
X136718327Y-108360412D01*
X136718325Y-108360411D01*
X136698888Y-108355203D01*
X136681457Y-108345139D01*
X136672175Y-108343502D01*
X136622588Y-108334758D01*
X136564869Y-108319292D01*
X136564868Y-108319292D01*
X136505344Y-108324500D01*
X135639916Y-108324500D01*
X135610399Y-108285412D01*
X135513427Y-108157000D01*
X135513426Y-108156999D01*
X135371954Y-108069403D01*
X135288446Y-108053793D01*
X135249625Y-108046536D01*
X134708836Y-108046536D01*
X134539789Y-108086296D01*
X134427514Y-108171082D01*
X134407000Y-108186573D01*
X134352558Y-108274500D01*
X133477166Y-108274500D01*
X133383035Y-108211603D01*
X133305002Y-108196082D01*
X132244998Y-108196082D01*
X132166964Y-108211603D01*
X132100808Y-108255808D01*
X132056603Y-108321964D01*
X132041082Y-108399998D01*
X132041082Y-108534788D01*
X132021080Y-108602909D01*
X131967424Y-108649402D01*
X131897150Y-108659506D01*
X131825987Y-108623883D01*
X131622462Y-108420358D01*
X131605380Y-108400000D01*
X131584045Y-108374573D01*
X131532274Y-108344684D01*
X131499826Y-108321964D01*
X131483327Y-108310411D01*
X131463890Y-108305203D01*
X131446459Y-108295139D01*
X131437177Y-108293502D01*
X131387590Y-108284758D01*
X131329871Y-108269292D01*
X131329870Y-108269292D01*
X131276376Y-108273972D01*
X131238963Y-108248973D01*
X131211777Y-108230808D01*
X131183035Y-108211603D01*
X131105002Y-108196082D01*
X130546548Y-108196082D01*
X130539868Y-108194292D01*
X130519409Y-108196082D01*
X130045000Y-108196082D01*
X130027816Y-108199500D01*
X129439916Y-108199500D01*
X129400711Y-108147583D01*
X129313427Y-108032000D01*
X129313426Y-108031999D01*
X129171954Y-107944403D01*
X129090401Y-107929158D01*
X129049625Y-107921536D01*
X128994302Y-107921536D01*
X128952384Y-107905822D01*
X128826968Y-107858806D01*
X128626866Y-107843937D01*
X128626865Y-107843937D01*
X128430630Y-107885826D01*
X128312623Y-107949500D01*
X126298514Y-107949500D01*
X126276757Y-107944577D01*
X126276755Y-107944577D01*
X126245017Y-107946546D01*
X126197407Y-107949500D01*
X126169702Y-107949500D01*
X126148525Y-107952532D01*
X126097071Y-107955725D01*
X126076487Y-107957002D01*
X126049637Y-107966695D01*
X126021371Y-107970743D01*
X125957442Y-107999810D01*
X125955647Y-108000626D01*
X125887753Y-108025136D01*
X125865461Y-108041631D01*
X125838712Y-108053793D01*
X125838710Y-108053794D01*
X125775996Y-108107832D01*
X125758752Y-108120592D01*
X125743582Y-108135762D01*
X125686701Y-108184774D01*
X125672204Y-108207140D01*
X125109003Y-108770342D01*
X124954375Y-108769262D01*
X124954374Y-108769262D01*
X124752106Y-108807847D01*
X124685307Y-108834836D01*
X124561186Y-108884984D01*
X124388883Y-108997736D01*
X124241762Y-109141808D01*
X124125426Y-109311711D01*
X124106617Y-109355597D01*
X124060283Y-109463704D01*
X124044308Y-109500976D01*
X124001495Y-109702391D01*
X123998924Y-109886553D01*
X123998620Y-109908289D01*
X124035791Y-110110817D01*
X124111596Y-110302279D01*
X124223139Y-110475359D01*
X124366182Y-110623484D01*
X124535269Y-110741003D01*
X124723962Y-110823441D01*
X124925077Y-110867659D01*
X125130943Y-110871970D01*
X125130945Y-110871970D01*
X125210436Y-110857954D01*
X125333731Y-110836215D01*
X125525715Y-110761748D01*
X125674869Y-110667091D01*
X125699572Y-110651414D01*
X125848690Y-110509411D01*
X125967387Y-110341148D01*
X126051140Y-110153035D01*
X126096760Y-109952237D01*
X126099428Y-109761228D01*
X126510157Y-109350500D01*
X128350780Y-109350500D01*
X128442887Y-109367718D01*
X128500375Y-109378464D01*
X129041164Y-109378464D01*
X129210211Y-109338704D01*
X129286576Y-109281036D01*
X129343000Y-109238427D01*
X129343020Y-109238396D01*
X129428400Y-109100500D01*
X129838206Y-109100500D01*
X129856604Y-109128034D01*
X129856604Y-109128036D01*
X129900808Y-109194192D01*
X129900809Y-109194193D01*
X129966964Y-109238397D01*
X130044998Y-109253918D01*
X131104501Y-109253918D01*
X131104502Y-110096082D01*
X130044998Y-110096082D01*
X129966964Y-110111603D01*
X129900808Y-110155808D01*
X129856603Y-110221964D01*
X129841082Y-110299998D01*
X129841082Y-110950002D01*
X129856603Y-111028036D01*
X129900808Y-111094192D01*
X129966964Y-111138397D01*
X130044998Y-111153918D01*
X131105002Y-111153918D01*
X131183035Y-111138397D01*
X131233901Y-111104409D01*
X131249192Y-111094192D01*
X131249192Y-111094191D01*
X131276376Y-111076028D01*
X131329870Y-111080708D01*
X131329871Y-111080708D01*
X131387590Y-111065242D01*
X131441655Y-111055708D01*
X131446459Y-111054861D01*
X131463890Y-111044797D01*
X131483327Y-111039589D01*
X131514363Y-111017857D01*
X131532274Y-111005316D01*
X131584045Y-110975427D01*
X131622464Y-110929640D01*
X131825987Y-110726117D01*
X131888299Y-110692091D01*
X131959114Y-110697156D01*
X132015950Y-110739703D01*
X132041082Y-110815212D01*
X132041082Y-110950002D01*
X132056603Y-111028036D01*
X132100808Y-111094192D01*
X132166964Y-111138397D01*
X132244998Y-111153918D01*
X133305002Y-111153918D01*
X133383036Y-111138397D01*
X133449192Y-111094192D01*
X133493397Y-111028036D01*
X133508918Y-110950002D01*
X133508918Y-110299998D01*
X133493397Y-110221964D01*
X133449192Y-110155808D01*
X133383036Y-110111603D01*
X133305002Y-110096082D01*
X132244998Y-110096082D01*
X132005501Y-110143719D01*
X132005501Y-109206281D01*
X132244998Y-109253918D01*
X133305002Y-109253918D01*
X133383035Y-109238397D01*
X133426806Y-109209150D01*
X133449192Y-109194192D01*
X133477166Y-109175500D01*
X134316372Y-109175500D01*
X134336296Y-109260211D01*
X134375187Y-109311711D01*
X134436574Y-109393001D01*
X134578046Y-109480597D01*
X134659599Y-109495842D01*
X134700375Y-109503464D01*
X135241164Y-109503464D01*
X135410211Y-109463704D01*
X135503839Y-109393000D01*
X135543000Y-109363427D01*
X135575021Y-109311712D01*
X135628400Y-109225500D01*
X136338398Y-109225500D01*
X137571536Y-110458639D01*
X137571536Y-110816164D01*
X137611296Y-110985211D01*
X137711574Y-111118001D01*
X137853046Y-111205597D01*
X137934599Y-111220842D01*
X137975375Y-111228464D01*
X138516164Y-111228464D01*
X138685211Y-111188704D01*
X138731275Y-111153918D01*
X138818000Y-111088427D01*
X138822780Y-111080708D01*
X138903400Y-110950500D01*
X139746500Y-110950500D01*
X139825808Y-111069192D01*
X139891964Y-111113397D01*
X139969998Y-111128918D01*
X141030002Y-111128918D01*
X141108035Y-111113397D01*
X141156957Y-111080708D01*
X141174192Y-111069192D01*
X141174192Y-111069191D01*
X141201376Y-111051028D01*
X141254870Y-111055708D01*
X141254871Y-111055708D01*
X141312590Y-111040242D01*
X141362177Y-111031498D01*
X141371459Y-111029861D01*
X141388890Y-111019797D01*
X141408327Y-111014589D01*
X141457274Y-110980316D01*
X141509045Y-110950427D01*
X141547464Y-110904640D01*
X141750987Y-110701117D01*
X141813299Y-110667091D01*
X141884114Y-110672156D01*
X141940950Y-110714703D01*
X141966082Y-110790212D01*
X141966082Y-110925002D01*
X141981603Y-111003036D01*
X142025808Y-111069192D01*
X142091964Y-111113397D01*
X142169998Y-111128918D01*
X143230002Y-111128918D01*
X143308036Y-111113397D01*
X143374192Y-111069192D01*
X143418397Y-111003036D01*
X143433918Y-110925002D01*
X143433918Y-110450211D01*
X143453920Y-110382090D01*
X143507576Y-110335597D01*
X143577850Y-110325493D01*
X143649011Y-110361114D01*
X143799817Y-110511920D01*
X143798845Y-110671048D01*
X143821536Y-110750440D01*
X143821536Y-110891164D01*
X143861296Y-111060211D01*
X143961574Y-111193001D01*
X144103046Y-111280597D01*
X144177487Y-111294512D01*
X144204946Y-111299645D01*
X144268232Y-111331824D01*
X144304074Y-111393109D01*
X144301093Y-111464043D01*
X144260236Y-111522105D01*
X144181794Y-111549500D01*
X123450500Y-111549500D01*
X123450500Y-104828289D01*
X123998620Y-104828289D01*
X124035791Y-105030817D01*
X124111596Y-105222279D01*
X124223139Y-105395359D01*
X124366182Y-105543484D01*
X124535269Y-105661003D01*
X124723962Y-105743441D01*
X124925077Y-105787659D01*
X125130943Y-105791970D01*
X125130945Y-105791970D01*
X125191736Y-105781251D01*
X125333731Y-105756215D01*
X125525715Y-105681748D01*
X125699570Y-105571415D01*
X125699572Y-105571414D01*
X125848690Y-105429411D01*
X125853971Y-105421925D01*
X125967388Y-105261147D01*
X126020488Y-105141881D01*
X126051140Y-105073035D01*
X126051141Y-105073033D01*
X126076221Y-105016700D01*
X128030388Y-105016700D01*
X128750335Y-105736648D01*
X128750335Y-106339963D01*
X128790095Y-106509010D01*
X128890373Y-106641800D01*
X129031845Y-106729396D01*
X129113398Y-106744641D01*
X129154174Y-106752263D01*
X129694963Y-106752263D01*
X129864010Y-106712503D01*
X129996800Y-106612225D01*
X130084396Y-106470753D01*
X130116222Y-106300499D01*
X130581607Y-106300499D01*
X130596671Y-106305789D01*
X130644208Y-106300499D01*
X130659990Y-106300499D01*
X130675022Y-106297070D01*
X130722136Y-106291827D01*
X130735925Y-106283177D01*
X130751878Y-106279538D01*
X130789435Y-106249610D01*
X130802488Y-106241422D01*
X130813384Y-106230526D01*
X130850606Y-106200865D01*
X130857651Y-106186259D01*
X131466194Y-105577717D01*
X132128801Y-105577717D01*
X132206835Y-105562196D01*
X132272991Y-105517991D01*
X132317196Y-105451835D01*
X132332717Y-105373801D01*
X132332717Y-104573797D01*
X132317196Y-104495763D01*
X132272991Y-104429607D01*
X132206835Y-104385402D01*
X132128801Y-104369881D01*
X131228797Y-104369881D01*
X131150763Y-104385402D01*
X131084607Y-104429607D01*
X131040402Y-104495763D01*
X131024881Y-104573797D01*
X131024881Y-105236404D01*
X130514187Y-105747099D01*
X130116545Y-105747099D01*
X130067503Y-105538588D01*
X130012811Y-105466164D01*
X129967226Y-105405799D01*
X129967225Y-105405798D01*
X129825753Y-105318202D01*
X129744200Y-105302957D01*
X129703424Y-105295335D01*
X129162636Y-105295335D01*
X129105165Y-105308852D01*
X129004537Y-105208223D01*
X128970511Y-105145911D01*
X128975576Y-105075096D01*
X129018123Y-105018260D01*
X129116785Y-104995274D01*
X129154171Y-105002263D01*
X129694963Y-105002263D01*
X129864010Y-104962503D01*
X129996800Y-104862225D01*
X130084396Y-104720753D01*
X130100444Y-104634901D01*
X130107263Y-104598424D01*
X130107263Y-104436729D01*
X130129299Y-104368909D01*
X130129299Y-104178689D01*
X130107263Y-104110869D01*
X130107263Y-103957636D01*
X130100069Y-103927047D01*
X130067503Y-103788588D01*
X130024849Y-103732105D01*
X129967226Y-103655799D01*
X129967225Y-103655798D01*
X129825753Y-103568202D01*
X129739736Y-103552123D01*
X129703424Y-103545335D01*
X129162635Y-103545335D01*
X128993588Y-103585095D01*
X128860798Y-103685373D01*
X128773202Y-103826845D01*
X128750335Y-103949175D01*
X128750335Y-104589964D01*
X128760904Y-104634901D01*
X128757030Y-104705791D01*
X128715444Y-104763334D01*
X128649349Y-104789258D01*
X128579732Y-104775334D01*
X128549156Y-104752843D01*
X128374029Y-104577717D01*
X128367116Y-104563321D01*
X128329749Y-104533437D01*
X128318602Y-104522289D01*
X128305559Y-104514091D01*
X128268527Y-104484477D01*
X128268526Y-104484477D01*
X128268525Y-104484476D01*
X128252655Y-104480841D01*
X128238804Y-104472136D01*
X128191098Y-104466743D01*
X128176066Y-104463300D01*
X128160644Y-104463300D01*
X128113364Y-104457955D01*
X128098058Y-104463300D01*
X126071694Y-104463300D01*
X125981579Y-104244668D01*
X125867629Y-104073160D01*
X125722535Y-103927049D01*
X125722533Y-103927047D01*
X125551822Y-103811900D01*
X125361996Y-103732105D01*
X125361995Y-103732105D01*
X125361993Y-103732104D01*
X125160289Y-103690700D01*
X125005853Y-103689621D01*
X124954375Y-103689262D01*
X124954374Y-103689262D01*
X124752106Y-103727847D01*
X124656646Y-103766416D01*
X124561186Y-103804984D01*
X124388883Y-103917736D01*
X124241762Y-104061808D01*
X124125426Y-104231711D01*
X124044308Y-104420976D01*
X124001495Y-104622391D01*
X123999130Y-104791800D01*
X123998620Y-104828289D01*
X123450500Y-104828289D01*
X123450500Y-102288289D01*
X123998620Y-102288289D01*
X124035791Y-102490817D01*
X124111596Y-102682279D01*
X124223139Y-102855359D01*
X124366182Y-103003484D01*
X124535269Y-103121003D01*
X124723962Y-103203441D01*
X124925077Y-103247659D01*
X125130943Y-103251970D01*
X125130945Y-103251970D01*
X125210175Y-103238000D01*
X125333731Y-103216215D01*
X125525715Y-103141748D01*
X125659668Y-103056738D01*
X125699572Y-103031414D01*
X125848690Y-102889411D01*
X125872711Y-102855359D01*
X125967388Y-102721147D01*
X126009853Y-102625767D01*
X126051140Y-102533035D01*
X126051141Y-102533033D01*
X126076221Y-102476700D01*
X128752808Y-102476700D01*
X128767872Y-102481990D01*
X128815409Y-102476700D01*
X128831191Y-102476700D01*
X128846223Y-102473271D01*
X128861564Y-102471564D01*
X128963264Y-102490575D01*
X129504053Y-102490575D01*
X129673100Y-102450815D01*
X129805890Y-102350537D01*
X129893486Y-102209065D01*
X129916353Y-102086735D01*
X129916353Y-101474959D01*
X130227501Y-101163811D01*
X130908971Y-101163811D01*
X130908971Y-101287113D01*
X130924492Y-101365147D01*
X130968697Y-101431303D01*
X131034853Y-101475508D01*
X131112887Y-101491029D01*
X132012891Y-101491029D01*
X132090925Y-101475508D01*
X132157081Y-101431303D01*
X132201286Y-101365147D01*
X132216807Y-101287113D01*
X132216807Y-100487109D01*
X132201286Y-100409075D01*
X132157081Y-100342919D01*
X132090925Y-100298714D01*
X132012891Y-100283193D01*
X131112887Y-100283193D01*
X131034853Y-100298714D01*
X130968697Y-100342919D01*
X130924492Y-100409075D01*
X130909328Y-100485314D01*
X130908971Y-100487111D01*
X130908971Y-100610411D01*
X130160081Y-100610411D01*
X130145017Y-100605121D01*
X130097480Y-100610411D01*
X130081698Y-100610411D01*
X130066670Y-100613839D01*
X129860260Y-100636811D01*
X129913840Y-100350180D01*
X129916353Y-100336736D01*
X129916353Y-100306383D01*
X129929605Y-100288138D01*
X129931391Y-100282644D01*
X129988389Y-100107221D01*
X129988389Y-99917001D01*
X129968913Y-99857061D01*
X129929610Y-99736097D01*
X129929609Y-99736096D01*
X129929608Y-99736092D01*
X129923969Y-99728330D01*
X129916353Y-99695950D01*
X129916353Y-99695948D01*
X129876593Y-99526900D01*
X129776316Y-99394111D01*
X129776315Y-99394110D01*
X129634843Y-99306514D01*
X129553290Y-99291269D01*
X129512514Y-99283647D01*
X128971725Y-99283647D01*
X128874502Y-99306514D01*
X128802678Y-99323407D01*
X128670630Y-99423125D01*
X128669888Y-99423685D01*
X128582292Y-99565157D01*
X128567047Y-99646710D01*
X128564097Y-99662496D01*
X128559425Y-99687487D01*
X128559425Y-100328275D01*
X128591226Y-100463484D01*
X128599185Y-100497322D01*
X128684586Y-100610411D01*
X128699463Y-100630112D01*
X128840935Y-100717708D01*
X128907292Y-100730112D01*
X128963264Y-100740575D01*
X129504053Y-100740575D01*
X129548989Y-100730006D01*
X129619880Y-100733880D01*
X129677422Y-100775466D01*
X129703347Y-100841560D01*
X129689423Y-100911178D01*
X129666932Y-100941754D01*
X129575040Y-101033647D01*
X128971725Y-101033647D01*
X128844115Y-101063661D01*
X128802678Y-101073407D01*
X128728648Y-101129312D01*
X128669888Y-101173685D01*
X128582292Y-101315157D01*
X128572904Y-101365381D01*
X128559496Y-101437109D01*
X128559425Y-101437487D01*
X128559425Y-101923300D01*
X126071694Y-101923300D01*
X125981579Y-101704668D01*
X125867629Y-101533160D01*
X125722535Y-101387049D01*
X125722533Y-101387047D01*
X125551822Y-101271900D01*
X125361996Y-101192105D01*
X125361995Y-101192105D01*
X125361993Y-101192104D01*
X125160289Y-101150700D01*
X125005853Y-101149622D01*
X124954375Y-101149262D01*
X124954374Y-101149262D01*
X124752106Y-101187847D01*
X124656647Y-101226415D01*
X124561186Y-101264984D01*
X124388883Y-101377736D01*
X124241762Y-101521808D01*
X124125426Y-101691711D01*
X124092719Y-101768024D01*
X124048252Y-101871775D01*
X124044308Y-101880976D01*
X124021934Y-101986234D01*
X124001495Y-102082391D01*
X123998620Y-102288289D01*
X123450500Y-102288289D01*
X123450500Y-99748289D01*
X123998620Y-99748289D01*
X124035791Y-99950817D01*
X124111596Y-100142279D01*
X124223139Y-100315359D01*
X124366182Y-100463484D01*
X124535269Y-100581003D01*
X124723962Y-100663441D01*
X124925077Y-100707659D01*
X125130943Y-100711970D01*
X125130945Y-100711970D01*
X125204611Y-100698981D01*
X125333731Y-100676215D01*
X125525715Y-100601748D01*
X125699570Y-100491415D01*
X125699572Y-100491414D01*
X125848690Y-100349411D01*
X125851137Y-100345943D01*
X125946683Y-100210497D01*
X125967387Y-100181148D01*
X126051140Y-99993035D01*
X126096760Y-99792237D01*
X126100045Y-99557042D01*
X126097144Y-99542391D01*
X126060050Y-99355050D01*
X125981579Y-99164668D01*
X125867629Y-98993160D01*
X125722535Y-98847049D01*
X125722533Y-98847047D01*
X125551822Y-98731900D01*
X125361996Y-98652105D01*
X125361995Y-98652105D01*
X125361993Y-98652104D01*
X125160289Y-98610700D01*
X124965114Y-98609337D01*
X124954375Y-98609262D01*
X124954374Y-98609262D01*
X124752106Y-98647847D01*
X124701142Y-98668438D01*
X124561186Y-98724984D01*
X124388883Y-98837736D01*
X124241762Y-98981808D01*
X124125426Y-99151711D01*
X124115821Y-99174122D01*
X124047644Y-99333193D01*
X124044308Y-99340976D01*
X124008128Y-99511187D01*
X124001495Y-99542391D01*
X123998620Y-99748289D01*
X123450500Y-99748289D01*
X123450500Y-94668289D01*
X123998620Y-94668289D01*
X124035791Y-94870817D01*
X124111596Y-95062279D01*
X124223139Y-95235359D01*
X124366182Y-95383484D01*
X124535269Y-95501003D01*
X124723962Y-95583441D01*
X124925077Y-95627659D01*
X125130943Y-95631970D01*
X125130945Y-95631970D01*
X125251124Y-95610780D01*
X125302269Y-95601762D01*
X125685282Y-95984775D01*
X125719308Y-96047087D01*
X125714243Y-96117902D01*
X125671696Y-96174738D01*
X125605176Y-96199549D01*
X125547363Y-96190025D01*
X125361996Y-96112105D01*
X125361995Y-96112105D01*
X125361993Y-96112104D01*
X125160289Y-96070700D01*
X125005853Y-96069622D01*
X124954375Y-96069262D01*
X124954374Y-96069262D01*
X124752106Y-96107847D01*
X124656646Y-96146416D01*
X124561186Y-96184984D01*
X124388883Y-96297736D01*
X124241762Y-96441808D01*
X124125426Y-96611711D01*
X124081882Y-96713308D01*
X124044431Y-96800690D01*
X124044308Y-96800976D01*
X124019340Y-96918438D01*
X124001495Y-97002391D01*
X123998620Y-97208289D01*
X124035791Y-97410817D01*
X124111596Y-97602279D01*
X124223139Y-97775359D01*
X124366182Y-97923484D01*
X124535269Y-98041003D01*
X124723962Y-98123441D01*
X124925077Y-98167659D01*
X125130943Y-98171970D01*
X125130945Y-98171970D01*
X125191736Y-98161251D01*
X125333731Y-98136215D01*
X125525715Y-98061748D01*
X125668788Y-97970950D01*
X125699572Y-97951414D01*
X125848690Y-97809411D01*
X125850040Y-97807498D01*
X125915753Y-97714343D01*
X125967387Y-97641148D01*
X126051140Y-97453035D01*
X126096760Y-97252237D01*
X126100045Y-97017042D01*
X126097020Y-97001761D01*
X126060050Y-96815052D01*
X126060050Y-96815051D01*
X126060049Y-96815048D01*
X125981580Y-96624670D01*
X125981578Y-96624667D01*
X125980949Y-96623141D01*
X125973483Y-96552538D01*
X126005373Y-96489106D01*
X126066494Y-96452985D01*
X126137441Y-96455642D01*
X126186537Y-96486030D01*
X127820292Y-98119785D01*
X127827204Y-98134179D01*
X127864566Y-98164059D01*
X127875717Y-98175211D01*
X127888769Y-98183414D01*
X127899232Y-98191781D01*
X127925795Y-98213024D01*
X127941665Y-98216659D01*
X127955515Y-98225364D01*
X128003222Y-98230757D01*
X128018254Y-98234200D01*
X128033676Y-98234200D01*
X128080956Y-98239545D01*
X128096262Y-98234200D01*
X128539754Y-98234200D01*
X128584717Y-98425368D01*
X128588796Y-98442711D01*
X128683169Y-98567681D01*
X128689074Y-98575501D01*
X128830546Y-98663097D01*
X128912099Y-98678342D01*
X128952875Y-98685964D01*
X129493664Y-98685964D01*
X129662711Y-98646204D01*
X129707349Y-98612495D01*
X129795500Y-98545927D01*
X129795647Y-98545690D01*
X129883097Y-98404454D01*
X129905964Y-98282124D01*
X129905964Y-97670349D01*
X130042113Y-97534200D01*
X130798582Y-97534200D01*
X130798582Y-97657502D01*
X130814103Y-97735536D01*
X130858308Y-97801692D01*
X130924464Y-97845897D01*
X131002498Y-97861418D01*
X131902502Y-97861418D01*
X131980536Y-97845897D01*
X132046692Y-97801692D01*
X132090897Y-97735536D01*
X132106418Y-97657502D01*
X132106418Y-96857498D01*
X132090897Y-96779464D01*
X132046692Y-96713308D01*
X131980536Y-96669103D01*
X131902502Y-96653582D01*
X131002498Y-96653582D01*
X130924464Y-96669103D01*
X130858308Y-96713308D01*
X130814103Y-96779464D01*
X130798582Y-96857498D01*
X130798582Y-96980800D01*
X129974693Y-96980800D01*
X129959628Y-96975510D01*
X129921339Y-96979771D01*
X129851424Y-96967426D01*
X129799282Y-96919242D01*
X129781467Y-96850517D01*
X129800276Y-96788213D01*
X129883097Y-96654453D01*
X129905964Y-96532124D01*
X129905964Y-95891336D01*
X129866204Y-95722289D01*
X129860099Y-95714205D01*
X129765927Y-95589500D01*
X129765926Y-95589499D01*
X129624454Y-95501903D01*
X129542901Y-95486658D01*
X129502125Y-95479036D01*
X128961336Y-95479036D01*
X128864113Y-95501903D01*
X128792289Y-95518796D01*
X128668867Y-95612000D01*
X128659499Y-95619074D01*
X128571903Y-95760546D01*
X128566087Y-95791662D01*
X128552858Y-95862432D01*
X128549036Y-95882876D01*
X128549036Y-96523664D01*
X128579798Y-96654453D01*
X128588796Y-96692711D01*
X128679634Y-96813000D01*
X128689074Y-96825501D01*
X128830546Y-96913097D01*
X128895384Y-96925217D01*
X128952875Y-96935964D01*
X129493665Y-96935964D01*
X129538602Y-96925395D01*
X129609492Y-96929269D01*
X129667035Y-96970855D01*
X129692959Y-97036950D01*
X129679035Y-97106567D01*
X129656544Y-97137143D01*
X129564651Y-97229036D01*
X128961336Y-97229036D01*
X128862693Y-97252237D01*
X128792289Y-97268796D01*
X128665102Y-97364843D01*
X128659499Y-97369074D01*
X128571903Y-97510546D01*
X128540077Y-97680800D01*
X128163933Y-97680800D01*
X125808920Y-95325787D01*
X125967387Y-95101149D01*
X126032496Y-94954910D01*
X126051140Y-94913035D01*
X126096760Y-94712237D01*
X126100045Y-94477042D01*
X126097144Y-94462391D01*
X126060050Y-94275050D01*
X126014632Y-94164859D01*
X125981580Y-94084670D01*
X125914217Y-93983281D01*
X125867629Y-93913160D01*
X125722535Y-93767049D01*
X125722533Y-93767047D01*
X125551822Y-93651900D01*
X125361996Y-93572105D01*
X125361995Y-93572105D01*
X125361993Y-93572104D01*
X125160289Y-93530700D01*
X125005853Y-93529622D01*
X124954375Y-93529262D01*
X124954374Y-93529262D01*
X124752106Y-93567847D01*
X124672525Y-93600000D01*
X124561186Y-93644984D01*
X124388883Y-93757736D01*
X124241762Y-93901808D01*
X124125426Y-94071711D01*
X124044308Y-94260976D01*
X124001495Y-94462391D01*
X124000719Y-94518001D01*
X123998620Y-94668289D01*
X123450500Y-94668289D01*
X123450500Y-92128289D01*
X123998620Y-92128289D01*
X124035791Y-92330817D01*
X124111596Y-92522279D01*
X124223139Y-92695359D01*
X124366182Y-92843484D01*
X124535269Y-92961003D01*
X124723962Y-93043441D01*
X124925077Y-93087659D01*
X125130943Y-93091970D01*
X125130945Y-93091970D01*
X125191736Y-93081251D01*
X125333731Y-93056215D01*
X125525715Y-92981748D01*
X125699570Y-92871415D01*
X125699572Y-92871414D01*
X125848690Y-92729411D01*
X125849660Y-92728036D01*
X125967387Y-92561149D01*
X126049509Y-92376700D01*
X128432254Y-92376700D01*
X128453296Y-92466163D01*
X128481296Y-92585211D01*
X128564476Y-92695359D01*
X128581574Y-92718001D01*
X128723046Y-92805597D01*
X128804599Y-92820842D01*
X128845375Y-92828464D01*
X129386163Y-92828464D01*
X129443634Y-92814947D01*
X129544263Y-92915576D01*
X129578289Y-92977888D01*
X129573224Y-93048703D01*
X129530677Y-93105539D01*
X129432016Y-93128526D01*
X129394625Y-93121536D01*
X128853836Y-93121536D01*
X128756613Y-93144403D01*
X128684789Y-93161296D01*
X128561453Y-93254435D01*
X128551999Y-93261574D01*
X128464403Y-93403046D01*
X128441536Y-93525376D01*
X128441536Y-94166164D01*
X128472298Y-94296954D01*
X128481296Y-94335211D01*
X128577338Y-94462391D01*
X128581574Y-94468001D01*
X128723046Y-94555597D01*
X128804599Y-94570842D01*
X128845375Y-94578464D01*
X129386164Y-94578464D01*
X129555211Y-94538704D01*
X129657348Y-94461574D01*
X129688000Y-94438427D01*
X129693286Y-94429890D01*
X129775597Y-94296954D01*
X129798464Y-94174624D01*
X129798464Y-93533836D01*
X129790247Y-93498900D01*
X129794121Y-93428009D01*
X129835707Y-93370467D01*
X129901801Y-93344542D01*
X129991596Y-93371650D01*
X130035246Y-93406559D01*
X130046397Y-93417711D01*
X130059449Y-93425914D01*
X130093376Y-93453046D01*
X130096475Y-93455524D01*
X130112345Y-93459159D01*
X130126195Y-93467864D01*
X130173902Y-93473257D01*
X130188934Y-93476700D01*
X130204356Y-93476700D01*
X130251636Y-93482045D01*
X130266942Y-93476700D01*
X130716082Y-93476700D01*
X130716082Y-93600002D01*
X130731603Y-93678036D01*
X130775808Y-93744192D01*
X130841964Y-93788397D01*
X130919998Y-93803918D01*
X131820002Y-93803918D01*
X131898036Y-93788397D01*
X131964192Y-93744192D01*
X132008397Y-93678036D01*
X132023918Y-93600002D01*
X132023918Y-92799998D01*
X132008397Y-92721964D01*
X131964192Y-92655808D01*
X131898036Y-92611603D01*
X131820002Y-92596082D01*
X130919998Y-92596082D01*
X130841964Y-92611603D01*
X130775808Y-92655808D01*
X130731603Y-92721964D01*
X130716082Y-92799998D01*
X130716082Y-92923300D01*
X130334613Y-92923300D01*
X129798464Y-92387152D01*
X129798464Y-91783836D01*
X129758704Y-91614789D01*
X129696185Y-91532000D01*
X129658427Y-91482000D01*
X129658426Y-91481999D01*
X129516954Y-91394403D01*
X129435401Y-91379158D01*
X129394625Y-91371536D01*
X128853836Y-91371536D01*
X128756613Y-91394403D01*
X128684789Y-91411296D01*
X128566828Y-91500376D01*
X128551999Y-91511574D01*
X128464403Y-91653046D01*
X128432577Y-91823300D01*
X126096425Y-91823300D01*
X125981579Y-91544668D01*
X125867629Y-91373160D01*
X125722535Y-91227049D01*
X125722533Y-91227047D01*
X125551822Y-91111900D01*
X125361996Y-91032105D01*
X125361995Y-91032105D01*
X125361993Y-91032104D01*
X125160289Y-90990700D01*
X125005853Y-90989622D01*
X124954375Y-90989262D01*
X124954374Y-90989262D01*
X124752106Y-91027847D01*
X124656646Y-91066416D01*
X124561186Y-91104984D01*
X124388883Y-91217736D01*
X124241762Y-91361808D01*
X124125426Y-91531711D01*
X124098077Y-91595523D01*
X124051993Y-91703046D01*
X124044308Y-91720976D01*
X124009164Y-91886311D01*
X124001495Y-91922391D01*
X123998620Y-92128289D01*
X123450500Y-92128289D01*
X123450500Y-85700500D01*
X124037502Y-85700500D01*
X124105623Y-85720502D01*
G37*
%TD.AperFunction*%
%TA.AperFunction,Conductor*%
G36*
X139839675Y-88318487D02*
G01*
X139873701Y-88380799D01*
X139868636Y-88451614D01*
X139826089Y-88508450D01*
X139750580Y-88533582D01*
X139500878Y-88533582D01*
X139426524Y-88548372D01*
X139426523Y-88548373D01*
X139426522Y-88548373D01*
X139342209Y-88604709D01*
X139291902Y-88680000D01*
X139285872Y-88689024D01*
X139271082Y-88763378D01*
X139271082Y-88911622D01*
X139285872Y-88985976D01*
X139320299Y-89037500D01*
X139285872Y-89089024D01*
X139271082Y-89163378D01*
X139271082Y-89311622D01*
X139285872Y-89385976D01*
X139320299Y-89437500D01*
X139285872Y-89489024D01*
X139271082Y-89563378D01*
X139271082Y-89711622D01*
X139285872Y-89785976D01*
X139320299Y-89837500D01*
X139285872Y-89889024D01*
X139271082Y-89963378D01*
X139271082Y-90111622D01*
X139285872Y-90185976D01*
X139320299Y-90237500D01*
X139285872Y-90289024D01*
X139271082Y-90363378D01*
X139271082Y-90511622D01*
X139285872Y-90585976D01*
X139320299Y-90637500D01*
X139285872Y-90689024D01*
X139271082Y-90763378D01*
X139271082Y-90911622D01*
X139285872Y-90985976D01*
X139285873Y-90985977D01*
X139285873Y-90985978D01*
X139342209Y-91070291D01*
X139426522Y-91126627D01*
X139426523Y-91126627D01*
X139426524Y-91126628D01*
X139500878Y-91141418D01*
X139946082Y-91141418D01*
X139946082Y-91612010D01*
X138815824Y-91612010D01*
X138779234Y-91575421D01*
X138705593Y-91501781D01*
X138709292Y-91481999D01*
X138728464Y-91379435D01*
X138728464Y-90878666D01*
X138711609Y-90807000D01*
X138690409Y-90716865D01*
X138594428Y-90589766D01*
X138459017Y-90505922D01*
X138419989Y-90498627D01*
X138341935Y-90484036D01*
X137766165Y-90484036D01*
X137604365Y-90522091D01*
X137477266Y-90618072D01*
X137393422Y-90753483D01*
X137371536Y-90870567D01*
X137371536Y-91371335D01*
X137409591Y-91533135D01*
X137505572Y-91660234D01*
X137640984Y-91744078D01*
X137754931Y-91765379D01*
X137773980Y-91779219D01*
X137954890Y-91838000D01*
X138145110Y-91838000D01*
X138231211Y-91810024D01*
X138472182Y-92050995D01*
X138479094Y-92065389D01*
X138516456Y-92095269D01*
X138527607Y-92106421D01*
X138540659Y-92114624D01*
X138577685Y-92144234D01*
X138593555Y-92147869D01*
X138607405Y-92156574D01*
X138655112Y-92161967D01*
X138670144Y-92165410D01*
X138685566Y-92165410D01*
X138732846Y-92170755D01*
X138748152Y-92165410D01*
X139962139Y-92165410D01*
X140030260Y-92185412D01*
X140076753Y-92239068D01*
X140086857Y-92309342D01*
X140051234Y-92380505D01*
X137287717Y-95144023D01*
X137273321Y-95150936D01*
X137243443Y-95188297D01*
X137232288Y-95199452D01*
X137224087Y-95212500D01*
X137194475Y-95249529D01*
X137190841Y-95265398D01*
X137182135Y-95279248D01*
X137176742Y-95326960D01*
X137173300Y-95341987D01*
X137173300Y-95357408D01*
X137167955Y-95404688D01*
X137173300Y-95419994D01*
X137173300Y-95583776D01*
X137148545Y-95601762D01*
X137076761Y-95653916D01*
X137009894Y-95677774D01*
X136940742Y-95661694D01*
X136891262Y-95610780D01*
X136876700Y-95551980D01*
X136876700Y-88572193D01*
X136881990Y-88557129D01*
X136881990Y-88557127D01*
X136894343Y-88521970D01*
X137339613Y-88076700D01*
X139597888Y-88076700D01*
X139839675Y-88318487D01*
G37*
%TD.AperFunction*%
%TA.AperFunction,Conductor*%
G36*
X148901817Y-97313519D02*
G01*
X148940575Y-97364843D01*
X149086091Y-97454944D01*
X149149003Y-97466704D01*
X149211914Y-97478464D01*
X150549510Y-97478464D01*
X150549511Y-98802663D01*
X150255638Y-99096536D01*
X149791165Y-99096536D01*
X149629365Y-99134591D01*
X149502266Y-99230572D01*
X149418422Y-99365983D01*
X149389014Y-99523300D01*
X148790226Y-99523300D01*
X148779090Y-99490495D01*
X148803918Y-99365666D01*
X148803918Y-99109337D01*
X148794998Y-99064493D01*
X148786170Y-99020112D01*
X148786169Y-99020110D01*
X148779682Y-98987500D01*
X148786169Y-98954890D01*
X148786170Y-98954888D01*
X148803918Y-98865664D01*
X148803918Y-98609336D01*
X148786170Y-98520112D01*
X148785067Y-98514568D01*
X148800792Y-98425368D01*
X148802680Y-98420515D01*
X148802827Y-98413824D01*
X148803806Y-98408273D01*
X148805634Y-98397904D01*
X148808731Y-98362500D01*
X148808731Y-98112496D01*
X148796432Y-98042750D01*
X148795442Y-98040031D01*
X148794942Y-98037192D01*
X148774995Y-97978431D01*
X148774994Y-97978430D01*
X148774994Y-97978429D01*
X148761155Y-97961187D01*
X148747920Y-97937060D01*
X148727221Y-97918907D01*
X148725195Y-97916383D01*
X148725191Y-97916379D01*
X148719674Y-97911750D01*
X148719673Y-97911751D01*
X148705552Y-97899904D01*
X148688100Y-97884599D01*
X148685591Y-97883151D01*
X148683374Y-97881290D01*
X148683354Y-97881281D01*
X148666843Y-97867429D01*
X148583017Y-97834820D01*
X148576324Y-97834673D01*
X148570773Y-97833694D01*
X148560404Y-97831866D01*
X148552837Y-97831204D01*
X148486720Y-97805343D01*
X148445080Y-97747840D01*
X148441137Y-97676953D01*
X148474723Y-97616589D01*
X148848455Y-97242857D01*
X148901817Y-97313519D01*
G37*
%TD.AperFunction*%
%TD*%
M02*
