%TF.GenerationSoftware,KiCad,Pcbnew,(5.99.0-3293-g62433736b)*%
%TF.CreationDate,2020-09-21T11:37:00+07:00*%
%TF.ProjectId,IMU_board,494d555f-626f-4617-9264-2e6b69636164,rev?*%
%TF.SameCoordinates,Original*%
%TF.FileFunction,Soldermask,Top*%
%TF.FilePolarity,Negative*%
%FSLAX46Y46*%
G04 Gerber Fmt 4.6, Leading zero omitted, Abs format (unit mm)*
G04 Created by KiCad (PCBNEW (5.99.0-3293-g62433736b)) date 2020-09-21 11:37:00*
%MOMM*%
%LPD*%
G01*
G04 APERTURE LIST*
%ADD10R,0.900000X0.800000*%
%ADD11R,1.060000X0.650000*%
%ADD12R,1.700000X1.700000*%
%ADD13O,1.700000X1.700000*%
G04 APERTURE END LIST*
%TO.C,C15*%
G36*
G01*
X134737500Y-108250000D02*
X135212500Y-108250000D01*
G75*
G02*
X135450000Y-108487500I0J-237500D01*
G01*
X135450000Y-109062500D01*
G75*
G02*
X135212500Y-109300000I-237500J0D01*
G01*
X134737500Y-109300000D01*
G75*
G02*
X134500000Y-109062500I0J237500D01*
G01*
X134500000Y-108487500D01*
G75*
G02*
X134737500Y-108250000I237500J0D01*
G01*
G37*
G36*
G01*
X134737500Y-110000000D02*
X135212500Y-110000000D01*
G75*
G02*
X135450000Y-110237500I0J-237500D01*
G01*
X135450000Y-110812500D01*
G75*
G02*
X135212500Y-111050000I-237500J0D01*
G01*
X134737500Y-111050000D01*
G75*
G02*
X134500000Y-110812500I0J237500D01*
G01*
X134500000Y-110237500D01*
G75*
G02*
X134737500Y-110000000I237500J0D01*
G01*
G37*
%TD*%
D10*
%TO.C,Q4*%
X133452500Y-98207500D03*
X133452500Y-96307500D03*
X131452500Y-97257500D03*
%TD*%
D11*
%TO.C,U7*%
X140500000Y-108700000D03*
X140500000Y-109650000D03*
X140500000Y-110600000D03*
X142700000Y-110600000D03*
X142700000Y-108700000D03*
%TD*%
%TO.C,R1*%
G36*
G01*
X148150000Y-105437500D02*
X148150000Y-104962500D01*
G75*
G02*
X148387500Y-104725000I237500J0D01*
G01*
X148962500Y-104725000D01*
G75*
G02*
X149200000Y-104962500I0J-237500D01*
G01*
X149200000Y-105437500D01*
G75*
G02*
X148962500Y-105675000I-237500J0D01*
G01*
X148387500Y-105675000D01*
G75*
G02*
X148150000Y-105437500I0J237500D01*
G01*
G37*
G36*
G01*
X149900000Y-105437500D02*
X149900000Y-104962500D01*
G75*
G02*
X150137500Y-104725000I237500J0D01*
G01*
X150712500Y-104725000D01*
G75*
G02*
X150950000Y-104962500I0J-237500D01*
G01*
X150950000Y-105437500D01*
G75*
G02*
X150712500Y-105675000I-237500J0D01*
G01*
X150137500Y-105675000D01*
G75*
G02*
X149900000Y-105437500I0J237500D01*
G01*
G37*
%TD*%
%TO.C,C14*%
G36*
G01*
X146075000Y-101931250D02*
X146075000Y-101418750D01*
G75*
G02*
X146293750Y-101200000I218750J0D01*
G01*
X146731250Y-101200000D01*
G75*
G02*
X146950000Y-101418750I0J-218750D01*
G01*
X146950000Y-101931250D01*
G75*
G02*
X146731250Y-102150000I-218750J0D01*
G01*
X146293750Y-102150000D01*
G75*
G02*
X146075000Y-101931250I0J218750D01*
G01*
G37*
G36*
G01*
X147650000Y-101931250D02*
X147650000Y-101418750D01*
G75*
G02*
X147868750Y-101200000I218750J0D01*
G01*
X148306250Y-101200000D01*
G75*
G02*
X148525000Y-101418750I0J-218750D01*
G01*
X148525000Y-101931250D01*
G75*
G02*
X148306250Y-102150000I-218750J0D01*
G01*
X147868750Y-102150000D01*
G75*
G02*
X147650000Y-101931250I0J218750D01*
G01*
G37*
%TD*%
%TO.C,R9*%
G36*
G01*
X128990000Y-95682500D02*
X129465000Y-95682500D01*
G75*
G02*
X129702500Y-95920000I0J-237500D01*
G01*
X129702500Y-96495000D01*
G75*
G02*
X129465000Y-96732500I-237500J0D01*
G01*
X128990000Y-96732500D01*
G75*
G02*
X128752500Y-96495000I0J237500D01*
G01*
X128752500Y-95920000D01*
G75*
G02*
X128990000Y-95682500I237500J0D01*
G01*
G37*
G36*
G01*
X128990000Y-97432500D02*
X129465000Y-97432500D01*
G75*
G02*
X129702500Y-97670000I0J-237500D01*
G01*
X129702500Y-98245000D01*
G75*
G02*
X129465000Y-98482500I-237500J0D01*
G01*
X128990000Y-98482500D01*
G75*
G02*
X128752500Y-98245000I0J237500D01*
G01*
X128752500Y-97670000D01*
G75*
G02*
X128990000Y-97432500I237500J0D01*
G01*
G37*
%TD*%
%TO.C,D1*%
G36*
G01*
X148125000Y-103837500D02*
X148125000Y-103362500D01*
G75*
G02*
X148362500Y-103125000I237500J0D01*
G01*
X148937500Y-103125000D01*
G75*
G02*
X149175000Y-103362500I0J-237500D01*
G01*
X149175000Y-103837500D01*
G75*
G02*
X148937500Y-104075000I-237500J0D01*
G01*
X148362500Y-104075000D01*
G75*
G02*
X148125000Y-103837500I0J237500D01*
G01*
G37*
G36*
G01*
X149875000Y-103837500D02*
X149875000Y-103362500D01*
G75*
G02*
X150112500Y-103125000I237500J0D01*
G01*
X150687500Y-103125000D01*
G75*
G02*
X150925000Y-103362500I0J-237500D01*
G01*
X150925000Y-103837500D01*
G75*
G02*
X150687500Y-104075000I-237500J0D01*
G01*
X150112500Y-104075000D01*
G75*
G02*
X149875000Y-103837500I0J237500D01*
G01*
G37*
%TD*%
%TO.C,R7*%
G36*
G01*
X135465000Y-98557500D02*
X134990000Y-98557500D01*
G75*
G02*
X134752500Y-98320000I0J237500D01*
G01*
X134752500Y-97745000D01*
G75*
G02*
X134990000Y-97507500I237500J0D01*
G01*
X135465000Y-97507500D01*
G75*
G02*
X135702500Y-97745000I0J-237500D01*
G01*
X135702500Y-98320000D01*
G75*
G02*
X135465000Y-98557500I-237500J0D01*
G01*
G37*
G36*
G01*
X135465000Y-96807500D02*
X134990000Y-96807500D01*
G75*
G02*
X134752500Y-96570000I0J237500D01*
G01*
X134752500Y-95995000D01*
G75*
G02*
X134990000Y-95757500I237500J0D01*
G01*
X135465000Y-95757500D01*
G75*
G02*
X135702500Y-95995000I0J-237500D01*
G01*
X135702500Y-96570000D01*
G75*
G02*
X135465000Y-96807500I-237500J0D01*
G01*
G37*
%TD*%
%TO.C,C17*%
G36*
G01*
X150500000Y-97275000D02*
X149250000Y-97275000D01*
G75*
G02*
X149000000Y-97025000I0J250000D01*
G01*
X149000000Y-96275000D01*
G75*
G02*
X149250000Y-96025000I250000J0D01*
G01*
X150500000Y-96025000D01*
G75*
G02*
X150750000Y-96275000I0J-250000D01*
G01*
X150750000Y-97025000D01*
G75*
G02*
X150500000Y-97275000I-250000J0D01*
G01*
G37*
G36*
G01*
X150500000Y-94475000D02*
X149250000Y-94475000D01*
G75*
G02*
X149000000Y-94225000I0J250000D01*
G01*
X149000000Y-93475000D01*
G75*
G02*
X149250000Y-93225000I250000J0D01*
G01*
X150500000Y-93225000D01*
G75*
G02*
X150750000Y-93475000I0J-250000D01*
G01*
X150750000Y-94225000D01*
G75*
G02*
X150500000Y-94475000I-250000J0D01*
G01*
G37*
%TD*%
%TO.C,C5*%
G36*
G01*
X141150000Y-93218750D02*
X141150000Y-92706250D01*
G75*
G02*
X141368750Y-92487500I218750J0D01*
G01*
X141806250Y-92487500D01*
G75*
G02*
X142025000Y-92706250I0J-218750D01*
G01*
X142025000Y-93218750D01*
G75*
G02*
X141806250Y-93437500I-218750J0D01*
G01*
X141368750Y-93437500D01*
G75*
G02*
X141150000Y-93218750I0J218750D01*
G01*
G37*
G36*
G01*
X142725000Y-93218750D02*
X142725000Y-92706250D01*
G75*
G02*
X142943750Y-92487500I218750J0D01*
G01*
X143381250Y-92487500D01*
G75*
G02*
X143600000Y-92706250I0J-218750D01*
G01*
X143600000Y-93218750D01*
G75*
G02*
X143381250Y-93437500I-218750J0D01*
G01*
X142943750Y-93437500D01*
G75*
G02*
X142725000Y-93218750I0J218750D01*
G01*
G37*
%TD*%
%TO.C,C8*%
G36*
G01*
X144931250Y-100512500D02*
X144418750Y-100512500D01*
G75*
G02*
X144200000Y-100293750I0J218750D01*
G01*
X144200000Y-99856250D01*
G75*
G02*
X144418750Y-99637500I218750J0D01*
G01*
X144931250Y-99637500D01*
G75*
G02*
X145150000Y-99856250I0J-218750D01*
G01*
X145150000Y-100293750D01*
G75*
G02*
X144931250Y-100512500I-218750J0D01*
G01*
G37*
G36*
G01*
X144931250Y-98937500D02*
X144418750Y-98937500D01*
G75*
G02*
X144200000Y-98718750I0J218750D01*
G01*
X144200000Y-98281250D01*
G75*
G02*
X144418750Y-98062500I218750J0D01*
G01*
X144931250Y-98062500D01*
G75*
G02*
X145150000Y-98281250I0J-218750D01*
G01*
X145150000Y-98718750D01*
G75*
G02*
X144931250Y-98937500I-218750J0D01*
G01*
G37*
%TD*%
D10*
%TO.C,Q7*%
X133125000Y-90030000D03*
X133125000Y-88130000D03*
X131125000Y-89080000D03*
%TD*%
%TO.C,C12*%
G36*
G01*
X144737500Y-111100000D02*
X144262500Y-111100000D01*
G75*
G02*
X144025000Y-110862500I0J237500D01*
G01*
X144025000Y-110287500D01*
G75*
G02*
X144262500Y-110050000I237500J0D01*
G01*
X144737500Y-110050000D01*
G75*
G02*
X144975000Y-110287500I0J-237500D01*
G01*
X144975000Y-110862500D01*
G75*
G02*
X144737500Y-111100000I-237500J0D01*
G01*
G37*
G36*
G01*
X144737500Y-109350000D02*
X144262500Y-109350000D01*
G75*
G02*
X144025000Y-109112500I0J237500D01*
G01*
X144025000Y-108537500D01*
G75*
G02*
X144262500Y-108300000I237500J0D01*
G01*
X144737500Y-108300000D01*
G75*
G02*
X144975000Y-108537500I0J-237500D01*
G01*
X144975000Y-109112500D01*
G75*
G02*
X144737500Y-109350000I-237500J0D01*
G01*
G37*
%TD*%
%TO.C,C11*%
G36*
G01*
X138487500Y-111025000D02*
X138012500Y-111025000D01*
G75*
G02*
X137775000Y-110787500I0J237500D01*
G01*
X137775000Y-110212500D01*
G75*
G02*
X138012500Y-109975000I237500J0D01*
G01*
X138487500Y-109975000D01*
G75*
G02*
X138725000Y-110212500I0J-237500D01*
G01*
X138725000Y-110787500D01*
G75*
G02*
X138487500Y-111025000I-237500J0D01*
G01*
G37*
G36*
G01*
X138487500Y-109275000D02*
X138012500Y-109275000D01*
G75*
G02*
X137775000Y-109037500I0J237500D01*
G01*
X137775000Y-108462500D01*
G75*
G02*
X138012500Y-108225000I237500J0D01*
G01*
X138487500Y-108225000D01*
G75*
G02*
X138725000Y-108462500I0J-237500D01*
G01*
X138725000Y-109037500D01*
G75*
G02*
X138487500Y-109275000I-237500J0D01*
G01*
G37*
%TD*%
%TO.C,C10*%
G36*
G01*
X146962500Y-105125000D02*
X146487500Y-105125000D01*
G75*
G02*
X146250000Y-104887500I0J237500D01*
G01*
X146250000Y-104312500D01*
G75*
G02*
X146487500Y-104075000I237500J0D01*
G01*
X146962500Y-104075000D01*
G75*
G02*
X147200000Y-104312500I0J-237500D01*
G01*
X147200000Y-104887500D01*
G75*
G02*
X146962500Y-105125000I-237500J0D01*
G01*
G37*
G36*
G01*
X146962500Y-103375000D02*
X146487500Y-103375000D01*
G75*
G02*
X146250000Y-103137500I0J237500D01*
G01*
X146250000Y-102562500D01*
G75*
G02*
X146487500Y-102325000I237500J0D01*
G01*
X146962500Y-102325000D01*
G75*
G02*
X147200000Y-102562500I0J-237500D01*
G01*
X147200000Y-103137500D01*
G75*
G02*
X146962500Y-103375000I-237500J0D01*
G01*
G37*
%TD*%
%TO.C,C16*%
G36*
G01*
X150331250Y-100175000D02*
X149818750Y-100175000D01*
G75*
G02*
X149600000Y-99956250I0J218750D01*
G01*
X149600000Y-99518750D01*
G75*
G02*
X149818750Y-99300000I218750J0D01*
G01*
X150331250Y-99300000D01*
G75*
G02*
X150550000Y-99518750I0J-218750D01*
G01*
X150550000Y-99956250D01*
G75*
G02*
X150331250Y-100175000I-218750J0D01*
G01*
G37*
G36*
G01*
X150331250Y-98600000D02*
X149818750Y-98600000D01*
G75*
G02*
X149600000Y-98381250I0J218750D01*
G01*
X149600000Y-97943750D01*
G75*
G02*
X149818750Y-97725000I218750J0D01*
G01*
X150331250Y-97725000D01*
G75*
G02*
X150550000Y-97943750I0J-218750D01*
G01*
X150550000Y-98381250D01*
G75*
G02*
X150331250Y-98600000I-218750J0D01*
G01*
G37*
%TD*%
%TO.C,U1*%
G36*
G01*
X139475000Y-88887500D02*
X139475000Y-88787500D01*
G75*
G02*
X139525000Y-88737500I50000J0D01*
G01*
X139975000Y-88737500D01*
G75*
G02*
X140025000Y-88787500I0J-50000D01*
G01*
X140025000Y-88887500D01*
G75*
G02*
X139975000Y-88937500I-50000J0D01*
G01*
X139525000Y-88937500D01*
G75*
G02*
X139475000Y-88887500I0J50000D01*
G01*
G37*
G36*
G01*
X139475000Y-89287500D02*
X139475000Y-89187500D01*
G75*
G02*
X139525000Y-89137500I50000J0D01*
G01*
X139975000Y-89137500D01*
G75*
G02*
X140025000Y-89187500I0J-50000D01*
G01*
X140025000Y-89287500D01*
G75*
G02*
X139975000Y-89337500I-50000J0D01*
G01*
X139525000Y-89337500D01*
G75*
G02*
X139475000Y-89287500I0J50000D01*
G01*
G37*
G36*
G01*
X139475000Y-89687500D02*
X139475000Y-89587500D01*
G75*
G02*
X139525000Y-89537500I50000J0D01*
G01*
X139975000Y-89537500D01*
G75*
G02*
X140025000Y-89587500I0J-50000D01*
G01*
X140025000Y-89687500D01*
G75*
G02*
X139975000Y-89737500I-50000J0D01*
G01*
X139525000Y-89737500D01*
G75*
G02*
X139475000Y-89687500I0J50000D01*
G01*
G37*
G36*
G01*
X139475000Y-90087500D02*
X139475000Y-89987500D01*
G75*
G02*
X139525000Y-89937500I50000J0D01*
G01*
X139975000Y-89937500D01*
G75*
G02*
X140025000Y-89987500I0J-50000D01*
G01*
X140025000Y-90087500D01*
G75*
G02*
X139975000Y-90137500I-50000J0D01*
G01*
X139525000Y-90137500D01*
G75*
G02*
X139475000Y-90087500I0J50000D01*
G01*
G37*
G36*
G01*
X139475000Y-90487500D02*
X139475000Y-90387500D01*
G75*
G02*
X139525000Y-90337500I50000J0D01*
G01*
X139975000Y-90337500D01*
G75*
G02*
X140025000Y-90387500I0J-50000D01*
G01*
X140025000Y-90487500D01*
G75*
G02*
X139975000Y-90537500I-50000J0D01*
G01*
X139525000Y-90537500D01*
G75*
G02*
X139475000Y-90487500I0J50000D01*
G01*
G37*
G36*
G01*
X139475000Y-90887500D02*
X139475000Y-90787500D01*
G75*
G02*
X139525000Y-90737500I50000J0D01*
G01*
X139975000Y-90737500D01*
G75*
G02*
X140025000Y-90787500I0J-50000D01*
G01*
X140025000Y-90887500D01*
G75*
G02*
X139975000Y-90937500I-50000J0D01*
G01*
X139525000Y-90937500D01*
G75*
G02*
X139475000Y-90887500I0J50000D01*
G01*
G37*
G36*
G01*
X140300000Y-91612500D02*
X140200000Y-91612500D01*
G75*
G02*
X140150000Y-91562500I0J50000D01*
G01*
X140150000Y-91112500D01*
G75*
G02*
X140200000Y-91062500I50000J0D01*
G01*
X140300000Y-91062500D01*
G75*
G02*
X140350000Y-91112500I0J-50000D01*
G01*
X140350000Y-91562500D01*
G75*
G02*
X140300000Y-91612500I-50000J0D01*
G01*
G37*
G36*
G01*
X140700000Y-91612500D02*
X140600000Y-91612500D01*
G75*
G02*
X140550000Y-91562500I0J50000D01*
G01*
X140550000Y-91112500D01*
G75*
G02*
X140600000Y-91062500I50000J0D01*
G01*
X140700000Y-91062500D01*
G75*
G02*
X140750000Y-91112500I0J-50000D01*
G01*
X140750000Y-91562500D01*
G75*
G02*
X140700000Y-91612500I-50000J0D01*
G01*
G37*
G36*
G01*
X141100000Y-91612500D02*
X141000000Y-91612500D01*
G75*
G02*
X140950000Y-91562500I0J50000D01*
G01*
X140950000Y-91112500D01*
G75*
G02*
X141000000Y-91062500I50000J0D01*
G01*
X141100000Y-91062500D01*
G75*
G02*
X141150000Y-91112500I0J-50000D01*
G01*
X141150000Y-91562500D01*
G75*
G02*
X141100000Y-91612500I-50000J0D01*
G01*
G37*
G36*
G01*
X141500000Y-91612500D02*
X141400000Y-91612500D01*
G75*
G02*
X141350000Y-91562500I0J50000D01*
G01*
X141350000Y-91112500D01*
G75*
G02*
X141400000Y-91062500I50000J0D01*
G01*
X141500000Y-91062500D01*
G75*
G02*
X141550000Y-91112500I0J-50000D01*
G01*
X141550000Y-91562500D01*
G75*
G02*
X141500000Y-91612500I-50000J0D01*
G01*
G37*
G36*
G01*
X141900000Y-91612500D02*
X141800000Y-91612500D01*
G75*
G02*
X141750000Y-91562500I0J50000D01*
G01*
X141750000Y-91112500D01*
G75*
G02*
X141800000Y-91062500I50000J0D01*
G01*
X141900000Y-91062500D01*
G75*
G02*
X141950000Y-91112500I0J-50000D01*
G01*
X141950000Y-91562500D01*
G75*
G02*
X141900000Y-91612500I-50000J0D01*
G01*
G37*
G36*
G01*
X142300000Y-91612500D02*
X142200000Y-91612500D01*
G75*
G02*
X142150000Y-91562500I0J50000D01*
G01*
X142150000Y-91112500D01*
G75*
G02*
X142200000Y-91062500I50000J0D01*
G01*
X142300000Y-91062500D01*
G75*
G02*
X142350000Y-91112500I0J-50000D01*
G01*
X142350000Y-91562500D01*
G75*
G02*
X142300000Y-91612500I-50000J0D01*
G01*
G37*
G36*
G01*
X142475000Y-90887500D02*
X142475000Y-90787500D01*
G75*
G02*
X142525000Y-90737500I50000J0D01*
G01*
X142975000Y-90737500D01*
G75*
G02*
X143025000Y-90787500I0J-50000D01*
G01*
X143025000Y-90887500D01*
G75*
G02*
X142975000Y-90937500I-50000J0D01*
G01*
X142525000Y-90937500D01*
G75*
G02*
X142475000Y-90887500I0J50000D01*
G01*
G37*
G36*
G01*
X142475000Y-90487500D02*
X142475000Y-90387500D01*
G75*
G02*
X142525000Y-90337500I50000J0D01*
G01*
X142975000Y-90337500D01*
G75*
G02*
X143025000Y-90387500I0J-50000D01*
G01*
X143025000Y-90487500D01*
G75*
G02*
X142975000Y-90537500I-50000J0D01*
G01*
X142525000Y-90537500D01*
G75*
G02*
X142475000Y-90487500I0J50000D01*
G01*
G37*
G36*
G01*
X142475000Y-90087500D02*
X142475000Y-89987500D01*
G75*
G02*
X142525000Y-89937500I50000J0D01*
G01*
X142975000Y-89937500D01*
G75*
G02*
X143025000Y-89987500I0J-50000D01*
G01*
X143025000Y-90087500D01*
G75*
G02*
X142975000Y-90137500I-50000J0D01*
G01*
X142525000Y-90137500D01*
G75*
G02*
X142475000Y-90087500I0J50000D01*
G01*
G37*
G36*
G01*
X142475000Y-89687500D02*
X142475000Y-89587500D01*
G75*
G02*
X142525000Y-89537500I50000J0D01*
G01*
X142975000Y-89537500D01*
G75*
G02*
X143025000Y-89587500I0J-50000D01*
G01*
X143025000Y-89687500D01*
G75*
G02*
X142975000Y-89737500I-50000J0D01*
G01*
X142525000Y-89737500D01*
G75*
G02*
X142475000Y-89687500I0J50000D01*
G01*
G37*
G36*
G01*
X142475000Y-89287500D02*
X142475000Y-89187500D01*
G75*
G02*
X142525000Y-89137500I50000J0D01*
G01*
X142975000Y-89137500D01*
G75*
G02*
X143025000Y-89187500I0J-50000D01*
G01*
X143025000Y-89287500D01*
G75*
G02*
X142975000Y-89337500I-50000J0D01*
G01*
X142525000Y-89337500D01*
G75*
G02*
X142475000Y-89287500I0J50000D01*
G01*
G37*
G36*
G01*
X142475000Y-88887500D02*
X142475000Y-88787500D01*
G75*
G02*
X142525000Y-88737500I50000J0D01*
G01*
X142975000Y-88737500D01*
G75*
G02*
X143025000Y-88787500I0J-50000D01*
G01*
X143025000Y-88887500D01*
G75*
G02*
X142975000Y-88937500I-50000J0D01*
G01*
X142525000Y-88937500D01*
G75*
G02*
X142475000Y-88887500I0J50000D01*
G01*
G37*
G36*
G01*
X142300000Y-88612500D02*
X142200000Y-88612500D01*
G75*
G02*
X142150000Y-88562500I0J50000D01*
G01*
X142150000Y-88112500D01*
G75*
G02*
X142200000Y-88062500I50000J0D01*
G01*
X142300000Y-88062500D01*
G75*
G02*
X142350000Y-88112500I0J-50000D01*
G01*
X142350000Y-88562500D01*
G75*
G02*
X142300000Y-88612500I-50000J0D01*
G01*
G37*
G36*
G01*
X141900000Y-88612500D02*
X141800000Y-88612500D01*
G75*
G02*
X141750000Y-88562500I0J50000D01*
G01*
X141750000Y-88112500D01*
G75*
G02*
X141800000Y-88062500I50000J0D01*
G01*
X141900000Y-88062500D01*
G75*
G02*
X141950000Y-88112500I0J-50000D01*
G01*
X141950000Y-88562500D01*
G75*
G02*
X141900000Y-88612500I-50000J0D01*
G01*
G37*
G36*
G01*
X141500000Y-88612500D02*
X141400000Y-88612500D01*
G75*
G02*
X141350000Y-88562500I0J50000D01*
G01*
X141350000Y-88112500D01*
G75*
G02*
X141400000Y-88062500I50000J0D01*
G01*
X141500000Y-88062500D01*
G75*
G02*
X141550000Y-88112500I0J-50000D01*
G01*
X141550000Y-88562500D01*
G75*
G02*
X141500000Y-88612500I-50000J0D01*
G01*
G37*
G36*
G01*
X141100000Y-88612500D02*
X141000000Y-88612500D01*
G75*
G02*
X140950000Y-88562500I0J50000D01*
G01*
X140950000Y-88112500D01*
G75*
G02*
X141000000Y-88062500I50000J0D01*
G01*
X141100000Y-88062500D01*
G75*
G02*
X141150000Y-88112500I0J-50000D01*
G01*
X141150000Y-88562500D01*
G75*
G02*
X141100000Y-88612500I-50000J0D01*
G01*
G37*
G36*
G01*
X140700000Y-88612500D02*
X140600000Y-88612500D01*
G75*
G02*
X140550000Y-88562500I0J50000D01*
G01*
X140550000Y-88112500D01*
G75*
G02*
X140600000Y-88062500I50000J0D01*
G01*
X140700000Y-88062500D01*
G75*
G02*
X140750000Y-88112500I0J-50000D01*
G01*
X140750000Y-88562500D01*
G75*
G02*
X140700000Y-88612500I-50000J0D01*
G01*
G37*
G36*
G01*
X140300000Y-88612500D02*
X140200000Y-88612500D01*
G75*
G02*
X140150000Y-88562500I0J50000D01*
G01*
X140150000Y-88112500D01*
G75*
G02*
X140200000Y-88062500I50000J0D01*
G01*
X140300000Y-88062500D01*
G75*
G02*
X140350000Y-88112500I0J-50000D01*
G01*
X140350000Y-88562500D01*
G75*
G02*
X140300000Y-88612500I-50000J0D01*
G01*
G37*
%TD*%
%TO.C,C3*%
G36*
G01*
X146662500Y-95575000D02*
X146187500Y-95575000D01*
G75*
G02*
X145950000Y-95337500I0J237500D01*
G01*
X145950000Y-94762500D01*
G75*
G02*
X146187500Y-94525000I237500J0D01*
G01*
X146662500Y-94525000D01*
G75*
G02*
X146900000Y-94762500I0J-237500D01*
G01*
X146900000Y-95337500D01*
G75*
G02*
X146662500Y-95575000I-237500J0D01*
G01*
G37*
G36*
G01*
X146662500Y-93825000D02*
X146187500Y-93825000D01*
G75*
G02*
X145950000Y-93587500I0J237500D01*
G01*
X145950000Y-93012500D01*
G75*
G02*
X146187500Y-92775000I237500J0D01*
G01*
X146662500Y-92775000D01*
G75*
G02*
X146900000Y-93012500I0J-237500D01*
G01*
X146900000Y-93587500D01*
G75*
G02*
X146662500Y-93825000I-237500J0D01*
G01*
G37*
%TD*%
%TO.C,Q5*%
X133678799Y-105923799D03*
X133678799Y-104023799D03*
X131678799Y-104973799D03*
%TD*%
%TO.C,R13*%
G36*
G01*
X135537500Y-90480000D02*
X135062500Y-90480000D01*
G75*
G02*
X134825000Y-90242500I0J237500D01*
G01*
X134825000Y-89667500D01*
G75*
G02*
X135062500Y-89430000I237500J0D01*
G01*
X135537500Y-89430000D01*
G75*
G02*
X135775000Y-89667500I0J-237500D01*
G01*
X135775000Y-90242500D01*
G75*
G02*
X135537500Y-90480000I-237500J0D01*
G01*
G37*
G36*
G01*
X135537500Y-88730000D02*
X135062500Y-88730000D01*
G75*
G02*
X134825000Y-88492500I0J237500D01*
G01*
X134825000Y-87917500D01*
G75*
G02*
X135062500Y-87680000I237500J0D01*
G01*
X135537500Y-87680000D01*
G75*
G02*
X135775000Y-87917500I0J-237500D01*
G01*
X135775000Y-88492500D01*
G75*
G02*
X135537500Y-88730000I-237500J0D01*
G01*
G37*
%TD*%
D11*
%TO.C,U3*%
X130575000Y-108725000D03*
X130575000Y-109675000D03*
X130575000Y-110625000D03*
X132775000Y-110625000D03*
X132775000Y-108725000D03*
%TD*%
%TO.C,U2*%
G36*
G01*
X139650000Y-98350000D02*
X139650000Y-98250000D01*
G75*
G02*
X139700000Y-98200000I50000J0D01*
G01*
X140150000Y-98200000D01*
G75*
G02*
X140200000Y-98250000I0J-50000D01*
G01*
X140200000Y-98350000D01*
G75*
G02*
X140150000Y-98400000I-50000J0D01*
G01*
X139700000Y-98400000D01*
G75*
G02*
X139650000Y-98350000I0J50000D01*
G01*
G37*
G36*
G01*
X139650000Y-98750000D02*
X139650000Y-98650000D01*
G75*
G02*
X139700000Y-98600000I50000J0D01*
G01*
X140150000Y-98600000D01*
G75*
G02*
X140200000Y-98650000I0J-50000D01*
G01*
X140200000Y-98750000D01*
G75*
G02*
X140150000Y-98800000I-50000J0D01*
G01*
X139700000Y-98800000D01*
G75*
G02*
X139650000Y-98750000I0J50000D01*
G01*
G37*
G36*
G01*
X139650000Y-99150000D02*
X139650000Y-99050000D01*
G75*
G02*
X139700000Y-99000000I50000J0D01*
G01*
X140150000Y-99000000D01*
G75*
G02*
X140200000Y-99050000I0J-50000D01*
G01*
X140200000Y-99150000D01*
G75*
G02*
X140150000Y-99200000I-50000J0D01*
G01*
X139700000Y-99200000D01*
G75*
G02*
X139650000Y-99150000I0J50000D01*
G01*
G37*
G36*
G01*
X139650000Y-99550000D02*
X139650000Y-99450000D01*
G75*
G02*
X139700000Y-99400000I50000J0D01*
G01*
X140150000Y-99400000D01*
G75*
G02*
X140200000Y-99450000I0J-50000D01*
G01*
X140200000Y-99550000D01*
G75*
G02*
X140150000Y-99600000I-50000J0D01*
G01*
X139700000Y-99600000D01*
G75*
G02*
X139650000Y-99550000I0J50000D01*
G01*
G37*
G36*
G01*
X139650000Y-99950000D02*
X139650000Y-99850000D01*
G75*
G02*
X139700000Y-99800000I50000J0D01*
G01*
X140150000Y-99800000D01*
G75*
G02*
X140200000Y-99850000I0J-50000D01*
G01*
X140200000Y-99950000D01*
G75*
G02*
X140150000Y-100000000I-50000J0D01*
G01*
X139700000Y-100000000D01*
G75*
G02*
X139650000Y-99950000I0J50000D01*
G01*
G37*
G36*
G01*
X139650000Y-100350000D02*
X139650000Y-100250000D01*
G75*
G02*
X139700000Y-100200000I50000J0D01*
G01*
X140150000Y-100200000D01*
G75*
G02*
X140200000Y-100250000I0J-50000D01*
G01*
X140200000Y-100350000D01*
G75*
G02*
X140150000Y-100400000I-50000J0D01*
G01*
X139700000Y-100400000D01*
G75*
G02*
X139650000Y-100350000I0J50000D01*
G01*
G37*
G36*
G01*
X140475000Y-101075000D02*
X140375000Y-101075000D01*
G75*
G02*
X140325000Y-101025000I0J50000D01*
G01*
X140325000Y-100575000D01*
G75*
G02*
X140375000Y-100525000I50000J0D01*
G01*
X140475000Y-100525000D01*
G75*
G02*
X140525000Y-100575000I0J-50000D01*
G01*
X140525000Y-101025000D01*
G75*
G02*
X140475000Y-101075000I-50000J0D01*
G01*
G37*
G36*
G01*
X140875000Y-101075000D02*
X140775000Y-101075000D01*
G75*
G02*
X140725000Y-101025000I0J50000D01*
G01*
X140725000Y-100575000D01*
G75*
G02*
X140775000Y-100525000I50000J0D01*
G01*
X140875000Y-100525000D01*
G75*
G02*
X140925000Y-100575000I0J-50000D01*
G01*
X140925000Y-101025000D01*
G75*
G02*
X140875000Y-101075000I-50000J0D01*
G01*
G37*
G36*
G01*
X141275000Y-101075000D02*
X141175000Y-101075000D01*
G75*
G02*
X141125000Y-101025000I0J50000D01*
G01*
X141125000Y-100575000D01*
G75*
G02*
X141175000Y-100525000I50000J0D01*
G01*
X141275000Y-100525000D01*
G75*
G02*
X141325000Y-100575000I0J-50000D01*
G01*
X141325000Y-101025000D01*
G75*
G02*
X141275000Y-101075000I-50000J0D01*
G01*
G37*
G36*
G01*
X141675000Y-101075000D02*
X141575000Y-101075000D01*
G75*
G02*
X141525000Y-101025000I0J50000D01*
G01*
X141525000Y-100575000D01*
G75*
G02*
X141575000Y-100525000I50000J0D01*
G01*
X141675000Y-100525000D01*
G75*
G02*
X141725000Y-100575000I0J-50000D01*
G01*
X141725000Y-101025000D01*
G75*
G02*
X141675000Y-101075000I-50000J0D01*
G01*
G37*
G36*
G01*
X142075000Y-101075000D02*
X141975000Y-101075000D01*
G75*
G02*
X141925000Y-101025000I0J50000D01*
G01*
X141925000Y-100575000D01*
G75*
G02*
X141975000Y-100525000I50000J0D01*
G01*
X142075000Y-100525000D01*
G75*
G02*
X142125000Y-100575000I0J-50000D01*
G01*
X142125000Y-101025000D01*
G75*
G02*
X142075000Y-101075000I-50000J0D01*
G01*
G37*
G36*
G01*
X142475000Y-101075000D02*
X142375000Y-101075000D01*
G75*
G02*
X142325000Y-101025000I0J50000D01*
G01*
X142325000Y-100575000D01*
G75*
G02*
X142375000Y-100525000I50000J0D01*
G01*
X142475000Y-100525000D01*
G75*
G02*
X142525000Y-100575000I0J-50000D01*
G01*
X142525000Y-101025000D01*
G75*
G02*
X142475000Y-101075000I-50000J0D01*
G01*
G37*
G36*
G01*
X142650000Y-100350000D02*
X142650000Y-100250000D01*
G75*
G02*
X142700000Y-100200000I50000J0D01*
G01*
X143150000Y-100200000D01*
G75*
G02*
X143200000Y-100250000I0J-50000D01*
G01*
X143200000Y-100350000D01*
G75*
G02*
X143150000Y-100400000I-50000J0D01*
G01*
X142700000Y-100400000D01*
G75*
G02*
X142650000Y-100350000I0J50000D01*
G01*
G37*
G36*
G01*
X142650000Y-99950000D02*
X142650000Y-99850000D01*
G75*
G02*
X142700000Y-99800000I50000J0D01*
G01*
X143150000Y-99800000D01*
G75*
G02*
X143200000Y-99850000I0J-50000D01*
G01*
X143200000Y-99950000D01*
G75*
G02*
X143150000Y-100000000I-50000J0D01*
G01*
X142700000Y-100000000D01*
G75*
G02*
X142650000Y-99950000I0J50000D01*
G01*
G37*
G36*
G01*
X142650000Y-99550000D02*
X142650000Y-99450000D01*
G75*
G02*
X142700000Y-99400000I50000J0D01*
G01*
X143150000Y-99400000D01*
G75*
G02*
X143200000Y-99450000I0J-50000D01*
G01*
X143200000Y-99550000D01*
G75*
G02*
X143150000Y-99600000I-50000J0D01*
G01*
X142700000Y-99600000D01*
G75*
G02*
X142650000Y-99550000I0J50000D01*
G01*
G37*
G36*
G01*
X142650000Y-99150000D02*
X142650000Y-99050000D01*
G75*
G02*
X142700000Y-99000000I50000J0D01*
G01*
X143150000Y-99000000D01*
G75*
G02*
X143200000Y-99050000I0J-50000D01*
G01*
X143200000Y-99150000D01*
G75*
G02*
X143150000Y-99200000I-50000J0D01*
G01*
X142700000Y-99200000D01*
G75*
G02*
X142650000Y-99150000I0J50000D01*
G01*
G37*
G36*
G01*
X142650000Y-98750000D02*
X142650000Y-98650000D01*
G75*
G02*
X142700000Y-98600000I50000J0D01*
G01*
X143150000Y-98600000D01*
G75*
G02*
X143200000Y-98650000I0J-50000D01*
G01*
X143200000Y-98750000D01*
G75*
G02*
X143150000Y-98800000I-50000J0D01*
G01*
X142700000Y-98800000D01*
G75*
G02*
X142650000Y-98750000I0J50000D01*
G01*
G37*
G36*
G01*
X142650000Y-98350000D02*
X142650000Y-98250000D01*
G75*
G02*
X142700000Y-98200000I50000J0D01*
G01*
X143150000Y-98200000D01*
G75*
G02*
X143200000Y-98250000I0J-50000D01*
G01*
X143200000Y-98350000D01*
G75*
G02*
X143150000Y-98400000I-50000J0D01*
G01*
X142700000Y-98400000D01*
G75*
G02*
X142650000Y-98350000I0J50000D01*
G01*
G37*
G36*
G01*
X142475000Y-98075000D02*
X142375000Y-98075000D01*
G75*
G02*
X142325000Y-98025000I0J50000D01*
G01*
X142325000Y-97575000D01*
G75*
G02*
X142375000Y-97525000I50000J0D01*
G01*
X142475000Y-97525000D01*
G75*
G02*
X142525000Y-97575000I0J-50000D01*
G01*
X142525000Y-98025000D01*
G75*
G02*
X142475000Y-98075000I-50000J0D01*
G01*
G37*
G36*
G01*
X142075000Y-98075000D02*
X141975000Y-98075000D01*
G75*
G02*
X141925000Y-98025000I0J50000D01*
G01*
X141925000Y-97575000D01*
G75*
G02*
X141975000Y-97525000I50000J0D01*
G01*
X142075000Y-97525000D01*
G75*
G02*
X142125000Y-97575000I0J-50000D01*
G01*
X142125000Y-98025000D01*
G75*
G02*
X142075000Y-98075000I-50000J0D01*
G01*
G37*
G36*
G01*
X141675000Y-98075000D02*
X141575000Y-98075000D01*
G75*
G02*
X141525000Y-98025000I0J50000D01*
G01*
X141525000Y-97575000D01*
G75*
G02*
X141575000Y-97525000I50000J0D01*
G01*
X141675000Y-97525000D01*
G75*
G02*
X141725000Y-97575000I0J-50000D01*
G01*
X141725000Y-98025000D01*
G75*
G02*
X141675000Y-98075000I-50000J0D01*
G01*
G37*
G36*
G01*
X141275000Y-98075000D02*
X141175000Y-98075000D01*
G75*
G02*
X141125000Y-98025000I0J50000D01*
G01*
X141125000Y-97575000D01*
G75*
G02*
X141175000Y-97525000I50000J0D01*
G01*
X141275000Y-97525000D01*
G75*
G02*
X141325000Y-97575000I0J-50000D01*
G01*
X141325000Y-98025000D01*
G75*
G02*
X141275000Y-98075000I-50000J0D01*
G01*
G37*
G36*
G01*
X140875000Y-98075000D02*
X140775000Y-98075000D01*
G75*
G02*
X140725000Y-98025000I0J50000D01*
G01*
X140725000Y-97575000D01*
G75*
G02*
X140775000Y-97525000I50000J0D01*
G01*
X140875000Y-97525000D01*
G75*
G02*
X140925000Y-97575000I0J-50000D01*
G01*
X140925000Y-98025000D01*
G75*
G02*
X140875000Y-98075000I-50000J0D01*
G01*
G37*
G36*
G01*
X140475000Y-98075000D02*
X140375000Y-98075000D01*
G75*
G02*
X140325000Y-98025000I0J50000D01*
G01*
X140325000Y-97575000D01*
G75*
G02*
X140375000Y-97525000I50000J0D01*
G01*
X140475000Y-97525000D01*
G75*
G02*
X140525000Y-97575000I0J-50000D01*
G01*
X140525000Y-98025000D01*
G75*
G02*
X140475000Y-98075000I-50000J0D01*
G01*
G37*
%TD*%
%TO.C,C7*%
G36*
G01*
X139750000Y-105112500D02*
X139750000Y-103862500D01*
G75*
G02*
X140000000Y-103612500I250000J0D01*
G01*
X140750000Y-103612500D01*
G75*
G02*
X141000000Y-103862500I0J-250000D01*
G01*
X141000000Y-105112500D01*
G75*
G02*
X140750000Y-105362500I-250000J0D01*
G01*
X140000000Y-105362500D01*
G75*
G02*
X139750000Y-105112500I0J250000D01*
G01*
G37*
G36*
G01*
X142550000Y-105112500D02*
X142550000Y-103862500D01*
G75*
G02*
X142800000Y-103612500I250000J0D01*
G01*
X143550000Y-103612500D01*
G75*
G02*
X143800000Y-103862500I0J-250000D01*
G01*
X143800000Y-105112500D01*
G75*
G02*
X143550000Y-105362500I-250000J0D01*
G01*
X142800000Y-105362500D01*
G75*
G02*
X142550000Y-105112500I0J250000D01*
G01*
G37*
%TD*%
%TO.C,U4*%
G36*
X145998814Y-98033547D02*
G01*
X146000890Y-98032991D01*
X146004071Y-98034474D01*
X146021232Y-98037500D01*
X146034581Y-98048701D01*
X146050370Y-98056064D01*
X146256436Y-98262129D01*
X146259278Y-98266188D01*
X146261140Y-98267263D01*
X146262341Y-98270562D01*
X146272335Y-98284835D01*
X146273853Y-98302193D01*
X146279813Y-98318566D01*
X146279813Y-98362500D01*
X146277985Y-98372869D01*
X146278600Y-98376359D01*
X146276828Y-98379427D01*
X146275000Y-98389798D01*
X146261670Y-98405684D01*
X146251303Y-98423640D01*
X146244535Y-98426103D01*
X146239906Y-98431620D01*
X146219486Y-98435220D01*
X146200000Y-98442313D01*
X145725000Y-98442313D01*
X145714631Y-98440485D01*
X145711141Y-98441100D01*
X145708073Y-98439328D01*
X145697702Y-98437500D01*
X145681816Y-98424170D01*
X145663860Y-98413803D01*
X145661397Y-98407035D01*
X145655880Y-98402406D01*
X145652280Y-98381986D01*
X145645187Y-98362500D01*
X145645187Y-98112500D01*
X145647015Y-98102131D01*
X145646400Y-98098641D01*
X145648172Y-98095573D01*
X145650000Y-98085202D01*
X145663330Y-98069316D01*
X145673697Y-98051360D01*
X145680465Y-98048897D01*
X145685094Y-98043380D01*
X145705514Y-98039780D01*
X145725000Y-98032687D01*
X145993934Y-98032687D01*
X145998814Y-98033547D01*
G37*
G36*
G01*
X145650000Y-98837500D02*
X145650000Y-98637500D01*
G75*
G02*
X145750000Y-98537500I100000J0D01*
G01*
X146175000Y-98537500D01*
G75*
G02*
X146275000Y-98637500I0J-100000D01*
G01*
X146275000Y-98837500D01*
G75*
G02*
X146175000Y-98937500I-100000J0D01*
G01*
X145750000Y-98937500D01*
G75*
G02*
X145650000Y-98837500I0J100000D01*
G01*
G37*
G36*
G01*
X145650000Y-99337500D02*
X145650000Y-99137500D01*
G75*
G02*
X145750000Y-99037500I100000J0D01*
G01*
X146175000Y-99037500D01*
G75*
G02*
X146275000Y-99137500I0J-100000D01*
G01*
X146275000Y-99337500D01*
G75*
G02*
X146175000Y-99437500I-100000J0D01*
G01*
X145750000Y-99437500D01*
G75*
G02*
X145650000Y-99337500I0J100000D01*
G01*
G37*
G36*
X146210369Y-99534515D02*
G01*
X146213859Y-99533900D01*
X146216927Y-99535672D01*
X146227298Y-99537500D01*
X146243184Y-99550830D01*
X146261140Y-99561197D01*
X146263603Y-99567965D01*
X146269120Y-99572594D01*
X146272720Y-99593014D01*
X146279813Y-99612500D01*
X146279813Y-99656434D01*
X146278953Y-99661314D01*
X146279509Y-99663390D01*
X146278026Y-99666571D01*
X146275000Y-99683732D01*
X146263799Y-99697080D01*
X146256436Y-99712871D01*
X146050370Y-99918936D01*
X146046312Y-99921777D01*
X146045237Y-99923640D01*
X146041937Y-99924841D01*
X146027664Y-99934836D01*
X146010305Y-99936354D01*
X145993934Y-99942313D01*
X145725000Y-99942313D01*
X145714631Y-99940485D01*
X145711141Y-99941100D01*
X145708073Y-99939328D01*
X145697702Y-99937500D01*
X145681816Y-99924170D01*
X145663860Y-99913803D01*
X145661397Y-99907035D01*
X145655880Y-99902406D01*
X145652280Y-99881986D01*
X145645187Y-99862500D01*
X145645187Y-99612500D01*
X145647015Y-99602131D01*
X145646400Y-99598641D01*
X145648172Y-99595573D01*
X145650000Y-99585202D01*
X145663330Y-99569316D01*
X145673697Y-99551360D01*
X145680465Y-99548897D01*
X145685094Y-99543380D01*
X145705514Y-99539780D01*
X145725000Y-99532687D01*
X146200000Y-99532687D01*
X146210369Y-99534515D01*
G37*
G36*
X146760369Y-99584515D02*
G01*
X146763859Y-99583900D01*
X146766927Y-99585672D01*
X146777298Y-99587500D01*
X146793184Y-99600830D01*
X146811140Y-99611197D01*
X146813603Y-99617965D01*
X146819120Y-99622594D01*
X146822720Y-99643014D01*
X146829813Y-99662500D01*
X146829813Y-100137500D01*
X146827985Y-100147869D01*
X146828600Y-100151359D01*
X146826828Y-100154427D01*
X146825000Y-100164798D01*
X146811670Y-100180684D01*
X146801303Y-100198640D01*
X146794535Y-100201103D01*
X146789906Y-100206620D01*
X146769486Y-100210220D01*
X146750000Y-100217313D01*
X146500000Y-100217313D01*
X146489631Y-100215485D01*
X146486141Y-100216100D01*
X146483073Y-100214328D01*
X146472702Y-100212500D01*
X146456816Y-100199170D01*
X146438860Y-100188803D01*
X146436397Y-100182035D01*
X146430880Y-100177406D01*
X146427280Y-100156986D01*
X146420187Y-100137500D01*
X146420187Y-99868566D01*
X146421047Y-99863686D01*
X146420491Y-99861610D01*
X146421974Y-99858429D01*
X146425000Y-99841268D01*
X146436201Y-99827919D01*
X146443564Y-99812130D01*
X146649629Y-99606064D01*
X146653688Y-99603222D01*
X146654763Y-99601360D01*
X146658062Y-99600159D01*
X146672335Y-99590165D01*
X146689693Y-99588647D01*
X146706066Y-99582687D01*
X146750000Y-99582687D01*
X146760369Y-99584515D01*
G37*
G36*
G01*
X146925000Y-100112500D02*
X146925000Y-99687500D01*
G75*
G02*
X147025000Y-99587500I100000J0D01*
G01*
X147225000Y-99587500D01*
G75*
G02*
X147325000Y-99687500I0J-100000D01*
G01*
X147325000Y-100112500D01*
G75*
G02*
X147225000Y-100212500I-100000J0D01*
G01*
X147025000Y-100212500D01*
G75*
G02*
X146925000Y-100112500I0J100000D01*
G01*
G37*
G36*
X147548814Y-99583547D02*
G01*
X147550890Y-99582991D01*
X147554071Y-99584474D01*
X147571232Y-99587500D01*
X147584581Y-99598701D01*
X147600370Y-99606064D01*
X147806436Y-99812129D01*
X147809278Y-99816188D01*
X147811140Y-99817263D01*
X147812341Y-99820562D01*
X147822335Y-99834835D01*
X147823853Y-99852193D01*
X147829813Y-99868566D01*
X147829813Y-100137500D01*
X147827985Y-100147869D01*
X147828600Y-100151359D01*
X147826828Y-100154427D01*
X147825000Y-100164798D01*
X147811670Y-100180684D01*
X147801303Y-100198640D01*
X147794535Y-100201103D01*
X147789906Y-100206620D01*
X147769486Y-100210220D01*
X147750000Y-100217313D01*
X147500000Y-100217313D01*
X147489631Y-100215485D01*
X147486141Y-100216100D01*
X147483073Y-100214328D01*
X147472702Y-100212500D01*
X147456816Y-100199170D01*
X147438860Y-100188803D01*
X147436397Y-100182035D01*
X147430880Y-100177406D01*
X147427280Y-100156986D01*
X147420187Y-100137500D01*
X147420187Y-99662500D01*
X147422015Y-99652131D01*
X147421400Y-99648641D01*
X147423172Y-99645573D01*
X147425000Y-99635202D01*
X147438330Y-99619316D01*
X147448697Y-99601360D01*
X147455465Y-99598897D01*
X147460094Y-99593380D01*
X147480514Y-99589780D01*
X147500000Y-99582687D01*
X147543934Y-99582687D01*
X147548814Y-99583547D01*
G37*
G36*
X148535369Y-99534515D02*
G01*
X148538859Y-99533900D01*
X148541927Y-99535672D01*
X148552298Y-99537500D01*
X148568184Y-99550830D01*
X148586140Y-99561197D01*
X148588603Y-99567965D01*
X148594120Y-99572594D01*
X148597720Y-99593014D01*
X148604813Y-99612500D01*
X148604813Y-99862500D01*
X148602985Y-99872869D01*
X148603600Y-99876359D01*
X148601828Y-99879427D01*
X148600000Y-99889798D01*
X148586670Y-99905684D01*
X148576303Y-99923640D01*
X148569535Y-99926103D01*
X148564906Y-99931620D01*
X148544486Y-99935220D01*
X148525000Y-99942313D01*
X148256066Y-99942313D01*
X148251186Y-99941453D01*
X148249110Y-99942009D01*
X148245929Y-99940526D01*
X148228768Y-99937500D01*
X148215420Y-99926299D01*
X148199629Y-99918936D01*
X147993564Y-99712870D01*
X147990723Y-99708812D01*
X147988860Y-99707737D01*
X147987659Y-99704437D01*
X147977664Y-99690164D01*
X147976146Y-99672805D01*
X147970187Y-99656434D01*
X147970187Y-99612500D01*
X147972015Y-99602131D01*
X147971400Y-99598641D01*
X147973172Y-99595573D01*
X147975000Y-99585202D01*
X147988330Y-99569316D01*
X147998697Y-99551360D01*
X148005465Y-99548897D01*
X148010094Y-99543380D01*
X148030514Y-99539780D01*
X148050000Y-99532687D01*
X148525000Y-99532687D01*
X148535369Y-99534515D01*
G37*
G36*
G01*
X147975000Y-99337500D02*
X147975000Y-99137500D01*
G75*
G02*
X148075000Y-99037500I100000J0D01*
G01*
X148500000Y-99037500D01*
G75*
G02*
X148600000Y-99137500I0J-100000D01*
G01*
X148600000Y-99337500D01*
G75*
G02*
X148500000Y-99437500I-100000J0D01*
G01*
X148075000Y-99437500D01*
G75*
G02*
X147975000Y-99337500I0J100000D01*
G01*
G37*
G36*
G01*
X147975000Y-98837500D02*
X147975000Y-98637500D01*
G75*
G02*
X148075000Y-98537500I100000J0D01*
G01*
X148500000Y-98537500D01*
G75*
G02*
X148600000Y-98637500I0J-100000D01*
G01*
X148600000Y-98837500D01*
G75*
G02*
X148500000Y-98937500I-100000J0D01*
G01*
X148075000Y-98937500D01*
G75*
G02*
X147975000Y-98837500I0J100000D01*
G01*
G37*
G36*
X148535369Y-98034515D02*
G01*
X148538859Y-98033900D01*
X148541927Y-98035672D01*
X148552298Y-98037500D01*
X148568184Y-98050830D01*
X148586140Y-98061197D01*
X148588603Y-98067965D01*
X148594120Y-98072594D01*
X148597720Y-98093014D01*
X148604813Y-98112500D01*
X148604813Y-98362500D01*
X148602985Y-98372869D01*
X148603600Y-98376359D01*
X148601828Y-98379427D01*
X148600000Y-98389798D01*
X148586670Y-98405684D01*
X148576303Y-98423640D01*
X148569535Y-98426103D01*
X148564906Y-98431620D01*
X148544486Y-98435220D01*
X148525000Y-98442313D01*
X148050000Y-98442313D01*
X148039631Y-98440485D01*
X148036141Y-98441100D01*
X148033073Y-98439328D01*
X148022702Y-98437500D01*
X148006816Y-98424170D01*
X147988860Y-98413803D01*
X147986397Y-98407035D01*
X147980880Y-98402406D01*
X147977280Y-98381986D01*
X147970187Y-98362500D01*
X147970187Y-98318566D01*
X147971047Y-98313686D01*
X147970491Y-98311610D01*
X147971974Y-98308429D01*
X147975000Y-98291268D01*
X147986201Y-98277919D01*
X147993564Y-98262130D01*
X148199629Y-98056064D01*
X148203688Y-98053222D01*
X148204763Y-98051360D01*
X148208062Y-98050159D01*
X148222335Y-98040165D01*
X148239693Y-98038647D01*
X148256066Y-98032687D01*
X148525000Y-98032687D01*
X148535369Y-98034515D01*
G37*
G36*
X147760369Y-97759515D02*
G01*
X147763859Y-97758900D01*
X147766927Y-97760672D01*
X147777298Y-97762500D01*
X147793184Y-97775830D01*
X147811140Y-97786197D01*
X147813603Y-97792965D01*
X147819120Y-97797594D01*
X147822720Y-97818014D01*
X147829813Y-97837500D01*
X147829813Y-98106434D01*
X147828953Y-98111314D01*
X147829509Y-98113390D01*
X147828026Y-98116571D01*
X147825000Y-98133732D01*
X147813799Y-98147080D01*
X147806436Y-98162871D01*
X147600370Y-98368936D01*
X147596312Y-98371777D01*
X147595237Y-98373640D01*
X147591937Y-98374841D01*
X147577664Y-98384836D01*
X147560305Y-98386354D01*
X147543934Y-98392313D01*
X147500000Y-98392313D01*
X147489631Y-98390485D01*
X147486141Y-98391100D01*
X147483073Y-98389328D01*
X147472702Y-98387500D01*
X147456816Y-98374170D01*
X147438860Y-98363803D01*
X147436397Y-98357035D01*
X147430880Y-98352406D01*
X147427280Y-98331986D01*
X147420187Y-98312500D01*
X147420187Y-97837500D01*
X147422015Y-97827131D01*
X147421400Y-97823641D01*
X147423172Y-97820573D01*
X147425000Y-97810202D01*
X147438330Y-97794316D01*
X147448697Y-97776360D01*
X147455465Y-97773897D01*
X147460094Y-97768380D01*
X147480514Y-97764780D01*
X147500000Y-97757687D01*
X147750000Y-97757687D01*
X147760369Y-97759515D01*
G37*
G36*
G01*
X146925000Y-98287500D02*
X146925000Y-97862500D01*
G75*
G02*
X147025000Y-97762500I100000J0D01*
G01*
X147225000Y-97762500D01*
G75*
G02*
X147325000Y-97862500I0J-100000D01*
G01*
X147325000Y-98287500D01*
G75*
G02*
X147225000Y-98387500I-100000J0D01*
G01*
X147025000Y-98387500D01*
G75*
G02*
X146925000Y-98287500I0J100000D01*
G01*
G37*
G36*
X146760369Y-97759515D02*
G01*
X146763859Y-97758900D01*
X146766927Y-97760672D01*
X146777298Y-97762500D01*
X146793184Y-97775830D01*
X146811140Y-97786197D01*
X146813603Y-97792965D01*
X146819120Y-97797594D01*
X146822720Y-97818014D01*
X146829813Y-97837500D01*
X146829813Y-98312500D01*
X146827985Y-98322869D01*
X146828600Y-98326359D01*
X146826828Y-98329427D01*
X146825000Y-98339798D01*
X146811670Y-98355684D01*
X146801303Y-98373640D01*
X146794535Y-98376103D01*
X146789906Y-98381620D01*
X146769486Y-98385220D01*
X146750000Y-98392313D01*
X146706066Y-98392313D01*
X146701186Y-98391453D01*
X146699110Y-98392009D01*
X146695929Y-98390526D01*
X146678768Y-98387500D01*
X146665420Y-98376299D01*
X146649629Y-98368936D01*
X146443564Y-98162870D01*
X146440723Y-98158812D01*
X146438860Y-98157737D01*
X146437659Y-98154437D01*
X146427664Y-98140164D01*
X146426146Y-98122805D01*
X146420187Y-98106434D01*
X146420187Y-97837500D01*
X146422015Y-97827131D01*
X146421400Y-97823641D01*
X146423172Y-97820573D01*
X146425000Y-97810202D01*
X146438330Y-97794316D01*
X146448697Y-97776360D01*
X146455465Y-97773897D01*
X146460094Y-97768380D01*
X146480514Y-97764780D01*
X146500000Y-97757687D01*
X146750000Y-97757687D01*
X146760369Y-97759515D01*
G37*
%TD*%
%TO.C,R6*%
G36*
G01*
X129357500Y-94375000D02*
X128882500Y-94375000D01*
G75*
G02*
X128645000Y-94137500I0J237500D01*
G01*
X128645000Y-93562500D01*
G75*
G02*
X128882500Y-93325000I237500J0D01*
G01*
X129357500Y-93325000D01*
G75*
G02*
X129595000Y-93562500I0J-237500D01*
G01*
X129595000Y-94137500D01*
G75*
G02*
X129357500Y-94375000I-237500J0D01*
G01*
G37*
G36*
G01*
X129357500Y-92625000D02*
X128882500Y-92625000D01*
G75*
G02*
X128645000Y-92387500I0J237500D01*
G01*
X128645000Y-91812500D01*
G75*
G02*
X128882500Y-91575000I237500J0D01*
G01*
X129357500Y-91575000D01*
G75*
G02*
X129595000Y-91812500I0J-237500D01*
G01*
X129595000Y-92387500D01*
G75*
G02*
X129357500Y-92625000I-237500J0D01*
G01*
G37*
%TD*%
D12*
%TO.C,J1*%
X125050000Y-86960000D03*
D13*
X125050000Y-89500000D03*
X125050000Y-92040000D03*
X125050000Y-94580000D03*
X125050000Y-97120000D03*
X125050000Y-99660000D03*
X125050000Y-102200000D03*
X125050000Y-104740000D03*
X125050000Y-107280000D03*
X125050000Y-109820000D03*
%TD*%
D10*
%TO.C,Q6*%
X133562889Y-101837111D03*
X133562889Y-99937111D03*
X131562889Y-100887111D03*
%TD*%
%TO.C,C9*%
G36*
G01*
X140462500Y-102868750D02*
X140462500Y-102356250D01*
G75*
G02*
X140681250Y-102137500I218750J0D01*
G01*
X141118750Y-102137500D01*
G75*
G02*
X141337500Y-102356250I0J-218750D01*
G01*
X141337500Y-102868750D01*
G75*
G02*
X141118750Y-103087500I-218750J0D01*
G01*
X140681250Y-103087500D01*
G75*
G02*
X140462500Y-102868750I0J218750D01*
G01*
G37*
G36*
G01*
X142037500Y-102868750D02*
X142037500Y-102356250D01*
G75*
G02*
X142256250Y-102137500I218750J0D01*
G01*
X142693750Y-102137500D01*
G75*
G02*
X142912500Y-102356250I0J-218750D01*
G01*
X142912500Y-102868750D01*
G75*
G02*
X142693750Y-103087500I-218750J0D01*
G01*
X142256250Y-103087500D01*
G75*
G02*
X142037500Y-102868750I0J218750D01*
G01*
G37*
%TD*%
%TO.C,Q3*%
X133370000Y-94150000D03*
X133370000Y-92250000D03*
X131370000Y-93200000D03*
%TD*%
%TO.C,C6*%
G36*
G01*
X144787500Y-91212500D02*
X144312500Y-91212500D01*
G75*
G02*
X144075000Y-90975000I0J237500D01*
G01*
X144075000Y-90400000D01*
G75*
G02*
X144312500Y-90162500I237500J0D01*
G01*
X144787500Y-90162500D01*
G75*
G02*
X145025000Y-90400000I0J-237500D01*
G01*
X145025000Y-90975000D01*
G75*
G02*
X144787500Y-91212500I-237500J0D01*
G01*
G37*
G36*
G01*
X144787500Y-89462500D02*
X144312500Y-89462500D01*
G75*
G02*
X144075000Y-89225000I0J237500D01*
G01*
X144075000Y-88650000D01*
G75*
G02*
X144312500Y-88412500I237500J0D01*
G01*
X144787500Y-88412500D01*
G75*
G02*
X145025000Y-88650000I0J-237500D01*
G01*
X145025000Y-89225000D01*
G75*
G02*
X144787500Y-89462500I-237500J0D01*
G01*
G37*
%TD*%
%TO.C,R12*%
G36*
G01*
X129000389Y-99487111D02*
X129475389Y-99487111D01*
G75*
G02*
X129712889Y-99724611I0J-237500D01*
G01*
X129712889Y-100299611D01*
G75*
G02*
X129475389Y-100537111I-237500J0D01*
G01*
X129000389Y-100537111D01*
G75*
G02*
X128762889Y-100299611I0J237500D01*
G01*
X128762889Y-99724611D01*
G75*
G02*
X129000389Y-99487111I237500J0D01*
G01*
G37*
G36*
G01*
X129000389Y-101237111D02*
X129475389Y-101237111D01*
G75*
G02*
X129712889Y-101474611I0J-237500D01*
G01*
X129712889Y-102049611D01*
G75*
G02*
X129475389Y-102287111I-237500J0D01*
G01*
X129000389Y-102287111D01*
G75*
G02*
X128762889Y-102049611I0J237500D01*
G01*
X128762889Y-101474611D01*
G75*
G02*
X129000389Y-101237111I237500J0D01*
G01*
G37*
%TD*%
%TO.C,R4*%
G36*
G01*
X135532500Y-94425000D02*
X135057500Y-94425000D01*
G75*
G02*
X134820000Y-94187500I0J237500D01*
G01*
X134820000Y-93612500D01*
G75*
G02*
X135057500Y-93375000I237500J0D01*
G01*
X135532500Y-93375000D01*
G75*
G02*
X135770000Y-93612500I0J-237500D01*
G01*
X135770000Y-94187500D01*
G75*
G02*
X135532500Y-94425000I-237500J0D01*
G01*
G37*
G36*
G01*
X135532500Y-92675000D02*
X135057500Y-92675000D01*
G75*
G02*
X134820000Y-92437500I0J237500D01*
G01*
X134820000Y-91862500D01*
G75*
G02*
X135057500Y-91625000I237500J0D01*
G01*
X135532500Y-91625000D01*
G75*
G02*
X135770000Y-91862500I0J-237500D01*
G01*
X135770000Y-92437500D01*
G75*
G02*
X135532500Y-92675000I-237500J0D01*
G01*
G37*
%TD*%
%TO.C,C2*%
G36*
G01*
X138831250Y-100750000D02*
X138318750Y-100750000D01*
G75*
G02*
X138100000Y-100531250I0J218750D01*
G01*
X138100000Y-100093750D01*
G75*
G02*
X138318750Y-99875000I218750J0D01*
G01*
X138831250Y-99875000D01*
G75*
G02*
X139050000Y-100093750I0J-218750D01*
G01*
X139050000Y-100531250D01*
G75*
G02*
X138831250Y-100750000I-218750J0D01*
G01*
G37*
G36*
G01*
X138831250Y-99175000D02*
X138318750Y-99175000D01*
G75*
G02*
X138100000Y-98956250I0J218750D01*
G01*
X138100000Y-98518750D01*
G75*
G02*
X138318750Y-98300000I218750J0D01*
G01*
X138831250Y-98300000D01*
G75*
G02*
X139050000Y-98518750I0J-218750D01*
G01*
X139050000Y-98956250D01*
G75*
G02*
X138831250Y-99175000I-218750J0D01*
G01*
G37*
%TD*%
%TO.C,R11*%
G36*
G01*
X135525389Y-102387111D02*
X135050389Y-102387111D01*
G75*
G02*
X134812889Y-102149611I0J237500D01*
G01*
X134812889Y-101574611D01*
G75*
G02*
X135050389Y-101337111I237500J0D01*
G01*
X135525389Y-101337111D01*
G75*
G02*
X135762889Y-101574611I0J-237500D01*
G01*
X135762889Y-102149611D01*
G75*
G02*
X135525389Y-102387111I-237500J0D01*
G01*
G37*
G36*
G01*
X135525389Y-100637111D02*
X135050389Y-100637111D01*
G75*
G02*
X134812889Y-100399611I0J237500D01*
G01*
X134812889Y-99824611D01*
G75*
G02*
X135050389Y-99587111I237500J0D01*
G01*
X135525389Y-99587111D01*
G75*
G02*
X135762889Y-99824611I0J-237500D01*
G01*
X135762889Y-100399611D01*
G75*
G02*
X135525389Y-100637111I-237500J0D01*
G01*
G37*
%TD*%
%TO.C,R14*%
G36*
G01*
X129162500Y-90480000D02*
X128687500Y-90480000D01*
G75*
G02*
X128450000Y-90242500I0J237500D01*
G01*
X128450000Y-89667500D01*
G75*
G02*
X128687500Y-89430000I237500J0D01*
G01*
X129162500Y-89430000D01*
G75*
G02*
X129400000Y-89667500I0J-237500D01*
G01*
X129400000Y-90242500D01*
G75*
G02*
X129162500Y-90480000I-237500J0D01*
G01*
G37*
G36*
G01*
X129162500Y-88730000D02*
X128687500Y-88730000D01*
G75*
G02*
X128450000Y-88492500I0J237500D01*
G01*
X128450000Y-87917500D01*
G75*
G02*
X128687500Y-87680000I237500J0D01*
G01*
X129162500Y-87680000D01*
G75*
G02*
X129400000Y-87917500I0J-237500D01*
G01*
X129400000Y-88492500D01*
G75*
G02*
X129162500Y-88730000I-237500J0D01*
G01*
G37*
%TD*%
%TO.C,C13*%
G36*
G01*
X128537500Y-108125000D02*
X129012500Y-108125000D01*
G75*
G02*
X129250000Y-108362500I0J-237500D01*
G01*
X129250000Y-108937500D01*
G75*
G02*
X129012500Y-109175000I-237500J0D01*
G01*
X128537500Y-109175000D01*
G75*
G02*
X128300000Y-108937500I0J237500D01*
G01*
X128300000Y-108362500D01*
G75*
G02*
X128537500Y-108125000I237500J0D01*
G01*
G37*
G36*
G01*
X128537500Y-109875000D02*
X129012500Y-109875000D01*
G75*
G02*
X129250000Y-110112500I0J-237500D01*
G01*
X129250000Y-110687500D01*
G75*
G02*
X129012500Y-110925000I-237500J0D01*
G01*
X128537500Y-110925000D01*
G75*
G02*
X128300000Y-110687500I0J237500D01*
G01*
X128300000Y-110112500D01*
G75*
G02*
X128537500Y-109875000I237500J0D01*
G01*
G37*
%TD*%
%TO.C,C1*%
G36*
G01*
X138306250Y-91562500D02*
X137793750Y-91562500D01*
G75*
G02*
X137575000Y-91343750I0J218750D01*
G01*
X137575000Y-90906250D01*
G75*
G02*
X137793750Y-90687500I218750J0D01*
G01*
X138306250Y-90687500D01*
G75*
G02*
X138525000Y-90906250I0J-218750D01*
G01*
X138525000Y-91343750D01*
G75*
G02*
X138306250Y-91562500I-218750J0D01*
G01*
G37*
G36*
G01*
X138306250Y-89987500D02*
X137793750Y-89987500D01*
G75*
G02*
X137575000Y-89768750I0J218750D01*
G01*
X137575000Y-89331250D01*
G75*
G02*
X137793750Y-89112500I218750J0D01*
G01*
X138306250Y-89112500D01*
G75*
G02*
X138525000Y-89331250I0J-218750D01*
G01*
X138525000Y-89768750D01*
G75*
G02*
X138306250Y-89987500I-218750J0D01*
G01*
G37*
%TD*%
%TO.C,C4*%
G36*
G01*
X146950000Y-91612500D02*
X146950000Y-91137500D01*
G75*
G02*
X147187500Y-90900000I237500J0D01*
G01*
X147762500Y-90900000D01*
G75*
G02*
X148000000Y-91137500I0J-237500D01*
G01*
X148000000Y-91612500D01*
G75*
G02*
X147762500Y-91850000I-237500J0D01*
G01*
X147187500Y-91850000D01*
G75*
G02*
X146950000Y-91612500I0J237500D01*
G01*
G37*
G36*
G01*
X148700000Y-91612500D02*
X148700000Y-91137500D01*
G75*
G02*
X148937500Y-90900000I237500J0D01*
G01*
X149512500Y-90900000D01*
G75*
G02*
X149750000Y-91137500I0J-237500D01*
G01*
X149750000Y-91612500D01*
G75*
G02*
X149512500Y-91850000I-237500J0D01*
G01*
X148937500Y-91850000D01*
G75*
G02*
X148700000Y-91612500I0J237500D01*
G01*
G37*
%TD*%
%TO.C,R10*%
G36*
G01*
X129191299Y-103748799D02*
X129666299Y-103748799D01*
G75*
G02*
X129903799Y-103986299I0J-237500D01*
G01*
X129903799Y-104561299D01*
G75*
G02*
X129666299Y-104798799I-237500J0D01*
G01*
X129191299Y-104798799D01*
G75*
G02*
X128953799Y-104561299I0J237500D01*
G01*
X128953799Y-103986299D01*
G75*
G02*
X129191299Y-103748799I237500J0D01*
G01*
G37*
G36*
G01*
X129191299Y-105498799D02*
X129666299Y-105498799D01*
G75*
G02*
X129903799Y-105736299I0J-237500D01*
G01*
X129903799Y-106311299D01*
G75*
G02*
X129666299Y-106548799I-237500J0D01*
G01*
X129191299Y-106548799D01*
G75*
G02*
X128953799Y-106311299I0J237500D01*
G01*
X128953799Y-105736299D01*
G75*
G02*
X129191299Y-105498799I237500J0D01*
G01*
G37*
%TD*%
%TO.C,R8*%
G36*
G01*
X135591299Y-106448799D02*
X135116299Y-106448799D01*
G75*
G02*
X134878799Y-106211299I0J237500D01*
G01*
X134878799Y-105636299D01*
G75*
G02*
X135116299Y-105398799I237500J0D01*
G01*
X135591299Y-105398799D01*
G75*
G02*
X135828799Y-105636299I0J-237500D01*
G01*
X135828799Y-106211299D01*
G75*
G02*
X135591299Y-106448799I-237500J0D01*
G01*
G37*
G36*
G01*
X135591299Y-104698799D02*
X135116299Y-104698799D01*
G75*
G02*
X134878799Y-104461299I0J237500D01*
G01*
X134878799Y-103886299D01*
G75*
G02*
X135116299Y-103648799I237500J0D01*
G01*
X135591299Y-103648799D01*
G75*
G02*
X135828799Y-103886299I0J-237500D01*
G01*
X135828799Y-104461299D01*
G75*
G02*
X135591299Y-104698799I-237500J0D01*
G01*
G37*
%TD*%
M02*
