M48
; DRILL file {KiCad (5.99.0-3293-g62433736b)} date 09/21/20 11:37:03
; FORMAT={-:-/ absolute / metric / decimal}
; #@! TF.CreationDate,2020-09-21T11:37:03+07:00
; #@! TF.GenerationSoftware,Kicad,Pcbnew,(5.99.0-3293-g62433736b)
; #@! TF.FileFunction,Plated,1,4,PTH
FMAT,2
METRIC
T1C0.400
T2C1.000
T3C3.000
%
G90
G05
T1
X128.8Y-110.475
X129.025Y-89.955
X129.12Y-93.9
X129.25Y-96.3
X129.388Y-100.012
X129.529Y-104.274
X134.95Y-110.65
X135.142Y-96.307
X135.225Y-90.03
X135.227Y-98.032
X135.295Y-92.15
X135.313Y-101.837
X135.325Y-100.05
X135.345Y-94.0
X135.379Y-105.999
X137.025Y-100.05
X137.45Y-96.125
X137.611Y-105.139
X138.05Y-91.237
X138.1Y-89.513
X138.25Y-110.5
X138.325Y-108.775
X138.6Y-98.725
X138.875Y-97.087
X139.15Y-102.637
X139.162Y-95.488
X140.2Y-104.462
X140.35Y-94.525
X140.75Y-96.212
X141.925Y-95.962
X142.475Y-102.612
X143.162Y-92.962
X144.5Y-108.775
X144.55Y-90.688
X144.9Y-100.975
X145.275Y-96.825
X146.4Y-93.225
X146.556Y-101.631
X146.662Y-102.862
X146.762Y-97.037
X146.825Y-104.6
X147.875Y-96.725
X148.188Y-95.362
X148.9Y-94.55
X149.95Y-96.875
X150.1Y-98.125
X150.4Y-103.625
X150.425Y-105.225
T2
X125.05Y-86.96
X125.05Y-89.5
X125.05Y-92.04
X125.05Y-94.58
X125.05Y-97.12
X125.05Y-99.66
X125.05Y-102.2
X125.05Y-104.74
X125.05Y-107.28
X125.05Y-109.82
T3
X149.25Y-87.75
X149.25Y-109.0
T0
M30
